<?xml version="1.0" standalone="no"?>
<!DOCTYPE svg PUBLIC "-//W3C//DTD SVG 20010904//EN"
 "http://www.w3.org/TR/2001/REC-SVG-20010904/DTD/svg10.dtd">
<svg version="1.0" xmlns="http://www.w3.org/2000/svg"
 width="232.000000pt" height="232.000000pt" viewBox="0 0 232.000000 232.000000"
 preserveAspectRatio="xMidYMid meet">
<metadata>
Created by potrace 1.11, written by Peter Selinger 2001-2013
</metadata>
<g transform="translate(0.000000,232.000000) scale(0.100000,-0.100000)"
fill="#000000" stroke="none">
<path d="M751 1972 c-35 -87 -72 -175 -81 -197 -29 -66 -159 -381 -217 -525
-30 -74 -63 -154 -74 -177 -10 -24 -19 -45 -19 -47 0 -2 -8 -21 -17 -42 -9
-22 -17 -42 -17 -45 -1 -3 -12 -30 -25 -60 -13 -30 -27 -63 -31 -74 -5 -11
-15 -36 -23 -55 -28 -64 -217 -528 -217 -532 0 -2 127 -3 282 -3 l281 0 48
120 c26 66 50 128 52 138 5 16 34 17 439 17 l434 0 18 -58 c10 -31 31 -93 47
-137 l29 -80 315 0 c206 0 315 3 315 10 0 5 -33 89 -74 185 -124 294 -383 912
-478 1140 -49 118 -95 229 -103 245 -7 17 -25 59 -40 95 -14 36 -34 83 -44
105 -10 22 -26 61 -36 87 l-17 46 -342 0 -341 0 -64 -156z m447 -377 c22 -71
84 -267 137 -433 53 -167 95 -306 92 -308 -2 -2 -137 -3 -299 -2 l-294 3 154
425 c84 234 155 431 158 439 2 8 6 12 8 10 2 -2 22 -62 44 -134z"/>
</g>
</svg>
