<?xml version="1.0" standalone="no"?>
<!DOCTYPE svg PUBLIC "-//W3C//DTD SVG 20010904//EN"
 "http://www.w3.org/TR/2001/REC-SVG-20010904/DTD/svg10.dtd">
<svg version="1.0" xmlns="http://www.w3.org/2000/svg"
 width="560.000000pt" height="560.000000pt" viewBox="0 0 560.000000 560.000000"
 preserveAspectRatio="xMidYMid meet">
<metadata>
Created by potrace 1.11, written by Peter Selinger 2001-2013
</metadata>
<g transform="translate(0.000000,560.000000) scale(0.100000,-0.100000)"
fill="#000000" stroke="none">
<path d="M3848 5592 c-31 -4 -29 6 -32 -157 -1 -101 7 -133 38 -137 20 -3 21
-9 21 -106 1 -102 -3 -114 -35 -118 -48 -5 -105 -17 -140 -29 -22 -8 -40 -12
-40 -10 0 3 -30 -7 -67 -21 -38 -14 -69 -25 -71 -24 -9 2 -142 -65 -142 -72 0
-5 -4 -7 -8 -4 -5 3 -39 -15 -77 -40 -72 -46 -85 -51 -85 -34 0 10 -11 25 -67
89 -20 22 -28 40 -22 46 16 16 10 47 -13 66 -11 11 -18 19 -14 19 4 0 -9 16
-28 35 -20 19 -38 35 -41 35 -7 0 -72 -48 -95 -70 -9 -8 -33 -28 -54 -45 -82
-64 -95 -79 -86 -100 4 -11 27 -41 51 -67 35 -37 49 -45 69 -42 20 4 30 -2 47
-28 13 -18 36 -48 51 -66 25 -29 28 -37 18 -57 -6 -13 -12 -22 -15 -20 -2 2
-19 -15 -38 -38 -19 -23 -43 -52 -54 -65 -10 -12 -19 -26 -19 -30 0 -5 -8 -17
-18 -28 -21 -23 -52 -71 -53 -81 0 -5 -6 -15 -12 -23 -21 -26 -48 -80 -41 -80
4 0 -1 -9 -10 -19 -10 -11 -18 -25 -20 -33 -1 -7 -4 -17 -7 -23 -8 -12 -50
-140 -54 -163 -2 -9 -4 -17 -5 -17 -2 0 -5 -16 -14 -60 -3 -16 -8 -41 -11 -55
-3 -14 -8 -44 -10 -68 -3 -23 -6 -46 -6 -50 -5 -28 4 -32 76 -32 53 0 75 4 76
13 6 83 11 109 53 277 5 20 51 133 73 181 12 23 24 37 36 36 9 -1 17 -4 17 -8
0 -7 30 -20 57 -25 29 -5 18 26 -18 50 -21 15 -39 29 -39 32 0 12 44 84 51 84
4 0 11 9 14 21 10 31 201 219 278 274 56 39 71 45 78 34 5 -8 17 -26 26 -41
17 -27 33 -35 46 -22 7 7 -12 64 -22 64 -4 0 -7 9 -8 20 -1 15 13 28 58 50 32
17 61 30 64 30 3 0 22 7 43 16 20 8 44 17 52 20 8 2 33 8 55 14 87 23 118 29
195 37 112 11 105 13 106 -36 2 -41 20 -69 36 -53 4 4 8 27 10 52 l3 45 54 -2
c59 -1 168 -15 216 -26 53 -13 191 -60 203 -69 6 -6 12 -7 12 -3 0 4 6 2 13
-4 8 -6 17 -8 20 -4 4 3 7 2 7 -4 0 -6 13 -16 30 -23 25 -10 28 -15 19 -31 -5
-11 -6 -19 -2 -19 4 0 3 -4 -4 -8 -6 -4 -14 -19 -18 -32 -5 -21 -2 -26 14 -27
12 -1 21 4 21 12 0 8 10 25 23 39 l22 26 50 -32 c28 -18 55 -37 62 -43 6 -5
28 -23 48 -40 70 -58 139 -131 202 -214 35 -46 63 -87 63 -91 0 -4 -18 -19
-41 -34 -39 -26 -48 -50 -18 -52 8 0 26 8 41 18 14 10 31 18 37 18 9 0 60 -86
67 -115 2 -5 14 -41 28 -80 28 -81 44 -137 51 -180 9 -50 18 -138 19 -175 1
-35 0 -35 -42 -36 -81 -2 -83 -40 -2 -46 44 -3 45 -4 44 -38 -1 -59 -13 -148
-29 -217 -18 -78 -63 -213 -77 -230 -6 -7 -7 -13 -4 -13 4 0 -2 -13 -13 -29
-12 -16 -21 -34 -21 -39 0 -18 -20 -24 -35 -12 -8 7 -15 9 -15 6 0 -4 -7 0
-16 9 -9 9 -23 15 -32 13 -29 -6 -23 -26 15 -49 21 -12 39 -24 41 -25 7 -5
-39 -84 -49 -84 -6 0 -8 -4 -5 -8 3 -5 -4 -15 -15 -22 -10 -8 -19 -19 -19 -25
-1 -5 -20 -30 -44 -54 l-44 -44 14 -39 c7 -21 17 -44 21 -51 4 -7 8 -16 8 -22
1 -5 5 -18 9 -27 7 -14 14 -11 49 25 97 97 200 237 252 342 11 22 24 43 28 46
4 3 9 16 10 27 1 12 5 22 9 22 4 0 8 9 8 20 0 11 5 20 12 20 6 0 9 3 5 6 -3 4
1 23 9 43 17 41 54 173 60 211 1 14 6 50 10 80 10 73 10 299 0 375 -4 33 -14
87 -23 120 -8 33 -16 67 -18 75 -7 34 -51 145 -58 148 -4 2 -4 9 -1 14 4 6 -1
17 -10 24 -10 7 -17 15 -16 18 3 11 -19 59 -45 101 -14 22 -28 47 -32 55 -11
25 -125 172 -164 212 l-37 38 55 70 c37 47 59 68 66 62 25 -18 41 -7 104 75
35 46 34 47 -142 187 -38 31 -73 56 -77 56 -9 0 -29 -21 -74 -76 -33 -40 -36
-48 -25 -66 13 -22 16 -17 -52 -100 -38 -46 -52 -50 -82 -26 -30 25 -88 58
-100 58 -8 0 -15 5 -15 10 0 6 -4 10 -10 10 -5 0 -33 11 -62 24 -65 29 -90 39
-103 41 -5 1 -23 8 -40 14 -16 7 -37 14 -45 16 -8 2 -15 4 -15 5 0 1 -8 3 -19
5 -10 2 -39 9 -65 15 -45 10 -84 16 -126 19 -19 1 -20 7 -18 108 2 58 5 108 7
110 2 2 13 5 24 6 13 1 23 10 27 25 10 41 4 252 -8 259 -11 6 -339 11 -389 5z"/>
<path d="M4009 4499 c0 -41 -2 -92 -4 -114 -2 -22 -6 -107 -10 -190 -4 -82 -9
-168 -10 -190 -2 -22 -6 -96 -10 -165 -3 -69 -8 -137 -9 -152 -2 -16 4 -35 16
-47 16 -18 28 -20 86 -16 59 4 187 11 362 20 30 1 114 6 185 9 149 7 248 16
254 22 2 2 -16 4 -40 5 -24 0 -73 2 -109 4 -36 2 -110 6 -165 9 -127 6 -317
17 -375 21 -25 2 -61 4 -80 4 -33 1 -35 3 -36 34 -1 17 -4 84 -8 147 -4 63 -9
151 -11 195 -22 413 -25 469 -31 474 -2 2 -4 -29 -5 -70z"/>
<path d="M1711 3674 c-42 -18 -53 -36 -68 -115 -5 -25 -3 -25 44 -24 93 2 143
-27 169 -100 13 -36 12 -51 -10 -97 -26 -53 -67 -72 -166 -74 -108 -2 -114 -3
-108 -9 3 -3 -3 -39 -12 -80 -12 -52 -14 -75 -6 -76 6 -1 90 -2 186 -3 167 -2
178 -3 209 -25 70 -50 78 -147 17 -207 -32 -31 -52 -33 -280 -34 -114 -1 -206
-4 -203 -6 3 -3 -2 -29 -9 -57 -8 -29 -17 -68 -19 -87 -3 -19 -11 -61 -18 -92
l-14 -58 1039 0 c866 0 1039 2 1044 14 3 7 7 26 9 42 2 16 4 29 5 29 1 0 3 11
6 25 2 14 11 57 20 95 9 39 18 79 20 90 2 11 9 45 15 75 7 30 13 65 14 77 2
12 6 27 10 32 3 6 8 25 10 43 2 18 6 42 9 53 5 18 51 231 61 280 2 11 4 20 5
20 1 0 3 9 5 20 3 22 12 66 20 105 4 14 8 39 11 55 3 17 7 36 9 43 5 14 -28
52 -47 53 -7 0 -199 2 -426 2 -323 2 -412 -1 -413 -10 -3 -31 -7 -53 -9 -55
-2 -3 -6 -20 -14 -62 -24 -128 -33 -164 -52 -224 -2 -9 -25 6 -61 42 -40 39
-63 54 -75 50 -25 -8 -23 13 3 26 17 10 26 6 62 -26 23 -21 44 -41 45 -46 2
-4 8 -8 13 -8 6 0 8 4 5 8 -3 5 1 36 9 69 19 80 25 111 32 153 3 19 9 43 14
52 14 27 -6 32 -128 32 -114 1 -114 1 -119 -24 -3 -14 -8 -32 -11 -40 -2 -8
-7 -28 -9 -45 -6 -35 -9 -54 -23 -115 -22 -96 -22 -91 -1 -80 44 23 41 -3 -2
-30 -54 -32 -54 -32 -33 70 13 65 17 86 21 105 4 28 10 54 24 104 6 23 9 46 5
49 -11 11 -806 8 -834 -4z"/>
<path d="M726 3475 c-56 -18 -72 -85 -32 -132 l24 -28 504 -1 c292 -1 516 2
535 7 43 14 67 63 51 107 -22 57 -16 56 -555 57 -305 0 -508 -4 -527 -10z"/>
<path d="M3847 3257 c-27 -9 -44 -36 -53 -87 -17 -93 -19 -106 -38 -191 -8
-36 -17 -78 -20 -93 -3 -14 -7 -34 -10 -44 -3 -9 -7 -28 -10 -42 -2 -14 -14
-68 -25 -120 -11 -52 -23 -108 -26 -125 -2 -16 -9 -45 -15 -64 -5 -19 -8 -37
-5 -39 2 -3 0 -12 -4 -21 -5 -9 -12 -32 -15 -51 -8 -47 -14 -78 -20 -98 -3 -9
-8 -30 -11 -47 -2 -16 -7 -41 -10 -55 -11 -47 -17 -75 -20 -95 -2 -11 -15 -74
-29 -139 -15 -66 -24 -122 -21 -124 6 -6 534 -7 538 -1 2 2 12 26 22 53 10 27
31 69 48 94 37 54 125 142 144 142 7 0 13 3 13 8 0 7 69 42 125 62 135 50 312
16 400 -77 56 -58 79 -116 81 -203 2 -41 3 -77 3 -80 1 -3 69 -4 153 -3 142 1
153 3 168 23 8 11 17 32 18 46 1 14 9 52 17 84 8 32 15 62 15 68 0 9 -36 25
-51 24 -7 -1 -48 40 -48 48 0 7 -11 41 -22 65 -19 43 -51 130 -49 135 5 17 51
26 114 23 l71 -3 -80 41 c-44 22 -84 41 -90 43 -5 1 -48 20 -95 43 -83 41 -85
42 -104 95 -10 29 -29 76 -42 105 -13 28 -24 55 -24 58 0 3 -11 30 -24 58 -13
29 -29 69 -35 89 -7 21 -17 40 -22 44 -5 3 -7 10 -4 15 4 5 1 9 -5 9 -6 0 -8
5 -5 10 4 6 3 16 -3 23 -5 7 -19 39 -32 72 -13 33 -26 65 -30 70 -4 6 -11 21
-15 35 -13 45 -45 109 -57 117 -17 10 -730 11 -761 0z"/>
<path d="M1059 3028 c-16 -10 -29 -23 -30 -30 0 -7 -2 -20 -4 -29 -5 -28 25
-77 53 -86 15 -5 207 -8 428 -8 389 1 402 2 423 22 35 32 38 84 8 119 l-25 29
-412 1 c-378 0 -414 -1 -441 -18z"/>
<path d="M204 2600 c-54 -21 -64 -98 -19 -137 29 -26 -8 -24 462 -24 193 0
288 3 303 11 12 6 27 26 35 43 17 40 4 77 -34 100 -26 15 -67 17 -378 16 -191
0 -357 -4 -369 -9z"/>
<path d="M1323 2468 c-22 -11 -30 -25 -39 -70 -2 -13 -12 -58 -23 -100 l-18
-78 36 -1 c20 -1 52 -1 71 -1 72 2 117 -21 146 -74 18 -31 11 -106 -11 -135
-36 -47 -64 -56 -181 -58 -60 -1 -112 -5 -115 -9 -12 -12 -26 -100 -19 -112 6
-9 258 -16 411 -11 22 1 28 8 38 44 16 55 90 165 137 202 21 17 42 35 48 40
23 21 113 64 169 80 56 16 167 22 215 11 45 -10 127 -54 163 -87 56 -53 82
-120 83 -211 1 -71 3 -78 21 -79 137 -6 988 0 994 7 7 8 30 103 47 204 3 14 7
33 10 42 3 9 7 26 9 37 3 12 7 31 10 44 3 12 7 36 10 52 2 17 9 45 14 64 6 19
9 37 6 39 -3 3 0 11 6 19 6 7 9 13 7 13 -3 0 1 26 8 58 8 31 14 63 14 70 0 16
-2232 17 -2267 0z"/>
<path d="M5126 2303 c-6 -6 16 -69 43 -121 12 -23 19 -42 16 -42 -15 0 19 -40
45 -53 34 -18 35 -17 51 49 17 77 23 107 23 138 l1 29 -87 2 c-48 1 -89 0 -92
-2z"/>
<path d="M517 2144 c-47 -47 -27 -126 34 -139 17 -4 214 -7 439 -7 361 0 411
2 433 17 45 29 47 110 2 139 -20 13 -84 15 -452 16 l-430 0 -26 -26z"/>
<path d="M2030 2149 c-67 -13 -81 -18 -137 -45 -58 -27 -199 -157 -188 -174 3
-5 1 -11 -5 -15 -36 -22 -60 -181 -37 -246 17 -47 52 -101 78 -119 12 -8 27
-20 34 -27 35 -34 171 -54 250 -37 17 3 35 7 41 8 6 1 41 16 77 34 68 34 182
135 172 153 -4 5 -2 9 3 9 5 0 22 25 36 56 36 76 42 181 13 239 -11 22 -25 43
-31 47 -6 5 -7 8 -1 8 15 0 -55 60 -95 80 -60 30 -145 42 -210 29z"/>
<path d="M4497 2154 c-1 -1 -19 -5 -40 -8 -21 -3 -53 -14 -70 -23 -18 -9 -37
-18 -44 -19 -16 -3 -70 -40 -106 -73 -33 -30 -98 -115 -101 -134 -2 -6 -9 -25
-16 -42 -23 -54 -21 -154 4 -210 34 -75 102 -136 169 -151 42 -10 79 -16 106
-17 34 -2 150 23 157 34 3 5 14 9 25 9 10 0 19 5 19 10 0 6 5 10 11 10 14 0
78 48 112 85 34 35 90 115 82 115 -3 0 1 14 10 30 24 47 26 160 4 209 -10 23
-19 45 -20 49 -8 26 -101 94 -152 112 -33 10 -143 21 -150 14z"/>
<path d="M2568 1414 c-13 -12 5 -70 27 -93 20 -21 35 -25 91 -27 92 -4 153 32
169 99 7 26 6 27 -34 27 -32 0 -44 -5 -57 -25 -9 -13 -24 -27 -34 -30 -32 -10
-70 5 -76 31 -5 20 -12 24 -43 24 -21 0 -40 -3 -43 -6z"/>
<path d="M1839 1178 c-23 -40 -56 -99 -75 -131 -19 -32 -34 -61 -34 -63 0 -3
-16 -30 -35 -60 -19 -30 -35 -56 -35 -58 0 -2 -34 -63 -75 -135 -41 -71 -75
-133 -75 -136 0 -3 38 -5 84 -5 83 0 84 0 96 30 7 16 25 50 41 75 l29 45 115
0 c103 0 115 -2 116 -17 0 -10 3 -27 5 -38 3 -11 7 -37 11 -57 l6 -38 84 0 84
0 -5 33 c-3 17 -17 84 -32 147 -26 116 -43 190 -84 378 l-23 102 -78 0 -78 0
-42 -72z m102 -230 l15 -83 -33 -3 c-18 -2 -48 -2 -67 0 l-33 3 46 82 c25 46
49 83 52 83 3 0 13 -37 20 -82z"/>
<path d="M2409 1233 c0 -10 -2 -25 -4 -33 -3 -15 -5 -25 -25 -140 -6 -30 -12
-66 -15 -80 -3 -14 -8 -41 -11 -60 -4 -33 -7 -48 -19 -110 -7 -33 -35 -208
-35 -215 0 -3 35 -5 78 -5 l77 0 45 58 c25 31 50 64 57 72 7 8 51 65 99 125
47 61 89 112 91 115 6 6 1 -29 -22 -155 -9 -49 -18 -103 -21 -120 -2 -16 -7
-45 -10 -62 l-6 -33 76 0 c42 0 76 3 76 8 0 4 9 59 20 122 11 63 23 130 26
149 3 18 8 43 10 55 2 11 7 35 9 51 3 17 14 80 25 142 11 62 20 117 20 123 0
16 -157 13 -167 -4 -4 -7 -20 -29 -35 -47 -15 -19 -70 -90 -124 -159 -53 -69
-104 -134 -114 -144 -18 -18 -18 -18 -9 25 6 24 12 55 14 69 2 14 7 39 10 55
3 17 7 44 10 60 3 17 7 41 10 55 3 14 8 42 11 63 l7 37 -77 0 c-65 0 -76 -2
-77 -17z"/>
<path d="M3179 1243 c0 -5 -2 -16 -4 -25 -2 -9 -6 -36 -9 -60 -15 -105 -69
-298 -104 -368 -30 -60 -42 -76 -62 -78 -33 -5 -37 -10 -44 -57 -10 -63 -26
-158 -31 -183 -5 -21 -3 -22 65 -22 55 0 70 3 71 15 1 8 2 18 3 23 2 4 6 28
10 55 l8 47 189 0 189 0 -6 -32 c-3 -18 -10 -47 -14 -65 -4 -17 -5 -34 -2 -37
5 -6 132 -9 132 -3 1 1 11 57 24 125 12 67 20 124 18 127 -3 3 -16 5 -29 5
-19 0 -22 4 -18 23 2 12 14 76 25 142 11 66 22 131 25 145 3 14 8 43 11 65 3
22 10 58 15 80 5 22 9 50 9 63 l0 22 -235 0 c-129 0 -235 -3 -236 -7z m284
-190 c-7 -43 -20 -112 -28 -153 -8 -41 -17 -93 -20 -115 -12 -79 -5 -75 -120
-75 l-104 0 23 53 c33 73 54 148 82 285 l17 82 82 0 82 0 -14 -77z"/>
<path d="M4012 1218 c-39 -65 -352 -619 -352 -623 0 -3 37 -5 83 -5 l82 0 40
75 40 75 112 0 c61 0 114 -4 117 -9 3 -4 11 -38 18 -75 l13 -66 83 0 83 0 -5
33 c-11 63 -17 93 -37 172 -19 81 -26 109 -35 155 -3 14 -10 43 -16 65 -5 22
-12 49 -14 60 -2 11 -11 55 -20 98 l-17 77 -78 0 c-77 0 -78 0 -97 -32z m65
-190 c0 -7 3 -26 7 -43 15 -79 18 -91 22 -107 5 -16 -3 -18 -66 -18 l-71 0 26
45 c14 25 36 65 50 90 28 48 31 52 32 33z"/>
<path d="M4560 1245 c0 -3 -18 -105 -40 -227 -22 -123 -43 -236 -45 -253 -3
-16 -10 -54 -15 -84 -17 -95 -20 -91 64 -91 81 0 79 -2 90 70 3 19 8 45 10 56
2 12 7 39 11 60 4 22 8 46 10 54 2 8 4 21 4 28 1 9 31 12 115 12 l113 0 -13
-72 c-7 -40 -15 -86 -18 -103 -3 -16 -8 -47 -11 -67 l-6 -38 80 0 c58 0 81 4
82 13 1 23 7 63 27 172 18 94 61 338 79 443 l5 32 -80 0 -79 0 -8 -52 c-5 -29
-9 -55 -10 -58 -1 -3 -5 -30 -10 -60 -5 -30 -10 -58 -11 -62 -1 -5 -2 -12 -3
-18 -1 -6 -47 -10 -116 -10 -87 0 -113 3 -110 13 2 6 6 28 9 47 3 19 7 44 10
55 2 11 7 40 11 65 4 25 9 53 11 63 2 15 -6 17 -77 17 -43 0 -79 -2 -79 -5z"/>
<path d="M2264 387 c-58 -22 -114 -83 -99 -107 10 -17 34 -11 45 11 28 51 113
74 169 44 30 -15 40 -32 46 -77 l4 -28 -73 0 c-71 0 -74 -1 -78 -25 -5 -25 -5
-25 68 -25 l72 0 -16 -41 c-42 -107 -190 -135 -224 -42 -10 27 -16 32 -33 27
-28 -9 -28 -9 -16 -46 23 -66 34 -73 124 -76 78 -4 84 -2 123 26 53 39 94 120
99 195 8 130 -93 209 -211 164z"/>
<path d="M2972 380 c-101 -45 -160 -191 -122 -304 19 -58 51 -76 135 -76 63 0
77 3 111 29 21 15 47 42 57 60 18 31 18 31 -5 40 -19 7 -26 4 -40 -20 -36 -58
-122 -86 -171 -55 -85 56 -45 246 61 287 59 23 121 0 137 -51 12 -39 60 -18
50 23 -19 76 -121 108 -213 67z"/>
<path d="M4480 384 c-83 -35 -135 -121 -139 -228 -4 -115 33 -156 142 -156 82
0 117 16 157 72 36 49 37 56 8 60 -16 2 -28 -5 -40 -25 -46 -71 -148 -88 -196
-31 -22 25 -24 34 -19 91 11 111 60 172 146 181 40 4 50 1 71 -21 14 -14 25
-32 25 -39 0 -7 6 -13 13 -12 36 3 42 5 42 15 0 23 -31 75 -52 88 -32 20 -117
22 -158 5z"/>
<path d="M4876 386 c-81 -30 -135 -110 -144 -212 -5 -73 10 -126 45 -154 20
-16 41 -20 98 -20 63 0 77 3 111 29 21 15 47 42 57 60 18 31 18 31 -5 40 -19
7 -26 2 -49 -29 -33 -45 -77 -65 -126 -57 -61 10 -78 36 -77 115 1 71 20 122
58 156 65 57 159 44 181 -24 4 -14 12 -19 22 -16 8 3 19 6 24 6 27 0 -12 81
-49 101 -35 20 -97 22 -146 5z"/>
<path d="M2567 303 c-9 -49 -19 -101 -22 -118 -5 -31 -22 -123 -30 -163 -4
-20 -1 -23 23 -20 26 3 28 7 42 88 10 54 20 85 28 84 6 -1 17 -2 23 -2 6 -1
28 -40 50 -87 36 -79 41 -85 69 -85 16 0 30 2 30 4 0 17 -73 158 -90 174 -22
20 -22 20 -2 31 11 6 30 28 43 48 34 58 60 83 86 83 13 0 23 4 23 9 0 5 3 16
6 25 5 13 -1 16 -25 16 -45 0 -76 -24 -117 -91 -35 -58 -67 -89 -91 -89 -12 0
-12 2 7 109 13 72 13 71 -14 71 -21 0 -24 -7 -39 -87z"/>
<path d="M3279 383 c-1 -12 -26 -151 -44 -248 -3 -16 -8 -48 -11 -70 -3 -22
-7 -46 -10 -53 -3 -9 4 -12 24 -10 25 3 28 8 39 73 6 39 14 84 17 100 4 17 9
47 12 68 3 21 7 46 9 55 2 9 4 23 4 30 1 9 28 12 102 12 l101 0 -7 -47 c-3
-27 -16 -103 -29 -170 l-22 -123 28 0 c20 0 28 5 29 18 0 9 2 26 4 37 2 11 9
47 14 80 6 33 13 71 16 85 3 14 8 43 11 65 3 22 9 55 14 73 l8 32 -154 0 c-85
0 -154 -3 -155 -7z"/>
<path d="M3669 379 c0 -8 -2 -21 -4 -29 -4 -19 -33 -177 -39 -210 -2 -14 -7
-43 -11 -65 -4 -22 -9 -48 -11 -57 -2 -13 4 -18 21 -18 30 0 32 5 40 66 11 86
8 84 86 85 82 2 76 1 116 18 70 29 102 146 54 194 -19 19 -34 22 -136 26 -92
2 -115 0 -116 -10z m205 -55 c22 -21 20 -67 -3 -95 -17 -21 -29 -24 -101 -28
l-83 -3 7 33 c3 19 9 51 13 72 l6 37 73 0 c53 0 77 -4 88 -16z"/>
<path d="M4017 303 c-9 -49 -19 -106 -23 -128 -3 -22 -11 -68 -19 -102 -7 -34
-10 -65 -7 -68 9 -9 282 -5 282 4 0 5 3 16 6 25 5 14 -9 16 -114 16 l-120 0
13 60 c7 32 10 62 7 65 -3 3 45 5 106 5 62 0 112 4 112 9 0 5 3 16 6 25 5 14
-7 16 -100 16 l-106 0 1 28 c1 15 4 38 8 52 7 24 10 25 120 30 109 5 114 6
117 28 4 22 3 22 -135 22 l-138 0 -16 -87z"/>
</g>
</svg>
