<svg version="1.0" xmlns="http://www.w3.org/2000/svg"
 width="980.000000pt" height="922.000000pt" viewBox="0 0 980.000000 922.000000"
 preserveAspectRatio="xMidYMid meet">

<g transform="translate(0.000000,922.000000) scale(0.100000,-0.100000)"
fill="#333" stroke="none">
<path d="M2650 8690 l0 -530 -525 0 -525 0 0 -3760 0 -3760 -310 0 -310 0 2
387 3 387 62 22 c189 68 285 223 287 464 1 272 -178 484 -442 522 -71 10 -95
10 -161 -4 -116 -24 -185 -61 -267 -142 -161 -161 -199 -379 -101 -586 41 -88
149 -196 234 -236 l63 -28 0 -393 0 -393 -330 0 -330 0 0 -320 0 -320 4900 0
4900 0 0 320 0 320 -330 0 -330 0 0 388 0 389 43 13 c196 58 306 229 307 475
0 186 -81 339 -233 440 -230 153 -551 86 -706 -146 -105 -158 -113 -372 -18
-539 45 -81 134 -163 217 -202 l70 -33 0 -392 0 -393 -280 0 -280 0 0 3760 0
3760 -535 0 -535 0 0 530 0 530 -2270 0 -2270 0 0 -530z m4090 -3985 l0 -4065
-1815 0 -1815 0 0 4065 0 4065 1815 0 1815 0 0 -4065z m-4090 -530 l0 -3535
-300 0 -300 0 0 3535 0 3535 300 0 300 0 0 -3535z m5160 0 l0 -3535 -310 0
-310 0 0 3535 0 3535 310 0 310 0 0 -3535z m-6865 -2049 c205 -121 134 -432
-103 -453 -76 -7 -148 23 -201 83 -108 123 -68 309 83 381 68 32 154 28 221
-11z m8107 22 c51 -15 126 -82 149 -133 11 -24 19 -63 19 -100 0 -77 -24 -129
-83 -182 -141 -123 -359 -51 -397 131 -38 185 131 339 312 284z"/>
<path d="M3560 7435 l0 -495 300 0 300 0 0 495 0 495 -300 0 -300 0 0 -495z"/>
<path d="M4580 7435 l0 -495 300 0 300 0 0 495 0 495 -300 0 -300 0 0 -495z"/>
<path d="M5680 7435 l0 -495 300 0 300 0 0 495 0 495 -300 0 -300 0 0 -495z"/>
<path d="M3560 5205 l0 -495 300 0 300 0 0 495 0 495 -300 0 -300 0 0 -495z"/>
<path d="M4580 5205 l0 -495 300 0 300 0 0 495 0 495 -300 0 -300 0 0 -495z"/>
<path d="M5680 5205 l0 -495 300 0 300 0 0 495 0 495 -300 0 -300 0 0 -495z"/>
<path d="M3560 2975 l0 -495 300 0 300 0 0 495 0 495 -300 0 -300 0 0 -495z"/>
<path d="M4620 2975 l0 -495 300 0 300 0 0 495 0 495 -300 0 -300 0 0 -495z"/>
<path d="M5680 2975 l0 -495 300 0 300 0 0 495 0 495 -300 0 -300 0 0 -495z"/>
</g>
</svg>
