<svg version="1.0" xmlns="http://www.w3.org/2000/svg"
 width="880.000000pt" height="862.000000pt" viewBox="0 0 880.000000 862.000000">

<g transform="translate(0.000000,862.000000) scale(0.100000,-0.100000)"
fill="#333" stroke="none">
<path d="M4215 8198 c-191 -35 -391 -134 -533 -262 -245 -222 -381 -579 -342
-901 31 -261 138 -475 327 -656 141 -135 283 -213 482 -267 83 -22 117 -25
246 -25 177 -1 279 19 422 81 623 268 842 1023 461 1585 -151 222 -409 390
-678 441 -91 18 -303 20 -385 4z"/>
<path d="M4130 5150 l0 -400 -1465 0 -1465 0 0 -665 0 -665 265 0 265 0 2 398
3 397 2665 0 2665 0 3 -397 2 -398 265 0 265 0 0 665 0 665 -1465 0 -1465 0
-2 398 -3 397 -267 3 -268 2 0 -400z"/>
<path d="M1299 2875 c-107 -18 -181 -41 -276 -85 -293 -137 -507 -393 -590
-708 -22 -83 -26 -119 -27 -252 0 -174 11 -240 66 -385 117 -311 378 -550 713
-651 84 -26 103 -28 275 -28 163 -1 195 2 269 22 483 132 804 546 803 1037 0
173 -34 320 -110 470 -209 417 -671 656 -1123 580z"/>
<path d="M4225 2875 c-438 -82 -771 -400 -867 -828 -24 -111 -29 -297 -9 -406
74 -411 379 -741 786 -851 114 -31 337 -39 459 -16 587 111 973 685 851 1265
-86 408 -413 738 -820 826 -111 24 -300 28 -400 10z"/>
<path d="M7185 2880 c-346 -54 -642 -265 -799 -570 -85 -165 -119 -308 -118
-495 3 -485 324 -897 801 -1026 109 -30 336 -37 454 -15 527 100 899 567 874
1096 -20 395 -244 734 -602 911 -138 68 -266 99 -425 104 -69 2 -152 0 -185
-5z"/>
</g>
</svg>
