<svg version="1.0" xmlns="http://www.w3.org/2000/svg"
 width="900.000000pt" height="520.000000pt" viewBox="0 0 900.000000 520.000000">

<g transform="translate(0.000000,520.000000) scale(0.100000,-0.100000)"
fill="#333" stroke="none">
<path d="M4380 4901 l0 -299 -550 -362 -550 -363 0 -1041 0 -1041 -493 -153
c-270 -84 -520 -166 -554 -183 -71 -34 -124 -90 -149 -158 -16 -41 -18 -99
-22 -497 -4 -449 -3 -452 19 -505 37 -90 91 -153 156 -186 l58 -28 2055 -2
c1130 -1 2125 2 2210 6 172 9 226 24 288 84 86 82 94 145 90 694 l-3 418 -26
56 c-34 71 -88 124 -164 160 -33 15 -177 60 -320 99 -143 39 -360 99 -482 132
l-223 61 -2 1065 -3 1066 -547 330 -547 331 -1 308 0 307 -120 0 -120 0 0
-299z m-10 -748 l-1 -168 -477 -317 c-262 -175 -481 -318 -485 -318 -4 0 -7
74 -7 164 l0 163 483 321 c265 176 483 321 485 321 1 1 2 -74 2 -166z m685
-181 l420 -247 0 -1695 0 -1695 -270 -1 c-148 -1 -341 1 -427 4 l-158 5 0
1938 c0 1067 3 1939 8 1939 4 -1 196 -112 427 -248z m-686 -429 l0 -168 -476
-315 c-262 -173 -480 -316 -484 -318 -5 -2 -9 70 -9 161 l0 164 483 321 c265
177 483 322 485 322 1 0 2 -75 1 -167z m1 -600 l-1 -168 -477 -317 c-262 -175
-481 -318 -485 -318 -4 0 -7 74 -7 164 l0 163 483 321 c265 176 483 321 485
321 1 1 2 -74 2 -166z m0 -610 l-1 -168 -476 -315 c-262 -173 -480 -316 -485
-318 -4 -2 -8 70 -8 161 l0 164 483 321 c265 177 483 322 485 322 1 0 2 -75 2
-167z m0 -608 l0 -165 -480 -320 c-264 -176 -482 -320 -485 -320 -3 0 -5 74
-5 163 l0 164 483 321 c265 177 483 322 485 322 1 0 2 -74 2 -165z m-1210
-379 l0 -145 -87 -26 c-49 -14 -101 -30 -117 -35 -16 -6 -31 -10 -32 -10 -2 0
-4 65 -4 144 l0 144 103 35 c56 20 110 36 120 36 15 1 17 -12 17 -143z m3130
-29 l395 -123 3 -168 c2 -156 1 -167 -15 -162 -10 3 -187 58 -393 121 -206 64
-390 120 -407 126 l-33 11 0 165 0 165 28 -7 c15 -3 205 -61 422 -128z m-3502
-94 l-3 -147 -110 -33 c-60 -18 -113 -33 -117 -33 -5 0 -8 64 -8 143 l0 143
108 36 c59 20 113 37 120 37 10 1 12 -32 10 -146z m-360 -120 l-3 -147 -110
-33 c-60 -18 -116 -33 -123 -33 -10 0 -12 32 -10 142 l3 141 110 38 c61 21
116 38 123 38 10 1 12 -32 10 -146z m730 -388 c-2 -2 -56 -19 -121 -38 l-118
-35 3 146 3 146 115 37 115 38 3 -146 c1 -80 1 -147 0 -148z m3120 58 l412
-127 0 -168 c0 -129 -3 -166 -12 -163 -7 2 -168 52 -358 110 -190 59 -375 116
-412 128 l-68 21 0 163 c0 124 3 163 13 163 6 0 198 -57 425 -127z m-3492
-180 c-3 -4 -225 -73 -233 -73 -2 0 -3 65 -3 144 l0 144 118 40 117 39 3 -145
c1 -80 1 -147 -2 -149z m-356 22 l0 -144 -87 -26 c-49 -15 -101 -30 -117 -36
-16 -5 -33 -9 -38 -9 -5 0 -7 64 -6 143 l3 142 105 37 c58 20 113 37 123 37
15 1 17 -12 17 -144z"/>
</g>
</svg>
