<svg version="1.0" xmlns="http://www.w3.org/2000/svg"
 width="1200.000000pt" height="1200.000000pt" viewBox="0 0 1200.000000 1200.000000"
 preserveAspectRatio="xMidYMid meet">

<g transform="translate(0.000000,1200.000000) scale(0.100000,-0.100000)"
fill="#125D98" stroke="none">
<path d="M6403 11355 c-89 -24 -163 -59 -325 -152 -86 -50 -197 -107 -245
-127 -181 -76 -389 -112 -588 -102 -135 6 -187 16 -435 83 -160 43 -185 47
-290 47 -103 0 -124 -3 -202 -31 -108 -38 -214 -98 -318 -179 -146 -116 -196
-201 -255 -432 -43 -173 -74 -260 -135 -382 -94 -188 -265 -419 -408 -550 -99
-92 -203 -160 -372 -246 -209 -105 -289 -197 -359 -412 -43 -130 -61 -238 -61
-361 0 -171 29 -256 162 -467 105 -166 122 -198 159 -289 52 -131 72 -247 72
-425 0 -175 -14 -261 -83 -489 -22 -74 -45 -171 -52 -217 -28 -193 40 -418
197 -655 132 -197 259 -282 491 -325 360 -66 506 -137 715 -344 129 -128 190
-220 266 -399 70 -165 119 -240 198 -304 194 -157 722 -310 955 -277 106 15
186 56 320 165 64 52 142 110 175 130 149 89 369 145 577 145 160 0 242 -16
448 -87 149 -52 175 -57 266 -61 81 -3 116 0 179 17 230 63 533 276 634 445
47 78 76 165 117 341 42 186 73 279 125 380 81 159 213 314 345 405 41 28 143
88 227 132 178 94 227 128 301 210 178 196 288 648 215 883 -27 90 -47 127
-129 250 -203 304 -253 461 -254 800 0 178 11 274 61 510 36 173 42 364 15
472 -66 262 -207 452 -407 548 -49 24 -166 66 -260 94 -202 59 -295 92 -391
137 -185 87 -377 249 -481 404 -28 41 -83 134 -123 205 -93 166 -144 238 -219
308 -105 96 -239 158 -430 197 -118 24 -317 26 -398 5z m-248 -925 c515 -50
990 -244 1390 -567 120 -97 316 -296 407 -413 280 -362 452 -767 525 -1240 24
-161 24 -529 0 -690 -48 -308 -117 -530 -247 -795 -203 -415 -510 -762 -900
-1018 -134 -88 -410 -223 -565 -277 -136 -47 -309 -90 -470 -117 -171 -28
-593 -25 -770 5 -406 70 -760 213 -1075 433 -572 401 -949 1002 -1073 1709
-29 170 -32 603 -4 778 70 444 251 865 519 1210 98 126 289 320 408 416 395
316 876 513 1375 565 114 12 362 12 480 1z"/>
<path d="M5620 10094 c-902 -122 -1649 -786 -1875 -1667 -52 -205 -69 -341
-68 -572 1 -364 71 -667 229 -985 335 -675 954 -1123 1709 -1236 131 -19 448
-22 575 -5 258 35 509 110 723 215 360 177 660 441 890 784 81 121 209 384
256 527 121 370 145 782 66 1167 -65 320 -212 641 -418 913 -74 97 -245 275
-348 360 -269 225 -625 398 -969 470 -215 46 -553 58 -770 29z m952 -2447
l-962 -962 -522 522 -523 523 50 51 c28 28 126 123 218 212 l168 161 305 -305
304 -304 748 748 747 747 215 -215 215 -215 -963 -963z"/>
<path d="M8750 4384 c-443 -326 -872 -555 -1304 -695 -229 -75 -589 -155 -844
-190 -78 -10 -92 -15 -87 -28 25 -66 1211 -2791 1216 -2791 3 0 128 413 278
918 151 504 274 918 276 919 1 2 388 -180 860 -402 471 -223 859 -404 861
-402 6 5 -1164 2721 -1173 2724 -4 1 -42 -23 -83 -53z"/>
<path d="M3286 4293 c-42 -84 -1158 -2575 -1154 -2578 2 -3 389 177 859 399
470 222 857 401 860 397 3 -3 127 -411 274 -906 147 -495 271 -907 275 -915 6
-10 12 -5 23 20 8 19 274 629 592 1355 318 726 580 1329 582 1340 4 19 -6 22
-159 43 -637 91 -1137 251 -1584 508 -126 72 -332 207 -452 295 -50 38 -94 69
-97 69 -2 0 -11 -12 -19 -27z"/>
</g>
</svg>
