<svg version="1.0" xmlns="http://www.w3.org/2000/svg"
 width="512.000000pt" height="512.000000pt" viewBox="0 0 512.000000 512.000000"
 preserveAspectRatio="xMidYMid meet">

<g transform="translate(0.000000,512.000000) scale(0.100000,-0.100000)"
fill="red" stroke="none">
<path d="M747 4372 l-747 -747 0 -1065 0 -1065 748 -748 747 -747 1065 0 1065
0 748 748 747 747 0 1070 0 1070 -743 743 -742 742 -1070 0 -1070 0 -748 -748z
m3567 -61 l729 -729 -7 -1023 -7 -1024 -722 -722 -722 -723 -1020 0 -1020 0
-727 727 -728 728 0 1020 0 1020 727 727 728 728 1020 0 1020 0 729 -729z"/>
<path d="M992 4127 l-652 -652 0 -915 0 -915 647 -647 648 -648 925 0 925 0
648 648 647 647 0 920 0 920 -648 648 -647 647 -920 0 -920 0 -653 -653z
m1781 252 c47 -13 111 -69 140 -123 22 -41 22 -42 25 -821 2 -483 6 -783 12
-789 7 -7 10 218 10 629 0 627 0 639 21 682 80 165 307 176 404 19 l30 -49 5
-875 5 -874 214 261 c184 224 222 265 265 286 131 65 280 0 322 -142 18 -61
12 -110 -20 -168 -12 -22 -212 -271 -444 -553 -232 -282 -441 -541 -464 -575
-145 -214 -380 -352 -686 -402 -126 -21 -353 -16 -447 10 -91 25 -252 108
-325 167 -163 134 -282 339 -319 552 -7 39 -11 400 -11 1042 0 822 2 987 14
1015 64 153 259 194 374 79 72 -73 72 -71 72 -632 0 -330 3 -497 10 -493 7 4
10 238 10 668 l0 662 24 51 c83 178 334 178 417 -1 17 -38 19 -77 19 -642 0
-380 4 -603 10 -603 6 0 10 270 12 728 3 724 3 727 25 767 58 108 163 156 276
124z"/>
</g>
</svg>
