<?xml version="1.0" standalone="no"?>
<!DOCTYPE svg PUBLIC "-//W3C//DTD SVG 20010904//EN"
 "http://www.w3.org/TR/2001/REC-SVG-20010904/DTD/svg10.dtd">
<svg version="1.0" xmlns="http://www.w3.org/2000/svg"
 width="588.000000pt" height="588.000000pt" viewBox="0 0 588.000000 588.000000"
 preserveAspectRatio="xMidYMid meet">
<metadata>
Created by potrace 1.11, written by Peter Selinger 2001-2013
</metadata>
<g transform="translate(0.000000,588.000000) scale(0.100000,-0.100000)"
fill="#000000" stroke="none">
<path d="M2155 5669 c-203 -27 -340 -71 -536 -170 -298 -151 -553 -342 -805
-601 -578 -594 -871 -1324 -804 -1999 61 -605 321 -1181 720 -1593 196 -203
384 -343 622 -462 140 -70 180 -84 78 -28 -149 83 -149 83 -493 463 -383 421
-616 900 -683 1401 -18 136 -29 461 -18 525 8 47 8 43 15 -60 5 -93 12 -125
44 -210 53 -141 54 -142 55 -45 1 230 37 578 71 695 49 165 185 466 300 661
142 243 277 422 467 620 130 135 132 137 80 63 -102 -143 -170 -311 -202 -498
-18 -106 -22 -416 -6 -441 7 -11 10 -5 10 23 0 20 9 81 21 134 76 353 297 742
579 1023 247 246 480 337 544 212 26 -51 28 -87 8 -140 -23 -59 -114 -201
-120 -184 -2 6 16 47 39 91 35 68 43 93 47 155 4 66 2 76 -17 95 -26 26 -58
22 -126 -11 -43 -22 -232 -154 -237 -166 -2 -5 -40 -36 -84 -69 -86 -66 -160
-154 -238 -285 -23 -40 -60 -99 -80 -131 -90 -140 -138 -276 -122 -342 7 -28
59 -65 92 -65 19 0 22 7 29 68 3 37 11 87 16 111 13 61 69 191 81 191 7 0 8
-32 3 -95 -6 -80 -4 -100 9 -120 24 -36 46 -32 46 8 0 51 27 145 67 231 41 86
53 87 29 2 -21 -70 -20 -99 2 -119 25 -23 32 -21 32 8 0 64 101 268 130 263
26 -5 22 -41 -19 -184 -44 -152 -75 -313 -86 -441 -4 -46 -10 -83 -12 -83 -2
0 -11 7 -19 15 -35 35 -39 20 -39 -152 0 -138 -4 -185 -22 -263 -13 -52 -28
-162 -34 -245 -16 -215 -53 -375 -80 -348 -21 21 -31 179 -27 420 1 133 0 236
-3 230 -16 -29 -34 -367 -34 -637 l0 -295 37 -85 c20 -47 62 -143 93 -215 82
-187 99 -290 54 -318 -37 -23 -19 -158 26 -203 26 -26 55 -32 55 -11 0 6 14
36 31 66 23 39 33 50 39 40 26 -48 112 -324 117 -376 6 -61 6 -62 -22 -69 -46
-12 -76 13 -117 96 -38 79 -40 105 -12 162 20 39 17 44 -11 18 -86 -81 -65
-287 40 -378 134 -118 396 -134 661 -41 49 17 99 33 112 36 35 8 37 23 2 23
-64 0 -188 33 -266 70 -140 67 -227 179 -300 385 -21 60 -58 100 -82 90 -56
-23 -52 -40 -52 237 0 534 44 788 169 964 27 38 89 108 139 157 49 48 87 87
83 87 -18 0 -115 -65 -164 -110 -32 -29 -57 -49 -57 -46 0 14 68 113 119 174
28 34 50 62 48 62 -2 0 -30 -9 -62 -20 -74 -26 -120 -61 -158 -122 -16 -26
-32 -48 -35 -48 -3 0 -2 33 1 73 16 216 171 437 396 564 52 30 76 37 136 41
94 6 141 -3 171 -33 32 -32 31 -75 -2 -173 -31 -94 -68 -161 -186 -339 -344
-519 -461 -808 -445 -1098 19 -340 212 -588 557 -718 216 -81 568 -129 791
-108 446 42 780 264 977 649 106 205 160 418 169 668 15 395 -88 712 -291 902
-37 34 -71 62 -77 62 -6 0 14 -28 45 -61 66 -73 136 -209 166 -324 33 -124 39
-363 12 -520 -37 -213 -131 -456 -251 -642 -39 -61 -68 -92 -125 -135 l-75
-56 52 62 c188 221 287 522 302 914 l5 127 -20 -107 c-69 -375 -231 -698 -475
-944 -145 -146 -291 -242 -473 -310 -95 -36 -108 -28 -16 9 187 76 362 251
472 472 65 131 169 470 151 492 -19 22 -26 16 -50 -44 -29 -75 -84 -185 -117
-237 -85 -134 -254 -316 -392 -425 -108 -85 -302 -166 -474 -196 -93 -16 -260
-18 -311 -4 -18 5 8 6 65 3 62 -4 105 -2 125 6 17 7 71 23 120 36 321 87 568
314 636 585 12 44 19 83 16 85 -2 3 -26 -35 -53 -83 -32 -57 -75 -113 -124
-162 l-75 -76 -3 30 c-6 60 -13 62 -39 10 -51 -100 -113 -155 -213 -190 -41
-15 -43 -14 -28 2 9 10 20 41 24 68 l7 50 -66 -62 c-47 -44 -97 -77 -171 -114
-91 -45 -115 -53 -178 -56 -45 -3 -85 0 -103 7 l-30 12 58 12 c69 15 110 50
132 114 8 25 15 49 15 54 0 4 -26 -13 -57 -38 -75 -62 -126 -84 -192 -84 -55
0 -121 17 -121 32 0 4 16 8 36 8 63 0 123 21 149 52 14 16 25 33 25 38 0 5
-42 6 -93 3 -133 -8 -182 1 -224 42 -29 28 -39 32 -59 25 -26 -10 -32 1 -10
19 11 10 26 6 70 -19 50 -28 61 -31 106 -25 68 9 110 44 110 91 0 43 -30 74
-70 74 -43 0 -90 22 -124 59 -71 75 -39 223 124 567 27 58 50 108 50 110 0 2
50 93 111 202 69 121 130 216 159 247 101 107 157 215 146 282 -4 21 -10 71
-14 110 -9 98 -27 116 -121 121 -81 5 -239 -31 -324 -74 -65 -33 -162 -111
-251 -203 -38 -40 -70 -70 -72 -69 -2 2 7 23 18 46 43 84 166 193 334 295 148
90 385 204 450 217 94 18 327 24 449 11 145 -16 297 -41 311 -52 8 -6 14 -3
19 8 10 27 -44 67 -123 91 -65 21 -187 43 -322 59 l-64 8 174 68 c278 109 277
109 -188 6 -172 -38 -321 -69 -330 -69 -34 1 50 58 152 103 69 31 127 49 181
57 132 19 133 19 112 35 -17 13 -15 15 32 35 63 27 80 46 52 55 -25 8 -69 0
-186 -30 -49 -13 -130 -33 -180 -44 -49 -12 -128 -39 -175 -61 -125 -59 -58
-13 84 57 275 138 519 195 826 195 512 -1 960 -186 1300 -538 89 -92 190 -220
190 -241 0 -4 38 -103 84 -218 46 -116 96 -248 110 -295 59 -197 93 -524 76
-740 -23 -301 -59 -548 -96 -665 -22 -69 -85 -205 -96 -205 -11 0 -13 -8 42
157 94 275 126 505 118 844 -6 219 -17 293 -84 561 -37 149 -50 184 -70 192
-25 10 -24 -32 5 -125 16 -52 39 -155 52 -229 21 -119 24 -166 24 -395 0 -244
-2 -268 -27 -395 -29 -141 -87 -365 -113 -436 -14 -36 -19 -40 -40 -36 -14 2
-33 -2 -42 -9 -9 -8 -64 -86 -121 -174 -132 -202 -209 -300 -308 -395 -146
-139 -309 -219 -494 -242 -50 -6 -90 -15 -90 -20 0 -4 9 -17 20 -28 15 -15 33
-20 71 -20 28 0 48 -4 45 -9 -9 -15 -94 -30 -290 -52 -184 -20 -251 -33 -260
-48 -7 -11 116 -66 183 -81 34 -8 94 -11 165 -8 125 6 212 30 346 98 44 22 82
40 85 40 3 0 -1 -13 -9 -28 -8 -16 -58 -61 -110 -101 -125 -93 -168 -106 -366
-105 -169 1 -302 21 -582 89 -101 25 -191 45 -200 45 -25 0 -22 -19 10 -71 58
-89 159 -176 239 -204 l38 -14 -65 -64 c-74 -72 -154 -115 -275 -149 -74 -21
-101 -23 -385 -23 -298 -1 -355 -5 -347 -28 6 -19 202 -97 297 -118 126 -27
356 -40 505 -29 66 5 125 9 130 9 6 0 -25 -13 -67 -29 -43 -16 -97 -41 -120
-57 -44 -29 -89 -95 -75 -109 11 -12 124 21 287 83 80 30 211 75 293 99 200
59 305 101 485 191 147 75 185 102 122 88 -16 -4 -30 -4 -30 -2 0 3 75 44 168
92 227 118 305 171 457 313 261 242 442 477 596 772 17 34 34 59 36 56 3 -3
-30 -74 -74 -158 -140 -273 -289 -476 -502 -688 -264 -263 -490 -414 -866
-580 -77 -34 -187 -86 -245 -116 -102 -53 -107 -54 -187 -54 -46 0 -83 -4 -83
-9 0 -20 53 -49 100 -56 115 -16 404 29 645 101 365 108 625 233 860 413 85
65 247 223 318 311 222 275 375 640 431 1027 24 169 22 652 -4 833 -80 568
-302 1104 -580 1404 -42 46 -160 143 -160 132 0 -2 42 -87 94 -188 161 -312
269 -587 342 -868 20 -74 38 -144 41 -155 13 -48 -16 5 -36 65 -46 140 -53
106 -21 -110 32 -216 36 -436 11 -605 -23 -150 -46 -247 -35 -145 27 250 30
404 14 620 -39 510 -175 948 -388 1249 -71 101 -248 277 -370 370 -472 357
-991 455 -1511 285 -110 -36 -279 -113 -363 -164 -57 -36 -62 -36 -48 -10 6
12 10 33 8 48 -3 23 -7 27 -32 25 -146 -11 -585 -413 -770 -705 -27 -43 -51
-76 -53 -74 -6 6 27 127 43 159 15 27 14 28 -4 18 -36 -19 -82 -88 -137 -205
-30 -63 -55 -119 -55 -125 0 -5 -5 -13 -11 -17 -16 -10 -2 66 28 151 73 203
207 364 618 740 303 277 391 390 382 488 -8 86 -85 143 -247 182 -79 19 -365
28 -465 14z m362 -3575 c-3 -3 -12 -4 -19 -1 -8 3 -5 6 6 6 11 1 17 -2 13 -5z"/>
<path d="M968 4473 c-202 -269 -353 -584 -414 -863 -21 -96 -26 -357 -7 -400
11 -25 11 -25 17 10 3 19 10 100 16 180 5 80 17 179 26 220 44 210 164 488
333 770 52 85 95 158 98 163 2 4 3 7 0 7 -2 0 -33 -39 -69 -87z"/>
</g>
</svg>
