<svg xmlns:svg="http://www.w3.org/2000/svg" xmlns="http://www.w3.org/2000/svg" version="1.0" width="1114.8915" height="763.58246" viewBox="0 0 1091.99 630.119" id="svg">
<defs>
    <!-- simple dot marker definition -->
    <marker id="dot" viewBox="0 0 10 10" refX="5" refY="5"
        markerWidth="8" markerHeight="8">
      <circle cx="5" cy="5" r="5" fill="white" stroke= "#333" stroke-width="1" />
    </marker>
  </defs>


<style>
svg:hover {
cursor: pointer;
}

.text {
  font-size:18px;
  fill:#333;
  font-family: Helvetica Neue,Helvetica,Arial,sans-serif;
}

.landxx
{
   fill:red;
   stroke:#ffffff;
   stroke-width:1;
}
path:hover {
    fill:#1669ad;
}
.landxx:hover {
  fill: #1669ad;
}

.landxx.am {
  fill: #0bac0b;
}
.landxx.az {
  fill: #b132cd;
}
.landxx.ua {
  fill: indianred;
}
.landxx.uz {
  fill: #8c851e;
}
.landxx.tj {
  fill: #ff5722;
}
.landxx.kg {
  fill: red;
}
.landxx.kz {
  fill: #31a6d7;
}
.landxx.by {
  fill: #3f51b5;
}
.landxx.ru {
  fill: darkseagreen;
}

.landxx.am:hover {
  fill: #1669ad;
}
.landxx.az:hover {
  fill: #1669ad;
}
.landxx.ua:hover {
  fill: #1669ad;
}
.landxx.uz:hover {
  fill: #1669ad;
}
.landxx.tj:hover {
  fill: #1669ad;
}
.landxx.kz:hover {
  fill: #1669ad;
}
.landxx.kg:hover {
  fill: #1669ad;
}
.landxx.by:hover {
  fill: #1669ad;
}
.landxx.ru:hover {
  fill: #1669ad;
}
</style>

	
	
<g>
<title>   "Республика Армения"
		  Срок доставки по обычной отправке 4-11 дней.
		  Не считая дня приема, праздничных и выходных дней. 
</title>      
	 <path class="landxx am" d="M 81.045043,509.87266 L 82.927958,511.75519 L 84.809895,512.20235 L 84.809895,513.9929 L 87.230366,516.41161 L 89.561733,518.73934 L 89.112301,522.23436 L 89.112301,525.99551 L 86.961096,528.14517 L 88.574745,530.65488 L 92.160411,530.65488 L 94.132428,531.90827 L 94.850149,527.25087 L 97.448829,524.65212 L 94.132428,521.15904 L 94.311614,518.47223 L 92.697967,514.17196 L 95.566891,514.17196 L 97.448829,512.29138 L 96.642005,509.69459 L 95.925262,505.57434 L 98.16655,503.33468 L 100.40685,501.27503 L 97.897282,497.1548 L 97.897282,494.28795 L 93.415686,493.21165 L 90.547741,490.34577 L 87.858003,489.44953 L 83.554618,488.19516 L 83.554618,490.34577 L 81.582601,493.56976 L 79.073024,493.92885 L 77.638563,497.15284 L 75.48736,498.58628 L 82.389423,505.84244 L 81.045043,509.87266 z" id="am" />  
	</g>	
	
<g>
<title>   "Азербайджанская Республика" 
		  Срок доставки по обычной отправке 4-11 дней.
		  Не считая дня приема, праздничных и выходных дней. 
</title>    
	<g class="landxx az" transform="matrix(0.979155, 0, 0, 0.978447, 49.0179, -58.1699)" id="az" >
	<path d="M 34.632,594.652 L 33.258,588.795 L 34.174,585.682 L 34.632,582.479 L 36.554,582.936 L 36.554,584.766 L 41.407,589.617 L 40.948,593.189 L 40.948,597.033 L 38.751,599.23 L 37.012,597.49 L 34.632,594.652" id="path41"/>
	<path d="M 46.075,603.076 L 51.568,602.525 L 54.863,601.428 L 56.877,602.893 L 61.271,602.16 L 64.567,603.809 L 65.483,607.652 L 63.561,609.576 L 61.729,611.406 L 61.729,613.328 L 57.61,612.23 L 56.877,616.441 L 59.44,619.004 L 59.44,623.582 L 62.553,624.68 L 64.75,621.752 L 65.3,618.455 L 68.229,617.723 L 69.786,616.166 L 70.61,618.639 L 72.532,616.717 L 75.736,615.525 L 76.286,612.047 L 80.313,609.85 L 83.06,607.104 L 87.637,607.652 L 90.018,610.033 L 92.215,610.033 L 92.215,607.104 L 89.102,604.906 L 87.637,602.16 L 86.722,596.85 L 88.187,591.357 L 88.187,586.414 L 89.034,582.82 L 87.5,581.285 L 83.5,583.119 L 80.833,581.953 L 77,583.285 L 73.333,582.453 L 72.833,579.285 L 71,573.785 L 70.667,569.785 L 68,567.953 L 64.567,567.738 L 62.92,569.387 L 64.567,571.033 L 65.3,573.414 L 64.567,576.893 L 62.188,576.893 L 60.723,573.232 L 58.342,573.232 L 57.061,567.373 L 54.406,564.717 L 52.667,564.717 L 49.92,564.627 L 49.92,567.557 L 52.483,571.768 L 47.906,576.162 L 48.638,580.373 L 49.462,583.027 L 47.54,584.949 L 44.61,584.949 L 46.258,589.344 L 46.075,592.09 L 49.462,595.66 L 46.808,598.316 L 46.075,603.076" id="path43"/>
	</g></g>

<g>
<title>   "Украина" 
		  Срок доставки по обычной отправке 4-11 дней.
		  Не считая дня приема, праздничных и выходных дней. 
</title>  		
	<path class="landxx ua" d="M 97.812096,386.16168 L 100.25998,383.55313 L 103.85054,381.92304 L 106.95153,383.22633 L 109.72547,382.08545 L 112.33688,384.85839 L 116.2535,389.09703 L 119.84406,385.51003 L 122.29195,384.04236 L 121.63886,380.45342 L 123.92323,378.17168 L 126.20758,378.49849 L 126.04407,375.88798 L 132.08252,375.07392 L 133.22519,372.30099 L 134.5304,370.6709 L 131.75646,369.36565 L 131.75646,365.94109 L 129.14505,363.00574 L 128.16589,359.25438 L 125.71801,357.78671 L 123.1066,354.85135 L 124.08578,351.4268 L 123.1066,346.37214 L 120.0066,344.08941 L 116.41603,341.31846 L 115.27337,337.56709 L 112.82548,335.6102 L 112.00985,333.32649 L 114.13167,330.88038 L 115.76392,327.2934 L 115.76392,323.86881 L 113.96914,320.60766 L 112.17435,317.83572 L 113.8066,316.53145 L 114.78575,314.08533 L 116.74405,314.08533 L 118.21279,312.78106 L 119.35546,308.37805 L 119.68151,305.76853 L 118.37533,302.50735 L 116.57955,300.71191 L 114.13167,300.38609 L 112.33688,298.42918 L 110.86815,296.30889 L 108.66505,298.18361 L 106.95153,296.47132 L 105.4828,294.0252 L 102.54533,290.43725 L 99.281807,290.43725 L 95.365184,290.11141 L 92.753779,292.72093 L 89.326737,292.72093 L 89.081947,289.21515 L 86.389271,286.52442 L 84.267444,284.40412 L 84.267444,281.30538 L 80.350823,279.1851 L 81.085189,276.00514 L 78.392512,273.31439 L 75.781106,270.70489 L 75.781106,268.9114 L 73.333219,264.8342 L 73.00716,261.40963 L 69.743637,255.04972 L 66.806173,252.11438 L 63.134342,248.4452 L 61.746878,247.05972 L 56.575962,247.54894 L 56.575962,244.72612 L 54.938815,243.09015 L 51.204316,246.00201 L 51.204316,248.46575 L 49.507442,251.78952 L 48.078579,252.9225 L 46.133489,254.89822 L 44.781177,256.98847 L 42.35643,257.85691 L 39.828481,256.09531 L 37.092953,255.88197 L 24.660724,256.0217 L 22.332711,258.98661 L 20.275839,261.05855 L 17.198933,259.57 L 13.451268,260.66312 L 12.132632,261.89129 L 9.7227431,260.86822 L 9.2589157,263.5623 L 8.5112129,265.86173 L 7.7918551,268.1368 L 8.786498,271.32395 L 11.663782,272.46358 L 13.286553,275.66082 L 14.608159,279.7806 L 17.888817,284.72841 L 16.852259,288.76211 L 19.77596,289.4993 L 22.32793,290.20246 L 25.853705,292.88823 L 27.183646,295.93209 L 30.884863,296.00958 L 34.71003,295.69432 L 36.946471,297.1777 L 37.812874,300.61595 L 41.179151,299.88511 L 42.840199,301.49194 L 42.017394,303.48885 L 42.13571,305.54401 L 43.451789,307.41207 L 43.837486,310.13321 L 45.576325,310.77592 L 45.315849,315.63335 L 46.226355,316.83999 L 45.725049,318.47508 L 44.437071,319.80692 L 40.722932,320.75407 L 41.997596,324.78885 L 41.770641,326.78929 L 40.196427,328.28956 L 37.803469,330.11757 L 38.634095,333.47177 L 37.563962,335.9917 L 35.4617,336.91534 L 34.509685,338.73003 L 32.655259,335.40524 L 30.788066,332.38621 L 30.047736,330.41903 L 28.734736,330.09861 L 27.317402,331.02754 L 25.641847,334.084 L 21.926599,334.19689 L 17.824311,334.13268 L 14.412132,333.83087 L 13.160737,335.29628 L 14.596249,340.34603 L 19.192502,340.93194 L 21.642606,343.22114 L 22.130704,346.16813 L 24.137488,342.68657 L 26.106187,341.006 L 26.250786,343.3055 L 28.713171,342.9382 L 30.068142,343.95081 L 30.830362,345.31079 L 36.228731,344.51462 L 38.334069,343.98454 L 41.704615,343.09597 L 44.21276,343.30777 L 45.755726,345.05295 L 47.91805,345.82084 L 49.507442,347.02476 L 50.976176,347.02476 L 52.322512,345.6794 L 53.424063,343.35558 L 54.097721,344.02875 L 53.056879,345.06884 L 52.200118,346.90343 L 51.220963,349.10494 L 51.220963,350.81722 L 53.546456,351.79566 L 51.710541,352.65084 L 50.486598,351.42777 L 49.507442,350.69394 L 48.51823,351.93706 L 45.318422,351.56839 L 46.578747,356.97183 L 48.172228,359.14991 L 49.507442,359.86688 L 50.548283,360.90696 L 51.466733,359.86688 L 52.507572,360.90696 L 53.85391,362.25233 L 53.91364,363.65738 L 54.954481,364.69747 L 55.811243,365.55362 L 55.811243,366.59371 L 54.036035,366.59371 L 52.200118,366.83832 L 51.159276,365.79824 L 49.507442,364.75813 L 48.844502,366.55114 L 46.602021,365.92682 L 44.657124,365.31947 L 41.779774,365.50268 L 44.375669,368.23663 L 45.594156,370.55161 L 45.502434,371.85655 L 46.117105,374.16761 L 45.789264,376.65578 L 43.947261,378.84731 L 42.359687,380.44964 L 39.851368,380.41822 L 40.517398,382.56514 L 41.125297,384.70991 L 41.949567,386.73308 L 44.451464,386.80909 L 49.507442,385.91707 L 50.670678,387.07946 L 53.302647,388.11956 L 55.750535,388.11956 L 58.809415,388.11956 L 60.033358,390.68797 L 60.64533,392.40025 L 64.194766,394.60177 L 67.377021,395.21329 L 68.600965,393.25639 L 71.171246,393.62332 L 68.723358,390.93259 C 68.723358,390.93259 68.111385,388.48647 67.132231,388.48647 C 66.153077,388.48647 64.439555,387.99725 64.439555,387.99725 L 61.257303,386.28496 L 58.931808,382.73809 L 60.278146,380.53657 L 61.012513,377.35662 L 60.522936,374.4213 C 60.522936,374.4213 59.176597,373.56515 59.176597,372.95362 C 59.176597,372.34209 59.788568,369.895 59.788568,369.895 L 58.197443,368.30501 L 58.197443,365.8589 L 59.298991,366.95965 L 60.707017,368.36666 L 61.746878,370.75112 L 63.277299,372.28045 L 65.786874,373.07593 L 68.724338,373.80976 L 70.560252,373.07593 L 71.049829,375.15513 L 73.375322,375.39973 L 76.434203,375.27646 L 77.413358,376.2549 L 78.759696,378.70101 L 83.043499,379.06794 L 84.75702,380.78022 L 88.551246,381.26943 L 89.71448,382.43184 L 92.713634,382.43184 L 94.3968,384.1138 L 96.110321,385.82607 L 97.812096,386.16168 z" id="ua" />
	</g>

<g>
<title>   "Республика Узбекистан"
		  Срок доставки по обычной отправке 4-11 дней.
		  Не считая дня приема, праздничных и выходных дней. 
</title> 	
	<path class="landxx uz" d="M 212.14411,557.8792 L 211.76243,560.36444 L 210.95023,566.08407 L 204.8315,560.99487 L 202.55488,559.90308 L 201.08552,557.8792 L 200.46082,555.92428 L 224.77618,510.91568 L 251.70293,515.15432 L 265.57461,537.82298 L 271.44955,556.08667 L 274.98614,556.67105 L 277.3064,559.38998 L 281.26276,560.9851 L 284.44149,560.42679 L 295.9214,567.35175 L 297.66972,566.37506 L 299.79785,565.23726 L 302.51945,566.41907 L 303.13286,569.36142 L 305.5084,572.21053 L 305.94813,574.50719 L 306.45932,580.87794 L 308.03097,579.86075 L 310.06389,579.63926 L 308.46302,583.83147 L 306.75805,586.39386 L 304.55757,591.03112 L 305.93967,592.88188 L 308.80662,593.91602 L 309.94516,599.49305 L 307.5335,601.92696 L 308.19507,606.96119 L 311.08066,607.49451 L 314.31304,609.38512 L 320.74533,609.39856 L 321.89476,612.28471 L 320.53016,615.89052 L 324.72294,620.61941 L 326.14118,619.41631 L 325.89009,616.08448 L 327.4916,614.78119 L 330.14409,614.91585 L 334.35112,610.48967 L 338.85481,609.48172 L 343.1147,609.08997 L 346.49116,607.17664 L 348.66622,605.42338 L 350.98582,605.64791 L 352.38598,607.24233 L 351.26563,608.44466 L 349.5931,609.44664 L 348.71277,610.45309 L 344.73057,611.65252 L 347.21812,614.29043 L 350.07165,614.8718 L 350.79643,618.02018 L 353.48732,619.61757 L 356.26426,621.544 L 358.8618,618.4099 L 360.94164,616.66973 L 361.84675,619.494 L 361.44722,621.97407 L 364.93672,622.17377 L 363.96214,625.21654 L 365.12347,625.58756 L 367.04749,625.89952 L 367.47507,627.96974 L 369.17815,628.75834 L 372.66409,630.47935 L 369.68897,631.27612 L 366.82942,632.94895 L 364.28037,632.24739 L 364.65978,634.01757 L 363.56219,633.87875 L 360.92246,632.73442 L 358.95423,634.77239 L 357.30641,635.5494 L 355.0912,634.74462 L 352.86349,631.60644 L 346.48902,631.5872 L 346.538,631.0567 L 343.86644,629.00912 L 343.56979,626.22108 L 346.99743,626.09447 L 348.59702,623.25653 L 346.87851,619.60451 L 345.00679,619.02604 L 343.63094,621.71022 L 340.99081,622.51612 L 338.45776,621.10903 L 336.75293,623.61307 L 335.80266,620.02474 L 333.61773,620.32984 L 332.38628,621.45642 L 331.43146,627.94005 L 324.72393,624.97349 L 323.00925,625.59131 L 325.22444,629.03194 L 322.47686,630.72436 L 321.82709,633.10574 L 319.91677,634.35252 L 316.58511,632.73353 L 312.32707,629.32808 L 307.80604,631.23428 L 305.31227,635.7066 L 308.11442,635.67657 L 309.69452,638.99632 L 313.31565,639.29117 L 313.26294,642.54216 L 311.40262,643.91074 L 311.12417,649.41933 L 312.80751,649.90055 L 312.74587,653.54455 L 311.06562,654.06918 L 309.88843,655.27421 L 308.12474,655.27319 L 308.30985,656.91114 L 306.74323,657.78386 L 306.31386,658.73721 L 303.799,658.02723 L 303.93254,660.4258 L 302.83129,661.51334 L 302.58838,662.62274 L 301.72667,662.68484 L 300.84593,662.28911 L 296.96862,661.29093 L 295.79165,658.8515 L 292.44118,656.9028 L 289.60943,657.22155 L 288.48034,655.6883 L 294.30784,648.93672 L 292.58741,648.00386 L 290.80201,646.30033 L 288.67814,642.1413 L 284.96775,642.15569 L 282.17472,639.46419 L 280.15482,637.59866 L 278.96779,634.61549 L 276.6508,633.05662 L 274.62414,630.9749 L 274.7108,627.42839 L 272.33241,627.34469 L 269.26567,623.73529 L 268.61709,619.62442 L 264.8002,615.31272 L 263.55855,611.57601 L 261.51222,609.01736 L 259.22932,606.92711 L 259.3814,601.4868 L 260.55366,599.14991 L 258.66288,597.87278 L 258.68871,593.10715 L 259.86667,591.90177 L 259.74855,589.95118 L 259.11395,588.19261 L 258.53565,586.44555 L 255.87456,585.4267 L 253.79114,586.12102 L 251.53131,584.47101 L 248.53969,583.16852 L 245.81769,581.72244 L 243.84826,578.93458 L 243.97368,575.68856 L 246.39218,572.91717 L 247.18383,566.78024 L 245.62979,564.00439 L 242.21212,564.06308 L 240.97893,558.97753 L 235.74174,555.2007 L 235.53848,551.3339 L 230.37596,551.56333 L 229.43402,553.88322 L 227.18587,552.94097 L 223.6335,554.60727 L 220.15359,553.44781 L 215.15009,554.39005 L 212.14411,557.8792 z" id="uz" />
	</g>
	
<g>
<title>   "Республика Таджикистан" 
		  Срок доставки по обычной отправке 4-11 дней.
		  Не считая дня приема, праздничных и выходных дней. 
</title> 		
	<path class="landxx tj" d="M 302.53927,662.90383 L 302.85016,661.50588 L 303.93823,660.41859 L 303.78278,658.08868 L 306.26983,658.70999 L 306.73615,657.77802 L 308.29055,657.00139 L 308.13509,655.29279 L 309.84494,655.29279 L 311.08846,654.05016 L 312.79829,653.58419 L 312.79829,649.85632 L 311.08846,649.39033 L 311.39934,643.95389 L 313.26462,642.55593 L 313.26462,639.29405 L 309.68949,638.9834 L 308.13509,635.72152 L 305.33718,635.72152 L 307.82422,631.21702 L 312.33198,629.35309 L 316.6843,632.7703 L 319.94852,634.32358 L 321.81381,633.08095 L 322.43557,630.75103 L 325.23348,629.04243 L 323.05732,625.62523 L 324.76715,625.00393 L 331.45108,627.95514 L 332.38372,621.43138 L 333.62723,620.3441 L 335.80339,620.03344 L 336.73604,623.60597 L 338.44587,621.12074 L 340.93291,622.5187 L 343.57538,621.74204 L 344.97434,619.10147 L 346.83962,619.56746 L 348.54945,623.29532 L 346.99506,626.09122 L 343.57538,626.24654 L 343.88625,629.04243 L 346.52874,631.06169 L 346.21786,633.8576 L 342.33185,635.5662 L 338.13498,631.21702 L 332.85004,631.37236 L 329.27492,632.7703 L 327.87596,636.03218 L 328.80859,638.20675 L 335.64794,638.51741 L 341.08834,640.692 L 344.8189,644.73053 L 347.9277,642.55593 L 351.34737,641.46864 L 352.90177,645.66248 L 353.05721,648.6137 L 356.78777,647.37109 L 357.40953,651.25427 L 360.51834,648.45837 L 364.71521,649.07967 L 367.66855,651.09894 L 373.26439,650.47765 L 373.57526,652.03091 L 372.64263,653.73952 L 374.66334,657.77802 L 372.17631,659.64196 L 372.95351,662.59318 L 374.97423,664.92309 L 377.30583,662.28253 L 380.41462,663.99113 L 383.52343,665.38908 L 383.36798,669.42759 L 382.59077,675.17471 L 383.67886,677.3493 L 381.34726,679.62421 L 383.36798,679.62421 L 384.92238,682.94107 L 381.96902,684.33903 L 377.61671,683.09642 L 375.59599,679.62421 L 372.17631,681.69847 L 366.42504,682.47509 L 367.0468,679.62421 L 364.24888,677.65993 L 360.51834,679.62421 L 355.54425,681.54314 L 347.61682,682.47509 L 342.95363,684.1837 L 341.55467,681.23248 L 340.31115,676.10666 L 342.69391,674.38024 L 344.09285,669.56509 L 346.21786,666.16572 L 342.02099,666.16572 L 346.06242,662.12719 L 343.10907,660.57392 L 342.64274,657.31206 L 338.13498,657.46736 L 335.80339,659.64196 L 331.76194,661.19523 L 331.91739,664.92309 L 330.98475,667.56365 L 329.89669,668.3403 L 325.54437,665.07842 L 320.88116,665.23375 L 320.88116,670.0489 L 318.39412,671.91284 L 315.59622,669.73824 L 316.06254,666.47638 L 311.71022,665.38908 L 309.84494,667.71898 L 305.8035,668.02964 L 304.24911,669.27226 L 302.38382,668.80628 L 302.38382,666.16572 L 300.67398,664.45711 L 302.53927,662.90383 z" id="tj" />
	</g>
	
<g>
<title>   "Кыргызская Республика"
		  Срок доставки по обычной отправке 1-5 дней.
		  Срок доставки по срочной отправке 1 день.		  
		  Не считая дня приема, праздничных и выходных дней. 
</title> 		
	<path class="landxx kg" d="M 375.88522,651.2148 L 373.40447,651.1349 L 373.27226,650.44964 L 367.66855,651.10659 L 364.67979,649.07967 L 360.53604,648.45837 L 357.40953,651.26574 L 356.80547,647.34563 L 353.05327,648.63917 L 352.89489,645.58356 L 351.34498,641.46406 L 347.85929,642.58196 L 344.81169,644.7022 L 341.02473,640.66368 L 335.73498,638.51513 L 328.8062,638.21133 L 327.90177,636.06736 L 329.27731,632.74199 L 332.78882,631.37463 L 338.13498,631.21702 L 342.36533,635.55603 L 346.21546,633.88591 L 346.50052,631.62636 L 352.87881,631.61642 L 355.11814,634.75052 L 357.27898,635.54245 L 358.93482,634.79115 L 360.95404,632.7045 L 363.50935,633.8713 L 364.68698,634.04581 L 364.29719,632.23852 L 366.81964,632.9455 L 369.70458,631.27824 L 372.66034,630.47099 L 367.50021,627.97044 L 367.06689,625.903 L 365.13556,625.57781 L 363.95811,625.22047 L 364.93905,622.13766 L 361.44857,621.9586 L 361.86086,619.43588 L 360.95644,616.7318 L 358.89071,618.32941 L 356.26022,621.56296 L 353.5835,619.67142 L 350.79974,618.02719 L 350.05794,614.87474 L 347.22222,614.30392 L 344.70696,611.67409 L 348.7202,610.46207 L 349.57466,609.46646 L 351.24124,608.45742 L 352.40485,607.21549 L 358.18913,607.46493 L 356.86647,604.85015 L 355.23337,602.86084 L 357.70664,600.45835 L 361.34623,598.32893 L 367.01048,599.15833 L 370.29044,601.07672 L 372.99132,602.44624 L 375.39852,604.66288 L 378.49917,606.26621 L 381.16361,608.84299 L 382.18285,605.39076 L 382.51107,602.8933 L 384.60756,599.50474 L 387.21859,599.28066 L 390.61893,599.36305 L 393.71357,600.10823 L 394.74953,601.63912 L 396.25573,603.45035 L 398.21318,604.49874 L 400.58933,605.11435 L 401.014,606.64011 L 403.09114,607.04944 L 404.43515,607.97296 L 405.76539,608.16875 L 406.27359,606.8949 L 409.07196,607.36776 L 411.47702,606.91718 L 413.89911,608.9008 L 416.78754,609.27638 L 419.13487,608.35076 L 421.21267,608.72001 L 421.54124,610.27327 L 423.94957,610.69215 L 426.18675,610.00842 L 428.95515,610.60176 L 430.13176,612.15503 L 433.38419,611.90931 L 441.48082,614.72684 L 442.84043,619.85647 L 447.28086,620.31359 L 449.01867,620.71585 L 450.96659,623.7613 L 450.81115,626.99772 L 449.26068,628.70631 L 444.33384,628.88711 L 431.02307,632.54621 L 425.60825,639.77784 L 422.81035,637.44796 L 420.63024,638.7415 L 418.30653,638.27552 L 417.03348,637.00745 L 413.95717,637.40849 L 412.52179,635.74701 L 409.21427,640.98167 L 405.62648,644.82463 L 403.41971,643.79855 L 400.15306,645.13527 L 396.33311,642.30879 L 397.78846,638.42787 L 391.91717,640.38135 L 389.71039,639.0469 L 387.8226,640.81802 L 386.8821,642.72908 L 383.96809,643.4446 L 379.50068,643.74061 L 377.60294,644.86421 L 375.66485,647.46148 L 377.40422,649.62206 L 375.88522,651.2148 z" id="kg" />
	</g>
	
<g>
<title>   "Республика Казахстан" 
		  Срок доставки по обычной отправке 4-11 дней.
		  Срок доставки по срочной отправке 3-5 дней.
		  Не считая дня приема, праздничных и выходных дней. 
</title> 	
	<path class="landxx kz" d="M 176.47153,459.87203 L 174.43097,457.83296 L 173.04449,454.9798 L 172.71745,452.04446 L 175.16533,452.36929 L 176.79759,454.16377 L 178.51109,452.4515 L 178.51109,447.96628 L 177.61322,442.4224 L 178.42982,438.18182 L 176.47153,436.22492 L 173.37054,433.28957 L 171.24871,431.98627 L 173.37054,429.865 L 174.34971,425.62637 L 171.98307,423.26049 L 170.92265,420.08053 L 173.53406,418.28803 L 175.65589,416.16675 L 178.59236,416.33113 L 181.36731,415.18831 L 181.36731,412.25296 L 183.48816,410.13365 L 186.0183,407.60533 L 189.20054,407.60533 L 191.32138,406.05744 L 192.46407,403.44693 L 195.23801,403.44693 L 196.9525,405.15921 L 195.8911,408.33917 L 195.8911,411.60131 L 198.25772,413.96721 L 202.25562,414.69906 L 202.58168,411.60131 L 204.70349,409.482 L 205.51914,407.68753 L 209.27322,407.68753 L 212.70027,407.68753 L 214.33153,405.2414 L 217.75858,405.2414 L 221.02307,407.03587 L 224.77618,405.73063 L 226.81576,403.69154 L 230.81461,404.42734 L 231.95632,407.68753 L 231.95632,410.78725 L 234.24166,410.78725 L 238.15829,410.13365 L 240.2801,412.25491 L 241.42181,415.02587 L 245.33843,416.49356 L 247.78634,419.42888 L 248.43941,423.83191 L 250.07067,428.07249 L 251.37689,430.84541 L 249.41856,432.80231 L 249.41856,435.41086 L 251.53942,435.41086 L 253.49773,432.1487 L 256.27266,434.59482 L 258.23096,438.34619 L 261.00492,439.16222 L 264.43195,438.673 L 268.18505,436.87852 L 270.95997,438.34619 L 274.05999,440.79231 L 275.20265,443.23842 L 278.30364,442.0956 L 282.05674,442.0956 L 284.09632,444.13469 L 284.09632,448.29309 L 286.50407,450.69909 L 287.11603,452.53368 L 290.29828,455.71364 L 293.1535,455.71364 L 294.90814,453.95928 L 296.58054,453.95928 L 297.88674,456.60988 L 299.76281,458.4846 L 303.43464,458.23998 L 307.0252,458.23998 L 309.14703,456.12067 L 311.43138,453.0229 L 309.14703,450.7392 L 308.49392,447.96628 L 306.94392,446.41838 L 304.65857,444.13469 L 303.59816,441.77076 L 304.90336,438.34619 L 308.16787,439.16027 L 310.9418,438.34619 L 312.08448,435.41086 L 310.9418,431.33267 L 313.71576,430.19181 L 317.9594,430.02938 L 320.73336,432.80035 L 323.01772,432.80035 L 325.05828,430.76322 L 322.8552,428.56173 L 321.05941,426.76726 L 319.26463,425.62637 L 321.54899,423.34267 L 320.40729,420.89656 L 321.54899,417.30957 L 324.97604,417.30957 L 328.73012,419.26646 L 331.34055,421.54821 L 334.27801,420.73414 L 338.35815,421.54821 L 343.90701,421.38578 L 347.66012,422.52665 L 350.43406,422.52665 L 353.53504,424.1587 L 356.79857,423.5051 L 358.67561,421.6304 L 360.38914,421.6304 L 364.63182,423.83191 L 369.03801,423.83191 L 372.62856,423.18027 L 375.56603,424.81035 L 379.15659,423.83191 L 383.23576,423.83191 L 385.19407,421.05897 L 388.78462,421.38578 L 392.04815,423.34267 L 396.1283,423.34267 L 397.59702,426.27803 L 400.53448,426.27803 L 402.98239,427.42086 L 404.28759,431.49706 L 403.47196,433.78075 L 403.47196,436.87852 L 401.43138,438.91762 L 402.32928,441.77076 L 405.91983,442.7492 L 409.18335,440.79231 L 411.54998,443.15623 L 410.48956,446.9898 L 413.75307,447.96825 L 415.54786,446.17377 L 418.48533,447.96825 L 421.74984,447.96825 L 421.74984,450.24997 L 417.83321,452.04446 L 416.85406,456.44748 L 419.62801,456.44748 L 423.05506,454.81738 L 424.84983,457.42592 L 428.76647,455.3066 L 433.33618,454.00136 L 436.02886,451.31062 L 438.55801,451.22842 L 441.98505,451.066 L 444.43293,448.61989 L 447.3704,448.61989 L 448.18702,450.90359 L 446.22871,453.51213 L 443.94336,453.51213 L 443.94336,456.44748 L 446.71828,457.58834 L 448.75787,459.62743 L 450.63489,463.6234 L 452.4297,465.41592 L 455.20365,468.18884 L 457.16196,474.71118 L 457.16196,480.09263 L 459.77336,482.53875 L 459.77336,486.45255 L 462.5473,491.34477 L 463.36392,495.58537 L 464.50562,499.33673 L 466.62745,503.57537 L 470.21801,502.92372 L 472.0128,499.17236 L 474.6242,498.35829 L 476.41899,500.4776 L 476.41899,502.92372 L 478.21378,504.71624 L 480.17306,506.67313 L 483.76265,506.02149 L 485.3949,507.65353 L 489.47407,506.99993 L 491.51463,504.96281 L 495.67603,504.96281 L 497.67449,506.95982 L 500.73436,508.30518 L 503.01968,510.4245 L 503.67181,514.33829 L 506.44672,516.13277 L 507.75195,519.0681 L 511.17898,521.18742 L 511.17898,525.10121 L 515.58518,526.24209 L 519.50182,527.54733 L 523.74448,525.91724 L 526.27463,523.38892 L 527.17154,526.73131 L 528.96729,529.99344 L 530.43602,532.43957 L 526.15517,533.43954 L 524.95068,540.04195 L 522.358,542.63302 L 517.13519,542.42733 L 515.40922,543.93625 L 513.31044,547.44307 L 513.77309,557.77098 L 510.86944,560.84469 L 507.57044,560.80227 L 503.07842,564.8906 L 503.08171,560.64827 L 497.03828,561.71915 L 493.45962,560.51835 L 486.14064,557.02906 L 486.57863,560.74732 L 485.19473,564.18334 L 481.54109,568.47515 L 478.5133,575.92162 L 477.26548,580.85245 L 480.19037,580.99965 L 480.59754,582.96893 L 479.85687,584.95364 L 478.06295,586.03466 L 476.92874,584.13198 L 474.01027,584.91068 L 471.75171,584.20409 L 471.96294,582.20281 L 466.98035,581.50896 L 464.63919,583.09401 L 457.96389,583.60762 L 457.31132,585.26244 L 455.41917,583.35438 L 454.0922,584.74952 L 451.79013,586.19206 L 453.03885,587.21418 L 458.9784,588.08423 L 456.7637,590.43502 L 455.28766,593.14955 L 455.585,596.86798 L 456.68997,600.50361 L 457.78202,604.16201 L 458.7039,607.40633 L 458.1956,612.04931 L 454.94576,611.83151 L 455.74131,614.47752 L 453.14696,615.6958 L 451.47604,616.00172 L 450.43981,617.66689 L 451.12727,621.19958 L 450.86064,623.48455 L 448.97284,620.71451 L 447.43848,620.36435 L 442.8465,619.87337 L 442.34132,618.09624 L 441.481,614.70803 L 435.59366,612.68074 L 433.40349,611.93861 L 430.11292,612.16895 L 428.91608,610.6119 L 426.21434,610.0412 L 423.93881,610.69591 L 421.54439,610.27943 L 421.17977,608.73007 L 419.19871,608.36227 L 416.73727,609.28838 L 413.91299,608.92187 L 412.98773,608.15988 L 411.49721,606.9324 L 409.07437,607.37154 L 406.27837,606.91074 L 405.76391,608.19926 L 404.43046,607.95626 L 403.07111,607.05961 L 401.0344,606.65406 L 400.57094,605.10791 L 398.14415,604.53843 L 396.30399,603.47686 L 394.84506,601.77586 L 393.72517,600.12033 L 390.56751,599.37396 L 387.16744,599.27866 L 384.6124,599.50359 L 382.50543,602.92689 L 382.15807,605.46661 L 381.17291,608.8881 L 378.59589,606.35602 L 375.44733,604.69448 L 372.96808,602.43456 L 370.16235,601.00706 L 367.00567,599.14434 L 364.20509,598.74458 L 361.33858,598.33542 L 357.73953,600.45504 L 355.24089,602.85589 L 356.85558,604.8425 L 358.20008,607.48158 L 356.23112,607.38948 L 352.37772,607.20925 L 350.88127,605.6027 L 348.47957,605.45597 L 346.00376,607.45515 L 343.08864,609.13593 L 338.63725,609.49697 L 334.34981,610.40373 L 332.14918,612.72509 L 330.05532,614.76026 L 327.41834,614.81381 L 325.99621,616.24376 L 326.00029,619.16416 L 324.78758,620.75517 L 323.12751,618.75481 L 320.60994,615.52686 L 322.03446,612.46185 L 320.82462,609.53698 L 316.76356,609.45949 L 314.34322,609.41332 L 311.14486,607.52403 L 308.17997,606.96298 L 307.53439,601.93529 L 309.93598,599.55509 L 308.75334,593.93479 L 306.01048,592.97239 L 304.57439,591.10755 L 306.61252,586.63589 L 308.5165,583.76627 L 310.02459,579.65616 L 308.04185,579.86591 L 306.43199,580.92946 L 305.96247,574.59738 L 305.52913,572.20459 L 303.12537,569.35645 L 302.48418,566.41005 L 299.80126,565.28624 L 295.95485,567.33339 L 284.39602,560.42545 L 281.46886,560.99773 L 277.40422,559.41686 L 274.9397,556.68288 L 271.44955,556.08667 L 265.57461,537.82298 L 251.70293,515.15432 L 224.77618,510.91568 L 200.46082,555.92428 L 194.42237,553.96737 L 194.42237,542.55085 L 190.17969,536.19094 L 186.09956,533.58239 L 179.409,531.78792 L 175.32885,531.6255 L 171.08617,531.46306 L 172.06532,529.17937 L 175.57365,525.67262 L 177.77673,521.51423 L 175.24758,518.98787 L 173.12575,516.86661 L 172.06532,511.24053 L 169.45393,509.44801 L 172.71745,505.53423 L 171.73828,499.98837 L 174.18618,494.4445 L 169.69871,489.95929 L 170.75914,487.43295 L 174.02364,487.43295 L 176.1445,489.55226 L 178.59236,492.81441 L 181.36731,492.81441 L 181.36731,487.59537 L 183.73294,485.23144 L 188.05787,485.23144 L 192.13802,486.77935 L 197.68589,489.87905 L 201.52124,493.71067 L 202.41914,492.81441 L 200.2973,489.06303 L 202.58168,486.29011 L 205.68266,484.98683 L 207.47744,481.39787 L 210.49717,478.38232 L 212.61802,476.26104 L 210.74196,471.12417 L 206.66181,469.49408 L 204.86701,471.28855 L 201.11293,464.92866 L 199.31814,461.3397 L 194.91195,461.01486 L 189.36308,460.03641 L 184.30476,461.01486 L 181.52984,459.70961 L 179.24547,460.85048 L 179.24547,458.73117 L 176.47153,459.87203 z" id="kz" />
	</g>
	
<g>
<title>   "Республика Беларусь"
		  Срок доставки по обычной отправке 4-11 дней.
		  Не считая дня приема, праздничных и выходных дней. 
</title> 	
	<path class="landxx by" d="M 59.047348,240.99923 L 60.765766,239.28205 L 60.615956,235.47394 L 62.334371,234.57767 L 65.54698,233.98082 L 66.742528,235.77235 L 69.992343,237.15392 L 73.989253,233.1599 L 76.678991,228.75494 L 80.779692,225.02704 L 80.779692,225.02704 L 83.592805,226.58864 L 85.593218,229.46235 L 87.905982,230.77346 L 89.531379,232.39769 C 89.531379,232.39769 91.906809,232.02294 92.281826,232.02294 C 92.656842,232.02294 93.969888,233.70978 93.969888,233.70978 L 95.407288,236.20777 L 96.907356,234.45928 L 98.095071,233.08456 L 100.0945,232.64718 L 102.28193,230.83608 L 104.5947,231.39868 L 106.72046,232.21081 L 108.00118,231.86736 L 108.71988,232.58555 L 110.15728,233.52289 L 112.59537,233.7724 L 113.03306,231.08657 L 114.84646,230.33708 L 114.84646,230.33708 L 117.39519,230.83413 L 119.43476,230.83413 L 120.49619,231.89378 L 120.74098,234.1765 L 122.69927,234.50232 L 123.43364,232.62664 L 126.53462,233.6863 L 128.5742,233.6863 L 129.63463,234.50135 L 129.14505,236.78407 L 130.6138,240.04523 L 132.89815,242.32795 L 132.08252,244.93748 L 131.10337,247.3836 L 134.20435,248.20158 L 136.97829,250.81109 L 136.97829,256.35595 L 133.8773,258.96546 L 132.73464,261.41158 L 129.47111,262.39004 L 128.16589,265.97799 L 126.37109,270.21665 L 125.39195,274.13043 L 125.55547,276.90237 L 123.92323,278.04421 L 126.37109,280.49034 L 125.39195,284.07831 L 124.57633,287.33946 L 121.47533,288.31791 L 118.21181,287.17606 L 117.23264,284.72995 L 115.43787,282.77304 L 112.98998,282.93645 L 112.17435,285.87179 L 110.0525,288.31791 L 106.95153,291.41665 L 105.4828,294.02618 L 102.54533,290.43822 L 99.281807,290.43822 L 95.365184,290.11239 L 92.753779,292.72191 L 89.326737,292.72191 L 89.081947,289.21614 L 86.389271,286.52539 L 84.267444,284.40412 L 84.267444,281.30538 L 80.350823,279.1851 L 81.085189,276.00514 L 78.392512,273.31439 L 75.781106,270.70489 L 75.781106,268.9114 L 73.333219,264.8342 L 73.00716,261.40963 L 69.743637,255.04972 L 66.806173,252.11438 L 63.134342,248.4452 L 61.746878,247.05972 L 56.575962,247.54894 L 56.575962,244.72612 L 54.938815,243.09015 L 59.047348,240.99923 z" id="by" />
	</g>
	
<g>
<title>   "Российская Федерация" 
		  Срок доставки по обычной отправке 4-11 дней.
		  Срок доставки по срочной отправке 3-5 дней.
		  Не считая дня приема, праздничных и выходных дней. 
</title> 		
	<g class="landxx ru" transform="matrix(0.979155, 0, 0, 0.978447, 49.0179, -58.1699)" id="ru" >	
	<path d="M 715.671,134.212 715.368,133.002 717.637,134.061 718.771,132.926 720.359,131.338 722.704,128.994 724.141,130.733 724.897,130.733 726.787,128.843 728.527,126.801 731.854,125.289 734.274,127.104 732.913,130.885 732.913,133.002 731.325,134.59 728.829,135.725 726.107,136.784 723.385,136.784 721.343,138.826 718.091,137.691 716.427,135.271 715.671,134.212"/>
    <path d="M 710.074,137.389 705.234,137.389 703.646,138.977 701.15,140.716 699.335,138.901 694.949,140.262 695.252,142.985 696.387,144.12 698.05,145.783 699.185,146.917 697.521,148.279 695.252,146.313 694.042,147.522 692.378,145.858 688.597,146.615 686.933,145.708 686.177,147.674 687.387,148.883 685.118,150.094 685.118,152.967 686.934,154.782 686.479,156.9 688.143,156.9 690.261,159.018 689.655,161.438 692.378,162.799 696.008,162.95 697.521,164.462 700.243,164.462 703.419,163.555 703.419,161.135 701.453,159.32 702.512,158.261 704.1,159.849 706.898,154.783 709.545,152.136 710.68,153.27 713.1,150.85 713.855,148.581 711.133,147.674 709.318,149.489 707.05,147.825 704.327,146.161 701.604,144.195 702.512,142.229 703.949,140.792 705.083,144.648 706.822,146.388 709.771,146.917 711.587,146.161 713.1,146.161 714.611,144.649 713.855,141.472 711.436,141.472 712.041,138.75 712.041,136.784 710.074,137.389"/>
    <path d="M 712.646,164.009 711.284,165.219 712.343,168.244 714.083,169.984 715.52,167.185 715.52,164.917 714.461,163.858 712.646,164.009"/>
    <path d="M 718.847,166.731 717.107,168.471 718.091,170.815 719.755,172.479 718.695,174.899 719.604,175.807 720.965,172.933 724.443,172.176 727.469,170.966 731.552,168.546 729.435,164.614 726.561,164.614 722.477,163.252 720.586,164.992 718.847,166.731"/>
    <path d="M 684.815,160.227 683.454,158.866 681.034,158.715 682.623,160.303 683.605,163.857 685.571,163.857 685.571,161.891 684.815,160.227"/>
    <path d="M 609.188,219.064 606.391,221.862 606.391,223.752 608.734,223.752 609.491,225.567 611.457,224.66 613.727,222.391 613.727,218.761 610.853,218.761 609.188,219.064"/>
    <path d="M 707.798,112.583 706.891,114.247 707.874,115.23 709.009,114.247 707.798,112.583"/>
    <path d="M 699.328,178.68 696.454,178.075 695.547,178.831 697.211,179.587 699.328,181.251 700.235,180.041 699.328,178.68"/>
    <path d="M 577.419,181.252 576.813,182.16 578.175,183.067 578.779,182.008 577.419,181.252"/>
    <path d="M 570.915,167.791 569.402,168.698 571.52,169.757 573.032,170.815 574.696,170.362 574.242,168.396 572.578,168.849 570.915,167.791"/>
    <path d="M 556.092,160.379 556.092,158.262 556.243,154.48 555.185,152.363 553.672,152.514 551.555,155.085 551.706,157.354 550.798,158.867 551.403,162.951 549.588,164.766 549.739,168.849 548.832,172.328 548.075,175.807 549.437,176.563 552.311,174.294 553.975,173.236 557.756,171.27 560.781,170.967 564.563,168.093 566.377,164.614 565.167,161.589 563.806,159.32 561.991,160.077 560.176,156.9 558.814,155.539 557.15,157.505 556.092,160.379"/>
    <path d="M 542.479,144.195 L 541.118,145.859 L 539.908,148.128 L 538.849,147.674 L 539.605,144.8 L 539.605,141.775 L 536.278,142.834 C 536.278,142.834 534.312,143.288 533.858,143.439 C 533.404,143.59 531.135,144.347 531.135,144.347 L 530.076,146.616 L 529.471,148.582 L 528.11,150.246 L 528.564,152.212 L 525.993,154.178 L 527.203,155.237 L 529.017,154.632 L 530.53,156.749 L 530.681,158.715 L 532.042,160.379 L 535.521,160.681 L 535.975,162.647 L 538.395,161.135 L 539.605,163.101 L 542.932,164.311 L 546.109,162.798 L 547.622,160.68 L 546.412,158.26 L 544.445,155.537 L 545.958,154.478 L 546.563,151.907 L 545.806,149.033 L 546.109,146.159 L 542.479,144.195 z "/>
    <path d="M 539.757,190.479 538.244,192.293 536.278,192.747 538.093,194.108 539.908,192.293 539.757,190.479"/>
    <path d="M 514.498,189.874 513.742,191.083 514.8,191.991 516.162,190.024 514.498,189.874"/>
    <path d="M 498.919,231.316 L 497.104,232.224 C 497.104,232.224 497.86,234.493 497.86,234.19 C 497.86,233.887 499.221,233.585 499.221,233.585 L 498.919,231.316 z "/>
    <path d="M 485.912,217.704 484.248,219.064 485.155,220.88 486.667,220.577 485.912,217.704"/>
    <path d="M 485.306,237.518 485.004,239.181 487.575,239.181 488.937,240.542 489.088,238.273 487.575,237.971 485.306,237.518"/>
    <path d="M 476.534,147.825 475.626,148.733 476.685,149.338 478.349,150.548 478.803,149.035 476.534,147.825"/>
    <path d="M 467.308,253.247 466.249,254.608 466.854,256.423 467.913,257.785 469.425,256.121 470.03,254.155 468.669,252.793 467.308,253.247"/>
    <path d="M 459.594,258.39 457.93,260.054 456.115,261.566 457.779,262.776 459.14,261.566 461.258,261.566 463.224,259.751 461.409,257.936 459.594,258.39"/>
    <path d="M 454.149,241.601 452.788,242.811 453.695,244.172 455.51,242.962 457.779,243.567 457.174,242.206 454.149,241.601"/>
    <path d="M 447.191,247.651 446.435,249.617 447.645,250.676 449.006,249.012 447.191,247.651"/>
    <path d="M 431.009,237.82 429.345,239.03 429.95,240.392 428.74,242.055 429.042,243.114 431.765,243.87 434.336,242.66 435.849,242.812 435.849,241.299 433.429,240.694 434.639,239.333 433.277,237.367 431.614,237.972 431.009,237.82"/>
    <path d="M 365.365,261.717 362.945,262.927 361.13,263.532 361.584,267.465 361.886,269.583 363.55,270.036 364.155,273.212 367.332,273.515 368.39,270.944 366.877,268.373 367.029,265.499 365.365,261.717"/>
    <path d="M 311.822,248.559 308.495,249.466 306.528,252.038 305.016,254.004 306.074,256.877 308.495,257.785 310.763,258.692 312.881,257.18 315.452,257.634 316.813,254.458 314.696,251.735 314.544,249.466 311.822,248.559"/>
    <path d="M 213.811,250.676 213.206,251.583 214.265,252.945 215.626,251.583 213.811,250.676"/>
    <path d="M 354.776,252.794 353.112,252.794 351.297,250.071 350.239,250.676 347.063,247.651 344.642,245.08 345.55,242.357 347.97,241.601 348.877,240.089 347.213,238.728 347.365,235.097 346.306,234.795 345.247,232.072 342.979,231.921 341.164,229.35 341.769,226.022 344.188,222.695 347.063,222.997 347.97,224.056 349.028,224.51 349.482,222.543 352.961,221.485 355.684,218.611 353.869,216.645 356.289,215.132 359.011,216.191 359.768,213.922 359.768,211.653 363.246,211.653 364.91,213.317 366.649,211.578 367.027,209.99 370.809,209.233 369.523,207.948 366.271,206.813 366.271,205.604 370.053,204.544 373.985,203.486 375.951,201.52 378.522,201.52 378.522,199.705 382.153,199.553 380.187,197.587 383.363,197.436 384.573,198.646 384.421,195.621 385.934,194.108 384.27,192.142 385.329,190.478 387.144,192.293 389.413,192.293 389.413,190.024 392.74,191.234 394.404,189.419 396.068,187.453 398.186,187.453 401.815,185.79 404.387,186.697 408.168,186.697 410.664,184.201 413.613,184.428 414.974,186.395 418.15,186.395 419.663,187.907 422.386,187.15 426.167,187.15 428.663,184.655 431.612,183.067 435.544,181.554 439.174,181.554 441.292,184.882 441.292,188.512 438.116,191.386 435.242,194.108 431.461,194.411 426.923,196.528 422.839,195.016 420.873,196.982 416.184,196.831 410.134,196.831 407.865,199.251 403.177,199.251 399.698,201.217 400.757,203.637 398.336,204.544 395.463,204.242 392.892,204.242 392.589,205.906 389.867,205.149 389.867,207.872 387.144,209.838 384.875,211.502 384.875,208.931 383.06,210.595 383.514,213.62 381.699,213.62 380.413,212.334 380.413,213.771 380.413,216.04 379.09,214.716 377.389,216.417 375.951,217.855 373.984,217.855 372.472,219.821 370.506,223.148 367.33,223.148 364.758,225.266 364.758,228.14 362.187,229.199 361.279,232.224 359.162,234.341 359.162,238.123 358.103,240.845 359.464,244.777 358.254,248.71 359.918,251.281 360.674,254.004 359.767,254.912 357.196,256.122 357.196,254.155 354.776,252.794"/>
    <path d="M 489.25,128.245 488,128.495 487.188,129.307 488.438,130.557 490.125,129.995 491.125,128.995 489.25,128.245"/>
    <path d="M 517.875,125.745 516.75,126.87 517.625,127.745 518.563,128.682 520.5,126.87 520.5,125.62 517.875,125.745"/>
    <path d="M 529.875,124.12 529.5,126.62 527.25,127.62 523.875,129.87 523.875,132.995 525.25,134.37 523.438,136.182 522.25,138.495 523.875,140.745 524.5,142.995 527.375,145.495 530,142.995 531.75,142.995 534.375,141.495 537.5,140.495 536.625,137.495 536.625,133.745 538.5,132.12 536.938,130.557 533.75,127.37 532.625,124.87 529.875,124.12"/>
    <path d="M 522.5,144.87 520.375,144.62 520.75,147.37 520.75,149.12 523.5,149.87 524.625,150.995 526.313,149.307 527.25,146.87 525.625,145.62 522.5,144.87"/>
    <path d="M 489.125,208.87 488.313,209.682 489.375,210.62 491.125,210.12 489.125,208.87"/>
    <path d="M 451.125,104.12 449.875,104.495 450.875,105.87 450.875,107.12 452.625,107.12 452.625,104.745 451.125,104.12"/>
    <path d="M 450.75,114.745 449.875,116.12 446.625,116.745 444.5,117.87 446.125,118.62 445.375,120.37 446.75,120.745 449.5,120.745 451.688,118.557 453.313,116.932 452.75,114.495 450.75,114.745"/>
    <path d="M 440.375,112.495 439.688,113.182 441,114.495 443.375,113.62 443.375,111.62 442,111.62 440.375,112.495"/>
    <path d="M 438.563,116.432 436.75,114.37 435.375,115.745 434.375,117.745 434.375,120.245 436.5,120.62 437,122.12 439.625,121.495 441.313,119.807 442.563,118.557 443.25,116.495 441.375,116.495 438.563,116.432"/>
    <path d="M 431.125,125.12 430.313,125.932 430.313,127.495 432,127.495 432.625,125.495 431.125,125.12"/>
    <path d="M 427.625,118.745 426.75,117.87 424,117.87 424,119.745 422.5,121.245 423.375,122.12 426.375,121.495 427.5,122.62 430.125,121.995 430.875,120.245 432.75,120.87 431.75,118.62 430.063,116.932 427.625,118.745"/>
    <path d="M 441.5,97.87 440.75,99.37 442.063,100.682 443.313,99.432 441.5,97.87"/>
    <path d="M 438.75,101.37 436.75,101.37 436.75,103.62 438.875,105.745 438.875,107.495 440.75,106.62 439.625,104.245 438.75,101.37"/>
    <path d="M 426.25,107.87 424.5,107.87 424.125,108.245 425.563,109.682 426.25,107.87"/>
    <path d="M 427.75,110.745 426.563,111.932 427.75,113.245 429.125,113.12 427.75,110.745"/>
    <path d="M 428.875,105.245 428.875,106.87 430.625,106.87 430.25,104.995 428.875,105.245"/>
    <path d="M 431.313,109.307 431.313,110.745 432.75,110.745 431.625,109.62 431.313,109.307"/>
    <path d="M 432.75,112.62 433.375,113.245 434.5,112.12 432.75,112.62"/>
    <path d="M 434.5,105.995 434.5,107.745 436,107.87 436,105.995 434.5,105.995"/>
    <path d="M 432.25,102.495 433.125,104.12 433.938,103.307 433.125,102.495 432.25,102.495"/>
    <path d="M 416.125,112.995 415.188,113.932 416.813,115.557 418.625,115.62 418.625,112.62 417.375,110.995 416.125,112.995"/>
    <path d="M 420.25,110.995 420.875,112.745 422.125,112.745 422.125,111.245 420.25,110.995"/>
    <path d="M 413.25,100.995 412,102.245 412,103.62 410.563,105.057 408,103.245 405.875,104.37 405.875,105.87 403.25,103.995 401.25,104.745 401.875,107.745 403.75,107.12 403.75,109.12 405.75,109.62 407.563,107.807 410.125,106.745 412.25,107.37 415.375,107.37 417.625,105.12 415.5,102.995 416.938,101.557 414.5,100.12 413.25,100.995"/>
    <path d="M 406.125,97.87 403.375,97.87 401.75,96.245 400.625,98.495 402.063,99.932 402.625,101.62 405.875,100.495 407,101.62 409.125,100.745 410,101.62 410,99.745 408.563,98.307 407.25,98.307 406.125,97.87"/>
    <path d="M 408.563,111.057 407.5,111.057 407.875,112.62 410.125,112.745 408.563,111.057"/>
    <path d="M 409,114.37 407.875,115.495 408.75,116.37 410.875,116.87 409.5,115.495 409,114.37"/>
    <path d="M 418.125,98.245 418.125,99.87 419.375,99.87 420.625,98.62 418.125,98.245"/>
    <path d="M 857.333,70.12 L 858.666,65.287 L 863.75,60.37 L 869.416,54.703 L 872,52.12 L 877,49.953 L 880.582,47.87 L 883.916,44.537 L 887.333,41.12 L 891.5,39.453 L 894.5,35.12 L 900.166,33.453 L 903.166,30.286 L 906.833,28.619 L 909.166,27.286 L 911.833,29.953 L 915.666,28.786 L 919.083,31.369 L 921.333,29.119 L 925.333,26.952 L 925.333,24.952 L 921.333,25.785 L 916.666,25.452 L 913.666,24.619 L 914.666,21.619 L 917.833,19.452 L 915.166,18.785 L 915.166,17.285 L 917,17.453 L 917.333,14.453 L 919,12.12 L 921.333,9.787 L 925.333,8.287 L 926.5,8.287 L 929.5,4.12 C 929.5,4.12 932.333,3.287 933.333,2.287 C 934.333,1.287 933.333,5.12 933.333,5.12 L 935.5,6.953 L 937.166,8.62 L 935.333,12.453 C 935.333,12.453 937.833,12.453 938.833,11.453 C 939.833,10.453 938.833,13.453 938.833,13.453 L 938.833,16.953 L 935,19.453 L 938,19.953 L 939.833,18.12 L 943.75,19.62 L 943.75,17.87 L 946.833,20.953 L 949,24.287 L 950.833,23.787 L 952.666,21.454 L 952.666,23.621 L 953.833,26.288 L 950.333,26.288 L 950.333,27.621 L 953.166,28.454 L 951.666,32.787 L 947.833,33.12 L 944.333,36.953 L 942.5,40.953 L 939,42.12 L 936.5,41.12 L 933.333,41.12 L 930.5,45.287 L 931.75,47.787 L 931.75,52.037 L 929,54.787 L 926.833,53.12 L 924.666,54.787 L 921.5,54.787 L 919.666,53.287 L 918,52.287 L 917.75,53.87 L 919,55.12 L 917.5,55.787 L 916.5,56.787 L 919.416,57.287 L 919.416,59.537 L 921.666,61.787 L 925.333,60.787 L 927.833,60.787 L 927.999,63.954 L 929.499,62.454 L 932.083,65.038 L 934.833,67.788 L 936.166,72.621 L 936.833,76.454 L 934.166,80.787 L 931.666,80.787 L 928.166,82.287 L 927,84.953 L 929.833,83.786 L 931.666,83.786 L 929,86.954 L 930.666,88.62 L 932.833,87.787 L 932.833,84.62 L 934.833,83.12 L 938.416,83.037 L 940.5,80.954 L 941.5,79.287 L 944,79.454 L 946,79.121 L 949.666,78.954 L 949.666,81.287 L 952.666,81.287 L 953.5,79.704 L 956.416,79.704 L 958.166,77.954 L 960.333,77.621 L 962.166,79.121 L 964.833,77.121 L 966.083,80.038 L 968.5,82.455 L 968.5,85.955 L 965.166,87.288 L 963,91.953 L 959.5,91.953 L 958.5,93.453 L 962.416,96.036 L 961.166,97.286 L 964,101.62 L 965.166,106.953 L 965.166,112.953 L 966.166,117.62 L 967.833,121.62 L 968.667,126.953 L 970.333,132.12 L 973.5,134.953 L 973.5,139.786 L 975.167,146.453 L 978,149.62 L 979.833,151.453 L 977,153.953 L 974,152.453 L 969.833,153.786 L 967.667,158.786 L 964.167,163.786 L 966,165.62 L 964.667,170.287 L 964.667,172.787 L 967.5,177.12 L 967.5,179.787 L 964.333,178.287 L 962,175.953 L 960,176.12 L 961.833,180.953 L 961.833,184.12 L 964.916,185.537 L 961.833,188.62 L 959.833,188.62 L 959.833,192.953 L 958,194.786 L 960.5,198.953 L 962.5,200.953 L 964.833,203.286 L 968,206.453 L 968.666,211.12 L 969.166,214.787 L 973.75,217.203 L 976.5,219.953 L 981.166,219.953 L 979.916,217.12 L 979.916,215.703 L 981.5,214.12 L 982.667,211.62 L 987,215.953 L 987.833,219.786 L 992.166,222.786 L 996.458,223.744 L 998.166,222.036 L 1000.916,222.036 L 1004.166,225.286 L 1002.833,228.453 L 999.5,229.453 L 1000.5,233.453 L 1004,239.286 L 1007.083,240.036 L 1009.5,242.453 L 1015.166,241.786 L 1018.5,244.453 L 1019.666,247.453 L 1017.666,248.786 L 1014.833,250.619 L 1013.166,254.286 L 1014.333,260.953 L 1017.666,266.12 L 1020.583,267.203 L 1022,268.62 L 1026.833,269.787 L 1026.833,271.787 L 1023.166,272.287 L 1023.166,275.287 L 1021.833,278.287 L 1023.5,284.287 L 1026.332,285.454 L 1030.666,289.787 L 1033.833,292.787 L 1034.5,298.12 L 1036.166,305.12 L 1037,309.62 L 1037,312.953 L 1035.166,310.453 L 1030.333,310.453 L 1027.25,308.87 L 1024.833,306.453 L 1021.5,306.453 L 1018.5,303.453 L 1012.666,300.786 L 1007.166,298.453 L 1000.833,295.12 L 999,292.62 L 996,290.62 L 992.666,289.953 L 985.5,287.786 L 980.833,285.286 L 976.333,282.286 L 974.166,278.286 L 969.333,273.453 L 966,269.953 L 965.999,266.453 L 963.666,264.12 L 963.166,260.287 L 960.333,256.287 L 957.249,255.62 L 957.249,254.203 L 958.666,252.786 L 959.833,250.286 L 958.25,247.536 L 959.75,246.036 L 961,244.786 L 959.333,239.786 L 958.5,234.453 L 956.5,228.286 L 953.333,224.119 L 952,218.619 L 950.5,213.452 L 948.833,209.285 L 946.833,203.118 L 944.833,201.451 L 944.666,198.118 L 945.833,194.118 L 945.833,191.785 L 945.833,188.952 L 943.833,186.952 L 941.666,182.785 L 939.5,182.785 L 937.416,182.035 L 935.5,180.118 L 933.166,177.118 L 929.666,174.951 L 929.666,171.118 L 932.833,168.119 L 931.749,167.035 L 929.166,169.618 L 925.5,171.618 L 925.5,175.118 L 924.5,177.785 L 926.499,179.618 L 929.416,182.535 L 932.166,185.285 L 935.5,185.285 L 935.166,187.452 L 933.666,187.285 L 932.083,189.535 L 934.166,191.618 L 934.166,196.951 L 935.833,200.951 L 936.166,207.284 L 935,211.12 L 933.666,207.787 L 930.666,206.287 L 930.667,210.454 L 928.167,207.954 L 926.5,206.287 L 925.166,203.454 L 920.5,199.121 L 921.833,202.788 L 920.5,206.788 L 916,206.788 L 916,209.455 L 914.5,214.955 L 912.666,217.122 L 912.833,224.455 L 915.833,226.455 L 915.333,231.122 L 918.333,235.789 L 918.333,240.789 L 919.25,247.372 L 922,250.122 L 922,253.122 L 924.333,255.455 L 926.5,255.122 L 928.416,253.372 L 929.833,251.955 L 932.333,251.955 L 932.166,255.122 L 929.5,255.955 L 929.5,260.455 L 924.5,261.288 L 925.666,267.121 L 925.166,269.621 L 922,270.953 L 922,274.453 L 920.833,277.62 C 920.833,277.62 916.916,278.537 917.666,277.787 C 918.416,277.037 916.166,276.287 916.166,276.287 L 916.166,274.12 L 916.833,271.953 L 919.583,271.036 L 918.333,269.786 L 915.333,270.953 L 912.166,271.453 L 912.166,272.953 L 907.5,275.12 L 905.166,277.953 L 902.5,278.62 L 900.333,280.787 L 899.5,283.287 L 900.332,286.454 L 902.166,288.287 L 900,290.62 L 896.5,289.287 L 897.583,292.87 L 895,295.453 L 892.666,297.62 L 890.666,297.62 L 888.666,299.453 L 890,301.62 L 891,302.62 L 888.166,304.453 L 884.333,304.453 L 880.583,308.203 L 878.166,310.62 L 875.499,315.12 L 872.666,317.953 L 869.833,323.62 L 869.333,329.12 L 872,334.453 L 869.5,336.953 L 868.667,342.286 L 870.166,346.119 L 872.5,348.452 L 870.5,351.785 L 870.5,356.285 L 870.5,362.285 L 869.5,366.452 L 869.5,372.119 L 871.167,373.952 L 871.167,377.952 L 871.167,382.452 L 869.667,388.119 L 869.667,392.786 L 867.167,396.953 L 867.167,401.119 L 865.833,404.786 L 867.333,408.161 L 869.875,408.161 L 871.833,406.203 L 874.582,406.203 L 876.75,404.035 L 879.166,401.619 L 880.833,403.286 L 882.833,404.286 L 882.833,406.453 L 884.417,409.369 L 886.417,411.369 L 888.167,409.619 L 888.167,406.953 L 885.833,405.953 L 885.833,403.453 L 887.667,401.453 L 887.667,403.119 L 889.667,404.619 L 890.667,404.286 L 891.667,405.286 L 891.667,408.286 L 891.667,410.453 L 895,409.12 L 895,407.454 L 896.833,404.954 L 898,403.954 L 899.833,405.287 L 900.25,402.537 L 898.667,400.954 L 897.167,398.12 L 895.333,394.787 L 898.333,393.121 L 900.167,391.287 L 903.833,390.454 L 908.167,390.454 L 911.75,390.871 L 913.333,392.454 C 913.333,392.454 917.167,391.787 918,391.787 C 918.833,391.787 921.166,390.786 921.166,390.786 L 923.25,392.87 L 921.666,394.454 L 920.5,395.62 L 919.5,397.454 L 922.333,397.454 L 925.333,397.454 L 926,399.62 L 928.5,402.12 L 931.584,401.704 L 933.167,403.287 L 934.833,406.454 L 935.333,412.787 L 937.5,419.454 L 940.916,424.37 L 945.166,428.62 L 946.833,430.288 L 947.666,433.12 L 951,436.454 L 953.333,440.454 L 954.167,442.788 L 957.25,447.538 L 959.833,450.12 L 959.833,457.12 L 958.833,463.12 L 960.667,469.12 L 960.5,475.286 L 962.333,480.12 L 963.666,485.454 L 964.666,490.286 L 965.666,496.786 L 965.666,503.12 L 964.666,506.454 L 964.666,512.954 L 964.666,520.954 L 963.666,526.954 L 964.666,533.12 L 964.333,541.12 L 964.333,544.954 L 961,550.454 L 958.833,555.12 L 956.333,559.788 L 954.166,559.788 L 950,561.453 L 946.5,563.453 L 944.083,562.453 L 944.083,560.203 L 942.833,558.953 L 941.582,561.787 L 941.582,564.869 L 940.166,563.453 L 938,561.287 L 938,562.953 L 937.333,567.119 L 938,569.953 L 937.083,573.203 L 935.666,574.619 L 935.666,576.287 L 935.666,578.953 L 932.5,578.787 L 931.166,577.453 L 932.333,573.619 L 934.333,569.619 L 934.333,566.287 L 932.583,562.369 L 929,558.787 L 927.166,556.953 L 925.666,553.119 L 922.5,549.953 L 919.5,548.953 L 919.416,545.703 L 921.5,543.619 L 923.333,541.787 L 923.333,538.453 L 925.666,536.119 L 928.333,534.787 L 931.084,535.703 L 933.5,533.287 L 935,530.287 L 932.333,526.119 L 933.666,522.619 L 932,518.953 L 931.666,515.119 L 929.333,511.953 L 930,509.287 L 928.166,506.119 L 927.333,502.453 L 924,498.953 L 926.5,496.453 L 926.5,492.785 L 924.417,490.703 L 922,488.285 L 921.333,486.119 L 918.5,486.119 L 914.5,488.285 L 913.5,491.619 L 910.833,495.953 L 907.833,499.785 L 909.167,503.953 L 905.667,506.785 L 902.167,508.785 L 899.167,509.785 L 898.333,512.785 L 895.167,512.785 L 892,510.953 L 889.667,510.119 L 889.667,506.285 L 887,503.953 L 884.833,501.785 L 881.25,500.869 L 879.333,502.785 L 875.5,501.785 L 872.333,500.953 L 867.5,501.619 L 863,501.619 L 861.167,503.453 L 856.167,505.285 L 851.167,504.285 L 849.084,500.203 L 846.667,497.785 C 846.667,497.785 843.834,496.119 843.834,495.451 C 843.834,494.783 840.667,492.285 840.667,492.285 L 836.667,491.619 L 835,487.619 L 831.166,484.619 L 828.5,481.953 L 824.833,480.953 L 823.5,477.453 L 820.166,475.953 L 818.166,473.953 L 811.5,473.285 L 808,473.285 L 804,475.453 L 799,474.619 L 795.166,475.953 L 791,475.953 L 785.332,480.119 L 782.666,482.785 L 777.416,485.869 L 774.833,488.453 L 773,493.953 L 771.666,497.285 L 773.5,499.619 L 776.083,497.535 L 778.166,499.619 L 780.5,501.953 L 781.833,507.285 L 780.5,510.119 L 779.5,517.285 L 779.5,521.785 L 777.666,526.453 L 780.166,531.285 L 781.666,532.785 L 781.666,537.453 L 778.166,538.453 L 775.916,543.703 L 772.666,546.953 L 767.166,548.953 L 761,548.453 L 756.5,547.619 L 753.167,549.619 L 748.5,552.285 L 745,550.453 L 741.833,549.285 L 737.667,551.119 L 734.167,554.619 L 731.667,557.119 L 730.25,562.035 L 727.333,564.953 L 723.5,567.619 L 718.167,570.119 L 714.083,574.203 L 712,576.285 L 706.667,576.285 L 701.833,577.785 L 695,577.785 L 690,578.453 L 685.5,576.953 L 684.166,574.453 L 681.833,572.119 L 675.5,572.119 L 669.667,571.285 L 667.333,569.785 L 659.667,570.869 L 654.916,570.869 L 651,574.785 L 646.667,575.785 L 642.5,576.953 L 636.5,576.453 L 632.418,574.703 L 629.834,572.119 L 627.418,567.035 L 624.334,563.953 L 620,562.287 L 615.834,562.287 L 611.084,563.535 L 607.834,560.287 L 601.334,560.287 L 597.5,557.453 L 595.583,559.369 L 593,561.953 L 590.917,566.203 L 588.667,568.453 L 588,572.787 L 590.084,575.287 L 590.084,579.035 L 593,581.953 L 593,585.953 L 589.084,588.537 L 585.334,592.287 L 582.167,592.287 L 577.334,592.287 L 572.834,591.119 L 568.167,591.953 L 564.834,590.953 L 560,589.285 L 557.334,586.619 L 554.167,583.453 L 550.334,582.287 L 545.834,584.119 L 543,581.285 L 539.417,579.703 L 536.5,582.619 L 532.834,582.619 L 531.667,586.119 L 527.334,586.119 L 521.834,589.619 L 518.5,592.953 L 515.167,592.953 L 514.5,596.453 L 510.584,597.369 L 507.834,600.119 L 502.834,599.953 L 498.667,602.285 L 496.5,604.453 L 491.667,603.619 L 490.167,601.119 L 488.334,597.785 L 487.417,594.369 L 484.834,596.953 L 480.501,598.619 L 476.501,597.285 L 472.001,596.119 L 472.001,592.119 L 468.501,589.953 L 467.168,586.953 L 464.335,585.119 L 463.668,581.119 L 461.335,578.953 L 458.21,577.578 L 456.168,575.537 L 451.918,575.537 L 449.835,577.619 L 445.668,578.287 L 444,576.619 L 440.334,577.285 L 438.334,575.285 L 436.501,573.453 L 436.501,570.953 L 434.668,568.787 L 432,569.619 L 430.167,573.453 L 426.5,574.119 L 424.333,569.787 L 423.166,565.953 L 422.333,561.619 L 419.5,556.619 L 419.5,552.619 L 416.833,550.119 L 416.833,544.619 L 414.833,537.953 L 412,535.119 L 410.167,533.287 L 408.25,529.203 L 406.167,527.119 L 403.334,525.953 L 403.334,522.953 L 405.667,522.953 L 407.667,520.287 L 406.834,517.953 L 403.834,517.953 L 401.334,520.453 L 397.834,520.619 L 395.251,520.703 L 392.501,523.453 L 387.834,524.787 L 383.834,526.953 L 382,524.287 L 378.5,525.953 L 375.667,525.953 L 376.667,521.453 L 380.667,519.619 L 380.667,517.287 L 377.334,517.287 L 374.334,515.453 L 372.501,517.287 L 369.168,516.287 L 370.251,512.369 L 367.834,509.953 L 364.501,511.953 L 360.834,510.953 L 359.917,508.037 L 362.001,505.953 L 362.001,502.787 L 362.834,500.453 L 361.501,496.287 L 359.001,495.119 L 356.001,495.119 L 354.501,492.119 L 350.334,492.119 L 347.001,490.119 L 343.334,489.785 L 341.334,492.619 L 337.167,492.619 L 333.5,493.619 L 330.5,491.953 L 326.833,492.619 L 322.333,492.619 L 318,490.369 L 316.25,490.369 L 314.333,492.285 L 311,492.953 L 307.833,491.285 L 305,491.285 L 301.167,490.119 L 295.5,490.285 L 291.333,489.453 L 288.333,490.285 L 285.666,487.953 L 281.833,485.953 L 278.333,485.953 L 277.166,489.619 L 278.333,492.119 L 276,494.453 L 277.833,495.619 L 279.666,497.453 L 281.916,499.703 L 279.833,501.785 L 277.5,501.785 L 274.667,498.953 L 270.334,499.119 L 267.501,500.285 L 268.668,504.453 L 267.501,507.453 L 264.668,508.285 L 261.335,507.453 L 260.002,510.953 L 261.085,513.369 L 263.418,515.703 L 265.001,517.285 L 265.668,520.119 L 268.001,522.453 L 265.668,525.619 L 263.501,527.785 L 259.834,527.785 L 256.084,528.035 L 254.167,526.119 L 252.834,523.41 L 251.126,523.41 L 249.334,525.203 L 246.417,525.203 L 243.167,521.953 L 242.542,520.078 L 240.084,517.619 L 240.084,513.369 L 238,511.285 L 234.167,511.285 L 231,512.453 L 229.833,509.953 L 226.666,507.453 L 223.833,505.953 L 220,507.787 L 216.5,508.287 L 213.667,507.453 L 211.667,503.619 L 208.834,501.119 L 206.834,504.453 L 204.667,504.453 L 204.667,501.787 L 206.667,499.787 L 205.334,496.953 L 203.667,492.619 L 203,488.119 L 200.5,485.119 L 196.5,483.619 L 195.334,480.787 L 193.167,478.619 L 189.167,479.287 L 186.834,479.287 L 186.834,476.119 L 185.667,472.787 L 181.584,472.035 L 179.501,474.119 L 175.668,475.453 L 172.335,473.619 L 168.835,473.619 L 167.168,476.119 L 163.668,476.119 L 159.835,476.119 L 159,477.953 L 156.833,480.119 L 156.5,483.285 L 152.417,482.537 L 150,480.119 L 150,476.785 L 151.084,473.535 L 149.334,471.785 L 146.5,471.785 L 145.333,474.453 L 143.166,476.035 L 139.916,476.035 L 137.333,478.619 L 135.166,480.785 L 135.166,483.785 L 132.333,484.953 L 129.333,484.785 L 127.166,486.953 L 124.499,488.785 L 125.582,492.035 L 127.999,494.453 L 126.999,498.785 L 124.832,500.953 L 126.999,502.285 L 130.166,505.285 L 132.166,507.285 L 131.333,511.619 L 132.25,517.285 L 132.25,521.869 L 130.5,523.619 L 128.833,521.785 L 126.333,521.453 L 126.666,524.453 L 128.083,527.369 L 130.166,529.453 L 128.499,531.119 L 125.666,531.453 L 123.333,531.453 L 121.5,531.453 L 120,531.453 C 120,531.453 118,531.703 116.417,531.703 C 114.834,531.703 115.167,530.453 115.167,530.453 L 112.667,529.785 L 111.501,528.619 L 108.501,528.119 L 108.501,530.453 L 106.168,531.453 L 103.335,534.785 L 100.168,534.785 L 96.668,535.785 L 94.626,535.244 L 92.918,536.953 L 92.918,539.703 L 94.668,541.453 L 95.668,544.619 L 94.835,547.785 L 94.085,550.703 L 92.168,552.619 L 92.168,553.785 L 90.501,555.285 L 86.834,561.285 L 86.834,565.953 L 87.834,571.619 L 87.167,575.953 L 87.5,581.285 L 83.5,583.119 L 80.833,581.953 L 77,583.285 L 73.333,582.453 L 72.833,579.285 L 71,573.785 L 70.667,569.785 L 68,567.953 L 68,565.785 L 66.667,562.285 L 64.334,559.285 L 65.834,556.785 L 66.834,553.953 L 64.334,551.285 L 63.501,548.285 L 60.668,547.953 L 60.085,546.203 L 58,544.119 L 54.333,543.619 L 52,541.285 L 51.333,535.953 L 49,533.785 L 49.667,530.453 L 46.834,528.119 L 45.334,524.287 L 42.834,523.119 L 39.167,520.619 L 38,516.619 L 35.5,512.787 L 34.667,509.453 L 32.834,509.119 L 31.501,507.453 L 29.834,505.119 L 27.667,505.453 L 26.334,501.453 L 26.834,493.787 L 26.167,488.119 L 24.834,485.287 L 23.167,482.787 L 23.5,477.787 L 21.5,475.953 L 20.167,473.287 L 21.167,470.287 L 20.334,466.953 L 22.167,465.119 L 24.167,464.787 L 26.834,468.119 L 29.334,468.953 L 30.501,466.453 L 33.334,465.287 L 37.167,465.119 L 39.167,465.119 L 41.667,465.953 L 42.167,461.787 L 40.834,459.287 L 41.501,457.119 L 43.501,457.453 L 45.334,458.787 L 47.334,460.619 L 48.834,459.119 L 51.167,460.119 L 55,460.619 L 57.833,461.787 L 58.5,458.787 L 56.5,457.287 L 53.667,456.619 L 51.834,454.787 L 49.834,454.119 L 52.334,451.453 L 56,449.787 L 59.167,451.119 L 62,449.953 L 64.667,452.787 L 68.667,457.119 L 72.334,453.453 L 74.834,451.953 L 74.167,448.285 L 76.5,445.953 L 78.833,446.287 L 78.666,443.619 L 84.833,442.787 L 86,439.953 L 87.333,438.287 L 84.5,436.953 L 84.5,433.453 L 81.833,430.453 L 80.833,426.619 L 78.333,425.119 L 75.666,422.119 L 76.666,418.619 L 75.666,413.452 L 72.5,411.12 L 68.833,408.287 L 67.666,404.453 L 65.166,402.453 L 64.333,400.12 L 66.5,397.62 L 68.167,393.953 L 68.167,390.453 L 66.334,387.12 L 64.501,384.287 L 66.168,382.954 L 67.168,380.454 L 69.168,380.454 L 70.668,379.121 L 71.835,374.621 L 72.168,371.954 L 70.834,368.621 L 69,366.787 L 66.5,366.454 L 64.667,364.454 L 63.167,362.287 L 60.917,364.203 L 59.167,362.453 L 57.667,359.953 L 59.167,357.286 L 62.334,354.119 L 64.501,351.619 L 65.334,348.619 L 67.834,348.452 L 69.667,350.452 L 70.667,352.952 L 74,354.12 L 77.167,353.12 L 78,349.787 L 79,346.12 L 76.5,343.62 L 78.167,342.453 L 78,339.62 L 79,335.62 L 80.833,331.287 L 82.166,327.62 L 85.499,326.62 L 86.666,324.12 L 89.833,321.453 L 89.833,315.786 L 87,313.12 L 83.833,312.287 L 84.833,309.787 L 85.666,307.12 L 83.333,304.787 L 81.833,301.454 L 82.333,299.121 L 85.5,295.954 L 87.333,292.621 L 86.5,289.621 L 89.167,288.954 L 93.167,286.454 L 93.167,282.954 L 94.834,280.954 L 99,280.787 L 100.833,278.62 L 101,276.12 L 104.5,274.787 L 107.333,270.954 L 111.166,271.121 L 114.499,269.121 L 118.999,270.121 L 119.666,267.621 L 121.166,266.121 L 123.999,267.454 L 126.332,269.954 L 130,271.12 L 131.333,274.12 L 132.666,277.453 L 134.666,275.453 L 134.333,270.62 L 131.333,267.953 L 131.333,262.286 L 134,261.62 L 134.833,260.787 L 131.166,259.287 L 128.999,256.787 L 166.332,256.62 L 173.332,254.12 L 173.332,249.787 L 174.499,238.787 L 179.166,238.787 L 183.166,235.62 L 183.166,231.287 L 186.166,230.12 L 186.166,224.453 L 188.833,224.286 L 194.666,219.619 L 197.499,220.952 L 203.666,209.452 L 204.083,206.369 L 209.166,201.286 L 217.666,201.286 L 220.333,196.619 L 220.333,187.619 L 225.666,184.952 L 232.666,181.452 L 237.499,183.285 L 240.333,183.285 L 242.666,185.618 L 245.528,183.624 L 244.832,187.118 L 247.665,186.785 L 251.665,186.952 L 251.665,189.619 L 252.498,192.619 L 250.665,191.452 L 248.748,189.535 L 246.998,191.285 L 247.831,194.452 L 247.831,197.619 L 250.664,199.119 L 252.831,201.286 L 252.831,204.786 L 255.248,205.953 L 255.248,209.87 L 257.998,212.62 L 259.331,217.287 L 259.331,222.12 L 258.498,226.287 L 259.498,228.62 L 259.581,233.703 L 262.498,236.62 L 262.331,240.287 L 261.664,246.287 L 258.747,251.37 L 254.33,255.787 L 249.663,255.787 L 244.496,256.787 L 239.996,255.12 L 235.079,252.37 L 232,249.286 L 232,244.786 L 228.833,241.619 L 227.333,238.119 L 226.166,234.786 L 224,231.12 L 222.833,224.953 L 220.5,223.953 L 221.25,220.203 L 223.167,218.286 L 220.834,215.953 L 219.751,218.87 L 218.168,220.453 L 218.835,224.12 L 218.918,228.37 L 217.085,230.203 L 219.502,232.62 L 218.835,236.287 L 216.502,241.454 L 212.419,242.704 L 209.169,245.954 L 207.919,251.871 L 204.836,254.954 L 205.836,258.454 L 207.336,262.787 L 204.919,267.037 L 208.336,270.454 L 212,274.12 L 216.167,271.12 L 217,266.954 L 214.833,264.787 L 215.166,261.12 L 215.166,258.287 L 217.999,255.287 L 220.832,255.287 L 221.832,262.787 L 222.749,267.704 L 225.666,270.621 L 227.499,274.454 L 232.249,275.871 L 233.666,274.454 L 232.499,271.621 L 235.332,269.288 L 235.499,263.455 L 240.666,264.288 L 245.499,262.455 L 249.499,264.622 L 253.999,263.205 L 257.082,263.205 L 259,265.12 L 261.833,269.453 L 259.5,271.786 L 259.5,275.453 L 261.583,272.87 L 264.5,269.953 L 268.5,269.12 L 271.833,264.287 L 271.833,260.12 L 273.166,257.287 L 277.499,255.12 L 277.499,252.453 L 281.666,249.953 L 281.666,245.786 L 280.999,241.786 L 283.832,241.786 L 284.749,243.869 L 288.499,247.619 L 291.332,251.952 L 291.332,257.785 L 290.332,260.785 L 288.832,262.285 L 286.332,259.785 L 282.832,258.952 L 277.499,260.785 L 277.499,265.118 L 278.832,269.118 L 278.832,272.451 L 282.665,273.451 L 286.332,275.118 L 290.499,273.118 L 290.499,270.118 L 294.832,269.118 L 298.999,271.118 L 298.332,268.451 L 304.832,269.618 L 308.332,268.951 L 314.665,269.784 L 318.332,269.784 L 320.165,273.117 L 321.832,273.117 L 321.832,270.117 L 327.165,268.45 L 330,268.45 L 331.167,272.783 L 328,272.783 L 327,275.783 L 324.5,276.616 L 328.333,280.116 L 331,280.116 L 336,277.949 L 340.75,278.866 L 345.917,284.033 L 347.667,282.283 L 351.167,282.283 L 355.584,280.866 L 357.334,282.616 L 356.834,284.949 L 354.167,286.782 L 354.167,289.615 L 357.334,292.282 L 357.584,289.199 L 359.001,287.782 L 362.334,288.615 L 362.334,285.948 L 365.501,285.448 L 366.168,281.448 L 365.668,276.615 L 368.668,275.115 L 371.251,274.365 L 374.334,277.448 L 375.667,276.115 L 379.084,280.365 L 383.001,284.282 L 386.168,287.449 L 388.251,291.699 L 392.168,295.616 L 394.835,299.783 L 397.668,303.616 L 397.668,306.949 L 400,310.62 L 403.333,308.62 L 403.333,305.12 L 407.166,301.62 L 404.499,300.787 L 402.666,296.454 L 403.333,291.787 L 400.166,289.62 L 398.416,286.037 L 399.999,284.454 L 403.332,282.787 L 403.332,280.12 L 404.165,276.12 L 405.665,274.12 L 405.665,271.62 L 403.498,270.953 L 404.665,267.62 L 406.498,265.287 L 409.831,264.12 L 413.414,262.37 L 414.664,261.12 L 417.497,258.287 L 419.664,253.454 L 421.331,249.454 L 423.164,245.454 L 426.331,243.787 L 428.331,246.62 L 432.331,246.62 L 434.331,248.62 L 437.831,248.62 L 439.331,254.287 L 437.664,255.954 L 436.914,262.037 L 432.164,266.787 L 430.831,271.12 L 433.664,273.62 L 432.664,279.287 L 431.831,283.787 L 428.498,288.787 L 427.331,295.954 L 425.498,302.287 L 424.165,305.454 L 425.415,309.871 L 428.332,312.788 L 427.832,315.455 L 424.165,318.288 L 423.498,324.455 L 419.831,325.455 L 415.498,329.788 L 412.998,333.455 L 410.665,334.788 L 406.498,333.955 L 403.998,335.622 L 401.248,333.872 L 399.498,332.122 L 396.998,331.289 L 396.998,334.456 L 399.498,338.289 L 401.998,339.456 L 405.331,341.789 L 408.164,341.622 L 410.164,344.455 L 413.164,344.455 C 413.164,344.455 414.414,342.205 413.747,341.538 C 413.08,340.871 415.497,339.788 415.497,339.788 L 417.664,339.788 L 418.664,338.788 L 422.831,337.621 L 426.164,335.788 L 426.164,332.288 L 427.664,330.788 L 430.247,328.205 L 432.33,326.122 L 433.33,322.122 L 432.497,318.622 L 432.164,315.455 L 434.414,313.205 L 436.664,310.955 L 440.164,310.955 L 443.997,310.455 L 445.08,313.705 L 446.663,315.288 L 448.663,320.455 L 446,323.12 L 446.167,327.12 L 446.167,329.62 L 449.5,332.953 L 453.333,333.786 L 453.333,331.453 L 449.583,330.37 L 448.166,328.953 L 448.166,326.953 L 447.833,323.953 L 450.5,323.12 L 451.5,320.953 L 450.5,317.786 L 451.667,315.119 L 450,311.786 L 447.833,309.786 L 446.5,308.453 L 442.417,307.036 L 440.084,304.703 L 438.167,306.62 L 435.667,307.787 L 434.334,305.954 L 431.334,305.954 L 430.834,302.787 L 432.834,300.787 L 432.334,295.454 L 434.667,291.787 L 436.167,287.454 L 439.5,284.121 L 438.333,280.454 L 437.333,277.287 L 437.75,273.871 L 435.333,271.454 L 438,268.787 L 442.167,264.62 L 445.667,264.62 L 447.667,261.453 L 449,257.953 L 447.833,255.12 L 449,252.62 L 451.667,252.62 L 450.834,256.12 L 450.834,260.953 L 450.167,265.286 L 447.167,268.286 L 447.167,272.453 L 447.167,275.453 L 450.667,278.12 L 452.667,279.787 L 455.25,278.204 L 457.833,280.787 L 460.666,283.454 L 460.666,281.454 L 459.583,278.871 L 457.666,276.954 L 454.666,275.454 L 454.666,274.121 L 452.166,271.621 L 451,267.953 L 454.5,265.62 L 456.167,267.287 L 458.834,269.954 L 460.834,268.121 L 460.167,265.954 L 459.917,264.037 L 461.834,262.12 L 465.167,262.787 L 467.917,262.37 L 470.167,264.62 L 474.5,266.953 L 473.333,270.286 L 474.416,271.369 L 477.333,274.286 L 481.833,274.286 L 482.5,271.619 L 480.667,269.119 L 480.834,266.786 L 477.667,265.619 L 475.334,261.786 L 474,260.453 L 475,256.453 L 476.5,253.12 L 475.167,251.787 L 474.334,247.62 L 477.667,244.62 L 485.5,244.62 L 489.5,246.12 L 489.5,245.12 L 496,245.12 L 500.333,243.287 L 503.499,243.287 L 505.166,241.62 L 503.499,239.12 L 501.499,238.453 L 499.832,236.786 C 499.832,236.786 500.499,236.119 501.749,234.869 C 502.999,233.619 502.999,236.119 502.999,236.119 L 504.999,235.619 L 503.666,234.119 L 504.583,232.036 L 503.166,230.619 L 504.833,228.286 L 507.166,226.453 L 504.833,226.286 L 504.666,223.786 L 509.333,223.953 L 511.166,220.12 L 515.749,218.37 L 517.499,216.62 L 523.749,215.703 L 525.332,214.12 L 529.832,212.787 L 530.832,211.62 L 527.832,210.62 L 529.499,208.953 L 533.832,207.953 L 537.499,207.453 L 538.332,205.62 L 541.332,205.12 L 539.749,208.12 L 539.749,210.537 L 541.832,208.454 L 547,208.62 L 547.5,205.953 L 550.833,205.286 L 554.166,205.953 L 552.666,203.953 L 550.666,202.453 L 549.666,200.62 L 553.333,200.62 L 557.166,199.453 L 558.333,199.453 L 558,196.62 L 556.666,195.62 L 556.666,191.62 L 557.5,188.953 L 560,182.786 L 563,180.619 L 565.666,177.786 L 569,179.786 L 571.5,179.453 L 572.25,182.87 L 569.666,185.453 L 567.5,188.286 L 572.791,188.578 L 573.833,187.536 L 577.083,187.536 L 579.5,189.953 L 577.333,192.12 C 577.333,192.12 577.166,194.287 578.166,194.287 C 579.166,194.287 581.833,195.454 581.833,195.454 L 582.666,192.621 L 581.166,191.121 L 584.833,189.121 L 588.166,189.121 L 591.583,186.704 L 593.5,188.621 L 596.083,187.371 L 598,189.288 L 599.666,192.621 L 601.666,194.288 L 602.833,192.955 L 604.583,194.705 L 606.833,196.955 L 606.5,200.455 L 603.166,199.788 L 604.5,201.121 L 607.833,202.954 L 609.916,206.537 L 608,208.453 L 608,211.786 L 606.333,214.119 L 604.75,217.369 L 602.833,219.286 L 599.5,223.286 L 599.5,224.953 L 598.5,229.62 L 596,232.12 L 595,237.287 L 591,238.287 L 589.75,242.037 L 587,244.787 L 586.333,249.12 L 585.5,252.12 L 588.5,250.787 L 587.833,247.454 L 590.833,245.621 C 590.833,245.621 593.5,244.788 595,244.788 C 596.5,244.788 597,241.788 597,241.788 L 599.833,239.455 L 602.5,238.455 L 604.083,235.372 L 602.833,234.122 L 600.833,233.955 L 601,232.62 L 600.833,229.953 L 603.333,229.786 L 605.333,229.786 L 608.166,230.453 L 611.5,231.786 L 612.166,229.786 L 614.25,226.869 L 616,228.619 L 616,231.952 L 618,234.785 L 620.333,234.785 L 618,232.62 L 619.583,231.037 L 622.666,227.954 L 626.833,225.787 L 633.166,224.62 L 638.166,223.12 L 639.417,225.037 L 638.25,226.204 L 641,228.954 L 646.166,228.954 L 646.333,227.621 L 646.833,225.788 L 648.833,228.955 L 652.333,227.622 L 655.833,224.622 C 655.833,224.622 659.5,223.955 660.333,223.955 C 661.166,223.955 660.333,220.955 660.333,220.955 L 659.833,217.622 L 657.333,213.789 L 658,209.956 L 658.5,207.956 L 660.5,209.956 L 662.583,208.373 L 664.333,210.123 L 667,211.956 L 667.666,209.956 L 669,209.62 L 670.333,211.12 L 671.666,210.12 C 671.666,210.12 671.5,207.037 672.75,207.037 C 674,207.037 674.333,205.454 674.333,205.454 L 678,208.287 L 679.166,207.12 L 683.166,208.453 L 681.833,212.536 L 683.749,212.536 L 685.666,214.453 L 685.666,217.62 L 688.833,215.62 L 690.5,217.287 L 690.5,220.954 L 688.333,221.621 L 687,222.953 L 689.333,225.286 C 689.333,225.286 691.166,224.453 691.166,223.619 C 691.166,222.785 692.666,225.119 692.666,225.119 L 692.666,227.786 L 696.083,227.702 L 699.333,230.952 L 701.833,232.619 L 705.333,233.286 L 706.833,231.786 L 710.666,233.786 L 711,230.62 L 709.333,225.12 L 708.333,222.62 L 708.333,220.287 L 706.166,218.12 L 706.166,215.12 L 710.333,215.62 L 712.666,217.953 L 716.333,216.953 L 720.5,216.953 L 719.666,212.62 L 722,208.287 L 726.333,207.287 L 729.5,207.12 L 733.166,208.12 L 733.166,205.62 L 729.25,203.87 L 730.666,202.453 L 732.5,200.453 L 735.666,200.62 L 738.166,198.12 L 737,197.453 L 734.5,194.953 L 731.666,193.453 L 731.666,189.786 L 730.5,188.786 L 728.833,193.119 L 726.833,191.786 L 726.833,188.286 L 730.5,184.953 L 730,182.62 L 726.5,180.453 L 728.666,178.286 L 731.833,178.286 L 736.5,175.953 L 737.833,172.12 L 744,169.787 L 748.833,167.62 C 748.833,167.62 749.5,168.287 749.5,169.287 C 749.5,170.287 746.333,171.454 746.333,171.454 L 745.166,175.954 L 748,174.62 L 750.5,172.12 L 753.666,173.12 L 752.833,179.62 L 755.666,176.953 L 755.666,173.786 L 754.666,168.453 L 755.333,166.12 L 756.833,161.953 L 760.333,160.286 L 765.333,158.119 L 768.333,160.286 C 768.333,160.286 766.916,162.203 765.833,163.286 C 764.75,164.369 767,165.12 767,165.12 L 770.666,165.12 L 773,162.453 C 773,162.453 775.666,165.286 776.166,165.786 C 776.666,166.286 775.666,161.953 775.666,161.953 L 780.166,159.453 L 783.333,161.12 L 786.833,160.954 L 790,157.787 L 793.333,153.62 L 793.333,148.787 L 797.5,142.62 L 801,139.12 L 804.166,135.287 L 809.666,134.454 L 814.25,134.204 L 816.5,136.454 L 821.166,141.121 L 825.333,139.288 L 828.333,136.871 L 831.583,136.871 L 830,135.287 L 830,132.953 L 833.166,129.787 L 833.166,124.287 L 834.666,121.454 L 837.166,121.454 L 839.333,119.287 L 839.333,115.954 L 843.5,112.954 L 844.5,108.954 L 842.833,107.287 L 843.5,105.287 L 841.167,101.954 L 843,98.62 L 844.75,96.87 L 847.917,100.037 L 845.5,102.454 L 848,104.954 L 851.833,104.954 L 854.5,103.954 L 858.167,102.287 L 861.5,101.454 L 862.333,98.787 L 861.333,96.12 L 859.5,95.787 L 853.833,93.287 L 849.667,93.954 L 848.667,91.621 L 845.333,91.621 L 845.333,89.788 L 846.167,86.621 L 849.167,85.121 L 849.5,81.621 L 852.167,80.121 L 854.5,80.121 L 853.5,77.288 L 854.5,74.288 L 857.333,70.12 z " />
    <path d="M 880.727,390.784 879.285,392.37 879.285,394.388 879.285,396.551 881.736,395.542 883.035,396.84 884.477,395.399 885.053,392.513 883.467,390.207 880.727,390.784"/>
    <path d="M 920.815,375.931 L 919.661,376.22 L 918.797,373.768 L 918.797,371.605 L 922.546,372.614 L 924.42,373.479 L 925.43,375.787 L 927.449,377.806 L 931.054,378.527 L 931.919,380.834 L 935.956,383.43 L 938.119,383.43 L 939.849,385.881 L 941.291,389.775 L 943.526,392.009 L 947.78,396.408 L 950.519,397.129 L 954.269,398.571 L 957.874,401.744 L 962.777,404.483 L 965.949,407.223 L 970.132,409.386 L 973.736,411.549 L 976.044,413.423 L 980.081,415.01 L 979.505,416.885 L 978.064,418.326 L 975.324,419.191 L 973.161,419.191 L 973.738,422.219 L 973.161,424.382 L 973.161,426.112 L 975.612,429.862 C 975.612,429.862 977.921,432.456 977.487,432.889 C 977.053,433.322 977.632,437.36 977.632,437.36 L 979.507,439.235 L 982.391,442.12 L 984.842,443.706 L 988.591,443.706 L 990.754,445.868 L 993.205,445.868 L 994.503,448.608 L 997.676,448.753 L 999.622,446.806 L 1003.011,448.753 L 1005.031,451.349 C 1005.031,451.349 1005.753,453.079 1005.031,453.079 C 1004.309,453.079 1000.416,451.204 1000.416,451.204 L 998.758,452.862 L 995.081,452.862 L 993.928,455.819 L 994.649,458.702 L 996.956,461.009 L 998.686,464.759 L 996.379,466.634 L 994.504,464.327 L 992.053,461.874 L 987.727,457.837 L 987.727,455.097 L 984.843,452.214 L 982.104,449.474 L 980.229,447.023 L 977.921,442.552 L 975.037,439.812 L 972.009,438.082 L 969.125,437.217 L 966.672,432.026 L 961.337,424.672 L 957.011,420.345 L 953.407,416.741 L 950.233,412.415 L 948.214,409.099 L 942.735,406.647 L 938.409,404.773 L 935.813,404.484 L 932.352,399.725 L 932.352,397.563 L 928.603,393.813 L 926.584,390.064 L 922.546,388.766 L 923.556,385.882 L 923.556,383.719 L 926.872,384.728 L 927.449,381.844 L 925.503,379.898 L 925.503,378.816 L 923.592,376.904 L 920.815,375.931 z "/>
    <path d="M 1042.67,451.203 1043.24,454.23 1043.53,457.115 1044.69,457.547 1044.69,455.24 1045.55,453.365 1045.55,450.77 1042.67,451.203"/>
    <path d="M 1052.62,452.934 1052.62,454.23 1054.49,455.24 1054.49,453.076 1052.62,452.934"/>
    <path d="M 1046.7,441.252 1048.44,441.973 1049.01,439.666 1048.15,435.053 1049.73,433.467 1049.44,430.148 1046.99,429.428 1046.27,433.178 1047.21,434.113 1046.42,436.926 1046.7,441.252"/>
    <path d="M 1051.03,422.217 1050.31,422.938 1050.89,425.391 1052.04,423.66 1051.03,422.217"/>
    <path d="M 1052.76,413.42 1053.48,409.671 1052.47,407.365 1053.05,404.913 1055,402.965 1055.5,405.634 1055.07,408.374 1055.65,411.546 1054.64,413.853 1052.76,413.42"/>
    <path d="M 970.709,195.098 970.709,198.27 970.421,201.154 972.151,202.308 973.305,203.75 973.449,206.345 975.757,207.21 975.18,204.615 974.17,202.596 975.18,199.279 975.18,195.242 972.439,194.088 970.709,195.098"/>
    <path d="M 1026.8,210.239 1024.79,210.96 1025.8,213.123 1029.26,213.123 1032.72,213.123 1034.88,210.96 1032.14,210.095 1029.4,211.249 1026.8,210.239"/>
    <path d="M 1036.76,316.516 1035.89,319.111 1034.52,320.481 1036.11,322.068 1037.04,324.014 1036.76,326.61 1036.61,329.926 1038.12,331.44 1039.78,330.503 1039.78,327.042 1041.3,325.529 1040.07,322.572 1038.05,320.553 1038.2,317.958 1036.76,316.516"/>
    <path d="M 1042.96,339.011 1042.96,341.174 1044.4,341.895 1045.41,340.598 1042.96,339.011"/>
    <path d="M 1054.64,381.263 1054.64,384.436 1054.64,387.031 1056.66,387.031 1056.08,384.58 1056.08,382.993 1056.08,381.119 1054.64,381.263"/>
    <path d="M 1039.06,202.738 1037.19,204.036 1038.2,205.045 1039.57,203.675 1040.94,202.305 1039.06,202.738"/>
    <path d="M 848.222,29.284 846.898,28.788 845.741,30 843.205,31.324 841.138,33.391 841.33,36.947 840.448,37.83 840.889,40.696 842.543,43.122 844.252,47.092 846.898,47.643 848.69,45.851 850.041,43.398 848.553,41.799 850.758,38.601 850.372,35.128 850.372,30.993 848.222,29.284"/>
    <path d="M 21.541,258.137 24.135,258.719 26.358,258.084 27.205,256.443 29.216,256.761 31.096,258.64 31.175,261.207 32.71,261.684 33.028,263.695 35.41,264.119 35.939,262.213 34.643,260.916 35.754,259.805 36.469,260.52 38.745,262.425 38.745,265.283 38.427,267.771 39.75,269.941 41.074,270.841 41.55,274.07 40.386,276.505 34.828,279.311 26.411,269.306 21.541,258.137"/>
  </g></g>
  
  <!-- Страны text-->
  <text class="text" x="370" y="350" >Российская Федерация</text> 
  <text class="text" x="0" y="230" >Беларусь</text>
  <text class="text" x="0" y="320" >Украина</text>
  <text class="text" x="0" y="500" >Армения</text>
  <text class="text" x="30" y="565" >Азербайджан</text>
  <text class="text" x="320" y="520" >Казахстан</text>
  <text class="text" x="165" y="600" >Узбекистан</text>
  <text class="text" x="230" y="680" >Таджикистан</text>
  <text class="text" x="410" y="650" >Кыргызстан</text>
  <!-- Столицы marker-->
  <polyline points="110,250 190,290 90,310 80,505 130,535 355,505 335,615 315,645 395,610" fill="none" stroke=""
   marker-start="url(#dot)" marker-mid="url(#dot)"  marker-end="url(#dot)" />
  
</svg>