<svg version="1.1" xmlns="http://www.w3.org/2000/svg"
 width="200" height="150" viewBox="0 0 1250 800"
 preserveAspectRatio="xMidYMid meet">
<style type="text/css">svg { cursor: pointer; }	</style>
<g transform="translate(0.000000,797.000000) scale(0.100000,-0.100000)"
fill="#a54145" stroke="none">
<path 
d="M6060 7947 c-36 -12 -87 -35 -115 -51 -58 -34 -157 -131 -202 -196
-41 -61 -396 -680 -1058 -1850 -209 -370 -1904 -3367 -1965 -3475 -31 -55
-205 -363 -387 -685 -570 -1010 -600 -1065 -625 -1162 -20 -75 -21 -93 -11
-140 22 -102 51 -163 112 -230 62 -67 123 -106 217 -138 56 -20 111 -20 4208
-20 4497 0 4201 -3 4308 51 59 30 136 106 165 163 56 111 66 198 34 303 -32
105 -85 200 -866 1563 -197 344 -480 839 -630 1100 -150 261 -414 723 -587
1025 -173 303 -494 863 -713 1245 -816 1426 -1227 2138 -1280 2220 -50 77
-170 195 -239 235 -111 65 -252 81 -366 42z m160 -664 c100 -167 240 -410 855
-1483 153 -267 373 -651 490 -855 117 -203 418 -730 670 -1170 252 -440 589
-1029 750 -1310 1035 -1806 1065 -1859 1065 -1870 0 -3 -1723 -5 -3830 -5
-2106 0 -3830 2 -3830 5 0 17 16 46 765 1370 274 484 653 1155 842 1490 190
336 364 644 388 685 24 41 229 404 455 805 227 402 469 829 538 950 68 121
162 285 207 365 45 80 149 262 230 405 189 333 376 655 380 655 2 0 13 -17 25
-37z
M6138 5570 c-225 -40 -415 -187 -517 -400 l-36 -75 1 -150 c1 -130
14 -250 103 -915 56 -421 115 -868 132 -995 63 -483 76 -557 110 -629 33 -71
93 -132 164 -167 60 -29 71 -31 142 -27 48 3 96 13 124 25 100 44 175 158 204
308 16 86 273 2029 301 2284 20 176 13 240 -35 345 -82 178 -277 341 -462 385
-67 16 -177 21 -231 11z
M6095 1923 c-155 -56 -273 -187 -306 -344 -6 -29 -9 -91 -7 -140 4
-76 9 -97 42 -164 141 -286 492 -350 712 -131 148 148 181 359 87 547 -47 93
-117 163 -212 208 -68 32 -86 36 -171 38 -72 3 -107 -1 -145 -14z"/>
</g>
</svg>
