<svg version="1.0" xmlns="http://www.w3.org/2000/svg"
 width="200" height="150" viewBox="0 0 1250 800"
 preserveAspectRatio="xMidYMid meet">

<g transform="translate(0.000000,797.000000) scale(0.100000,-0.100000)"
fill="#a54145" stroke="none">
<path d="M9231 7889 c-12 -16 -21 -33 -21 -39 0 -5 -4 -10 -10 -10 -30 0 1
-89 46 -131 14 -13 32 -36 40 -51 8 -16 20 -28 27 -28 7 0 28 -16 47 -35 19
-19 29 -35 22 -35 -6 0 -18 -13 -26 -29 -9 -16 -26 -31 -40 -35 -15 -4 -26
-14 -28 -29 -2 -15 -9 -21 -20 -19 -11 2 -18 -3 -18 -13 0 -16 -135 -151 -171
-171 -11 -5 -16 -13 -13 -17 4 -4 2 -7 -4 -7 -7 0 -12 -7 -12 -15 0 -17 -34
-37 -45 -27 -5 4 -5 2 -1 -5 3 -7 -2 -14 -14 -18 -11 -3 -20 -12 -20 -19 0
-15 -72 -86 -88 -86 -6 0 -14 -11 -18 -25 -3 -13 -15 -27 -25 -30 -10 -4 -19
-11 -19 -16 0 -6 -5 -7 -12 -3 -6 4 -8 3 -5 -3 4 -6 -9 -24 -28 -40 -19 -17
-35 -35 -35 -40 0 -14 -48 -45 -59 -39 -5 3 -11 -8 -14 -24 -5 -20 -11 -28
-21 -24 -9 3 -17 -5 -24 -24 -6 -19 -17 -29 -27 -29 -10 1 -19 -6 -21 -17 -1
-11 -14 -31 -28 -45 -25 -24 -26 -24 -46 -6 -11 10 -20 22 -20 27 0 13 -32 44
-54 52 -10 3 -16 9 -13 12 7 8 -17 34 -31 34 -5 0 -18 12 -27 28 -22 34 -51
62 -64 62 -5 0 -18 11 -29 25 -23 29 -37 32 -46 9 -5 -12 -15 -14 -44 -10 -34
6 -39 4 -61 -29 -31 -45 -32 -95 -3 -126 12 -12 22 -29 22 -36 0 -19 -95 -115
-105 -106 -4 5 -6 4 -3 -2 8 -14 -10 -57 -21 -51 -13 9 -139 -118 -146 -147
-5 -17 -12 -24 -21 -20 -8 3 -17 -2 -20 -11 -3 -9 -10 -16 -15 -16 -15 0 -48
-38 -41 -46 4 -4 -2 -4 -13 0 -11 4 -16 4 -12 0 3 -4 -11 -24 -32 -44 -22 -21
-42 -48 -46 -59 -3 -12 -12 -21 -20 -21 -17 0 -1755 -1737 -1755 -1754 0 -7
-17 -28 -39 -46 -21 -19 -37 -40 -34 -47 3 -7 0 -13 -6 -13 -6 0 -11 -7 -11
-15 0 -8 -5 -15 -11 -15 -6 0 -9 -9 -6 -20 3 -11 1 -20 -4 -20 -5 0 -9 -11 -9
-25 0 -14 -4 -25 -10 -25 -5 0 -10 -7 -10 -15 0 -8 5 -15 11 -15 6 0 3 -7 -5
-16 -18 -17 -22 -64 -6 -64 14 0 13 -77 -2 -82 -8 -3 -9 -12 0 -35 6 -18 8
-41 5 -52 -3 -12 -1 -21 6 -21 6 0 11 -16 11 -35 0 -19 4 -35 10 -35 5 0 7 -7
4 -15 -4 -8 -1 -15 5 -15 6 0 11 -5 11 -11 0 -6 7 -17 15 -25 16 -17 20 -34 7
-34 -13 0 -56 -41 -75 -72 -10 -16 -22 -28 -28 -28 -13 0 -33 -19 -48 -48 -7
-12 -16 -20 -20 -18 -4 3 -21 -10 -36 -29 -16 -18 -33 -31 -39 -28 -5 4 -7 0
-3 -9 3 -10 -3 -19 -19 -27 -13 -6 -24 -17 -24 -24 0 -7 -10 -22 -22 -34 -37
-32 -88 -92 -88 -102 0 -5 -5 -11 -11 -13 -5 -2 -13 -22 -16 -46 -4 -33 -2
-43 11 -48 20 -8 21 -24 1 -24 -8 0 -15 -6 -15 -13 0 -16 -42 -57 -58 -57 -16
0 -52 -37 -44 -44 9 -9 -40 -56 -58 -56 -23 0 -178 149 -182 175 -2 11 -11 20
-20 20 -19 0 -98 75 -98 93 0 18 -21 37 -40 37 -8 0 -21 14 -29 32 -14 30 -62
53 -69 32 -5 -12 -32 -12 -32 1 0 6 -7 10 -15 10 -8 0 -15 -4 -15 -10 0 -5 -7
-7 -15 -4 -8 4 -15 1 -15 -6 0 -18 -54 -77 -67 -73 -6 2 -13 -6 -16 -18 -3
-11 -10 -18 -16 -14 -6 3 -11 1 -11 -5 0 -6 -4 -8 -10 -5 -5 3 -10 3 -10 -2 0
-16 -45 -60 -58 -55 -7 2 -12 0 -11 -5 5 -26 -5 -45 -41 -79 -39 -39 -40 -41
-42 -117 l-3 -77 -53 0 c-35 0 -59 -5 -69 -15 -10 -11 -25 -14 -48 -9 -20 3
-35 1 -40 -6 -4 -6 -15 -8 -26 -5 -11 4 -19 2 -19 -6 0 -8 -4 -8 -16 2 -11 9
-17 10 -23 1 -3 -6 -26 -14 -49 -18 -23 -4 -42 -10 -42 -15 0 -5 -7 -9 -15 -9
-8 0 -15 -5 -15 -11 0 -5 -4 -8 -9 -5 -5 3 -11 -1 -15 -9 -3 -8 -15 -15 -26
-15 -11 0 -20 -4 -20 -9 0 -6 -14 -18 -30 -28 -17 -9 -33 -25 -36 -35 -3 -10
-10 -16 -15 -12 -12 7 -155 -138 -164 -166 -5 -16 -12 -19 -28 -14 -12 3 -19
3 -15 -1 4 -4 -19 -34 -52 -66 -33 -32 -60 -65 -60 -74 0 -8 -7 -15 -15 -15
-7 0 -90 -76 -183 -169 -93 -94 -173 -167 -177 -163 -4 4 -6 2 -5 -3 5 -25 -1
-45 -14 -45 -19 0 -796 -777 -796 -795 0 -8 -10 -21 -21 -29 -19 -13 -22 -27
-26 -108 -3 -51 -10 -98 -15 -105 -11 -14 -1 -73 12 -73 5 0 11 -14 15 -31 4
-18 15 -33 26 -36 10 -3 21 -14 24 -24 4 -10 13 -19 20 -19 8 0 22 -12 32 -27
24 -37 39 -53 52 -53 6 0 11 -4 11 -9 0 -5 16 -26 35 -47 19 -20 35 -41 35
-46 0 -5 4 -7 9 -3 5 3 12 -4 16 -15 4 -11 9 -18 13 -16 9 5 33 -20 26 -27 -3
-3 4 -8 15 -12 12 -3 19 -11 16 -16 -4 -5 -2 -9 4 -9 12 0 161 -149 161 -161
0 -6 4 -8 9 -4 5 3 12 -4 16 -14 3 -11 15 -23 26 -26 10 -4 17 -10 14 -15 -3
-5 4 -11 15 -15 11 -4 18 -10 16 -14 -3 -4 10 -15 29 -24 19 -9 35 -21 35 -27
0 -13 95 -110 108 -110 10 0 26 -29 24 -42 -1 -4 7 -10 18 -13 11 -4 18 -11
15 -16 -4 -5 3 -9 14 -9 13 0 23 -9 27 -24 4 -16 11 -23 20 -19 8 3 14 0 14
-7 0 -7 8 -10 19 -7 12 3 22 -1 25 -9 6 -16 36 -19 36 -4 0 13 97 13 105 1 6
-11 105 -13 103 -3 -2 22 4 32 22 32 11 0 28 9 37 20 10 11 21 20 26 20 12 0
66 58 60 64 -3 3 2 9 12 13 21 7 45 31 61 59 6 10 22 25 35 31 13 7 20 13 15
13 -5 0 1 11 14 25 13 14 28 25 32 25 12 0 39 27 38 37 -1 4 7 10 17 14 10 4
14 8 9 8 -13 1 35 51 49 51 6 0 19 14 28 30 10 17 25 30 33 30 8 0 14 5 14 11
0 5 4 8 9 5 5 -3 8 2 7 12 0 9 5 16 12 14 6 -1 12 5 12 13 0 8 9 19 20 25 25
13 71 60 86 86 6 10 20 23 32 29 12 5 22 13 22 18 0 11 91 107 102 107 12 0
39 27 38 37 -1 4 6 10 15 13 9 3 21 16 28 29 7 13 21 29 32 35 30 17 45 33 37
40 -3 4 4 9 16 13 12 3 22 9 22 13 0 15 54 65 68 62 8 -2 11 1 7 7 -3 6 -1 11
4 11 6 0 11 7 11 15 0 8 5 15 11 15 12 0 39 25 39 35 0 12 48 64 53 58 8 -7
37 22 37 36 0 6 5 11 10 11 6 0 21 11 34 25 13 13 25 22 28 19 4 -3 5 3 5 13
-1 11 4 18 15 17 9 -1 14 4 12 11 -3 7 6 19 20 28 13 9 32 30 42 46 10 17 23
27 31 24 7 -3 13 0 13 6 0 14 71 93 78 87 6 -7 27 15 35 37 4 11 16 21 26 24
11 3 22 16 25 29 4 14 11 22 16 19 6 -3 10 1 10 9 0 20 58 144 71 151 5 4 9
14 9 25 0 10 7 21 16 24 9 4 14 13 10 21 -3 8 -1 15 5 15 6 0 7 13 4 34 -4 20
-2 36 4 40 6 4 11 25 11 47 0 21 5 39 10 39 6 0 10 26 10 59 0 40 5 63 15 71
12 10 15 10 15 -3 0 -12 8 -15 34 -10 25 4 40 1 51 -11 18 -17 40 -22 30 -6
-3 6 -1 10 4 10 13 0 51 36 51 48 0 4 21 25 46 47 82 72 234 227 234 240 0 7
-7 15 -15 19 -10 3 -15 19 -15 44 0 31 -6 42 -30 60 -17 13 -30 32 -30 43 0
14 -5 19 -15 16 -9 -4 -18 5 -27 29 -8 23 -18 34 -29 32 -19 -3 -113 88 -104
101 3 5 -5 13 -16 16 -26 9 -88 68 -113 108 -17 28 -17 30 4 52 13 14 28 21
38 18 11 -5 13 -3 7 6 -5 9 12 33 49 70 46 46 62 57 82 53 13 -2 24 -8 24 -13
0 -5 14 -9 31 -9 17 0 28 4 24 10 -3 6 3 10 14 10 12 0 21 5 21 11 0 5 4 8 9
5 5 -3 11 1 15 9 3 8 12 15 21 15 8 0 15 6 15 14 0 17 140 156 157 156 7 0 13
9 13 19 0 11 9 22 19 26 11 3 22 12 25 20 3 8 12 15 21 15 8 0 15 6 15 13 0
17 84 99 93 91 4 -4 7 -2 7 4 0 7 7 12 15 12 8 0 15 -4 15 -10 0 -5 7 -7 15
-4 8 4 15 1 15 -5 0 -6 12 -11 26 -11 16 0 23 -4 18 -11 -5 -9 6 -10 41 -7 33
4 53 2 61 -7 7 -7 10 -15 7 -19 -4 -3 8 -6 25 -6 22 0 32 5 32 15 0 11 12 15
45 15 33 0 45 -4 45 -15 0 -8 7 -15 16 -15 8 0 12 5 9 10 -3 5 0 10 9 10 8 0
17 6 19 13 4 9 6 9 6 0 1 -15 61 -18 61 -4 0 5 9 7 20 4 11 -3 20 0 20 6 0 6
7 11 15 11 8 0 15 5 15 11 0 6 9 8 21 4 15 -5 19 -4 15 4 -4 6 0 11 8 11 9 0
16 7 16 15 0 8 6 12 14 9 14 -5 46 20 46 38 0 5 7 8 15 4 14 -5 115 87 115
105 0 5 4 9 9 9 5 0 89 80 186 177 98 98 183 177 189 175 6 -2 8 0 4 4 -10 9
534 554 546 546 5 -3 6 -1 3 4 -3 5 111 126 254 268 142 142 259 263 259 269
0 6 2 8 5 5 7 -7 705 691 705 706 0 6 12 -4 26 -21 22 -29 31 -33 74 -33 63 0
110 40 110 93 0 20 5 39 10 42 17 11 11 29 -20 63 -16 18 -30 38 -30 44 0 5
-7 8 -15 4 -8 -3 -15 -2 -15 3 0 13 -138 150 -144 144 -3 -4 -6 -1 -6 5 0 6
-10 14 -21 17 -19 6 -16 13 42 71 35 35 69 64 76 64 7 0 13 6 13 13 0 16 251
267 268 267 6 0 12 5 12 11 0 16 141 159 151 153 5 -3 9 1 9 8 0 16 161 178
177 178 6 0 14 8 17 18 3 10 27 38 52 62 l45 45 30 -33 c16 -18 29 -39 29 -47
0 -8 7 -15 15 -15 8 0 15 -4 15 -10 0 -5 5 -9 12 -7 7 1 17 -8 23 -20 5 -13
15 -23 21 -23 6 0 20 -11 30 -25 16 -21 27 -25 69 -25 46 1 52 4 73 36 12 20
22 48 22 63 0 15 5 32 12 39 9 9 8 16 -5 30 -9 10 -17 22 -17 27 0 8 -35 45
-202 214 -48 49 -84 92 -80 96 4 5 1 5 -6 1 -8 -5 -26 8 -50 35 -37 41 -139
145 -223 226 -86 82 -214 216 -212 223 1 3 -29 6 -67 6 -64 1 -70 -1 -89 -27z
m-1511 -2984 c-1304 -1304 -1186 -1201 -1375 -1199 -129 1 -171 16 -254 90
-95 85 -136 187 -129 315 7 123 33 164 237 372 96 97 178 177 182 177 4 0 65
-58 137 -130 71 -71 136 -130 144 -130 8 0 29 16 48 35 l34 35 -139 140 -139
140 150 151 151 151 133 -136 c74 -75 139 -136 144 -136 13 0 76 61 76 74 0 6
-61 72 -135 146 l-135 135 153 153 152 152 133 -135 c73 -74 139 -135 146
-135 16 0 66 52 66 69 0 7 -58 71 -130 141 -71 71 -130 133 -130 137 0 5 67
75 148 156 l148 148 125 -126 c68 -70 133 -131 143 -137 17 -9 25 -5 54 27
l34 37 -138 139 -139 139 153 152 152 153 133 -133 c73 -72 139 -132 147 -132
17 0 70 49 70 66 0 6 -61 72 -135 145 l-135 134 152 152 153 153 275 -275 275
-275 -1135 -1135z m-2320 -2460 l-55 -55 -338 337 c-185 186 -340 341 -344
346 -4 4 18 32 47 62 l55 55 345 -345 345 -345 -55 -55z m-844 305 c74 -22
141 -52 189 -85 66 -45 85 -18 -282 -384 l-340 -338 -6 -76 c-4 -56 -2 -77 6
-77 7 0 179 167 382 370 203 204 374 370 380 370 11 0 65 -77 87 -125 8 -16
22 -57 32 -90 10 -33 22 -74 27 -91 12 -40 -5 -212 -28 -284 -10 -30 -39 -91
-65 -135 -42 -72 -124 -157 -800 -832 -710 -709 -756 -753 -788 -753 -19 0
-41 4 -49 9 -8 5 -191 186 -408 403 -419 419 -428 430 -398 489 13 24 1306
1324 1470 1478 156 145 398 207 591 151z"/>
</g>
</svg>
