<svg version="1.0" xmlns="http://www.w3.org/2000/svg"
 width="200" height="150" viewBox="0 0 1250 800"
 preserveAspectRatio="xMidYMid meet">

<g transform="translate(0.000000,797.000000) scale(0.100000,-0.100000)"
fill="#a54145" stroke="none">
<path d="M6050 7950 l-1945 -5 -478 -268 c-262 -147 -489 -273 -502 -279 -14
-6 -24 -16 -22 -21 1 -5 79 -43 172 -84 94 -41 310 -135 480 -210 171 -75 332
-147 359 -159 l50 -24 2116 0 2117 0 508 225 c280 124 514 225 522 225 31 0 8
21 -79 71 -51 29 -219 125 -373 214 -154 89 -351 199 -437 244 l-157 82 -193
-3 c-106 -2 -1068 -5 -2138 -8z"/>
<path d="M2320 6553 c-283 -361 -515 -660 -515 -664 0 -7 976 -497 1613 -810
145 -71 265 -136 269 -144 9 -24 31 -18 26 8 -3 17 252 1641 272 1732 4 18 -8
26 -78 57 -45 20 -304 135 -575 257 -271 122 -494 221 -495 221 -1 -1 -234
-296 -517 -657z"/>
<path d="M9670 7191 c-19 -10 -267 -120 -550 -245 -283 -125 -527 -237 -542
-249 l-27 -22 139 -844 c77 -464 140 -852 140 -862 0 -20 19 -25 35 -10 6 5
424 217 930 471 506 255 924 466 928 470 5 4 -125 178 -288 386 -163 209 -392
501 -508 651 -117 150 -214 272 -217 272 -3 0 -21 -8 -40 -18z"/>
<path d="M4205 6618 c-10 -62 -235 -1687 -235 -1703 0 -13 232 -15 2311 -15
l2312 0 -7 58 c-4 31 -20 138 -36 237 -28 172 -105 651 -190 1189 -22 137 -40
252 -40 257 0 5 -892 9 -2055 9 l-2054 0 -6 -32z"/>
<path d="M2000 5511 c0 -5 138 -189 306 -408 407 -529 668 -869 1120 -1458
441 -574 735 -957 1039 -1353 376 -489 1016 -1324 1069 -1394 51 -66 73 -80
69 -40 -1 11 -426 867 -943 1903 -760 1522 -946 1887 -968 1900 -15 8 -270
138 -567 288 -297 151 -668 339 -825 420 -333 171 -300 155 -300 142z"/>
<path d="M10395 5452 c-203 -108 -1530 -780 -1551 -786 -15 -4 -51 -68 -130
-229 -60 -122 -286 -577 -501 -1010 -216 -433 -393 -789 -393 -792 0 -2 -200
-404 -444 -894 -280 -562 -439 -891 -430 -891 8 0 14 4 14 9 0 5 20 31 44 57
36 41 2074 2686 3203 4157 282 368 331 437 306 437 -5 0 -57 -27 -118 -58z"/>
<path d="M4002 4632 c2 -4 38 -77 80 -162 41 -85 204 -415 362 -734 157 -318
286 -580 286 -581 0 -1 126 -258 281 -571 155 -313 307 -623 339 -689 32 -66
187 -381 344 -700 157 -319 352 -716 433 -882 83 -169 154 -302 162 -302 9 -1
11 6 7 22 -4 18 36 110 155 353 89 181 205 419 259 529 54 110 159 326 235
480 76 154 184 375 240 490 56 116 162 332 235 480 73 149 181 369 240 490
207 424 330 674 599 1224 149 304 271 555 271 557 0 2 -1020 4 -2266 4 -1246
0 -2264 -4 -2262 -8z"/>
</g>
</svg>
