<svg version="1.0" xmlns="http://www.w3.org/2000/svg"
 width="200" height="150" viewBox="0 0 1250 800"
 preserveAspectRatio="xMidYMid meet">

<g transform="translate(0.000000,797.000000) scale(0.100000,-0.100000)"
fill="#a54145" stroke="none">
<path d="M3845 7906 c-71 -35 -233 -114 -360 -176 -126 -62 -311 -152 -410
-200 -443 -215 -526 -256 -795 -388 -157 -77 -366 -179 -465 -227 -99 -48
-272 -133 -385 -188 -311 -152 -644 -314 -747 -364 -51 -24 -93 -47 -93 -51 0
-4 26 -21 57 -38 l58 -32 -68 -33 c-37 -18 -67 -38 -67 -44 0 -5 57 -45 126
-89 69 -43 124 -79 122 -81 -2 -1 -58 -30 -125 -64 -68 -35 -123 -67 -123 -72
0 -6 14 -18 30 -27 17 -9 73 -45 126 -78 l96 -62 -126 -63 c-69 -35 -126 -68
-126 -74 1 -9 175 -123 230 -150 11 -5 20 -12 19 -15 0 -3 -55 -32 -122 -66
-67 -34 -122 -66 -122 -73 0 -11 35 -35 178 -122 81 -48 86 -40 -76 -119 -59
-29 -106 -58 -104 -64 2 -6 58 -45 124 -86 67 -41 119 -77 118 -80 -2 -3 -58
-32 -124 -65 -66 -33 -121 -64 -121 -70 1 -5 20 -22 43 -36 23 -14 80 -50 125
-79 l84 -54 -126 -63 c-69 -35 -126 -67 -126 -72 0 -5 56 -44 125 -87 144 -90
147 -74 -24 -159 -55 -27 -101 -54 -101 -60 0 -5 66 -50 145 -100 80 -49 218
-136 308 -192 89 -56 178 -112 197 -123 19 -12 65 -40 103 -63 223 -139 783
-479 807 -490 8 -4 27 -15 42 -25 204 -131 1385 -806 1748 -999 47 -25 110
-60 140 -78 30 -18 109 -60 175 -95 66 -35 147 -78 180 -95 533 -284 1193
-616 1705 -858 52 -24 138 -65 190 -90 52 -24 125 -59 163 -76 284 -131 292
-135 377 -171 66 -29 154 -69 285 -129 22 -10 69 -31 105 -46 36 -15 79 -33
95 -40 17 -8 84 -37 150 -65 66 -28 129 -55 140 -60 11 -5 54 -23 95 -40 41
-17 89 -37 105 -45 34 -15 265 -108 338 -136 26 -11 67 -19 91 -19 42 0 76 21
538 330 271 182 619 415 773 518 609 408 1462 980 1875 1257 239 160 436 299
438 308 2 10 -3 17 -13 17 -26 0 -267 82 -260 88 3 4 30 22 60 42 141 93 215
146 215 156 0 6 -65 31 -144 55 l-145 45 144 94 c80 52 145 101 145 108 0 14
-33 29 -83 37 -17 4 -36 10 -42 14 -5 5 -41 16 -78 26 -37 10 -70 21 -72 25
-3 4 58 49 135 100 77 51 140 98 140 105 0 7 -12 16 -27 20 -16 3 -80 23 -144
43 l-117 36 38 25 c21 15 85 58 144 96 58 39 106 75 106 81 0 11 -247 97 -278
97 -7 0 -9 3 -5 7 27 23 266 180 274 180 6 0 9 8 7 17 -2 12 -36 27 -113 51
-60 18 -117 36 -125 39 -20 8 -28 10 -42 12 -7 0 54 45 135 98 81 54 147 103
147 110 0 6 -39 24 -87 38 -49 15 -113 34 -144 43 l-57 17 141 96 c77 53 142
100 144 106 4 10 -45 29 -170 68 -32 10 -60 21 -62 24 -2 4 39 33 91 66 51 33
94 65 94 70 0 6 -26 18 -57 27 -32 8 -188 55 -348 103 -285 86 -371 111 -529
154 -44 12 -122 36 -174 52 -52 17 -106 33 -120 35 -14 3 -32 9 -41 13 -9 5
-59 21 -111 35 -218 61 -1022 314 -1085 341 -16 7 -68 25 -115 40 -47 15 -89
30 -94 33 -9 5 -178 65 -286 102 -55 18 -134 48 -240 90 -30 12 -66 25 -80 30
-44 14 -159 59 -411 160 -291 116 -373 151 -494 205 -16 7 -52 22 -80 33 -27
11 -76 32 -107 46 -31 14 -59 26 -61 26 -3 0 -48 20 -101 45 -53 25 -99 45
-101 45 -5 0 -433 196 -575 263 -52 24 -133 63 -180 85 -215 101 -429 206
-720 352 -373 187 -487 245 -930 478 -58 30 -254 135 -437 233 -183 99 -342
179 -355 178 -13 0 -81 -29 -153 -63z m-600 -637 c130 -79 293 -137 490 -176
113 -22 470 -25 585 -5 118 21 256 59 351 98 l87 35 114 -57 c267 -134 941
-455 1393 -663 61 -27 109 -54 107 -58 -1 -4 -625 -378 -1385 -831 l-1382
-823 -70 37 c-167 89 -588 327 -800 452 -247 145 -681 415 -703 436 -11 11 -8
24 17 74 66 132 111 321 111 472 0 125 -37 298 -87 413 -14 31 -24 59 -22 61
10 10 1105 575 1115 575 7 1 42 -17 79 -40z m-1827 -1633 c669 -411 1274 -768
1829 -1082 l283 -159 0 -67 0 -67 -107 61 c-764 435 -1405 817 -2156 1286
l-408 254 53 28 52 28 54 -34 c29 -19 209 -130 400 -248z m317 -1 c425 -250
1206 -690 1633 -919 152 -83 162 -90 162 -117 0 -16 -2 -29 -4 -29 -5 0 -475
268 -646 368 -511 298 -1335 794 -1355 814 -13 14 -20 18 210 -117z m6669 -55
c664 -265 1266 -476 1759 -615 l58 -17 -34 -61 c-80 -143 -113 -288 -104 -454
7 -128 33 -229 87 -333 22 -41 36 -77 31 -80 -4 -3 -301 -195 -659 -428 l-651
-423 -39 24 c-344 218 -852 248 -1235 73 -82 -37 -202 -111 -255 -157 -18 -16
-37 -29 -43 -29 -26 0 -1026 425 -1524 647 -482 216 -505 227 -499 232 15 16
2811 1730 2821 1730 7 1 136 -48 287 -109z m-7207 -112 c622 -387 1328 -807
1921 -1144 180 -103 346 -197 370 -211 l42 -24 0 -65 c0 -64 0 -65 -22 -53
-56 29 -718 411 -953 549 -368 217 -856 514 -1309 796 l-388 243 48 25 c27 14
52 25 56 26 4 0 110 -64 235 -142z m-17 -293 c685 -427 1705 -1031 2263 -1340
38 -21 71 -43 73 -50 3 -7 4 -37 2 -68 l-3 -56 -315 181 c-724 414 -1691 997
-2247 1354 l-93 59 53 26 c28 15 57 24 62 21 6 -3 98 -60 205 -127z m153 -399
c708 -437 1573 -947 2120 -1250 l67 -38 0 -64 c0 -35 -2 -64 -6 -64 -8 0 -636
361 -964 555 -600 354 -1671 1013 -1678 1033 -2 7 74 50 91 51 4 1 171 -100
370 -223z m12 -311 c631 -390 1261 -764 1857 -1101 l317 -179 1 -62 c0 -35 -4
-63 -9 -63 -11 0 -572 321 -951 545 -398 234 -858 514 -1312 798 l-388 242 53
27 c51 26 53 26 82 9 17 -10 174 -107 350 -216z m55 -338 c591 -365 1261 -761
1837 -1088 l273 -154 0 -67 0 -67 -297 171 c-709 406 -1446 849 -2151 1292
l-202 128 52 27 53 27 80 -50 c44 -27 204 -126 355 -219z m9490 29 c-8 -7
-267 -202 -576 -433 -495 -372 -648 -479 -1319 -929 -418 -280 -762 -510 -766
-512 -19 -8 -875 356 -1389 591 -576 262 -1685 804 -1702 831 -4 6 -8 32 -8
59 l0 47 88 -44 c668 -335 1954 -899 2792 -1226 l224 -88 36 23 c164 104 2554
1644 2585 1666 43 31 58 37 35 15z m-9613 -257 c613 -380 1196 -727 1798
-1070 220 -126 408 -234 418 -241 15 -11 18 -24 15 -75 l-3 -62 -310 177
c-702 402 -1457 856 -2153 1295 l-183 116 48 25 c26 14 51 25 55 26 3 0 145
-86 315 -191z m9628 -18 c-6 -5 -311 -235 -680 -512 -608 -457 -731 -544
-1335 -949 l-665 -447 -140 57 c-802 327 -1534 660 -2442 1111 l-503 249 0 70
c0 39 2 70 5 70 3 0 130 -62 283 -139 464 -232 1023 -496 1537 -726 528 -236
1245 -536 1286 -538 26 -2 698 443 2204 1458 248 167 452 303 455 304 2 1 0
-3 -5 -8z m-405 -579 c-19 -15 -235 -185 -480 -378 -432 -340 -465 -364 -1120
-803 l-676 -452 -209 86 c-833 343 -1822 797 -2597 1193 l-268 137 0 70 0 70
312 -155 c874 -433 1672 -796 2512 -1141 l289 -119 521 349 c286 192 796 534
1131 759 336 226 612 410 615 411 3 0 -11 -12 -30 -27z m100 -236 c-8 -7 -231
-182 -495 -388 -464 -361 -504 -390 -1177 -841 -383 -257 -701 -467 -706 -467
-6 0 -113 42 -239 94 -824 339 -1566 680 -2485 1142 l-338 169 0 71 0 71 98
-50 c338 -175 1225 -596 1718 -815 448 -200 1260 -542 1285 -542 8 0 1983
1320 2239 1497 104 72 128 86 100 59z m-10 -310 c-8 -7 -251 -195 -540 -418
-497 -383 -560 -429 -1176 -841 l-650 -435 -250 102 c-760 313 -1417 613
-2266 1033 l-538 267 0 73 0 73 329 -165 c815 -407 1616 -771 2490 -1131 l273
-113 757 507 c416 279 940 631 1166 783 225 152 412 277 415 278 2 1 -2 -5
-10 -13z m-5127 -597 c819 -411 1777 -845 2587 -1174 l213 -87 411 275 c226
151 688 460 1026 687 338 227 611 408 605 402 -5 -6 -255 -198 -555 -428 -470
-361 -612 -463 -1035 -747 l-490 -329 -155 62 c-716 290 -1503 648 -2372 1078
l-518 255 0 58 c0 32 -3 64 -6 73 -3 9 -3 16 0 16 3 0 133 -64 289 -141z m64
-337 c815 -404 1551 -739 2408 -1094 160 -66 304 -121 320 -121 24 -1 236 137
1024 666 1117 751 1011 680 1011 673 0 -2 -24 -21 -52 -42 -29 -22 -366 -270
-748 -553 -382 -283 -823 -601 -980 -706 l-285 -192 -50 20 c-881 359 -1742
750 -2662 1210 -171 86 -314 160 -316 164 -8 12 -20 143 -14 143 3 0 158 -75
344 -168z m-114 -248 c833 -417 1807 -859 2656 -1205 l195 -79 510 342 c281
188 593 397 694 465 100 68 182 122 182 119 0 -2 -24 -21 -52 -43 -122 -88
-1063 -807 -1066 -814 -2 -4 -72 -52 -156 -108 l-152 -102 -230 95 c-801 329
-1715 748 -2517 1154 -207 104 -271 141 -278 159 -9 26 -13 123 -4 123 3 0
101 -48 218 -106z"/>
<path d="M5025 6560 c-698 -54 -1243 -347 -1482 -795 -85 -160 -123 -318 -123
-507 0 -108 15 -246 29 -260 9 -10 -59 -48 1360 782 643 377 1170 688 1171
691 0 14 -249 60 -420 78 -140 15 -410 21 -535 11z"/>
<path d="M6981 4785 c-723 -437 -1319 -799 -1324 -804 -12 -12 30 -23 203 -55
212 -38 348 -50 585 -49 324 0 544 34 819 124 496 163 866 482 1007 868 55
153 72 249 73 416 1 156 -17 295 -37 295 -7 0 -604 -358 -1326 -795z"/>
</g>
</svg>
