<svg version="1.0" xmlns="http://www.w3.org/2000/svg"
 width="200" height="150" viewBox="0 0 1250 800"
 preserveAspectRatio="xMidYMid meet">

<g transform="translate(0.000000,797.000000) scale(0.100000,-0.100000)"
fill="#a54145" stroke="none">
<path d="M203 7963 c-13 -2 -23 -9 -23 -14 0 -5 -7 -9 -16 -9 -9 0 -25 -11
-36 -25 -11 -14 -24 -23 -28 -20 -12 7 -50 -31 -50 -49 0 -8 -10 -22 -22 -31
l-23 -15 -3 -3788 c-2 -2083 0 -3811 3 -3840 5 -36 11 -52 21 -52 8 0 17 -13
20 -30 4 -16 13 -30 20 -30 8 0 14 -4 14 -10 0 -5 8 -10 18 -10 10 0 24 -9 32
-20 14 -20 26 -20 6085 -20 6059 0 6071 0 6085 20 8 11 22 20 32 20 10 0 18 5
18 10 0 6 7 10 16 10 11 0 15 6 12 18 -5 18 13 42 32 42 5 0 10 12 10 26 0 14
4 23 9 20 5 -3 11 11 15 32 8 49 8 7500 0 7541 -4 17 -12 31 -19 31 -8 0 -11
8 -8 20 3 12 0 20 -7 20 -21 0 -39 27 -33 50 4 16 3 21 -5 16 -7 -4 -15 0 -18
9 -4 9 -13 13 -23 11 -10 -3 -25 7 -41 29 -14 19 -37 36 -54 39 -33 7 -11999
6 -12033 -1z m11492 -292 c3 -6 -40 -45 -96 -88 -56 -43 -126 -96 -154 -118
-177 -137 -309 -239 -393 -303 -52 -41 -127 -99 -166 -130 -39 -32 -105 -83
-146 -114 -41 -32 -111 -86 -156 -120 -44 -35 -98 -76 -120 -93 -219 -169
-519 -402 -603 -468 -58 -45 -132 -102 -165 -127 -68 -51 -106 -80 -169 -130
-24 -19 -78 -61 -118 -92 -41 -32 -123 -96 -184 -143 -60 -47 -159 -124 -220
-170 -60 -46 -159 -123 -220 -170 -60 -47 -129 -100 -153 -118 -24 -18 -48
-37 -55 -43 -12 -11 -34 -27 -215 -167 -52 -40 -111 -85 -131 -102 -21 -16
-80 -62 -132 -102 -52 -40 -143 -111 -204 -158 -60 -47 -170 -132 -243 -188
-73 -56 -150 -115 -171 -132 -21 -16 -80 -63 -132 -102 -88 -68 -163 -126
-304 -236 -33 -26 -94 -73 -135 -105 -99 -75 -350 -269 -375 -290 -27 -22
-102 -80 -210 -163 -49 -38 -116 -89 -148 -114 -64 -50 -64 -50 -135 7 -22 18
-66 53 -97 78 -31 25 -76 61 -100 80 -23 19 -83 66 -131 105 -103 80 -288 226
-494 390 -80 63 -167 133 -195 155 -52 41 -204 162 -290 230 -246 196 -370
293 -451 355 -21 17 -100 79 -174 138 -74 59 -157 125 -185 147 -106 84 -242
192 -290 230 -73 58 -232 184 -294 233 -29 23 -70 56 -90 72 -20 17 -54 44
-76 60 -22 16 -47 35 -55 42 -8 7 -132 105 -275 218 -143 113 -282 223 -310
245 -27 22 -93 74 -145 115 -52 41 -116 92 -141 112 -26 21 -93 74 -149 118
-56 44 -175 139 -265 210 -90 72 -232 184 -316 250 -83 66 -215 171 -293 232
-77 62 -163 131 -191 153 -27 21 -88 70 -135 107 -47 37 -106 84 -132 103 -26
19 -48 40 -48 45 0 8 255 12 818 14 449 1 1730 6 2847 11 1117 6 3213 14 4659
20 1446 6 2632 12 2634 15 7 7 10 6 17 -4z m459 -73 c7 -27 8 -7188 1 -7188
-5 0 -401 283 -515 369 -41 31 -84 63 -96 71 -74 52 -107 75 -174 125 -41 30
-102 74 -135 97 -33 23 -112 80 -175 127 -126 92 -184 135 -311 226 -46 33
-121 88 -167 123 -45 34 -85 62 -87 62 -2 0 -42 28 -87 63 -46 34 -110 81
-143 105 -125 89 -464 334 -565 408 -58 42 -123 90 -145 106 -22 16 -89 64
-148 108 -60 44 -117 84 -127 90 -10 5 -24 16 -32 23 -7 7 -29 24 -48 37 -19
13 -37 27 -40 31 -3 3 -14 11 -25 17 -17 9 -155 108 -275 197 -177 131 -253
185 -261 185 -5 0 -9 3 -9 8 0 4 -21 22 -47 40 -27 18 -82 57 -123 87 -41 30
-95 69 -120 87 -25 17 -116 84 -203 147 -87 64 -187 136 -222 161 -35 25 -100
72 -145 105 -45 33 -110 80 -145 105 -175 125 -223 160 -234 173 -9 12 -3 21
36 50 26 20 85 64 130 99 45 35 125 97 179 138 53 41 114 89 135 105 20 17 81
64 135 105 53 41 114 89 135 105 21 17 76 58 121 93 92 70 100 76 144 112 52
42 104 82 180 140 91 69 255 196 305 235 20 17 81 64 135 105 53 41 114 89
135 105 66 51 188 146 334 258 77 60 149 116 160 125 11 9 64 50 119 92 54 41
116 89 137 105 20 17 81 64 135 105 53 41 114 89 135 105 21 17 93 72 161 124
68 52 155 119 193 150 39 31 97 76 130 101 33 25 62 47 65 50 3 3 32 25 65 50
33 25 69 53 80 62 11 9 37 29 57 45 20 15 78 60 130 100 51 39 118 91 148 114
30 23 57 45 60 48 3 3 52 42 110 85 58 44 137 105 175 135 39 31 97 76 130
101 33 25 66 51 75 57 21 17 350 273 386 300 37 28 40 28 48 1z m-11839 -53
c27 -22 145 -116 270 -215 28 -22 99 -78 158 -125 59 -46 125 -98 145 -115 20
-16 131 -104 247 -195 116 -91 233 -183 260 -205 28 -22 93 -74 145 -115 52
-41 118 -93 145 -115 28 -22 93 -74 145 -115 52 -41 118 -93 145 -115 28 -22
79 -63 115 -91 80 -63 105 -82 172 -136 29 -24 148 -117 263 -208 116 -91 233
-183 260 -205 65 -52 227 -180 290 -230 28 -22 93 -74 145 -115 52 -41 119
-94 149 -118 29 -23 72 -58 96 -77 23 -19 66 -53 95 -75 29 -22 64 -50 79 -61
14 -12 130 -103 256 -203 127 -100 237 -187 245 -194 27 -22 255 -202 281
-222 15 -11 84 -66 155 -123 71 -56 175 -139 232 -184 56 -45 107 -87 112 -93
8 -10 -27 -41 -137 -122 -81 -60 -159 -117 -173 -126 -14 -9 -45 -33 -70 -52
-25 -19 -66 -49 -92 -67 -27 -18 -48 -36 -48 -40 0 -5 -4 -8 -9 -8 -6 0 -65
-41 -133 -92 -155 -116 -311 -231 -458 -339 -63 -46 -154 -113 -202 -149 -48
-36 -149 -110 -224 -165 -75 -55 -200 -148 -279 -206 -78 -58 -164 -121 -191
-139 -27 -19 -54 -39 -61 -45 -6 -5 -54 -41 -107 -80 -53 -38 -154 -113 -224
-165 -71 -52 -177 -131 -238 -176 -60 -44 -188 -139 -284 -210 -96 -72 -188
-139 -205 -149 -16 -11 -32 -22 -35 -26 -3 -3 -23 -19 -46 -35 -22 -16 -80
-58 -129 -94 -48 -36 -131 -97 -184 -136 -53 -39 -150 -110 -216 -159 -66 -49
-156 -115 -200 -148 -44 -32 -91 -67 -105 -77 -14 -11 -72 -54 -130 -96 -58
-43 -167 -124 -243 -181 -76 -57 -140 -103 -143 -103 -3 0 -19 -13 -37 -30
-18 -16 -35 -30 -39 -30 -5 0 -8 1602 -8 3560 0 1958 3 3560 8 3560 4 0 21
-11 37 -25z m6813 -3864 c48 -36 177 -131 222 -161 19 -13 87 -62 150 -109 63
-46 133 -97 155 -113 22 -16 81 -58 130 -94 50 -36 126 -91 169 -122 43 -31
120 -87 170 -124 50 -37 123 -90 161 -118 39 -28 129 -94 200 -146 72 -52 157
-113 190 -136 33 -23 112 -79 175 -126 63 -47 133 -98 155 -114 160 -115 365
-265 388 -283 9 -8 20 -15 22 -15 3 0 74 -51 158 -113 83 -62 179 -132 212
-155 33 -23 94 -67 135 -97 70 -51 111 -80 170 -122 13 -10 71 -52 127 -93
149 -110 401 -293 426 -310 12 -8 65 -46 117 -84 149 -108 201 -147 286 -208
44 -31 111 -79 149 -108 39 -28 79 -58 90 -65 11 -8 101 -73 200 -145 276
-200 298 -216 323 -231 12 -8 22 -17 22 -21 0 -5 -2543 -8 -5652 -8 l-5652 0
34 30 c19 16 38 29 42 30 4 0 60 40 125 88 140 106 411 306 617 458 81 60 213
157 293 217 79 59 148 107 152 107 5 0 15 7 22 16 8 9 30 27 49 41 39 27 89
63 129 93 36 28 341 253 432 319 107 78 216 159 364 269 72 53 204 151 294
217 90 66 229 168 310 228 80 59 157 115 170 125 14 9 68 49 120 88 53 39 168
124 256 189 306 226 381 282 536 397 85 63 182 134 215 157 32 23 79 57 104
76 25 19 61 46 80 60 19 14 67 49 107 78 39 28 101 74 137 100 l66 48 81 -63
c44 -35 122 -96 172 -136 51 -40 116 -91 146 -115 29 -23 72 -58 96 -77 23
-19 66 -53 95 -75 29 -22 69 -54 89 -70 20 -17 52 -43 73 -58 20 -15 43 -33
50 -41 8 -7 34 -23 58 -35 89 -43 129 -28 319 124 21 17 80 63 132 102 52 40
123 96 159 124 36 27 97 74 135 104 39 30 122 94 185 144 63 49 116 90 118 90
2 1 20 -12 40 -28z"/>
<path d="M6050 7289 c-189 -26 -232 -33 -248 -45 -13 -10 -14 -15 -5 -25 9 -9
33 -8 110 4 250 41 420 28 691 -52 17 -5 32 -7 32 -4 0 3 8 0 18 -8 9 -8 64
-38 122 -67 193 -96 387 -268 507 -448 53 -79 81 -101 98 -75 9 15 -109 182
-187 266 -152 162 -355 300 -538 364 -36 12 -74 26 -85 31 -44 20 -386 74
-437 69 -7 -1 -42 -5 -78 -10z"/>
<path d="M5720 7228 c-35 -15 -58 -24 -110 -43 -77 -28 -232 -115 -310 -173
-91 -68 -238 -216 -290 -292 -99 -146 -176 -292 -164 -311 3 -5 -5 -23 -16
-40 -22 -29 -73 -195 -66 -208 3 -4 -2 -31 -10 -61 -17 -66 -18 -162 -2 -178
9 -9 9 -15 0 -24 -18 -18 -15 -28 8 -28 18 0 20 7 20 63 0 55 20 205 35 261 3
11 10 38 15 59 20 75 34 122 40 127 3 3 31 57 63 120 73 143 121 214 217 314
150 157 377 302 568 362 44 14 53 20 50 37 -4 25 -15 29 -48 15z"/>
<path d="M6144 6988 c3 -34 7 -62 9 -63 1 -2 39 -5 85 -7 72 -4 82 -3 80 11
-2 12 -18 17 -61 19 -33 2 -57 8 -57 14 0 7 19 9 55 5 50 -5 55 -4 55 14 0 16
-7 19 -55 19 -34 0 -55 4 -55 11 0 8 20 9 65 4 54 -5 65 -4 65 8 0 20 -31 27
-119 27 l-74 0 7 -62z"/>
<path d="M6034 6990 c5 -40 4 -50 -8 -50 -8 0 -21 -3 -30 -6 -12 -5 -17 5 -22
46 -6 49 -8 51 -33 45 -34 -9 -33 -6 -22 -56 5 -24 9 -44 8 -45 -1 -1 -14 -5
-28 -9 -24 -6 -27 -3 -39 40 -12 43 -15 46 -39 40 -14 -4 -27 -8 -28 -9 -2 -1
6 -30 18 -63 l20 -60 69 18 c39 10 97 21 130 25 l60 7 0 63 0 64 -31 0 -32 0
7 -50z"/>
<path d="M6374 7016 c-2 -11 -6 -41 -7 -66 -2 -40 1 -45 21 -48 17 -3 22 2 22
17 0 15 6 21 23 21 48 0 66 -11 64 -38 -2 -21 3 -28 20 -30 18 -3 25 6 43 54
17 46 18 59 8 65 -23 15 -46 10 -51 -11 -4 -17 -11 -20 -34 -15 -49 11 -53 14
-53 39 0 33 -48 44 -56 12z"/>
<path d="M6610 6909 c-19 -51 -21 -62 -9 -70 17 -11 39 -12 39 -1 0 4 4 13 9
20 7 11 14 11 42 -3 44 -23 42 -20 29 -45 -10 -18 -9 -24 1 -31 26 -16 37 -9
70 42 31 50 32 52 14 65 -25 18 -32 18 -44 -5 -10 -18 -11 -18 -51 1 -43 21
-45 25 -30 48 7 11 3 18 -13 27 -12 7 -25 12 -28 13 -4 0 -17 -27 -29 -61z"/>
<path d="M5633 6925 c-29 -13 -53 -29 -53 -35 0 -6 12 -32 28 -59 24 -43 29
-47 49 -38 17 7 21 16 17 31 -4 18 2 25 36 40 42 18 65 48 56 72 -8 22 -75 17
-133 -11z"/>
<path d="M5450 6825 c-36 -25 -66 -51 -67 -57 -1 -7 15 -33 36 -56 l38 -44 72
47 c39 27 71 52 71 56 0 21 -23 17 -70 -12 -28 -17 -53 -29 -56 -26 -3 2 16
18 41 33 42 27 59 54 33 54 -6 0 -31 -12 -55 -26 -25 -14 -47 -24 -49 -21 -3
3 20 20 50 38 54 32 66 52 35 56 -8 1 -43 -18 -79 -42z"/>
<path d="M6067 6818 c-158 -11 -311 -66 -452 -161 -72 -49 -200 -174 -243
-239 -49 -72 -111 -199 -115 -238 -3 -19 -10 -48 -16 -63 -9 -22 -8 -29 3 -33
23 -9 58 15 51 35 -7 22 42 48 59 31 16 -16 51 -12 71 10 10 11 22 20 27 20 4
0 8 -9 8 -20 0 -24 1 -24 45 -6 19 8 35 21 35 28 0 10 2 10 9 -1 7 -11 23 -10
92 7 233 56 246 63 222 101 -9 15 -6 16 23 13 25 -3 34 -9 32 -21 -3 -18 2
-18 87 4 251 65 364 95 440 116 17 5 111 30 210 57 127 34 180 52 180 62 0 25
-173 156 -268 203 -160 79 -313 108 -500 95z m-108 -172 c36 -57 45 -61 97
-41 25 9 48 15 51 12 3 -3 -9 -26 -27 -51 l-31 -46 32 -45 c18 -25 29 -48 26
-51 -4 -4 -26 1 -50 10 -58 22 -61 21 -92 -24 -15 -22 -31 -40 -36 -40 -4 0
-9 25 -11 56 l-3 56 -45 15 c-52 17 -70 30 -49 36 8 3 33 10 57 17 l42 13 0
59 c0 32 4 58 9 58 5 0 19 -15 30 -34z"/>
<path d="M6830 6800 c-11 -11 -20 -26 -20 -34 0 -23 44 -79 88 -113 118 -90
180 17 67 115 -62 55 -103 64 -135 32z"/>
<path d="M5249 6653 c-32 -31 -59 -61 -59 -67 1 -12 83 -76 97 -76 12 0 99 91
113 118 15 30 6 52 -20 52 -11 0 -20 7 -20 15 0 9 -10 15 -26 15 -17 0 -44
-18 -85 -57z"/>
<path d="M5130 6494 c-58 -49 -90 -150 -58 -182 22 -22 63 -13 95 21 41 42 63
88 63 130 0 61 -46 76 -100 31z"/>
<path d="M7167 6349 c-53 -28 -77 -71 -77 -139 0 -67 26 -126 69 -163 28 -23
42 -27 95 -27 69 0 111 20 150 73 49 66 11 218 -64 258 -46 25 -124 24 -173
-2z m142 -75 c63 -80 41 -184 -40 -184 -43 0 -69 16 -85 55 -23 57 -18 110 12
134 38 30 87 28 113 -5z"/>
<path d="M5029 6287 c-47 -35 -74 -158 -45 -202 35 -53 95 -18 122 70 16 55
19 115 4 115 -14 0 -27 -30 -33 -78 -10 -80 -67 -108 -67 -32 0 23 8 48 21 64
25 32 24 82 -2 63z"/>
<path d="M6933 6283 c-27 -5 -27 -11 -8 -83 8 -30 13 -55 12 -55 -1 -1 -27 -8
-58 -17 l-57 -15 -12 53 c-18 74 -19 75 -64 63 -29 -8 -36 -14 -31 -27 8 -21
85 -300 85 -308 0 -7 62 6 72 15 4 3 -1 36 -12 72 l-18 66 41 12 c23 7 49 14
58 17 13 4 20 -10 35 -63 9 -37 19 -70 20 -71 1 -2 19 1 39 8 42 14 43 -4 -13
200 -39 139 -41 143 -89 133z"/>
<path d="M6505 6167 c-60 -17 -112 -32 -114 -33 -1 -2 1 -15 7 -31 9 -29 14
-30 72 -19 l35 7 35 -131 34 -132 30 6 c17 4 34 10 39 15 4 4 -8 66 -27 136
-20 71 -35 129 -33 130 1 1 21 7 45 14 41 12 48 23 36 55 -8 21 -30 19 -159
-17z"/>
<path d="M6211 6084 c-62 -18 -115 -35 -117 -37 -2 -2 3 -23 11 -48 7 -24 28
-97 46 -161 17 -65 37 -118 43 -118 6 1 63 16 126 34 108 30 115 34 112 57 -1
13 -6 27 -11 32 -4 4 -47 -3 -94 -16 l-85 -24 -10 38 -10 39 42 11 c120 31
117 30 110 63 -3 17 -7 32 -8 33 -1 2 -37 -7 -79 -19 -43 -11 -80 -19 -82 -17
-2 2 -6 16 -10 30 -6 25 -4 26 79 48 84 22 86 23 80 49 -8 33 -13 42 -22 41
-4 -1 -58 -17 -121 -35z"/>
<path d="M5857 5986 c-48 -13 -90 -26 -92 -28 -3 -3 2 -24 10 -49 7 -24 28
-97 46 -162 l32 -119 31 6 c42 9 48 17 35 55 -13 37 -6 46 41 57 14 4 42 23
63 42 30 29 37 43 37 74 0 61 -28 118 -66 134 -41 17 -31 18 -137 -10z m137
-41 c38 -35 35 -78 -8 -121 -26 -26 -43 -34 -69 -34 -91 0 -124 158 -37 173
61 11 88 7 114 -18z"/>
<path d="M5664 5936 c-40 -18 -46 -28 -59 -100 -6 -33 -16 -61 -23 -64 -7 -2
-12 3 -12 10 0 8 -7 38 -15 66 -15 49 -17 52 -43 46 -15 -4 -31 -10 -36 -15
-6 -5 8 -72 34 -170 l44 -161 30 6 c17 4 34 10 38 14 4 4 -1 38 -11 75 -11 37
-16 67 -11 67 4 0 33 -27 63 -59 l55 -59 41 10 c22 6 41 14 41 18 0 5 -31 40
-68 78 -65 68 -68 72 -64 114 3 31 11 49 28 64 20 16 24 26 19 47 -8 31 -9 31
-51 13z"/>
<path d="M7527 5893 c-14 -4 -18 -15 -17 -56 3 -155 -67 -425 -153 -587 -98
-185 -233 -343 -397 -464 -79 -58 -265 -166 -286 -166 -8 0 -22 -4 -32 -10
-15 -8 -102 -34 -202 -59 -89 -23 -166 -31 -291 -31 -141 0 -196 7 -339 41
-88 21 -94 23 -172 58 -61 27 -65 27 -66 -8 -1 -25 5 -32 41 -46 140 -56 303
-93 447 -101 194 -11 480 33 534 82 15 15 27 20 31 14 8 -13 30 -6 115 34 162
76 287 163 411 286 54 54 79 86 84 111 9 41 22 58 53 70 17 7 23 15 19 28 -3
12 0 18 7 15 10 -4 86 95 86 111 0 3 17 42 39 88 61 131 97 261 122 438 11 81
7 160 -9 158 -4 -1 -15 -3 -25 -6z"/>
<path d="M5261 5824 c-62 -18 -115 -35 -117 -37 -2 -2 3 -23 11 -48 7 -24 28
-97 46 -161 17 -65 37 -118 43 -118 6 1 63 16 126 34 108 30 115 34 112 57 -1
13 -6 27 -11 32 -4 4 -47 -3 -94 -16 l-85 -24 -10 38 -10 39 42 11 c120 31
117 30 110 63 -3 17 -7 32 -8 33 -1 2 -37 -7 -79 -19 -43 -11 -80 -19 -82 -17
-2 2 -6 16 -10 30 -6 25 -4 26 79 48 84 22 86 23 80 49 -8 33 -13 42 -22 41
-4 -1 -58 -17 -121 -35z"/>
<path d="M4895 5727 c-47 -26 -75 -76 -75 -132 0 -136 91 -223 202 -195 67 17
99 52 112 118 5 31 5 32 -32 32 -34 0 -39 -4 -50 -34 -17 -46 -61 -65 -98 -41
-54 35 -73 144 -31 183 29 27 61 28 87 2 19 -19 21 -19 55 -3 39 18 40 21 22
43 -42 54 -123 66 -192 27z"/>
<path d="M6990 5664 c-25 -8 -94 -28 -155 -44 -237 -62 -315 -83 -455 -121
-80 -21 -190 -51 -245 -65 -55 -15 -127 -35 -159 -46 -33 -10 -67 -18 -77 -18
-29 0 -109 -38 -116 -55 -3 -9 -1 -21 6 -28 6 -6 11 -23 11 -38 0 -15 6 -30
13 -32 7 -3 5 -6 -6 -6 -11 -1 -23 13 -33 39 -11 27 -22 40 -35 40 -11 0 -19
7 -19 16 0 12 -6 15 -22 10 -13 -4 -71 -19 -130 -34 -78 -19 -108 -31 -107
-42 0 -13 108 -110 123 -110 3 0 6 7 6 15 0 27 18 16 25 -16 5 -22 20 -39 58
-63 58 -37 175 -86 205 -86 11 0 33 -7 48 -15 16 -8 40 -15 54 -15 14 0 59 -5
100 -11 60 -9 96 -8 183 4 161 23 243 72 190 113 -16 13 -15 13 9 3 21 -9 31
-9 41 0 11 9 17 8 27 -4 7 -8 23 -15 35 -15 28 0 152 81 222 144 61 55 155
181 200 269 27 51 83 201 83 222 0 8 -32 4 -80 -11z m-655 -352 c21 -24 21
-24 68 -8 26 9 50 16 52 16 13 0 2 -25 -26 -60 l-31 -38 32 -47 c18 -25 30
-49 27 -51 -3 -3 -29 3 -58 12 -50 17 -53 17 -63 0 -21 -35 -48 -66 -57 -66
-5 0 -9 22 -9 49 0 55 -7 64 -68 82 -49 14 -45 25 21 49 40 15 42 18 45 60 4
69 11 80 30 50 10 -13 26 -35 37 -48z"/>
<path d="M4933 5198 c-13 -6 -23 -14 -23 -18 0 -14 124 -187 180 -250 56 -63
175 -169 218 -193 11 -7 53 -35 95 -63 78 -53 134 -81 143 -71 10 10 -27 68
-51 79 -14 6 -25 15 -25 19 0 5 -15 15 -32 22 -114 49 -337 265 -442 430 -20
31 -38 57 -39 56 -1 0 -12 -5 -24 -11z"/>
</g>
</svg>
