<svg version="1.0" xmlns="http://www.w3.org/2000/svg"
 width="200" height="150" viewBox="0 0 1250 800"
 preserveAspectRatio="xMidYMid meet">
<style type="text/css">svg { cursor: pointer; }	</style>
<g transform="translate(0.000000,797.000000) scale(0.100000,-0.100000)"
fill="#a54145" stroke="none">
<path 
d="M5160 6631 c0 -28 -46 -71 -76 -71 -13 0 -24 -4 -24 -10 0 -5 -7 -10
-15 -10 -8 0 -15 -8 -15 -19 0 -13 10 -20 31 -25 40 -8 272 -8 293 0 18 7 22
44 5 44 -5 0 -7 5 -4 10 6 10 -13 15 -47 12 -10 -1 -18 4 -18 12 0 7 -9 16
-20 19 -12 3 -20 14 -20 26 0 15 -6 21 -22 21 -13 0 -33 3 -45 6 -19 5 -23 2
-23 -15z
M11932 6543 c-104 -3 -125 -6 -141 -22 -11 -11 -17 -22 -13 -25 6 -7
332 -8 332 -2 0 7 -47 56 -51 54 -2 -1 -59 -4 -127 -5z
M4694 6418 c-16 -24 -31 -45 -35 -48 -3 -3 -25 -45 -50 -95 -24 -49
-47 -92 -50 -95 -3 -3 -12 -26 -20 -52 -7 -27 -17 -48 -21 -48 -4 0 -8 -8 -8
-17 0 -10 -7 -38 -16 -62 -20 -57 -62 -227 -66 -266 -2 -17 -8 -29 -15 -28
-10 2 -11 -15 -6 -74 5 -67 4 -78 -12 -89 -10 -8 -15 -17 -11 -21 4 -5 163 -8
353 -8 l346 0 -1 368 c0 202 3 367 8 367 18 0 20 -45 20 -387 l0 -354 23 3 22
3 0 371 c0 296 2 368 13 358 9 -10 12 -97 12 -367 0 -276 3 -357 13 -365 35
-30 38 -5 35 375 -2 296 0 369 10 361 9 -8 12 -95 12 -374 l0 -364 25 0 26 0
-3 376 c-3 362 -2 374 15 353 17 -21 18 -49 16 -373 -1 -350 -1 -351 20 -354
l21 -3 0 370 c0 339 6 420 24 346 4 -14 6 -175 6 -358 0 -182 0 -338 0 -345 0
-8 9 -12 23 -10 l22 3 0 367 c0 292 3 364 13 356 9 -8 12 -94 12 -368 0 -305
2 -359 15 -363 8 -4 17 -2 21 4 3 6 5 174 4 375 -1 335 4 401 24 348 3 -9 6
-175 6 -370 l0 -354 25 0 26 0 -3 373 c-2 299 -1 371 10 361 9 -10 12 -98 12
-372 0 -279 3 -361 13 -365 36 -12 37 -4 37 376 0 263 3 368 11 360 7 -7 11
-130 12 -369 l2 -359 23 -3 22 -3 -2 376 c-3 363 -2 375 15 354 17 -21 18 -49
16 -370 0 -191 2 -352 5 -358 4 -6 13 -8 21 -4 13 4 15 59 15 377 1 328 2 369
15 352 13 -17 15 -78 15 -373 l0 -353 25 0 25 0 -2 369 c-2 292 0 367 10 364
9 -4 12 -87 12 -368 0 -305 2 -364 14 -368 32 -13 35 18 33 381 -1 199 1 362
4 362 16 0 19 -53 19 -385 0 -286 3 -354 13 -358 36 -14 38 2 35 376 -2 242 0
366 7 364 6 -2 11 -137 13 -370 l2 -367 25 0 25 0 -2 376 c-3 360 -2 374 15
353 16 -20 17 -51 17 -371 -1 -191 2 -353 5 -358 3 -5 12 -7 21 -3 12 5 14 55
12 380 -3 361 -2 373 15 352 17 -21 18 -49 16 -373 l-1 -351 24 0 23 0 0 367
c0 292 3 364 13 356 9 -8 12 -95 12 -370 l0 -359 23 3 22 3 0 368 c0 202 3
367 6 367 16 0 19 -54 19 -387 l0 -354 23 3 22 3 0 371 c0 296 2 368 13 358 9
-10 12 -98 12 -372 0 -279 3 -361 13 -364 36 -14 37 -6 37 375 0 244 3 368 10
361 6 -6 11 -150 12 -369 l3 -360 2895 0 2895 0 2 65 c2 36 0 80 -3 98 l-5 32
-499 0 c-311 0 -500 -4 -500 -10 0 -5 -17 -12 -37 -15 -60 -10 -100 -23 -236
-77 -70 -28 -130 -49 -132 -46 -9 9 221 117 300 141 116 35 144 37 629 37
l486 0 -2 259 c0 142 2 263 6 269 3 6 6 41 5 77 -1 54 -6 71 -24 91 l-22 24
-1832 0 -1831 0 -6 -28 c-10 -47 -14 -53 -25 -46 -8 5 -9 -6 -4 -36 4 -24 3
-51 -3 -64 -6 -11 -13 -34 -17 -51 -9 -39 -72 -98 -122 -113 -57 -17 -869 -17
-926 0 -22 7 -57 28 -78 48 -30 29 -42 53 -69 140 -18 58 -37 115 -43 128
l-10 22 -1272 0 -1272 0 -29 -42z m7532 -229 c3 -6 2 -15 -3 -20 -7 -7 -580
-8 -1602 -3 -875 4 -1588 10 -1585 13 3 3 717 8 1587 11 870 3 1585 7 1589 8
4 1 10 -3 14 -9z
M7360 6355 c-7 -8 -17 -12 -24 -8 -6 3 -3 -3 7 -14 9 -11 17 -28 17
-38 0 -34 47 -100 88 -123 39 -22 43 -22 470 -22 236 0 444 3 462 6 39 8 98
64 105 102 3 15 13 40 21 56 8 16 13 29 12 30 -2 0 -14 7 -27 14 -17 10 -26
11 -34 3 -14 -14 -945 -15 -966 -2 -9 6 -22 6 -34 -1 -13 -7 -22 -7 -30 1 -16
16 -52 14 -67 -4z
M3900 6310 c0 -5 -13 -10 -30 -10 -16 0 -30 -4 -30 -10 0 -5 -8 -10
-18 -10 -9 0 -23 -9 -30 -20 -7 -12 -24 -20 -40 -21 -15 0 -21 -3 -14 -6 6 -2
12 -9 12 -14 0 -6 -4 -7 -10 -4 -6 4 -10 -7 -10 -24 0 -26 4 -31 23 -31 13 0
27 -3 31 -7 4 -4 19 -9 34 -11 15 -2 30 -10 35 -17 5 -10 17 -12 38 -8 20 4
35 0 48 -11 12 -11 27 -14 49 -10 21 4 32 3 32 -5 0 -6 12 -11 26 -11 14 0 32
-7 41 -16 11 -11 19 -12 26 -5 13 13 -9 32 -87 74 -70 38 -43 34 35 -5 92 -46
235 -193 280 -287 19 -39 39 -69 44 -67 6 1 16 27 23 57 15 64 49 176 62 204
27 62 62 166 58 170 -12 12 -81 18 -74 7 10 -16 -18 -20 -122 -18 -63 1 -95 5
-101 14 -4 7 -15 10 -24 6 -11 -4 -19 0 -23 10 -3 9 -10 14 -14 11 -5 -3 -14
0 -22 7 -7 7 -20 14 -28 16 -8 2 -18 8 -21 14 -3 5 -9 9 -13 9 -20 -3 -26 0
-21 9 3 5 -2 9 -12 8 -35 -3 -54 2 -48 12 4 6 -15 10 -49 10 -31 0 -56 -4 -56
-10z
M12307 6260 c-8 -31 -9 -1183 -1 -1204 8 -20 24 -21 24 -1 0 8 7 15
16 15 14 0 15 58 12 585 -2 416 -6 585 -14 585 -6 0 -15 10 -21 22 l-10 22 -6
-24z
M12398 6189 c-16 -9 -18 -33 -18 -268 0 -207 3 -260 13 -264 8 -3 18
-2 24 1 12 8 36 100 29 111 -3 4 -6 103 -6 220 -1 219 -2 224 -42 200z
M2130 6150 c-201 -3 -366 -7 -368 -8 -2 -1 -8 -15 -13 -32 -6 -16
-15 -30 -21 -30 -5 0 -7 -9 -3 -19 3 -11 -1 -25 -10 -34 -8 -9 -15 -27 -15
-41 0 -14 -4 -26 -10 -26 -5 0 -10 -16 -10 -36 0 -21 -4 -33 -10 -29 -6 4 -10
-7 -10 -24 0 -17 -4 -31 -10 -31 -5 0 -10 -13 -10 -30 0 -16 -4 -30 -10 -30
-5 0 -10 -13 -10 -30 0 -16 -4 -30 -10 -30 -5 0 -10 -16 -10 -35 0 -19 -4 -35
-10 -35 -5 0 -10 -13 -10 -30 0 -16 -4 -30 -8 -30 -4 0 -14 -27 -21 -60 -8
-33 -17 -60 -22 -60 -5 0 -9 -13 -9 -30 0 -18 -5 -30 -13 -30 -9 0 -12 -10 -9
-30 3 -18 0 -30 -7 -30 -6 0 -11 -13 -11 -30 0 -20 -5 -30 -15 -30 -11 0 -13
-8 -9 -30 5 -23 3 -30 -9 -30 -11 0 -15 -9 -13 -32 0 -20 -4 -32 -10 -31 -7 1
-11 -11 -10 -30 1 -21 -3 -31 -12 -29 -8 1 -11 -5 -7 -20 6 -28 -20 -104 -34
-100 -7 1 -10 -11 -9 -30 2 -23 -1 -32 -10 -30 -10 2 -12 -5 -7 -28 5 -22 3
-32 -9 -36 -11 -4 -14 -13 -10 -30 4 -17 1 -26 -10 -30 -11 -4 -14 -13 -10
-30 4 -17 1 -26 -10 -30 -11 -4 -14 -13 -10 -30 4 -17 1 -26 -10 -30 -11 -4
-14 -13 -10 -30 4 -17 1 -26 -10 -30 -9 -4 -16 -14 -15 -23 4 -28 -23 -111
-33 -105 -5 4 -9 -2 -8 -12 4 -38 0 -55 -12 -48 -8 5 -9 0 -5 -15 7 -26 -1
-53 -13 -46 -5 3 -8 -9 -8 -27 1 -17 -4 -34 -10 -36 -7 -2 -12 -17 -12 -33 0
-16 -4 -29 -10 -29 -5 0 -10 -13 -10 -30 0 -16 -4 -30 -10 -30 -5 0 -10 -13
-10 -30 0 -16 -4 -30 -10 -30 -5 0 -10 -10 -10 -22 0 -30 -42 -158 -52 -158
-4 0 -8 -13 -8 -30 0 -16 -4 -30 -10 -30 -5 0 -10 -16 -10 -35 0 -19 -4 -35
-10 -35 -5 0 -10 -11 -10 -24 0 -14 -4 -28 -10 -31 -5 -3 -10 -19 -10 -36 0
-16 -4 -29 -10 -29 -5 0 -10 -9 -10 -20 0 -11 -4 -28 -9 -38 -14 -28 -91 -269
-91 -286 0 -9 -7 -16 -15 -16 -11 0 -13 -8 -9 -30 5 -24 3 -30 -11 -30 -11 0
-15 -5 -11 -16 7 -17 -120 -405 -136 -415 -6 -4 -7 -16 -3 -28 4 -14 2 -23 -9
-27 -9 -3 -15 -16 -14 -27 1 -30 -127 -409 -135 -400 -4 3 -7 -5 -7 -20 0 -21
-201 -646 -229 -712 -5 -11 -37 -108 -71 -215 -34 -107 -66 -203 -71 -212 -16
-31 -10 -46 23 -54 18 -5 38 -9 43 -9 6 0 16 -4 23 -8 7 -5 21 -5 32 -2 11 4
44 2 73 -4 28 -6 120 -20 202 -31 227 -30 595 -82 790 -110 39 -5 94 -11 124
-12 l54 -3 227 675 c124 371 295 880 380 1130 85 250 213 632 285 848 73 216
135 395 139 399 13 13 20 -9 8 -27 -7 -11 -12 -27 -12 -35 0 -8 -4 -23 -9 -33
-5 -9 -59 -168 -119 -352 -60 -184 -277 -839 -481 -1455 -204 -617 -371 -1126
-371 -1133 0 -7 -4 -12 -10 -12 -5 0 -10 -6 -10 -13 0 -8 17 -12 52 -12 l53 0
241 720 c133 396 244 727 246 735 3 8 15 47 27 85 12 39 26 79 30 90 5 11 15
40 22 65 7 25 16 49 21 55 4 5 8 19 8 31 0 13 5 26 10 29 6 3 10 17 10 30 0
13 5 27 10 30 6 3 10 16 10 29 0 12 4 26 9 31 5 6 11 21 13 35 2 14 9 24 15
23 6 -1 9 6 6 16 -6 23 22 107 35 104 6 -1 8 7 5 18 -3 11 -1 30 4 42 6 12 16
40 22 62 7 22 16 49 20 60 15 36 253 750 258 772 3 14 0 24 -8 27 -44 12 -162
51 -206 68 -34 13 -53 26 -53 37 0 28 58 184 72 192 17 11 26 11 33 -1 3 -5
17 -10 31 -10 13 0 24 -4 24 -10 0 -5 14 -10 30 -10 17 0 30 -4 30 -10 0 -5
13 -10 28 -10 15 0 33 -5 39 -11 6 -6 23 -9 39 -7 26 3 31 10 56 83 15 44 28
88 28 99 0 10 5 16 13 13 8 -3 12 7 12 32 0 20 5 35 10 34 6 -1 10 13 10 30 0
18 5 31 11 30 7 -1 9 8 6 22 -3 16 1 27 10 30 10 4 13 15 10 30 -3 16 1 27 10
30 10 4 13 16 10 35 -3 21 0 30 9 30 9 0 14 12 14 33 0 17 5 31 10 30 6 -1 10
13 10 30 0 18 5 31 10 30 6 -1 10 13 10 30 0 18 5 31 10 30 6 -1 10 13 10 30
0 19 5 31 11 30 7 -1 11 11 10 30 -1 22 3 31 12 29 9 -2 12 4 8 16 -8 23 3 54
15 46 5 -3 6 9 3 25 -5 22 -2 32 8 36 10 4 13 15 10 30 -3 16 1 27 11 31 8 3
13 13 10 23 -3 10 2 25 10 32 8 7 12 21 10 30 -3 9 2 23 10 30 8 7 12 21 10
30 -3 9 2 23 11 31 8 9 13 18 10 21 -10 9 8 57 19 50 7 -4 8 0 3 12 -7 21 2
58 13 51 4 -3 8 8 8 25 0 17 7 35 18 43 13 10 16 20 11 40 -13 51 -15 51 -227
48 -188 -3 -198 -3 -208 16 -6 11 -18 22 -26 26 -11 4 -14 2 -9 -7 5 -8 2 -7
-9 2 -10 7 -58 96 -107 197 -49 101 -94 184 -100 184 -6 0 -8 5 -5 10 3 6 5 9
3 8 -2 -1 -167 -5 -368 -8z m361 -805 c-28 -241 -43 -329 -71 -420 -26 -86
-451 -1376 -460 -1400 -9 -21 -42 -123 -61 -185 -6 -19 -14 -44 -19 -55 -4
-11 -110 -330 -234 -710 -125 -379 -231 -698 -237 -707 -5 -10 -9 -27 -9 -37
0 -11 -4 -23 -10 -26 -5 -3 -10 -15 -10 -26 0 -10 -4 -27 -9 -37 -5 -9 -28
-78 -52 -152 -48 -149 -67 -187 -114 -217 -118 -78 -275 15 -263 156 4 42 28
120 49 163 5 10 9 27 9 37 0 11 5 23 10 26 6 3 10 17 10 30 0 13 5 27 10 30 6
3 10 17 10 30 0 13 5 27 10 30 6 3 10 17 10 30 0 13 4 27 10 30 5 3 10 17 10
30 0 13 5 27 10 30 6 3 10 17 10 30 0 13 4 27 10 30 6 3 10 15 10 26 0 10 4
27 9 37 5 9 55 157 110 327 56 171 167 508 246 750 80 242 186 566 236 720 50
154 95 289 99 300 5 11 59 173 120 360 62 187 130 383 152 435 41 97 177 370
184 370 5 0 2 -8 -101 -240 -61 -137 -153 -402 -426 -1225 -193 -577 -353
-1059 -358 -1070 -5 -11 -23 -65 -40 -120 -18 -55 -36 -109 -40 -120 -22 -51
-342 -1034 -347 -1066 -9 -52 12 -104 54 -139 32 -26 45 -30 96 -30 57 0 61 2
100 43 34 36 47 63 76 153 19 60 161 494 317 964 156 470 349 1053 429 1295
80 242 149 449 153 460 5 11 14 38 20 60 7 22 16 49 20 60 13 30 166 504 179
550 19 73 40 197 61 375 6 47 14 112 18 145 l8 60 3 -45 c2 -25 -1 -90 -7
-145z m-914 -235 c-57 -67 -92 -144 -167 -375 -40 -121 -80 -242 -90 -270 -14
-39 -379 -1145 -542 -1640 -16 -49 -33 -99 -37 -110 -14 -33 -380 -1148 -387
-1176 -10 -45 13 -105 54 -138 63 -53 171 -40 217 27 14 18 119 333 586 1747
95 286 262 790 371 1120 226 678 228 686 228 761 0 34 4 53 10 49 6 -3 10 -36
10 -72 0 -52 -11 -98 -59 -241 -32 -98 -170 -514 -306 -927 -136 -412 -251
-759 -255 -770 -5 -11 -97 -288 -205 -615 -108 -327 -200 -604 -204 -615 -26
-68 -44 -124 -48 -148 -3 -15 -9 -30 -14 -33 -5 -3 -9 -14 -9 -25 0 -10 -4
-27 -9 -37 -5 -9 -19 -51 -32 -92 -28 -90 -52 -129 -95 -158 -75 -49 -173 -31
-229 42 -54 70 -51 89 75 469 61 188 116 350 121 359 5 10 9 25 9 33 0 8 4 23
9 33 5 9 94 274 197 587 398 1212 687 2072 711 2117 22 41 106 138 119 138 3
0 -10 -18 -29 -40z m263 -1522 c-7 -24 -16 -52 -20 -63 -5 -11 -54 -162 -110
-335 -56 -173 -126 -389 -156 -480 -193 -591 -257 -787 -264 -805 -5 -11 -14
-36 -20 -55 -96 -308 -125 -385 -155 -404 -34 -23 -42 -20 -19 7 11 12 25 33
32 47 6 14 113 333 237 710 125 377 230 694 235 705 5 11 23 65 41 120 17 55
35 109 40 120 4 11 22 65 40 120 17 55 35 109 40 120 5 11 25 71 45 133 20 62
39 110 42 107 3 -3 -1 -24 -8 -47z m-715 -365 c-64 -197 -139 -428 -167 -513
-28 -85 -94 -288 -148 -450 -53 -162 -130 -396 -171 -520 -80 -246 -92 -275
-129 -299 l-25 -16 22 30 c11 17 177 498 367 1070 404 1213 355 1069 362 1062
3 -3 -47 -167 -111 -364z
M4363 5473 c-3 -7 -13 -13 -22 -13 -9 0 -34 -15 -56 -34 -22 -19 -42
-33 -44 -31 -2 3 -12 -4 -21 -16 -10 -11 -29 -22 -42 -24 -12 -3 -28 -12 -34
-20 -6 -8 -21 -15 -33 -15 -11 0 -21 -5 -21 -10 0 -6 -11 -8 -25 -4 -19 5 -25
2 -25 -10 0 -10 -9 -16 -25 -16 -14 0 -25 -5 -25 -10 0 -6 -11 -8 -25 -4 -19
5 -25 2 -25 -10 0 -15 -4 -18 -32 -20 -7 -1 -22 -9 -32 -18 -10 -10 -23 -15
-28 -12 -5 3 -20 -6 -33 -20 -13 -14 -31 -26 -40 -26 -9 0 -14 -4 -10 -9 3 -5
0 -13 -6 -17 -24 -14 -59 -115 -59 -167 0 -64 -1 -64 201 -143 192 -75 189
-74 265 -62 86 13 106 7 171 -54 72 -69 139 -178 176 -291 27 -82 30 -105 30
-212 0 -137 -12 -193 -87 -395 -113 -304 -197 -462 -263 -498 -19 -10 -83
-124 -83 -147 0 -2 -11 -28 -24 -57 -13 -29 -72 -165 -131 -303 -59 -137 -116
-270 -127 -295 -21 -48 -42 -96 -63 -145 -7 -16 -23 -52 -35 -80 -21 -47 -27
-62 -65 -150 -8 -19 -22 -51 -30 -70 -8 -19 -22 -51 -30 -70 -8 -19 -22 -51
-30 -70 -8 -19 -21 -50 -29 -67 -8 -18 -23 -53 -34 -78 -11 -25 -31 -72 -45
-105 -13 -33 -57 -134 -96 -225 -83 -191 -87 -222 -31 -230 21 -4 34 -11 32
-18 -2 -10 13 -12 63 -8 67 6 106 -1 86 -14 -7 -3 29 -6 79 -6 55 1 94 -3 98
-10 4 -6 32 -10 62 -10 30 1 64 -3 75 -8 11 -5 45 -10 75 -11 30 0 62 -5 70
-10 8 -6 40 -10 71 -10 42 0 62 -5 78 -19 17 -15 23 -16 36 -6 16 13 105 6
105 -9 0 -4 31 -7 69 -7 46 0 76 -5 93 -16 16 -11 30 -13 39 -7 18 11 77 1
107 -17 16 -10 28 -12 41 -5 23 13 91 2 98 -15 6 -17 39 -19 48 -3 8 12 61 3
93 -17 16 -11 27 -12 41 -4 24 12 80 3 104 -18 15 -13 22 -14 37 -4 23 14 78
6 102 -15 18 -16 78 -10 78 8 0 5 11 9 24 9 20 0 27 10 46 57 12 32 26 67 30
78 5 11 11 29 13 40 3 11 19 63 35 115 323 1018 548 1715 592 1835 10 28 37
104 60 170 23 66 58 149 78 185 41 76 142 184 227 245 65 47 296 170 255 136
-14 -11 -31 -21 -37 -21 -7 0 -13 -4 -13 -9 0 -5 -8 -11 -17 -15 -41 -13 -177
-105 -244 -164 -49 -44 -115 -126 -147 -183 -47 -85 -215 -583 -462 -1369 -29
-91 -60 -190 -70 -220 -10 -30 -32 -102 -50 -160 -17 -58 -35 -116 -40 -130
-5 -14 -28 -86 -50 -160 -90 -293 -112 -356 -130 -388 -11 -18 -20 -37 -20
-41 0 -5 32 -11 72 -15 65 -6 73 -5 92 16 12 12 20 26 19 30 -2 5 11 8 28 8
40 0 69 16 69 39 0 9 20 76 46 147 25 71 52 149 60 174 8 25 19 54 24 65 5 11
11 29 13 40 2 11 7 19 13 18 5 -1 9 13 9 30 0 19 5 31 11 30 7 -1 11 11 10 30
-1 22 3 31 12 29 10 -2 11 4 7 19 -4 12 -2 31 4 43 5 11 35 95 65 186 30 91
59 164 63 163 4 -1 8 13 8 30 0 21 4 31 13 29 9 -2 12 4 8 16 -8 24 3 54 16
46 6 -4 8 1 4 13 -8 25 3 55 16 47 6 -4 8 1 4 13 -8 24 2 55 15 47 5 -3 8 5 7
18 -1 22 119 388 131 398 3 3 8 16 10 30 1 14 6 27 10 30 3 3 8 16 9 30 2 14
8 27 13 28 5 2 9 17 9 33 0 18 4 28 10 24 6 -4 10 5 10 20 0 14 4 33 9 43 5 9
23 62 40 117 18 55 36 109 41 120 5 11 16 40 24 65 8 25 18 44 23 43 4 -1 8
13 8 30 0 21 4 31 13 29 10 -2 11 4 7 19 -8 24 25 96 60 132 33 34 79 73 89
74 5 1 13 9 18 18 6 10 16 14 29 10 13 -5 19 -2 17 7 -2 9 6 12 24 11 17 -1
27 3 25 10 -1 8 11 11 36 10 28 -2 37 1 37 13 0 13 8 15 38 10 23 -4 47 -1 63
7 19 10 72 15 195 15 93 1 188 4 211 8 23 3 219 7 434 8 276 1 393 4 396 12 2
6 15 9 30 6 17 -3 29 1 35 12 5 9 18 16 28 16 11 0 20 5 20 10 0 6 9 10 19 10
11 0 21 5 23 11 3 9 21 15 51 18 4 1 7 5 7 9 0 5 28 37 63 73 34 35 74 88 87
117 14 28 28 52 32 52 5 0 8 14 8 31 0 16 3 28 8 26 4 -3 8 15 9 40 1 25 6 49
12 53 6 3 11 24 11 46 -1 21 -1 61 -2 88 0 31 5 51 13 57 10 6 13 26 11 69 -1
34 1 59 5 57 5 -3 9 11 10 31 1 20 7 38 12 40 6 2 11 13 11 25 0 12 14 45 30
72 33 56 37 86 15 105 -11 9 -15 9 -15 1 0 -9 -46 -11 -180 -9 -204 3 -204 3
-142 -67 20 -23 45 -58 55 -76 l18 -34 -21 25 c-52 61 -145 150 -157 150 -7 0
-13 5 -13 10 0 13 -37 13 -45 0 -4 -6 -1 -9 7 -8 7 2 14 -6 16 -17 2 -12 15
-26 32 -32 18 -7 29 -19 32 -34 1 -13 10 -24 18 -24 8 0 27 -13 42 -30 35 -37
101 -162 93 -175 -3 -6 0 -16 7 -24 10 -10 14 -43 12 -127 -2 -149 -2 -151
-14 -144 -5 3 -7 0 -4 -9 9 -24 -48 -126 -105 -188 -29 -32 -56 -56 -60 -54
-4 3 -15 -6 -25 -19 -10 -13 -24 -21 -31 -19 -7 3 -15 -2 -19 -11 -3 -10 -13
-15 -20 -12 -8 3 -17 -1 -20 -9 -4 -10 -13 -13 -25 -9 -12 3 -21 0 -25 -10 -4
-12 -14 -14 -41 -9 -28 5 -35 3 -33 -7 3 -12 -52 -14 -322 -14 -272 0 -325 2
-322 14 2 10 -5 12 -32 8 -24 -4 -39 -1 -47 9 -7 8 -20 12 -30 9 -13 -5 -19
-1 -19 10 0 10 -6 15 -13 12 -7 -3 -23 6 -36 19 -13 13 -27 22 -31 19 -5 -3
-38 22 -73 55 -67 63 -77 63 -77 4 0 -29 -36 -104 -50 -104 -13 0 -13 1 5 43
21 50 19 120 -7 224 -27 109 -29 278 -5 366 39 140 136 266 216 282 12 2 29
11 37 20 9 9 24 13 32 10 8 -3 19 0 23 7 7 10 156 13 746 13 629 0 740 2 749
14 6 8 18 11 28 8 9 -4 16 -2 16 3 0 10 57 40 77 40 7 0 13 4 13 9 0 5 9 7 20
4 12 -3 22 1 26 11 6 15 83 16 854 16 l847 0 7 123 c4 67 6 186 5 263 -1 78 1
146 4 152 4 5 -2 17 -11 25 -17 15 -278 17 -3106 19 -2464 2 -3090 0 -3093 -9z
m1404 -73 c243 -33 449 -112 626 -243 104 -77 109 -93 69 -216 -17 -53 -64
-202 -106 -332 -81 -251 -89 -266 -158 -288 -46 -15 -93 -67 -109 -121 -15
-48 -1 -126 31 -170 23 -33 28 -72 12 -120 -42 -134 -159 -498 -179 -560 -14
-41 -33 -102 -43 -135 -10 -33 -93 -294 -185 -580 -92 -286 -178 -556 -192
-600 -37 -119 -102 -323 -123 -385 -10 -30 -50 -156 -90 -280 -96 -303 -91
-288 -128 -321 -46 -41 -42 -41 -469 26 -51 8 -137 22 -190 30 -54 9 -125 20
-158 25 -33 5 -91 14 -130 20 -38 6 -142 22 -230 35 -88 14 -178 28 -200 31
-62 10 -75 23 -75 72 0 78 -58 152 -120 152 -35 0 -60 19 -60 45 0 13 23 77
51 142 28 65 69 160 91 212 21 51 48 112 58 135 17 37 624 1452 867 2021 51
121 98 229 103 240 5 11 44 101 86 200 42 99 82 194 89 210 41 89 125 290 125
298 0 5 -16 6 -35 3 -29 -6 -39 -3 -60 18 -14 14 -25 32 -25 41 0 18 52 75 68
75 17 0 62 -41 62 -57 0 -41 30 8 90 145 36 83 76 162 88 175 26 27 50 34 187
52 117 16 263 18 362 5z m-1147 -15 c17 -9 36 -31 45 -51 13 -30 13 -40 1 -68
-16 -38 -64 -76 -95 -76 -40 0 -83 33 -102 79 -14 35 7 89 45 112 38 23 67 24
106 4z m3269 -13 c102 -51 85 -193 -27 -230 -43 -15 -97 9 -129 57 -42 62 -20
140 48 174 43 21 65 21 108 -1z m1770 -142 c272 0 491 -3 487 -7 -4 -5 -314
-10 -689 -13 l-682 -5 -56 -28 c-30 -15 -88 -54 -129 -86 -40 -32 -90 -64
-110 -70 -25 -7 -215 -11 -590 -11 -479 0 -559 -2 -608 -16 -185 -53 -370
-201 -447 -357 -51 -102 -57 -131 -64 -307 l-6 -155 -13 91 c-43 312 139 602
458 731 124 50 170 53 747 53 l536 0 76 58 c162 124 195 134 426 127 94 -2
392 -5 664 -5z m-5486 -79 c74 -28 79 -151 6 -181 -42 -18 -44 -38 -3 -55 63
-26 183 -116 247 -185 66 -71 105 -130 88 -130 -6 0 -11 7 -11 16 0 22 -164
184 -235 231 -33 22 -100 59 -150 83 -110 53 -108 52 -225 91 -99 33 -120 44
-120 63 0 8 2 8 8 0 7 -11 239 -94 263 -94 10 0 10 3 1 12 -7 7 -12 30 -12 53
0 77 69 124 143 96z m2162 -892 c69 -10 87 -9 128 5 56 19 60 19 109 6 48 -14
94 -53 118 -101 61 -118 -31 -259 -168 -259 -52 0 -131 41 -151 78 -6 11 -23
24 -38 30 -15 6 -60 22 -100 37 -99 36 -127 86 -92 161 15 31 74 67 99 59 8
-2 51 -9 95 -16z m-2409 -1724 c-9 -19 -22 -50 -30 -67 -7 -18 -21 -50 -30
-70 -9 -21 -23 -55 -32 -75 -9 -21 -24 -56 -34 -78 -10 -22 -25 -57 -34 -77
-9 -21 -23 -55 -32 -75 -9 -21 -24 -56 -34 -78 -10 -22 -25 -56 -33 -75 -8
-19 -25 -57 -37 -85 -12 -27 -29 -66 -37 -85 -8 -19 -24 -55 -35 -80 -11 -25
-24 -54 -29 -65 -5 -11 -36 -83 -70 -160 -36 -81 -62 -156 -62 -177 -1 -24 -5
-34 -11 -28 -25 25 -4 90 114 348 26 55 54 118 73 162 8 19 24 56 36 83 12 26
30 68 42 95 12 26 27 61 34 77 8 17 34 74 59 129 25 54 46 100 46 102 0 2 14
33 30 69 47 102 86 187 101 222 7 18 15 30 18 28 2 -2 -4 -20 -13 -40z m-281
-1150 c60 -29 72 -95 26 -144 -37 -39 -87 -42 -128 -7 -50 43 -32 130 32 157
28 11 33 11 70 -6z
M5505 5374 c-115 -12 -213 -26 -242 -35 -38 -12 -20 24 -253 -519
-100 -234 -190 -443 -200 -465 -10 -22 -36 -85 -60 -140 -23 -55 -48 -113 -55
-130 -8 -16 -123 -284 -255 -595 -133 -311 -253 -589 -266 -618 -13 -29 -24
-55 -24 -57 0 -2 -13 -34 -30 -70 -16 -36 -30 -68 -30 -70 0 -3 -9 -24 -19
-48 -11 -23 -88 -202 -172 -397 -83 -195 -159 -373 -169 -395 -10 -22 -37 -85
-60 -140 -23 -55 -51 -119 -61 -142 -27 -60 -25 -83 7 -83 70 0 147 -84 147
-161 0 -21 5 -43 11 -48 6 -5 133 -28 281 -51 149 -23 295 -45 325 -50 30 -5
89 -14 130 -20 41 -6 102 -16 135 -21 33 -5 89 -14 125 -19 36 -6 92 -14 125
-20 33 -5 103 -15 157 -21 135 -17 134 -18 193 168 26 82 60 186 75 233 15 47
51 159 80 250 29 91 60 190 70 220 10 30 34 105 53 165 19 61 72 225 117 365
44 140 108 341 142 445 33 105 73 228 88 275 15 47 47 146 70 220 23 74 58
182 77 240 19 58 50 154 69 214 l34 110 -32 65 c-68 141 -18 283 112 322 49
15 55 26 131 269 33 107 73 233 89 280 38 115 42 135 31 163 -22 56 -252 195
-411 247 -140 47 -400 78 -535 64z m222 -359 c92 -27 150 -124 123 -204 -18
-55 -70 -106 -124 -121 -39 -11 -51 -10 -91 6 -82 31 -132 119 -112 198 12 48
70 108 117 123 19 6 35 11 36 12 0 1 23 -6 51 -14z m-1244 -1648 c-11 -21 -33
-72 -58 -132 -7 -16 -22 -51 -34 -77 -11 -26 -21 -50 -21 -53 0 -3 -10 -27
-21 -53 -12 -26 -28 -62 -35 -79 -25 -58 -44 -102 -58 -135 -8 -18 -24 -58
-36 -88 -12 -30 -32 -78 -46 -108 -13 -29 -24 -55 -24 -57 0 -2 -11 -28 -24
-57 -13 -29 -70 -161 -126 -293 -56 -132 -111 -258 -121 -279 -10 -22 -19 -43
-19 -48 0 -4 -12 -33 -26 -65 -14 -32 -32 -71 -39 -88 -29 -68 -48 -112 -61
-139 -24 -50 -18 -72 36 -122 31 -29 55 -63 66 -92 10 -26 21 -51 26 -57 5 -5
73 -8 166 -7 211 4 445 -25 622 -77 l35 -11 -35 5 c-19 2 -62 9 -95 15 -165
30 -283 40 -481 40 -232 0 -233 0 -248 64 -11 47 -83 136 -109 136 -4 0 -12
11 -18 24 -9 19 -6 36 19 92 17 38 74 170 127 294 53 124 106 245 117 270 11
25 26 59 33 75 7 17 20 47 29 68 30 69 48 112 56 132 13 33 36 87 64 148 14
32 26 60 26 62 0 2 11 28 24 57 13 29 38 87 56 128 18 41 43 99 56 128 13 29
24 54 24 57 0 2 16 39 35 82 20 43 40 87 44 98 5 11 18 40 28 65 11 25 26 59
34 77 7 18 15 30 18 27 2 -2 0 -14 -6 -27z m1263 -333 c-29 -95 -118 -380
-155 -494 -21 -63 -53 -162 -71 -220 -18 -58 -36 -114 -40 -125 -4 -11 -40
-121 -80 -245 -93 -291 -129 -390 -129 -362 -1 12 3 30 8 40 5 9 19 51 31 92
13 41 31 100 40 130 10 30 41 129 70 220 29 91 70 221 92 290 69 218 231 715
235 723 13 22 12 -5 -1 -49z m-1247 -1245 c135 -76 111 -256 -41 -310 -92 -32
-208 62 -208 168 0 118 145 201 249 142z
M5631 4992 c-29 -9 -52 -42 -34 -49 24 -9 105 -81 145 -129 22 -27
45 -49 51 -49 18 0 37 46 37 88 0 49 -24 101 -56 122 -28 18 -107 28 -143 17z
M5552 4913 c-4 -10 -7 -42 -6 -71 0 -47 4 -57 36 -89 29 -29 45 -37
85 -40 56 -5 103 10 103 33 0 23 -166 184 -190 184 -12 0 -24 -8 -28 -17z
M4355 1774 c-16 -8 -37 -23 -45 -32 -15 -17 -40 -67 -40 -81 0 -4 65
-7 145 -7 l145 1 0 25 c0 30 -47 86 -84 100 -39 14 -86 12 -121 -6z
M4375 1634 c-108 -9 -121 -28 -61 -90 37 -38 82 -51 141 -40 44 9
105 67 105 101 0 21 -5 25 -32 25 -18 0 -49 2 -68 4 -19 2 -57 2 -85 0z
M4515 5355 c-63 -62 0 -163 83 -134 81 28 58 159 -28 159 -19 0 -40
-9 -55 -25z
M7774 5345 c-36 -24 -49 -70 -34 -115 30 -92 174 -85 195 10 8 35
-16 95 -43 109 -29 16 -94 14 -118 -4z
M4105 5133 c-46 -11 -71 -86 -41 -125 46 -61 145 -29 145 47 1 54
-48 90 -104 78z
M6209 4242 c-33 -10 -49 -36 -49 -77 0 -51 14 -62 121 -98 56 -19 85
-36 120 -70 75 -74 174 -79 235 -12 19 21 34 45 34 53 0 11 -10 4 -29 -18 -26
-32 -34 -35 -81 -35 -47 0 -55 3 -81 35 -91 109 60 238 157 134 30 -31 34 -33
34 -15 0 12 -15 37 -32 57 -45 48 -102 61 -174 38 -48 -15 -62 -15 -147 -2
-51 8 -100 12 -108 10z
M3559 1357 c-39 -29 -30 -98 15 -118 73 -34 137 59 80 115 -18 19
-72 20 -95 3z
M10615 5458 c-3 -13 -4 -133 -3 -268 l3 -245 798 -3 798 -2 25 25
c14 14 30 25 36 25 6 0 8 14 4 38 -3 20 -6 122 -6 226 0 105 -2 198 -6 208 -5
17 -43 18 -824 18 l-820 0 -5 -22z
M3630 5085 c0 -13 -6 -16 -25 -11 -14 4 -24 3 -23 -1 2 -5 -7 -18
-20 -31 -20 -20 -23 -31 -20 -85 2 -34 8 -63 13 -63 25 -4 55 -17 55 -25 0 -5
11 -9 24 -9 14 0 28 -4 31 -10 3 -5 18 -10 32 -10 19 0 24 -4 19 -16 -5 -13
-1 -14 24 -9 23 5 30 3 30 -8 0 -10 8 -13 25 -9 19 3 25 0 25 -13 0 -14 6 -16
26 -11 21 6 25 4 21 -9 -5 -12 -1 -14 18 -9 19 5 25 2 25 -11 0 -13 6 -16 24
-13 18 4 26 0 30 -15 4 -16 8 -18 19 -8 12 9 16 8 21 -4 3 -8 15 -15 26 -15
11 0 20 -6 20 -14 0 -9 7 -12 19 -9 11 3 28 -4 40 -16 12 -12 21 -18 21 -13 0
4 7 -1 15 -12 7 -10 18 -15 24 -12 5 3 18 -5 29 -19 11 -14 25 -25 31 -25 6 0
18 -12 28 -27 10 -16 23 -32 30 -36 7 -4 24 -30 38 -57 18 -36 23 -57 18 -81
-4 -21 -3 -30 4 -26 16 10 23 -18 23 -96 0 -83 -8 -120 -22 -110 -7 4 -8 -9
-4 -39 7 -45 0 -82 -14 -73 -4 2 -5 -6 -3 -19 6 -27 -32 -159 -50 -178 -7 -7
-13 -23 -14 -35 -2 -21 -138 -302 -151 -313 -4 -3 -18 -26 -32 -52 -13 -27
-27 -48 -30 -48 -4 0 -12 -16 -20 -35 -8 -19 -17 -35 -22 -35 -18 0 -7 -18 15
-24 28 -7 69 3 61 15 -4 8 25 14 48 10 9 -1 33 18 79 64 74 71 262 537 290
715 33 214 -36 438 -181 586 l-54 56 -76 -7 c-41 -4 -86 -7 -99 -6 -44 2 -374
141 -404 169 -27 25 -28 31 -23 87 12 127 13 120 -11 123 -16 2 -23 -2 -23
-13z m739 -602 c71 -147 79 -271 30 -473 -13 -52 -45 -153 -61 -190 -6 -14
-14 -34 -18 -45 -16 -44 -134 -280 -166 -333 -19 -31 -34 -65 -34 -74 0 -10
-4 -18 -8 -18 -21 0 -19 15 5 53 52 83 194 388 227 489 85 260 84 493 -3 628
-9 13 -11 21 -5 18 5 -4 21 -29 33 -55z
M7250 4760 c0 -5 -22 -10 -50 -10 -27 0 -50 -4 -50 -10 0 -5 -6 -10
-13 -10 -54 0 -174 -119 -205 -202 -35 -94 -47 -221 -33 -338 12 -93 16 -105
51 -148 43 -54 156 -162 170 -162 5 0 13 -7 18 -17 6 -9 16 -14 25 -10 8 3 18
0 21 -8 4 -11 40 -14 176 -14 189 -1 223 3 218 28 -3 13 -14 15 -58 13 -30 -1
-86 4 -125 12 l-70 14 78 1 c91 1 94 7 44 79 -44 64 -79 135 -80 165 -1 14 -5
23 -8 21 -10 -6 -19 50 -12 75 3 12 1 21 -6 21 -7 0 -11 29 -11 85 0 50 4 85
10 85 6 0 10 23 10 50 0 28 4 50 8 50 4 0 9 12 10 28 1 15 7 29 12 30 6 2 10
10 10 18 0 15 35 81 56 105 8 8 14 25 14 37 0 17 -6 22 -25 22 -14 0 -25 -4
-25 -10 0 -5 -6 -10 -13 -10 -19 0 -65 -79 -92 -156 -22 -62 -44 -184 -46
-249 l-1 -50 -10 55 c-9 55 0 141 24 220 15 50 56 138 68 145 5 3 9 17 8 30
-2 23 -7 25 -50 25 -26 0 -48 -4 -48 -10z
M2443 4312 c-6 -4 -19 -30 -28 -57 -9 -28 -21 -60 -27 -73 -16 -32
-5 -40 109 -78 129 -44 153 -45 115 -4 -19 21 -121 60 -154 60 -13 0 -17 4
-11 13 14 21 33 81 33 103 0 26 -21 46 -37 36z
M4084 3242 c-12 -26 -32 -73 -45 -104 -12 -32 -26 -58 -31 -58 -4 0
-8 -7 -8 -16 0 -9 -13 -44 -28 -78 -36 -77 -49 -105 -108 -245 -26 -62 -54
-115 -61 -118 -7 -3 -10 -9 -7 -15 3 -5 -4 -29 -15 -53 -12 -25 -21 -47 -21
-50 0 -2 -11 -28 -24 -57 -13 -29 -36 -82 -51 -118 -16 -36 -34 -70 -42 -76
-7 -6 -10 -13 -8 -16 6 -6 -124 -310 -135 -318 -4 -3 -10 -17 -14 -33 -3 -15
-22 -60 -40 -100 -18 -39 -44 -98 -57 -129 -12 -32 -26 -58 -31 -58 -4 0 -8
-9 -8 -20 0 -11 -4 -28 -10 -38 -5 -9 -21 -43 -35 -75 -13 -32 -28 -56 -33
-53 -5 3 -7 -5 -5 -18 3 -13 0 -27 -6 -30 -6 -4 -11 -16 -11 -28 0 -14 -5 -18
-15 -14 -12 4 -14 0 -9 -22 4 -15 10 -34 15 -43 5 -9 5 -20 1 -24 -4 -4 3 -3
15 4 12 6 20 17 17 24 -2 8 34 103 82 213 47 109 108 251 136 314 27 63 70
162 95 220 25 58 53 123 63 145 10 22 32 74 50 115 18 41 40 93 50 115 10 22
47 108 83 190 35 83 88 204 117 270 28 66 63 147 77 180 14 33 31 74 38 90 7
17 21 50 31 75 9 25 21 49 26 55 12 14 10 45 -4 45 -7 -1 -23 -22 -34 -48z
M9516 3030 c-22 -24 -36 -30 -67 -30 -41 0 -67 -17 -88 -57 -7 -15
-21 -23 -36 -23 -14 0 -25 -4 -25 -10 0 -5 -7 -10 -16 -10 -9 0 -12 5 -8 12 5
7 2 9 -7 6 -8 -3 -26 0 -40 8 -55 31 -119 11 -119 -37 0 -26 3 -29 20 -24 25
8 62 -3 55 -16 -4 -5 5 -9 18 -9 14 0 27 -7 31 -15 3 -8 11 -15 19 -15 7 0 21
-16 30 -35 19 -41 9 -84 -22 -92 -11 -3 -22 -11 -25 -18 -3 -8 -13 -11 -25 -8
-12 3 -21 1 -21 -6 0 -6 -9 -11 -20 -11 -11 0 -20 -4 -20 -10 0 -5 -7 -10 -15
-10 -9 0 -18 -7 -21 -15 -4 -9 -13 -13 -23 -10 -10 3 -23 -6 -36 -24 -10 -16
-23 -27 -27 -25 -14 9 -9 -5 9 -26 10 -11 23 -20 29 -20 7 0 15 -7 18 -16 4
-10 14 -14 26 -11 11 3 20 1 20 -4 0 -5 6 -9 13 -9 19 0 77 -30 77 -40 0 -4 9
-10 20 -13 11 -3 23 -13 26 -24 3 -10 11 -28 16 -40 7 -15 8 -27 1 -35 -5 -7
-10 -28 -11 -46 -2 -29 -16 -61 -71 -169 -9 -18 -22 -33 -28 -33 -7 0 -13 -4
-13 -10 0 -5 7 -10 15 -10 19 0 19 -18 0 -64 -10 -23 -20 -34 -27 -30 -7 5 -8
3 -3 -5 4 -7 3 -23 -3 -34 -5 -12 -17 -38 -25 -57 -8 -19 -24 -56 -36 -82 -12
-27 -30 -69 -42 -95 -27 -62 -43 -98 -65 -150 -10 -24 -24 -43 -31 -43 -7 0
-13 -6 -13 -14 0 -22 11 -46 22 -46 5 0 6 5 3 10 -4 6 5 5 19 -2 25 -11 37
-48 16 -48 -5 0 -10 -9 -10 -21 0 -16 5 -20 27 -17 21 2 29 10 35 36 9 32 28
45 28 17 0 -8 8 -15 18 -15 10 0 23 -5 30 -12 7 -7 36 -12 72 -11 35 1 71 -4
87 -12 17 -9 42 -12 67 -9 27 4 51 0 71 -10 21 -11 44 -14 81 -10 33 4 54 2
58 -5 10 -15 56 -14 56 2 0 8 4 7 11 -3 8 -12 9 -9 5 12 -5 21 -1 30 14 38 11
6 23 22 26 35 3 14 10 23 14 20 4 -2 8 7 8 22 0 15 5 29 11 31 6 2 11 17 11
33 0 16 5 29 10 29 6 0 10 16 10 35 0 19 5 35 10 35 6 0 10 8 10 18 0 9 21 76
46 147 25 72 57 166 72 210 30 93 56 135 83 135 10 0 19 5 19 10 0 6 17 9 38
8 91 -5 363 3 358 11 -3 5 16 14 42 22 51 14 65 26 88 77 8 17 19 32 25 32 7
0 8 19 4 54 -6 45 -3 64 16 105 15 34 29 51 41 51 10 0 18 5 18 10 0 6 95 10
265 10 170 0 265 4 265 10 0 6 88 10 243 10 l243 0 24 28 c20 23 25 39 25 83
0 30 -4 57 -8 60 -11 8 3 39 18 39 10 0 12 19 9 76 -4 86 -10 114 -26 114 -6
0 -17 8 -24 17 -9 14 -10 21 -1 32 9 11 9 13 0 8 -6 -4 -17 -1 -25 6 -34 34
-118 51 -133 27 -4 -6 -172 -10 -471 -10 -255 0 -464 -4 -464 -8 0 -4 -13 -15
-29 -25 -42 -25 -274 -25 -328 1 -21 9 -40 20 -43 24 -3 4 -128 8 -278 8
l-271 1 -23 29 -23 30 -29 -30z m831 -563 c3 -4 17 -7 30 -7 13 0 23 -4 23 -8
0 -5 11 -22 25 -38 26 -31 28 -38 25 -94 -2 -39 -34 -90 -56 -90 -8 0 -14 -5
-14 -11 0 -7 -11 -8 -30 -4 -16 4 -30 3 -30 -2 0 -18 -83 1 -94 22 -6 11 -14
22 -17 25 -13 10 -39 70 -39 88 0 30 30 96 49 107 31 19 113 27 128 12z
M8523 2881 c-9 -11 -20 -18 -24 -16 -4 3 -6 -10 -5 -28 0 -19 -4 -31
-10 -30 -7 1 -11 -11 -10 -30 0 -20 -3 -31 -11 -30 -9 2 -11 -6 -7 -27 5 -21
2 -31 -8 -35 -10 -4 -13 -15 -10 -30 3 -17 -1 -27 -12 -31 -11 -4 -14 -13 -10
-30 4 -16 1 -26 -9 -30 -9 -3 -13 -13 -9 -26 3 -13 -1 -26 -12 -34 -10 -7 -15
-18 -11 -23 9 -16 -5 -52 -17 -45 -7 4 -8 2 -4 -5 10 -16 -2 -63 -14 -56 -6 3
-9 -2 -8 -12 3 -36 -2 -54 -13 -47 -7 4 -9 0 -5 -13 8 -24 -2 -55 -15 -47 -5
3 -8 -3 -7 -13 3 -35 -2 -54 -12 -48 -5 3 -9 -2 -8 -12 3 -34 -2 -54 -11 -48
-5 3 -9 -9 -9 -27 1 -17 -4 -34 -10 -36 -7 -2 -12 -17 -12 -33 0 -16 -4 -29
-10 -29 -5 0 -10 -13 -10 -30 0 -16 -4 -30 -10 -30 -5 0 -10 -13 -10 -30 0
-16 -4 -30 -10 -30 -5 0 -10 -13 -10 -30 0 -16 -4 -30 -10 -30 -5 0 -10 -13
-10 -30 0 -16 -4 -30 -10 -30 -5 0 -10 -13 -10 -30 0 -16 -4 -30 -10 -30 -5 0
-10 -13 -10 -30 0 -16 -4 -30 -10 -30 -5 0 -10 -13 -10 -29 0 -17 -4 -33 -10
-36 -5 -3 -10 -16 -10 -29 0 -12 -4 -26 -9 -31 -5 -6 -11 -21 -13 -35 -2 -14
-8 -24 -14 -23 -5 1 -11 -8 -11 -20 -1 -12 -11 -30 -23 -39 -20 -16 -20 -16
12 -23 18 -4 36 -13 40 -19 5 -7 32 -10 72 -8 36 1 67 -2 71 -8 3 -5 35 -10
69 -10 37 0 76 -6 92 -15 20 -10 43 -13 72 -9 27 4 47 2 57 -6 22 -18 60 -8
63 16 2 16 -4 23 -22 28 l-25 6 16 53 c8 28 19 54 24 55 5 2 9 17 9 33 0 16 5
29 10 29 6 0 10 9 10 20 0 28 23 100 32 100 5 0 8 14 8 30 0 17 5 30 10 30 6
0 10 11 10 25 0 14 4 33 9 43 24 46 160 483 155 497 -4 9 2 25 11 35 26 29
155 420 148 448 -3 13 -11 21 -18 18 -7 -2 -17 0 -23 6 -8 8 -15 8 -26 -1 -10
-8 -21 -9 -33 -3 -10 5 -22 8 -28 6 -5 -2 -23 23 -38 54 l-28 58 -110 2 c-97
2 -111 0 -126 -17z
M3413 1150 c-3 -11 -8 -20 -12 -20 -4 0 -8 -23 -8 -52 0 -29 -6 -54
-12 -56 -15 -5 -14 -55 1 -70 15 -15 54 -16 63 -2 4 6 11 8 16 4 6 -3 7 10 3
34 -4 29 -2 43 11 55 9 9 14 25 11 34 -3 10 -6 35 -8 56 -2 34 -5 37 -31 37
-20 0 -30 -6 -34 -20z
M11 1122 c-15 -5 -14 -52 2 -52 8 0 7 -4 -3 -11 -11 -8 -1 -9 40 -6
66 6 112 -1 103 -16 -4 -7 14 -8 54 -3 50 5 64 4 78 -10 13 -13 27 -15 68 -11
56 7 100 0 92 -14 -3 -4 26 -7 65 -6 52 1 73 -2 79 -12 7 -10 20 -12 49 -7 44
6 104 -2 97 -14 -7 -11 67 -21 79 -11 14 11 66 2 66 -11 0 -5 21 -9 48 -8 78
4 104 1 96 -11 -4 -8 10 -10 47 -8 83 4 111 0 103 -12 -4 -8 9 -10 42 -8 73 4
106 0 99 -11 -4 -6 21 -9 66 -8 47 1 74 -3 79 -11 4 -8 24 -12 46 -11 66 4
105 0 99 -9 -3 -6 23 -9 67 -9 47 1 73 -2 76 -10 5 -16 32 -15 32 1 0 8 4 7
10 -3 7 -11 10 -6 10 22 0 35 -2 37 -41 43 -29 5 -37 10 -28 16 8 5 -17 8 -64
6 -57 -1 -80 2 -86 12 -5 8 -16 11 -24 8 -8 -3 -19 -1 -25 5 -8 8 -15 8 -26
-2 -20 -16 -70 -5 -63 14 4 10 -4 11 -36 5 -43 -8 -121 1 -737 91 -151 22
-299 42 -329 44 -29 2 -56 8 -60 14 -4 7 -35 11 -75 10 -42 -1 -71 3 -75 11
-7 10 -91 13 -120 3z
M3640 1109 c-5 -8 -5 -21 0 -29 5 -8 6 -18 3 -24 -4 -5 12 -7 40 -3
55 8 109 -1 100 -16 -4 -7 11 -8 45 -3 56 7 105 -1 96 -15 -3 -6 23 -9 66 -7
46 2 73 -1 78 -9 4 -7 32 -11 75 -10 44 1 70 -2 75 -10 5 -8 29 -12 70 -10 41
1 65 -2 70 -10 5 -8 31 -12 76 -11 46 2 70 -2 75 -11 5 -8 24 -12 52 -10 67 4
101 0 94 -11 -3 -6 22 -8 65 -7 50 1 73 -2 79 -11 5 -9 23 -13 47 -11 63 4
106 0 99 -10 -3 -6 23 -9 66 -9 47 1 73 -3 78 -11 5 -8 24 -12 47 -10 64 4
106 0 99 -11 -4 -6 21 -9 67 -8 46 1 73 -3 76 -10 5 -17 32 -15 32 2 0 8 3 21
6 30 4 11 -3 20 -26 30 -23 9 -28 15 -19 20 8 3 -16 4 -52 2 -73 -5 -112 1
-102 17 4 7 -12 8 -50 4 -63 -6 -100 0 -90 16 4 7 -14 8 -55 4 -66 -7 -96 -1
-85 16 4 7 -13 8 -53 4 -66 -7 -107 0 -97 16 4 7 -11 8 -46 4 -63 -8 -119 1
-99 15 8 6 -8 8 -47 4 -68 -6 -108 1 -98 17 4 7 -11 8 -46 4 -60 -7 -114 1
-105 15 4 6 -14 9 -47 7 -79 -3 -111 0 -104 11 4 6 -19 9 -60 8 -46 -2 -69 2
-74 11 -5 8 -25 12 -52 11 -74 -4 -101 -1 -93 11 4 8 -10 10 -47 8 -80 -3
-111 0 -104 11 4 7 -16 9 -55 8 -44 -2 -64 -8 -70 -19z"/>
</g>
</svg>
