<svg version="1.0" xmlns="http://www.w3.org/2000/svg"
 width="200" height="150" viewBox="0 0 1250 800"
 preserveAspectRatio="xMidYMid meet">

<g transform="translate(0.000000,797.000000) scale(0.100000,-0.100000)"
fill="#3c6186" stroke="none">
<path d="M6182 7918 c-6 -6 -12 -9 -12 -6 0 9 -69 -20 -101 -42 -14 -10 -37
-22 -52 -25 -15 -4 -32 -15 -37 -24 -5 -9 -10 -12 -10 -8 0 5 -12 2 -27 -7
-16 -8 -43 -20 -60 -26 -18 -7 -33 -16 -33 -20 0 -5 -22 -16 -50 -25 -27 -9
-50 -21 -50 -26 0 -6 -4 -8 -9 -5 -5 3 -20 -3 -33 -14 -14 -11 -28 -16 -32
-13 -3 3 -6 1 -6 -6 0 -8 -7 -11 -15 -7 -8 3 -15 1 -15 -5 0 -6 -4 -7 -10 -4
-5 3 -10 1 -10 -4 0 -6 -3 -10 -7 -9 -5 0 -26 -7 -48 -17 -22 -10 -43 -18 -47
-17 -5 1 -8 -2 -8 -8 0 -5 -7 -6 -17 -3 -11 4 -14 3 -9 -5 4 -7 3 -12 -3 -12
-5 0 -22 -5 -38 -12 -15 -6 -31 -11 -35 -10 -5 1 -8 -2 -8 -8 0 -5 -7 -7 -15
-4 -8 4 -15 1 -15 -6 0 -7 -7 -10 -15 -6 -8 3 -15 1 -15 -4 0 -6 -9 -10 -19
-10 -11 0 -26 -6 -33 -12 -7 -7 -24 -14 -38 -16 -14 -1 -26 -7 -28 -12 -2 -5
-10 -6 -19 -3 -10 4 -14 2 -10 -4 4 -6 -19 -18 -53 -28 -33 -10 -60 -21 -60
-25 0 -3 -22 -13 -50 -20 -27 -7 -50 -17 -50 -21 0 -5 -7 -6 -15 -3 -8 4 -15
1 -15 -6 0 -7 -7 -10 -15 -6 -8 3 -15 0 -15 -7 0 -8 -4 -6 -10 3 -7 10 -10 11
-10 2 0 -6 -20 -17 -45 -24 -25 -7 -45 -15 -45 -19 0 -4 -9 -5 -20 -2 -11 3
-20 0 -20 -6 0 -5 -7 -8 -15 -5 -9 4 -15 0 -15 -7 0 -11 -3 -11 -10 1 -6 10
-10 11 -10 3 0 -7 -4 -13 -9 -13 -5 0 -22 -5 -38 -12 -15 -6 -34 -10 -40 -9
-7 1 -13 -3 -13 -9 0 -7 -8 -9 -20 -5 -11 3 -20 2 -20 -3 0 -6 -10 -8 -22 -4
-13 3 -19 1 -15 -5 4 -7 -18 -15 -58 -23 -36 -7 -67 -16 -70 -20 -3 -5 -14 -6
-25 -3 -11 3 -20 0 -20 -6 0 -7 -9 -9 -25 -5 -15 4 -25 2 -25 -4 0 -6 -20 -14
-45 -18 -25 -3 -47 -10 -50 -14 -2 -4 -16 -5 -30 -2 -16 3 -25 0 -25 -8 0 -8
-9 -10 -25 -6 -14 4 -25 2 -25 -3 0 -5 -8 -10 -17 -10 -23 0 -134 -21 -153
-28 -8 -3 -23 -5 -33 -4 -10 1 -24 -3 -32 -9 -8 -7 -24 -9 -36 -5 -12 4 -24 3
-28 -2 -6 -10 -137 -34 -183 -33 -15 0 -30 -4 -33 -10 -3 -6 -17 -7 -31 -4
-13 3 -31 1 -38 -5 -8 -7 -25 -9 -40 -5 -15 3 -26 2 -26 -3 0 -10 -139 -33
-193 -33 -16 0 -34 -3 -40 -7 -6 -4 -26 -6 -44 -4 -19 1 -33 -2 -33 -8 0 -7
-14 -9 -40 -5 -24 4 -40 3 -40 -3 0 -6 -26 -13 -57 -17 -32 -4 -75 -11 -96
-17 l-37 -10 2 -334 c1 -184 5 -335 8 -335 3 0 11 -132 18 -292 6 -161 14
-336 18 -388 9 -152 14 -279 14 -364 0 -44 3 -82 8 -85 5 -3 14 -80 21 -171 7
-91 14 -187 17 -215 2 -27 5 -67 5 -87 1 -21 6 -38 11 -38 6 0 8 -12 5 -30 -4
-16 -3 -30 2 -30 8 0 31 -114 33 -157 0 -13 4 -23 10 -23 5 0 7 -13 3 -30 -4
-20 -3 -30 5 -30 8 0 10 -9 6 -25 -4 -14 -2 -25 3 -25 4 0 12 -24 15 -52 4
-29 12 -58 18 -65 6 -7 8 -19 5 -28 -4 -8 -1 -17 4 -21 6 -3 9 -15 6 -25 -3
-11 -1 -19 5 -19 6 0 8 -11 6 -25 -3 -14 -2 -25 2 -25 4 0 10 -14 13 -30 9
-43 12 -54 20 -67 4 -6 4 -18 1 -27 -4 -9 -1 -16 6 -16 7 0 10 -8 7 -20 -3
-11 -2 -20 2 -20 4 0 13 -29 20 -65 7 -36 17 -68 22 -71 5 -3 7 -10 3 -15 -3
-5 0 -16 6 -24 7 -8 10 -22 6 -30 -3 -9 -2 -14 3 -11 4 3 14 -20 21 -52 7 -31
16 -61 20 -67 5 -5 18 -46 31 -90 13 -44 27 -83 32 -86 5 -4 6 -12 3 -18 -4
-6 -3 -11 2 -11 5 0 15 -21 22 -48 7 -26 17 -51 21 -57 5 -5 9 -19 9 -32 0
-13 4 -23 8 -23 4 0 16 -26 27 -57 11 -32 22 -60 26 -63 3 -3 17 -36 30 -75
13 -38 30 -76 36 -83 7 -7 13 -18 13 -25 0 -14 156 -323 170 -337 3 -3 14 -23
25 -45 11 -22 23 -42 26 -45 3 -3 18 -27 34 -55 15 -27 36 -62 46 -77 11 -14
19 -31 19 -37 0 -6 4 -11 9 -11 5 0 14 -14 21 -31 7 -17 18 -36 24 -42 6 -7
20 -28 31 -48 11 -20 42 -69 70 -110 27 -41 53 -82 57 -92 4 -9 12 -17 18 -17
5 0 10 -7 10 -15 0 -8 5 -15 10 -15 6 0 10 -7 10 -15 0 -7 6 -18 13 -22 14
-10 51 -61 60 -85 3 -10 11 -18 17 -18 5 0 10 -6 10 -12 0 -7 12 -27 28 -43
36 -40 72 -92 72 -103 0 -6 11 -17 25 -26 14 -9 25 -23 25 -31 0 -8 11 -22 24
-30 13 -9 29 -29 36 -45 6 -15 20 -30 31 -33 10 -3 24 -17 31 -32 11 -24 113
-135 125 -135 11 0 98 -105 95 -114 -2 -6 0 -8 3 -4 9 8 180 -148 180 -164 0
-5 17 -20 37 -32 21 -12 51 -39 68 -61 16 -21 30 -32 30 -24 1 8 13 -1 29 -19
15 -17 32 -32 38 -32 5 0 26 -18 46 -40 20 -23 37 -40 39 -38 7 5 35 -19 50
-44 10 -14 28 -28 40 -30 13 -2 27 -13 33 -25 5 -13 22 -27 37 -32 16 -6 28
-17 28 -25 0 -7 13 -19 29 -24 16 -6 37 -22 46 -36 10 -14 23 -26 30 -26 8 0
22 -10 32 -23 10 -13 20 -24 23 -24 13 -1 67 -39 69 -48 1 -5 9 -9 17 -9 8 1
14 -2 14 -7 0 -5 12 -15 28 -22 15 -6 32 -18 37 -25 6 -7 20 -14 33 -15 12 0
22 -5 22 -9 0 -4 6 -8 14 -8 8 0 17 -7 20 -16 3 -8 10 -12 16 -9 5 3 10 1 10
-4 0 -6 6 -11 14 -11 7 0 25 -11 39 -24 14 -13 29 -21 32 -18 4 4 11 -1 16
-11 6 -9 14 -15 18 -12 5 2 21 -7 35 -20 15 -14 32 -25 37 -25 6 0 20 -5 32
-12 12 -7 28 -13 34 -14 7 -1 20 -10 29 -19 9 -9 23 -14 30 -11 8 3 14 1 14
-5 0 -6 5 -7 11 -4 5 4 18 1 27 -7 9 -8 22 -13 27 -12 29 5 55 17 55 25 0 5 7
6 15 3 8 -4 15 -1 15 6 0 7 7 10 15 6 8 -3 15 -1 15 4 0 5 24 17 54 25 30 9
57 23 60 31 3 8 10 13 16 9 5 -3 18 3 29 14 11 11 22 16 26 13 4 -4 12 0 18 8
18 24 73 60 80 53 4 -3 9 2 13 11 3 9 10 14 14 11 4 -3 10 2 14 10 3 8 12 15
21 15 8 0 15 5 15 11 0 5 5 7 10 4 6 -3 10 -2 10 4 0 5 16 15 35 22 19 7 35
17 35 21 0 4 7 8 15 8 8 0 15 5 15 11 0 6 6 9 13 6 7 -3 19 4 26 15 7 11 15
17 18 14 3 -3 14 6 25 19 11 14 24 23 28 20 5 -3 16 5 25 19 9 14 22 23 28 20
7 -2 20 9 30 26 10 16 25 30 33 30 9 0 27 14 41 30 13 17 28 28 32 25 4 -2 18
9 30 26 12 16 26 27 30 25 5 -3 25 15 46 39 20 25 41 43 45 40 5 -3 23 13 41
35 18 22 38 40 44 40 7 0 30 18 51 40 22 22 44 40 49 40 6 0 23 16 38 35 15
19 31 34 35 32 10 -3 310 299 352 356 19 25 54 60 77 77 24 17 42 34 41 38 -3
11 26 52 37 52 6 0 16 13 22 30 6 16 18 30 27 30 9 0 16 8 16 20 0 11 7 23 15
26 8 4 15 12 15 20 0 8 9 19 20 26 11 7 20 18 20 24 0 6 9 19 20 29 11 10 20
24 20 30 0 7 7 15 15 19 8 3 15 12 15 21 0 8 7 15 15 15 8 0 15 9 15 20 0 11
7 23 15 26 8 4 15 11 15 16 0 6 13 27 28 47 16 20 32 44 35 54 4 9 11 17 17
17 5 0 10 7 10 15 0 9 7 18 15 21 8 4 15 12 15 20 0 8 3 14 8 14 4 0 16 18 26
40 11 22 23 40 28 40 4 0 8 6 8 13 0 8 9 22 19 31 11 10 22 28 25 42 4 13 11
24 16 24 6 0 10 9 10 19 0 11 4 21 9 23 9 3 37 48 67 106 9 17 20 32 25 32 5
0 9 6 9 13 0 12 41 91 70 137 6 8 27 45 49 82 21 37 41 64 45 61 4 -4 4 0 1 8
-3 8 8 43 25 77 16 33 30 66 30 71 0 6 4 11 8 11 4 0 16 25 26 55 11 31 23 52
29 48 6 -4 8 0 4 9 -3 9 5 37 18 64 14 27 25 55 25 62 0 6 3 12 8 12 4 0 8 12
9 26 0 15 5 29 10 33 5 3 15 25 23 49 7 23 17 42 23 42 5 0 7 6 4 13 -3 8 1
27 8 43 8 16 30 79 50 139 21 61 40 112 44 115 3 3 7 21 9 40 1 19 6 37 11 40
4 3 8 12 9 20 2 29 28 110 34 105 3 -3 3 6 1 20 -3 14 -1 25 5 25 6 0 8 9 5
20 -3 11 -1 20 4 20 5 0 15 31 22 70 7 38 17 70 23 70 6 0 8 11 4 25 -4 16 -2
25 5 25 7 0 9 9 5 24 -3 14 -2 27 3 31 5 3 10 13 10 23 1 36 25 132 33 132 5
0 6 9 3 20 -4 12 -1 27 5 35 6 8 9 19 5 25 -4 6 -2 16 3 23 6 7 13 38 17 69 4
32 11 55 17 52 6 -4 7 8 3 30 -5 24 -3 36 4 36 7 0 9 9 5 25 -3 14 -1 31 5 38
6 8 10 27 10 43 0 16 3 43 6 59 3 17 8 63 11 103 4 39 11 72 16 72 6 0 7 23 3
55 -5 35 -3 60 4 68 6 8 11 45 11 83 0 38 2 105 4 149 3 44 10 189 17 323 7
133 17 242 22 242 5 0 6 47 2 115 -5 83 -4 119 4 129 8 9 12 54 11 128 -1 152
5 397 15 600 7 145 6 169 -8 182 -9 9 -22 13 -30 10 -8 -3 -18 -1 -21 5 -3 5
-35 13 -71 16 -36 4 -65 12 -65 17 0 5 -13 7 -30 3 -20 -4 -30 -3 -30 5 0 8
-10 9 -29 5 -17 -3 -32 -2 -36 5 -3 5 -18 10 -33 10 -55 0 -202 24 -202 32 0
6 -17 7 -40 3 -26 -4 -40 -3 -40 4 0 6 -15 11 -32 11 -56 -1 -250 35 -241 44
4 5 -8 6 -29 3 -24 -4 -38 -2 -38 5 0 6 -11 8 -29 5 -15 -3 -32 -2 -37 2 -5 4
-48 14 -96 21 -49 7 -88 18 -88 23 0 5 -9 7 -20 4 -11 -3 -23 -1 -26 5 -3 5
-15 8 -25 5 -10 -3 -22 -1 -25 5 -3 5 -15 8 -25 5 -10 -3 -22 -1 -25 4 -3 5
-16 9 -30 9 -13 0 -24 5 -24 11 0 6 -9 8 -20 4 -12 -4 -20 -2 -20 5 0 8 -9 10
-25 6 -16 -4 -25 -2 -25 5 0 6 -7 9 -15 6 -8 -4 -17 -2 -20 2 -2 5 -25 12 -50
15 -25 4 -45 12 -45 17 0 6 -9 7 -20 4 -12 -4 -20 -2 -20 5 0 7 -8 9 -19 5
-11 -3 -22 -2 -25 4 -3 5 -28 14 -56 21 -27 7 -50 17 -50 22 0 6 -9 8 -20 5
-11 -3 -20 -1 -20 5 0 6 -7 8 -15 5 -8 -4 -17 -2 -20 2 -3 5 -27 14 -55 21
-27 7 -50 16 -50 21 0 4 -7 6 -15 3 -8 -4 -15 -1 -15 6 0 7 -7 10 -15 7 -8 -4
-17 -2 -20 2 -2 5 -25 14 -50 20 -25 6 -45 16 -45 22 0 6 -9 8 -20 4 -11 -3
-20 -2 -20 3 0 5 -20 15 -45 22 -25 7 -45 16 -45 21 0 5 -7 6 -15 3 -8 -4 -15
-1 -15 6 0 6 -4 8 -10 5 -5 -3 -10 -1 -10 4 0 6 -20 16 -45 22 -25 6 -45 16
-45 21 0 6 -7 8 -15 4 -8 -3 -15 -1 -15 4 0 5 -7 7 -15 4 -8 -4 -15 -2 -15 3
0 6 -18 15 -40 22 -22 6 -40 16 -40 21 0 5 -7 7 -15 4 -8 -4 -15 -2 -15 3 0 5
-22 17 -50 27 -27 10 -50 22 -50 27 0 4 -7 6 -15 3 -8 -4 -15 -2 -15 3 0 5
-25 17 -55 28 -30 10 -55 22 -55 27 0 5 -4 6 -10 3 -5 -3 -10 -1 -10 4 0 6 -3
10 -7 10 -16 -3 -73 23 -73 33 0 6 -7 8 -15 4 -8 -3 -15 -1 -15 5 0 6 -4 7
-10 4 -5 -3 -10 -2 -10 3 0 5 -18 15 -40 22 -22 7 -37 17 -33 23 4 6 0 8 -10
4 -10 -3 -17 -2 -17 4 0 6 -4 7 -10 4 -5 -3 -10 -2 -10 3 0 5 -18 15 -40 22
-22 7 -37 17 -33 23 4 6 0 8 -10 4 -10 -3 -17 -2 -17 4 0 6 -4 7 -10 4 -5 -3
-10 -1 -10 4 0 6 -7 11 -15 11 -8 0 -15 4 -15 8 0 14 -84 14 -98 0z m103 -328
c-3 -5 2 -10 12 -10 11 0 28 -7 39 -15 10 -8 27 -15 36 -15 9 0 21 -6 25 -13
4 -7 28 -19 53 -27 25 -8 52 -22 60 -30 8 -8 35 -22 59 -30 24 -8 49 -20 56
-27 7 -6 15 -9 18 -6 3 3 13 -2 22 -11 9 -9 36 -21 61 -27 26 -7 41 -16 37
-22 -4 -6 0 -8 10 -4 10 3 17 2 17 -3 0 -6 3 -9 8 -8 4 0 24 -6 44 -15 21 -10
42 -17 48 -17 5 0 10 -5 10 -11 0 -5 5 -7 10 -4 6 3 10 1 10 -5 0 -7 7 -10 15
-6 8 3 15 2 15 -3 0 -8 24 -19 65 -27 10 -3 22 -9 26 -16 4 -6 12 -7 18 -4 6
4 11 2 11 -5 0 -7 3 -9 7 -6 3 4 15 -1 26 -10 10 -10 22 -17 26 -16 11 4 51
-9 51 -17 0 -4 27 -15 60 -25 33 -10 60 -22 60 -28 0 -5 7 -7 15 -3 8 3 15 1
15 -5 0 -6 7 -9 15 -5 8 3 15 1 15 -5 0 -5 6 -9 13 -8 6 1 25 -3 40 -9 16 -7
35 -12 43 -12 8 0 14 -5 14 -11 0 -6 7 -9 15 -5 8 3 15 0 15 -5 0 -6 9 -9 20
-6 11 3 20 1 20 -4 0 -4 7 -6 15 -3 8 4 15 2 15 -4 0 -5 16 -13 35 -16 19 -4
35 -12 35 -17 0 -6 9 -8 20 -4 12 4 20 2 20 -5 0 -7 7 -10 15 -7 8 4 17 2 19
-2 3 -4 33 -14 66 -21 33 -7 60 -17 60 -23 0 -5 9 -7 20 -4 11 3 23 1 26 -5 3
-5 15 -8 25 -5 11 3 19 1 19 -3 0 -5 8 -9 18 -9 28 0 117 -24 123 -34 4 -5 16
-6 28 -2 13 4 21 2 21 -5 0 -8 10 -10 25 -8 14 3 25 2 25 -2 0 -4 38 -12 85
-19 47 -7 85 -18 85 -23 0 -6 14 -8 34 -4 20 4 37 2 41 -4 3 -5 16 -10 28 -10
46 0 167 -23 167 -33 0 -5 15 -6 35 -3 24 5 35 3 35 -5 0 -7 11 -9 34 -5 20 4
37 2 41 -4 4 -6 21 -10 38 -10 54 1 192 -22 198 -33 4 -5 21 -7 38 -4 17 4 33
2 37 -4 3 -6 17 -8 29 -5 13 3 27 1 30 -5 4 -6 18 -8 30 -5 13 3 26 2 29 -3 3
-4 33 -11 66 -15 l60 -7 1 -87 c1 -48 1 -89 1 -92 0 -3 -4 -130 -8 -282 -4
-182 -10 -275 -17 -271 -7 4 -8 -36 -3 -120 5 -87 4 -127 -4 -132 -7 -4 -11
-46 -10 -113 0 -59 -1 -147 -4 -197 -20 -365 -30 -501 -38 -506 -6 -4 -7 -27
-3 -58 5 -35 3 -56 -5 -66 -8 -9 -10 -28 -6 -51 4 -20 3 -41 -3 -48 -6 -7 -10
-26 -10 -42 1 -48 -23 -194 -32 -194 -5 0 -6 -13 -3 -29 3 -16 1 -32 -5 -35
-5 -4 -8 -13 -4 -21 3 -9 1 -21 -4 -28 -6 -6 -16 -47 -23 -90 -7 -42 -17 -77
-22 -77 -4 0 -6 -11 -2 -25 4 -16 2 -25 -6 -25 -7 0 -9 -8 -5 -20 3 -11 3 -25
-1 -32 -5 -7 -9 -19 -11 -28 -11 -63 -16 -79 -25 -74 -5 3 -6 -5 -2 -20 4 -17
2 -26 -6 -26 -8 0 -10 -9 -6 -25 4 -14 2 -25 -3 -25 -6 0 -8 -7 -5 -15 4 -8 2
-21 -4 -28 -6 -6 -13 -29 -17 -49 -4 -21 -11 -38 -15 -38 -5 0 -6 -9 -3 -20 3
-12 0 -20 -7 -20 -7 0 -10 -7 -6 -16 3 -9 3 -21 -1 -27 -4 -7 -8 -16 -8 -22
-1 -24 -50 -165 -58 -165 -4 0 -6 -4 -3 -9 3 -5 -1 -22 -9 -37 -8 -16 -15 -37
-15 -47 0 -10 -4 -16 -8 -13 -5 3 -9 -9 -9 -25 0 -17 -4 -34 -10 -37 -6 -4
-16 -26 -22 -49 -7 -24 -17 -43 -22 -43 -6 0 -9 -6 -6 -14 3 -7 0 -25 -8 -39
-7 -14 -18 -41 -25 -61 -6 -20 -16 -36 -21 -36 -6 0 -8 -4 -4 -9 3 -6 -10 -44
-30 -86 -19 -42 -35 -81 -35 -86 0 -5 -4 -9 -10 -9 -5 0 -10 -6 -10 -13 0 -14
-68 -159 -78 -167 -8 -5 -9 -7 -72 -125 -23 -43 -49 -85 -56 -93 -8 -7 -14
-18 -14 -23 0 -6 -17 -36 -39 -67 -21 -31 -41 -67 -45 -79 -4 -13 -12 -23 -17
-23 -5 0 -9 -7 -9 -15 0 -9 -7 -18 -15 -21 -8 -4 -13 -10 -10 -14 3 -5 -2 -15
-10 -23 -8 -9 -15 -20 -15 -26 0 -6 -4 -11 -10 -11 -5 0 -10 -7 -10 -15 0 -9
-7 -18 -15 -21 -8 -4 -12 -10 -9 -15 3 -5 -2 -12 -10 -15 -9 -3 -16 -10 -16
-15 0 -12 -42 -73 -52 -77 -5 -2 -8 -9 -8 -15 0 -7 -9 -18 -20 -25 -11 -7 -20
-18 -20 -26 0 -8 -7 -16 -15 -20 -8 -3 -15 -12 -15 -21 0 -8 -4 -15 -10 -15
-5 0 -10 -6 -10 -14 0 -8 -8 -21 -19 -28 -10 -7 -21 -23 -25 -35 -4 -13 -14
-23 -22 -23 -8 0 -14 -8 -14 -18 0 -9 -9 -23 -20 -30 -11 -7 -20 -19 -20 -27
0 -8 -9 -20 -20 -27 -11 -7 -20 -18 -20 -24 0 -6 -16 -24 -35 -38 -19 -15 -34
-31 -32 -36 1 -5 -37 -47 -85 -94 -49 -46 -88 -89 -88 -95 0 -6 -7 -11 -15
-11 -8 0 -15 -6 -15 -12 0 -14 -150 -168 -164 -168 -5 0 -25 -18 -44 -40 -19
-23 -37 -39 -40 -36 -2 3 -24 -15 -47 -39 -23 -25 -47 -45 -53 -45 -6 0 -25
-18 -42 -40 -17 -22 -36 -38 -40 -35 -9 6 -16 -1 -51 -48 -12 -16 -27 -26 -33
-24 -7 3 -23 -11 -36 -29 -12 -19 -28 -33 -34 -31 -6 2 -21 -9 -34 -25 -13
-15 -27 -26 -31 -23 -5 2 -20 -11 -36 -30 -15 -19 -31 -33 -36 -30 -4 3 -16
-6 -25 -20 -9 -14 -22 -25 -30 -25 -7 0 -17 -6 -21 -12 -10 -16 -39 -35 -75
-49 -16 -6 -28 -15 -28 -20 0 -5 -7 -9 -15 -9 -8 0 -15 -4 -15 -10 0 -5 -7
-10 -15 -10 -8 0 -15 -5 -15 -11 0 -6 -6 -9 -13 -6 -7 3 -23 -6 -36 -19 -13
-13 -27 -22 -31 -19 -5 3 -12 -1 -17 -9 -8 -15 -11 -16 -38 -16 -8 0 -15 -7
-15 -15 0 -9 -8 -19 -17 -22 -10 -4 -24 -13 -32 -21 -7 -7 -20 -11 -27 -8 -8
3 -14 1 -14 -4 0 -4 -23 -16 -50 -25 -28 -9 -50 -21 -50 -26 0 -5 -3 -8 -7 -7
-5 1 -21 -4 -36 -10 -16 -7 -32 -12 -37 -12 -5 0 -10 -6 -13 -12 -3 -10 -9
-10 -28 -1 -13 6 -41 17 -61 24 -21 7 -38 17 -38 22 0 4 -5 5 -10 2 -6 -3 -10
-1 -10 5 0 6 -4 8 -10 5 -5 -3 -10 -2 -10 3 0 6 -11 13 -25 16 -14 4 -25 11
-25 16 0 5 -7 7 -15 4 -8 -4 -15 -1 -15 5 0 6 -4 10 -8 9 -4 -2 -20 10 -35 25
-14 16 -30 26 -35 23 -6 -3 -13 1 -16 10 -3 8 -10 13 -15 10 -5 -3 -20 5 -34
18 -14 13 -28 22 -31 19 -2 -3 -15 4 -27 16 -13 12 -29 21 -36 21 -7 0 -21 9
-30 19 -9 11 -21 17 -28 15 -7 -3 -15 2 -18 10 -4 9 -13 16 -22 16 -8 0 -15 7
-15 16 0 10 -6 14 -15 10 -9 -3 -19 3 -25 14 -6 11 -17 20 -25 20 -7 0 -22 10
-32 23 -10 12 -30 28 -45 36 -16 8 -28 20 -28 27 0 7 -9 16 -20 19 -20 6 -57
38 -128 108 -18 17 -37 31 -42 30 -5 -2 -23 15 -40 37 -18 22 -38 40 -45 40
-8 0 -23 12 -35 28 -12 15 -26 28 -31 28 -5 1 -13 2 -19 3 -5 0 -16 13 -24 28
-8 16 -30 37 -50 47 -20 11 -36 22 -36 26 0 9 -167 176 -237 238 -26 23 -59
59 -73 79 -14 21 -43 56 -65 79 -73 74 -95 101 -95 112 0 6 -9 16 -20 22 -11
6 -20 17 -20 25 0 8 -6 18 -12 22 -13 8 -58 68 -58 76 0 3 -16 22 -35 43 -19
21 -35 44 -35 51 0 7 -5 13 -10 13 -6 0 -15 11 -20 25 -5 14 -14 25 -20 25 -5
0 -10 5 -10 10 0 6 -23 41 -50 79 -27 38 -50 73 -50 79 0 6 -4 12 -8 14 -5 1
-27 35 -50 73 -23 39 -46 75 -52 82 -5 7 -10 15 -10 18 0 4 -14 26 -30 50 -17
24 -30 46 -30 50 0 3 -11 21 -25 39 -14 18 -25 40 -25 49 0 8 -4 17 -9 19 -9
3 -57 90 -135 243 -61 120 -95 196 -127 290 -13 39 -27 72 -30 75 -3 3 -12 22
-19 43 -7 22 -18 50 -25 64 -8 14 -11 32 -8 39 3 8 1 14 -4 14 -5 0 -29 60
-52 132 -24 73 -46 140 -49 148 -3 8 -6 20 -7 25 0 6 -4 16 -8 23 -5 6 -5 17
-2 22 3 6 2 10 -4 10 -5 0 -12 19 -16 43 -4 23 -12 47 -17 54 -5 7 -7 17 -4
22 4 5 2 12 -3 15 -5 3 -7 15 -4 26 3 12 0 20 -7 20 -7 0 -10 8 -7 20 3 11 2
20 -2 20 -6 0 -25 67 -34 120 -2 9 -7 21 -11 28 -4 7 -5 19 -2 27 3 8 0 15 -5
15 -7 0 -9 11 -7 25 3 14 2 25 -2 25 -4 0 -12 28 -19 63 -6 34 -13 73 -17 87
-3 14 -5 37 -5 53 0 15 -5 27 -11 27 -6 0 -8 11 -4 30 3 17 2 29 -3 26 -5 -3
-11 13 -15 37 -4 23 -9 53 -12 67 -3 14 -5 39 -5 57 1 18 -4 35 -9 38 -6 4 -7
28 -4 61 5 40 4 54 -6 54 -9 0 -11 18 -5 76 4 48 3 74 -3 71 -5 -4 -12 37 -16
101 -3 59 -9 139 -12 177 -8 104 -14 267 -13 383 0 56 -4 102 -9 102 -4 0 -14
143 -21 318 -7 174 -13 326 -13 337 -1 11 -1 104 0 206 l2 186 68 12 c37 7 79
12 94 12 15 -1 29 3 33 8 3 5 21 7 40 4 24 -4 35 -2 35 7 0 8 12 10 41 5 27
-5 39 -4 35 3 -4 6 25 13 74 17 44 4 82 11 85 15 3 5 14 6 25 3 11 -3 26 0 34
6 8 7 25 9 39 6 14 -4 28 -2 32 5 4 7 18 9 36 5 17 -4 29 -2 29 3 0 6 21 12
48 15 26 3 61 8 77 12 17 3 44 5 62 5 17 0 34 4 38 10 3 5 17 7 31 4 13 -3 24
-2 24 4 0 5 38 16 85 23 47 7 85 15 85 19 0 4 11 5 25 2 16 -3 25 0 25 8 0 8
9 10 25 6 14 -4 25 -2 25 2 0 9 69 27 145 38 22 3 42 10 46 15 3 5 13 7 22 3
10 -3 17 -1 17 5 0 6 3 10 8 9 13 -3 102 24 107 33 3 4 12 6 20 2 8 -3 15 0
15 7 0 7 8 9 20 5 11 -3 20 -2 20 2 0 5 34 17 75 28 41 10 75 22 75 26 0 5 7
6 15 3 8 -4 15 -2 15 4 0 5 23 15 50 22 28 7 50 16 50 21 0 4 7 6 15 3 8 -4
15 -1 15 6 0 7 7 10 15 6 8 -3 15 -2 15 3 0 5 20 14 45 21 25 7 48 17 51 22 3
4 10 6 15 3 5 -4 9 -1 9 4 0 6 3 10 8 9 4 -1 20 4 35 10 16 7 33 12 38 12 5 0
9 4 9 10 0 5 7 7 15 4 8 -4 15 -1 15 6 0 7 7 10 16 6 8 -3 12 -2 9 4 -3 6 -2
10 4 10 5 0 22 5 38 12 32 13 28 12 71 22 17 4 32 11 32 16 0 5 29 18 65 30
36 12 65 25 65 29 0 4 18 14 40 21 22 7 40 17 40 21 0 4 9 5 20 2 12 -3 22 1
26 11 3 9 14 16 24 16 10 0 23 7 30 15 7 8 16 12 21 9 5 -3 9 -1 9 4 0 6 23
18 50 28 28 10 50 22 50 27 0 4 5 5 10 2 6 -3 10 -2 10 4 0 6 8 8 18 4 9 -3
14 -2 9 2 -7 8 50 40 66 37 4 -1 7 3 7 9 0 5 5 7 10 4 6 -3 10 -1 10 5 0 7 7
10 15 6 8 -3 15 -1 15 4 0 6 21 10 46 10 27 0 43 -4 39 -10z"/>
<path d="M6178 7393 c-10 -2 -18 -9 -18 -14 0 -6 -4 -7 -10 -4 -5 3 -10 2 -10
-4 0 -5 -17 -15 -37 -22 -21 -6 -42 -15 -48 -19 -5 -4 -22 -10 -37 -14 -16 -3
-28 -10 -28 -15 0 -4 -20 -16 -45 -27 -25 -10 -45 -22 -45 -27 0 -5 -7 -7 -15
-3 -8 3 -15 1 -15 -4 0 -4 -16 -14 -35 -20 -19 -6 -35 -16 -35 -20 0 -5 -6 -7
-14 -4 -7 3 -20 -1 -27 -9 -8 -7 -27 -17 -42 -21 -15 -3 -27 -11 -27 -17 0 -6
-4 -7 -10 -4 -5 3 -10 2 -10 -4 0 -6 -7 -8 -15 -5 -8 4 -15 1 -15 -6 0 -6 -4
-8 -10 -5 -5 3 -10 1 -10 -4 0 -6 -3 -11 -7 -10 -15 2 -53 -14 -53 -22 0 -5
-7 -6 -15 -3 -8 4 -15 1 -15 -5 0 -6 -7 -8 -15 -5 -8 4 -15 1 -15 -4 0 -6 -25
-19 -55 -28 -30 -10 -55 -21 -55 -26 0 -4 -7 -5 -15 -2 -8 4 -15 2 -15 -4 0
-6 -17 -16 -37 -23 -21 -6 -43 -16 -50 -21 -7 -5 -17 -7 -23 -3 -5 3 -10 2
-10 -4 0 -6 -7 -8 -15 -5 -8 4 -15 2 -15 -4 0 -6 -13 -13 -30 -17 -16 -4 -30
-11 -30 -15 0 -5 -7 -7 -15 -4 -8 4 -15 1 -15 -6 0 -7 -7 -10 -15 -6 -8 3 -15
1 -15 -5 0 -6 -9 -8 -20 -4 -11 3 -20 2 -20 -3 0 -6 -34 -18 -75 -28 -41 -10
-75 -21 -75 -25 0 -4 -34 -15 -75 -25 -41 -10 -75 -21 -75 -25 0 -4 -9 -5 -20
-2 -11 3 -20 1 -20 -4 0 -5 -31 -16 -70 -23 -38 -7 -70 -16 -70 -20 0 -4 -11
-5 -25 -2 -16 3 -25 0 -25 -8 0 -8 -9 -10 -25 -6 -14 4 -25 2 -25 -3 0 -5 -25
-13 -55 -16 -30 -4 -57 -11 -60 -15 -2 -4 -16 -5 -30 -2 -15 2 -25 0 -25 -7 0
-7 -9 -9 -24 -5 -13 3 -27 1 -31 -5 -3 -6 -17 -8 -32 -5 -14 4 -28 2 -32 -3
-7 -12 -129 -34 -178 -34 -18 1 -33 -4 -33 -9 0 -7 -13 -8 -35 -4 -23 4 -35 2
-35 -5 0 -8 -14 -9 -42 -5 -25 4 -39 3 -35 -2 9 -10 -126 -35 -180 -35 -18 1
-33 -4 -33 -9 0 -6 -15 -8 -40 -4 -24 4 -40 3 -40 -3 0 -6 -26 -13 -57 -17
-111 -13 -99 17 -106 -269 -4 -138 -3 -253 1 -256 5 -3 12 -91 15 -196 4 -104
9 -235 12 -290 11 -192 15 -301 15 -392 -1 -64 3 -93 11 -93 8 0 9 -22 4 -80
-4 -49 -3 -80 3 -80 5 0 12 -46 16 -102 3 -57 8 -128 11 -158 3 -30 5 -70 5
-87 0 -18 5 -33 11 -33 7 0 9 -11 6 -30 -4 -16 -3 -30 2 -30 7 0 26 -90 34
-155 1 -11 6 -26 10 -33 5 -7 5 -21 2 -32 -4 -12 -2 -20 6 -20 7 0 9 -10 6
-30 -4 -16 -3 -30 2 -30 4 0 13 -26 20 -57 18 -86 18 -87 25 -105 4 -9 5 -22
1 -28 -3 -5 -1 -10 6 -10 7 0 9 -10 6 -25 -2 -14 -2 -23 2 -20 5 6 31 -83 33
-115 0 -8 5 -21 10 -27 6 -7 8 -20 4 -28 -3 -8 -1 -15 5 -15 6 0 8 -9 4 -20
-3 -11 -2 -20 3 -20 6 0 13 -18 17 -40 4 -22 11 -42 15 -45 5 -3 7 -12 3 -20
-3 -8 0 -15 7 -15 7 0 10 -7 6 -17 -4 -9 -3 -19 2 -22 13 -9 63 -151 56 -162
-3 -5 0 -9 5 -9 6 0 11 -8 11 -17 0 -10 7 -31 15 -47 8 -15 15 -37 15 -47 0
-10 4 -20 9 -24 5 -3 17 -29 27 -58 9 -28 23 -61 29 -72 7 -11 16 -31 20 -45
8 -28 57 -137 84 -190 10 -19 22 -46 26 -59 4 -14 25 -53 46 -88 22 -35 39
-67 39 -72 0 -5 6 -16 13 -23 7 -7 26 -38 43 -68 16 -30 31 -57 35 -60 3 -3
19 -30 35 -60 16 -30 37 -63 47 -74 9 -11 17 -27 17 -37 0 -9 6 -19 13 -22 7
-2 22 -23 32 -46 11 -22 23 -41 28 -41 4 0 7 -7 7 -15 0 -9 7 -18 15 -21 8 -4
15 -12 15 -20 0 -8 4 -14 8 -14 5 0 19 -20 31 -45 12 -25 27 -45 32 -45 5 0 9
-6 9 -14 0 -8 7 -16 15 -20 8 -3 15 -15 15 -26 0 -11 6 -20 13 -20 10 -1 41
-41 82 -108 6 -9 18 -23 28 -30 9 -7 17 -18 17 -25 0 -6 11 -23 25 -37 47 -47
79 -85 101 -118 12 -18 50 -58 85 -90 34 -31 72 -74 85 -94 14 -21 30 -38 38
-38 7 0 18 -11 24 -25 6 -14 15 -25 20 -25 16 0 52 -37 44 -45 -4 -5 -2 -5 4
-2 6 3 32 -16 57 -43 26 -28 52 -50 58 -50 5 0 7 -5 3 -12 -4 -6 -3 -8 4 -4
10 6 62 -40 62 -56 0 -4 6 -5 14 -2 9 4 23 -8 38 -30 13 -20 33 -39 46 -42 12
-4 36 -24 53 -45 17 -21 35 -39 41 -39 5 0 24 -14 41 -30 54 -52 71 -66 102
-86 17 -10 36 -27 43 -36 7 -10 19 -18 27 -18 8 0 19 -9 25 -20 6 -11 15 -18
21 -15 5 4 12 -1 15 -9 3 -9 10 -14 14 -11 4 3 19 -7 34 -22 14 -14 29 -23 32
-20 3 3 15 -3 27 -14 11 -10 27 -19 34 -19 7 0 13 -4 13 -10 0 -5 7 -10 15
-10 8 0 15 -4 15 -10 0 -5 7 -10 15 -10 9 0 18 -6 21 -14 3 -8 11 -13 19 -10
7 3 15 -2 19 -11 3 -9 10 -13 16 -10 5 3 10 1 10 -4 0 -6 7 -11 15 -11 8 0 23
-9 32 -20 10 -11 25 -20 33 -20 9 0 21 -5 26 -10 6 -6 21 -13 34 -15 13 -2 26
-9 30 -15 4 -6 14 -8 23 -4 10 3 17 1 17 -5 0 -6 7 -11 15 -11 8 0 15 5 15 11
0 6 7 9 15 5 8 -3 15 -1 15 4 0 6 8 10 19 10 10 0 24 7 31 15 7 8 16 12 21 9
5 -3 9 0 9 6 0 7 7 10 15 6 8 -3 15 -1 15 5 0 6 5 7 10 4 6 -3 10 -1 10 4 0 6
6 11 14 11 8 0 22 7 30 16 9 8 20 12 26 9 6 -3 13 1 16 9 3 9 10 13 15 10 5
-3 12 2 15 10 3 9 12 16 18 16 7 0 22 9 34 20 12 11 24 20 28 20 3 0 18 9 34
20 15 11 30 17 33 13 4 -3 9 2 13 11 3 9 10 14 14 11 4 -3 10 2 14 10 3 8 12
15 21 15 8 0 15 5 15 11 0 6 7 9 15 5 9 -3 19 3 25 14 6 11 16 20 23 20 7 0
18 9 25 20 6 11 17 17 24 15 7 -3 24 11 37 30 13 19 29 35 37 35 7 0 22 12 33
26 13 16 25 23 33 18 7 -4 10 -4 7 0 -8 9 68 84 91 91 10 3 31 23 49 45 18 22
36 38 41 35 5 -3 26 15 46 40 21 25 44 45 50 45 7 0 23 13 36 29 13 15 35 36
50 46 35 22 158 142 158 154 0 10 76 90 133 139 20 18 37 39 37 47 0 8 20 31
45 51 24 21 42 41 40 45 -3 4 6 14 20 23 14 9 25 23 25 31 0 8 9 20 20 27 11
7 20 20 20 29 0 9 7 19 15 23 8 3 15 12 15 20 0 8 6 19 13 23 7 4 24 26 37 48
13 22 35 51 47 65 13 14 26 33 29 43 3 9 10 17 15 17 5 0 9 7 9 15 0 9 7 18
15 21 8 4 15 12 15 20 0 8 5 14 10 14 6 0 10 5 10 11 0 6 11 25 25 43 14 18
25 38 25 44 0 7 5 12 10 12 6 0 10 7 10 15 0 7 8 19 18 24 9 6 13 11 9 11 -4
0 5 19 21 43 16 23 32 52 36 65 4 12 11 22 16 22 4 0 10 8 13 17 4 10 18 36
32 58 13 22 28 47 32 55 3 8 9 17 12 20 13 11 141 265 141 280 0 5 4 10 8 10
4 0 16 25 27 55 10 30 21 55 25 55 4 0 12 19 19 43 7 23 21 60 31 82 10 22 28
69 41 105 13 36 26 67 29 70 4 3 17 42 30 88 13 45 27 82 30 82 4 0 12 25 19
55 7 30 16 55 21 55 4 0 6 9 3 20 -3 12 0 20 7 20 7 0 10 7 6 16 -4 9 -2 22 3
28 5 6 10 14 10 18 6 40 15 68 21 68 5 0 6 9 3 20 -3 12 0 20 7 20 7 0 9 8 5
19 -3 11 -1 22 5 26 6 4 8 15 5 25 -3 10 -2 21 4 24 5 3 12 29 16 56 4 28 11
48 16 45 5 -4 6 8 3 25 -4 20 -3 30 5 30 8 0 10 8 6 19 -3 11 -1 22 5 26 6 4
8 15 5 25 -3 10 -2 21 3 24 6 3 13 31 17 61 3 30 11 55 17 55 6 0 7 12 3 30
-4 20 -3 30 5 30 7 0 9 8 5 20 -4 12 -2 27 4 33 5 7 10 22 10 32 0 52 27 205
35 198 5 -4 5 13 2 40 -5 30 -3 53 3 61 6 7 11 35 11 62 -1 27 2 78 5 114 2
36 10 173 17 305 6 132 15 243 20 246 5 3 8 55 8 115 0 60 2 163 4 229 3 66 7
190 10 275 2 85 7 229 11 320 6 155 5 166 -12 167 -53 5 -149 28 -154 36 -4 5
-16 7 -28 4 -12 -3 -24 -1 -27 4 -3 5 -17 9 -32 9 -15 -1 -43 1 -62 4 -19 3
-56 9 -82 12 -27 4 -48 11 -48 17 0 6 -16 7 -40 3 -27 -4 -40 -3 -40 5 0 8
-11 9 -31 5 -18 -3 -38 -1 -45 5 -8 6 -23 9 -34 6 -11 -3 -22 -2 -25 3 -3 4
-36 11 -75 15 -44 4 -68 11 -64 17 5 7 -5 8 -30 4 -25 -5 -36 -3 -36 5 0 7
-10 9 -30 6 -16 -4 -32 -2 -35 3 -3 5 -16 10 -28 9 -34 0 -131 23 -138 34 -4
5 -16 6 -28 2 -13 -4 -21 -2 -21 5 0 7 -8 10 -20 7 -11 -3 -22 -1 -25 3 -3 5
-37 14 -75 21 -39 7 -70 16 -70 21 0 5 -6 8 -12 7 -7 -1 -20 1 -28 4 -21 8
-132 38 -147 39 -7 1 -13 5 -13 9 0 4 -31 15 -70 24 -38 9 -70 21 -70 26 0 4
-7 6 -15 3 -8 -4 -15 -1 -15 6 0 7 -7 10 -15 7 -8 -4 -17 -2 -20 2 -3 5 -27
14 -55 21 -27 7 -50 16 -50 21 0 4 -7 6 -15 3 -8 -4 -15 -2 -15 4 0 5 -20 15
-45 22 -25 7 -48 17 -51 22 -3 4 -10 6 -15 3 -5 -4 -9 -1 -9 5 0 6 -4 8 -10 5
-5 -3 -10 -2 -10 4 0 6 -19 15 -42 22 -24 6 -48 15 -54 20 -6 5 -14 6 -17 2
-4 -3 -7 -1 -7 5 0 6 -7 9 -15 6 -8 -4 -15 -1 -15 7 0 7 -3 9 -7 6 -3 -4 -15
1 -26 10 -10 10 -22 17 -26 16 -16 -5 -50 10 -44 20 4 6 0 8 -10 4 -10 -3 -17
-2 -17 3 0 6 -3 9 -7 8 -11 -2 -65 24 -82 40 -7 7 -20 11 -27 8 -8 -3 -14 -2
-14 2 0 5 -22 16 -50 26 -27 10 -50 22 -50 27 0 4 -18 13 -41 19 -22 6 -43 18
-46 26 -3 7 -10 14 -16 14 -17 0 -107 43 -107 51 0 6 -39 20 -62 23 -3 1 -10
4 -14 9 -8 7 -77 8 -106 0z"/>
</g>
</svg>
