<svg version="1.0" xmlns="http://www.w3.org/2000/svg"
 width="200" height="150" viewBox="0 0 1250 800"
 preserveAspectRatio="xMidYMid meet">

<g transform="translate(0.000000,797.000000) scale(0.100000,-0.100000)"
fill="#3c6186" stroke="none">
<path d="M6240 7893 c-8 -3 -17 -9 -20 -12 -3 -4 -54 -22 -115 -41 -60 -18
-112 -37 -115 -40 -3 -4 -57 -22 -120 -40 -63 -18 -124 -38 -135 -44 -29 -15
-81 -33 -165 -57 -41 -12 -77 -25 -80 -29 -3 -4 -57 -22 -120 -40 -63 -19
-117 -36 -120 -40 -3 -4 -52 -21 -110 -39 -58 -18 -123 -40 -145 -50 -22 -10
-86 -31 -142 -46 -57 -16 -103 -32 -103 -36 0 -4 -12 -10 -27 -13 -59 -14
-198 -60 -203 -67 -3 -4 -57 -22 -120 -40 -63 -18 -117 -36 -120 -40 -3 -4
-61 -23 -130 -44 -69 -20 -127 -40 -130 -44 -3 -5 -57 -23 -120 -42 -63 -18
-117 -36 -120 -40 -3 -4 -48 -19 -100 -34 -52 -15 -113 -35 -135 -45 -22 -10
-89 -33 -150 -51 -60 -19 -112 -37 -115 -40 -3 -4 -57 -22 -120 -40 -63 -18
-117 -36 -120 -40 -3 -3 -52 -21 -110 -39 -58 -19 -107 -36 -110 -40 -3 -3
-63 -23 -135 -44 -71 -21 -134 -42 -140 -46 -5 -4 -44 -18 -85 -29 -85 -25
-133 -42 -140 -51 -3 -3 -48 -18 -100 -33 -52 -15 -108 -34 -125 -42 -16 -8
-77 -28 -134 -45 -57 -16 -110 -35 -117 -40 -6 -6 -64 -26 -127 -45 -63 -18
-123 -38 -133 -44 -11 -6 -66 -24 -123 -41 -57 -17 -109 -34 -115 -39 -12 -9
-205 -71 -223 -71 -6 0 -13 -3 -15 -8 -1 -4 -33 -20 -71 -36 -49 -21 -80 -42
-112 -78 -40 -44 -45 -56 -45 -97 0 -38 6 -54 38 -92 36 -46 115 -99 145 -99
9 0 22 -6 29 -13 7 -7 65 -28 128 -46 63 -19 118 -38 121 -42 3 -5 61 -25 130
-45 68 -20 126 -40 129 -44 3 -3 57 -21 120 -40 63 -18 117 -37 120 -41 3 -5
53 -22 110 -39 58 -17 116 -36 130 -44 14 -7 62 -24 108 -36 45 -13 82 -29 82
-35 0 -7 -21 -32 -47 -56 -61 -57 -199 -233 -220 -281 -9 -21 -21 -38 -26 -38
-4 0 -6 -4 -3 -9 3 -5 0 -14 -8 -20 -7 -6 -26 -39 -41 -74 -15 -34 -36 -82
-48 -106 -11 -25 -31 -83 -44 -130 -14 -47 -31 -108 -38 -136 -30 -105 -64
-496 -65 -736 0 -41 -3 -48 -24 -53 -14 -3 -31 -12 -38 -19 -7 -6 -26 -19 -43
-27 -32 -16 -158 -140 -151 -148 3 -2 -3 -13 -14 -24 -16 -17 -64 -139 -70
-178 -7 -49 -7 -211 0 -215 5 -3 7 -12 4 -19 -3 -8 -1 -17 5 -21 6 -3 11 -14
11 -25 0 -25 39 -107 74 -155 41 -54 124 -133 162 -151 l30 -14 -15 -108 c-9
-59 -19 -112 -23 -118 -4 -6 -10 -26 -13 -45 -15 -88 -58 -265 -66 -275 -6 -7
-9 -16 -8 -20 1 -5 -3 -21 -9 -36 -6 -16 -21 -63 -34 -105 -12 -43 -27 -81
-32 -85 -6 -4 -7 -8 -2 -8 5 0 3 -6 -3 -14 -6 -7 -22 -44 -35 -82 -34 -96
-148 -331 -227 -466 -21 -36 -39 -70 -39 -75 0 -5 -9 -18 -19 -30 -10 -11 -27
-35 -36 -54 -10 -19 -28 -49 -42 -67 -13 -17 -22 -32 -19 -32 3 0 -6 -12 -19
-26 -14 -15 -25 -31 -25 -36 0 -10 -83 -128 -110 -157 -8 -9 -31 -41 -52 -71
-20 -30 -48 -66 -62 -79 -14 -14 -26 -29 -26 -34 0 -5 -22 -34 -50 -65 -55
-62 -61 -84 -27 -113 60 -51 257 -191 294 -208 23 -11 44 -25 48 -31 3 -5 36
-24 73 -42 37 -17 73 -36 81 -42 13 -10 31 -17 131 -53 25 -8 48 -20 52 -27
12 -18 161 -14 180 5 9 9 42 29 75 44 32 16 69 39 83 52 14 13 30 23 36 23 9
0 204 189 245 238 36 43 112 168 148 245 32 68 96 259 106 317 1 8 5 22 8 30
10 25 26 118 39 230 19 156 16 898 -5 1215 l-17 250 44 40 c108 99 152 189
171 351 12 95 -27 290 -65 331 -10 12 -17 23 -14 26 9 9 -143 157 -161 157
-15 0 -17 6 -10 43 4 23 9 74 11 112 4 81 49 403 63 455 32 118 75 250 96 294
13 28 35 76 49 106 30 63 92 167 127 212 44 57 203 218 241 243 l36 24 89 -25
c48 -14 90 -29 93 -33 6 -7 43 -20 165 -56 50 -15 95 -31 100 -35 6 -5 60 -22
120 -40 61 -18 112 -35 115 -39 3 -5 55 -23 115 -41 61 -18 112 -36 115 -40 3
-3 64 -23 135 -44 72 -21 132 -41 135 -45 3 -4 55 -22 115 -41 61 -18 112 -36
115 -40 3 -4 57 -21 120 -40 63 -18 117 -36 120 -40 3 -5 25 -13 50 -20 70
-18 162 -50 190 -64 14 -7 77 -28 140 -46 63 -18 117 -36 120 -40 3 -4 16 -10
30 -14 93 -26 197 -60 206 -68 6 -4 58 -22 115 -39 57 -16 118 -36 134 -44 17
-8 75 -28 130 -45 55 -17 108 -35 118 -41 11 -6 65 -24 120 -40 56 -16 110
-34 119 -39 10 -6 62 -24 115 -41 54 -17 100 -35 103 -38 13 -18 151 -51 210
-51 60 0 178 28 204 49 9 7 115 41 206 67 14 4 27 10 30 14 6 7 199 70 218 70
7 0 12 4 12 8 0 5 19 14 43 21 110 31 212 65 217 71 3 4 57 22 120 41 63 18
118 37 121 42 3 4 53 22 110 39 57 16 109 33 114 38 6 4 64 24 130 45 66 21
125 41 130 45 6 4 44 18 85 29 85 25 133 42 140 51 3 3 50 19 105 35 55 15
111 34 125 41 29 15 159 58 208 69 17 3 32 10 32 15 0 5 14 11 31 15 46 10
206 63 226 75 10 5 65 23 123 40 57 17 107 34 110 39 3 5 57 23 120 42 63 18
117 36 120 40 6 7 230 79 247 79 6 0 13 4 15 8 2 5 53 24 113 42 61 19 112 37
115 41 3 4 57 22 120 40 63 18 117 36 120 39 7 9 54 26 155 56 50 14 95 30
100 34 6 4 51 20 100 35 50 15 101 34 115 41 14 7 72 27 129 44 58 16 107 34
110 38 4 5 58 23 121 42 63 18 117 36 120 40 3 4 52 21 110 39 58 18 119 38
135 46 17 7 75 28 130 45 55 18 102 36 105 41 3 4 23 15 44 24 22 9 56 35 78
57 37 39 38 42 38 112 0 73 0 73 -41 110 -45 40 -109 75 -174 96 -22 7 -42 16
-45 20 -3 3 -34 14 -70 24 -89 25 -154 47 -160 55 -3 4 -57 22 -120 40 -63 19
-117 37 -120 41 -5 6 -176 62 -232 76 -16 3 -28 10 -28 15 0 5 -5 9 -12 9 -19
0 -212 62 -218 70 -3 4 -54 21 -113 39 -60 17 -118 37 -130 45 -12 7 -67 26
-122 42 -55 15 -102 31 -105 35 -3 4 -59 23 -125 43 -66 20 -128 41 -137 46
-10 6 -62 24 -115 41 -54 17 -100 34 -103 38 -3 4 -57 22 -120 40 -63 18 -117
36 -120 41 -3 4 -61 24 -130 45 -69 20 -129 41 -135 45 -5 4 -57 23 -115 41
-58 18 -107 35 -110 39 -3 3 -48 18 -100 34 -52 15 -113 36 -135 46 -22 11
-89 34 -150 51 -60 18 -112 35 -115 40 -3 4 -55 22 -115 40 -61 18 -112 35
-115 39 -3 3 -54 22 -115 40 -60 19 -115 37 -121 42 -6 4 -53 21 -105 36 -52
16 -107 36 -124 44 -16 8 -82 30 -145 48 -63 19 -117 37 -120 41 -3 4 -52 21
-110 39 -58 18 -109 36 -115 40 -5 4 -57 22 -115 40 -58 18 -107 36 -110 40
-3 3 -59 22 -124 40 -66 19 -125 40 -132 47 -7 7 -16 13 -21 13 -21 0 -209 64
-215 74 -8 12 -232 20 -258 9z"/>
<path d="M10055 4400 c-43 -20 -168 -63 -222 -75 -18 -3 -33 -11 -33 -16 0 -5
-5 -9 -12 -9 -19 0 -212 -63 -218 -70 -3 -4 -60 -23 -127 -43 -67 -19 -132
-42 -145 -50 -13 -7 -68 -27 -123 -42 -55 -16 -102 -32 -105 -35 -6 -8 -200
-70 -218 -70 -7 0 -12 -4 -12 -8 0 -5 -19 -14 -42 -21 -111 -31 -213 -65 -218
-71 -3 -4 -57 -22 -120 -41 -63 -18 -117 -36 -120 -39 -7 -9 -55 -26 -140 -51
-41 -11 -79 -25 -85 -29 -5 -4 -57 -22 -115 -40 -58 -18 -107 -36 -110 -40 -3
-4 -59 -22 -124 -41 -66 -19 -124 -39 -130 -44 -6 -6 -54 -23 -106 -38 -52
-15 -108 -34 -125 -42 -39 -18 -214 -75 -232 -75 -7 0 -13 -4 -13 -9 0 -5 -12
-12 -27 -15 -59 -14 -228 -69 -233 -76 -3 -4 -50 -20 -105 -35 -55 -15 -110
-34 -123 -42 -27 -17 -206 -73 -232 -73 -10 0 -20 -6 -23 -12 -3 -10 -9 -10
-28 -1 -13 6 -35 15 -49 18 -62 16 -185 58 -190 64 -3 4 -58 22 -122 41 -65
18 -118 36 -118 40 0 4 -57 24 -127 45 -71 20 -130 40 -133 44 -3 4 -57 22
-120 40 -63 18 -117 36 -120 40 -4 6 -106 40 -200 67 -14 4 -27 10 -30 14 -3
4 -63 24 -135 45 -71 20 -132 40 -135 44 -4 6 -106 40 -200 67 -14 4 -27 10
-30 14 -3 3 -57 21 -120 40 -63 18 -117 36 -120 40 -3 3 -52 21 -110 38 -58
18 -116 39 -130 46 -14 7 -77 28 -140 46 -63 18 -117 36 -120 40 -3 5 -25 13
-50 20 -69 18 -162 50 -190 64 -14 7 -70 26 -125 41 -55 16 -102 32 -105 36
-3 4 -39 17 -80 28 -105 31 -173 54 -186 63 -6 5 -58 22 -115 38 -57 17 -116
37 -131 45 -14 8 -29 15 -32 15 -4 0 -5 -584 -4 -1297 3 -1265 4 -1299 23
-1343 10 -25 22 -47 26 -50 4 -3 16 -23 28 -45 22 -43 179 -211 233 -250 59
-43 138 -95 145 -95 3 0 11 -6 17 -14 19 -25 315 -170 441 -216 33 -13 78 -31
100 -41 22 -10 76 -27 120 -39 44 -12 94 -29 110 -36 33 -16 268 -74 297 -74
10 0 18 -4 18 -8 0 -9 94 -31 255 -58 55 -10 102 -21 105 -24 5 -6 304 -51
470 -70 41 -5 102 -14 135 -19 33 -6 164 -18 290 -28 395 -30 1475 -23 1705
12 14 2 68 7 120 10 52 4 97 11 98 16 2 5 18 9 35 9 74 0 473 57 492 70 6 4
30 10 55 14 91 13 325 60 330 66 3 4 75 24 160 44 85 21 160 41 165 46 6 4 46
18 90 30 44 13 103 34 130 46 28 12 84 34 124 48 41 14 77 30 80 34 4 4 42 23
86 41 44 18 82 37 85 41 3 4 40 24 83 44 42 21 77 41 77 45 0 4 21 20 48 34
59 32 79 48 201 165 54 51 104 105 112 120 7 15 23 38 34 53 11 14 29 52 39
85 10 32 22 67 27 76 5 10 9 601 9 1333 0 1045 -3 1315 -12 1315 -7 0 -31 -9
-53 -20z"/>
</g>
</svg>
