<svg version="1.0" xmlns="http://www.w3.org/2000/svg"
 width="200" height="150" viewBox="0 0 1250 800"
 preserveAspectRatio="xMidYMid meet">

<g transform="translate(0.000000,797.000000) scale(0.100000,-0.100000)"
fill="#3c6186" stroke="none">
<path d="M6144 7893 c-27 -20 -50 -41 -52 -45 -2 -4 -9 -8 -15 -8 -7 -1 -28
-14 -47 -30 -19 -17 -40 -30 -47 -30 -7 0 -13 -3 -13 -7 -1 -5 -23 -24 -51
-43 -28 -19 -62 -45 -77 -57 -15 -13 -30 -23 -34 -23 -4 0 -13 -6 -20 -12 -7
-7 -35 -29 -61 -48 -27 -19 -56 -43 -65 -52 -9 -10 -21 -18 -27 -18 -6 0 -20
-8 -31 -18 -11 -10 -44 -35 -74 -56 -56 -37 -91 -63 -138 -103 -15 -13 -33
-23 -39 -23 -7 0 -13 -4 -13 -8 0 -4 -15 -16 -32 -27 -18 -10 -39 -24 -45 -31
-7 -7 -35 -27 -63 -45 -27 -18 -50 -36 -50 -40 0 -5 -15 -16 -32 -25 -18 -9
-35 -20 -38 -23 -3 -4 -18 -15 -35 -25 -32 -21 -33 -22 -85 -63 -19 -16 -57
-44 -85 -63 -27 -18 -52 -37 -55 -41 -3 -3 -20 -14 -37 -23 -18 -9 -33 -21
-33 -26 0 -6 -6 -10 -12 -10 -7 0 -31 -16 -52 -35 -22 -19 -43 -35 -47 -35 -4
0 -23 -14 -41 -31 -18 -17 -46 -37 -62 -46 -16 -8 -38 -24 -49 -34 -12 -10
-24 -19 -27 -19 -4 0 -19 -10 -33 -22 -14 -13 -42 -34 -62 -48 -20 -14 -44
-33 -53 -42 -9 -10 -21 -18 -27 -18 -6 0 -20 -8 -31 -18 -11 -10 -42 -34 -70
-53 -28 -20 -57 -41 -65 -47 -25 -21 -153 -113 -172 -124 -20 -10 -43 -28 -90
-70 -18 -16 -37 -28 -44 -28 -7 0 -13 -4 -13 -8 0 -5 -16 -17 -35 -28 -19 -10
-35 -21 -35 -24 0 -3 -15 -14 -32 -25 -35 -20 -48 -30 -79 -57 -10 -10 -21
-18 -24 -18 -3 0 -11 -5 -18 -10 -45 -38 -61 -50 -67 -50 -3 0 -15 -8 -26 -18
-10 -9 -32 -26 -48 -37 -16 -11 -41 -29 -56 -40 -15 -11 -59 -42 -98 -69 -40
-27 -72 -52 -72 -57 0 -4 -8 -10 -18 -13 -10 -4 -34 -20 -52 -36 -19 -17 -40
-30 -47 -30 -7 0 -13 -3 -13 -7 -1 -5 -23 -24 -51 -43 -28 -19 -62 -45 -77
-57 -15 -13 -30 -23 -34 -23 -4 0 -13 -6 -20 -13 -7 -7 -38 -30 -68 -51 -30
-21 -59 -44 -63 -52 -4 -8 -13 -14 -20 -14 -7 0 -24 -10 -39 -23 -15 -12 -44
-33 -64 -47 -20 -14 -45 -33 -55 -42 -10 -10 -23 -18 -28 -18 -4 0 -19 -10
-32 -22 -14 -13 -52 -41 -84 -63 -33 -22 -65 -44 -71 -50 -7 -5 -32 -26 -58
-45 -29 -23 -45 -43 -46 -57 l0 -23 464 0 464 0 53 37 c30 20 60 43 67 50 7 7
16 13 20 13 4 0 20 11 36 25 16 14 32 25 35 25 3 0 18 10 33 23 14 12 36 30
48 40 12 10 37 27 57 38 37 21 48 29 95 72 17 15 37 27 44 27 7 0 17 6 21 13
7 11 25 25 89 68 13 8 39 29 57 46 19 17 43 33 54 37 11 3 28 14 39 24 25 22
86 68 149 111 28 19 56 41 63 48 7 7 17 13 21 13 4 0 16 8 27 18 20 18 213
159 242 177 9 6 19 12 22 15 6 7 158 119 190 140 13 8 40 29 61 45 21 17 54
41 74 55 19 14 45 33 57 43 11 9 24 17 28 17 3 0 15 8 26 18 10 10 34 27 52
37 17 11 32 22 32 26 0 4 17 18 37 31 20 12 47 30 58 38 55 38 110 76 130 90
12 8 29 22 38 30 9 8 32 26 52 40 21 14 45 32 54 40 9 8 28 21 42 28 15 8 38
25 52 38 14 13 29 24 33 24 3 0 27 17 53 38 25 21 70 53 99 72 28 18 52 37 52
41 0 4 9 11 20 14 11 4 35 20 52 36 18 16 38 29 45 29 7 0 13 4 13 9 0 4 31
29 68 54 38 25 75 53 82 62 7 8 17 15 22 15 5 0 15 6 22 13 8 6 48 37 90 67
43 30 87 63 98 73 12 9 25 17 29 17 10 0 72 -42 94 -64 9 -9 19 -16 23 -16 4
0 20 -11 36 -25 16 -14 32 -25 35 -25 3 0 18 -10 33 -23 50 -42 63 -52 93 -71
16 -11 38 -28 49 -38 11 -10 25 -18 32 -18 7 0 17 -6 21 -13 4 -7 37 -34 73
-59 183 -129 319 -228 332 -242 12 -11 137 -100 195 -138 14 -9 29 -21 32 -26
5 -8 71 -56 155 -112 12 -8 38 -27 57 -42 20 -16 41 -28 47 -28 7 0 12 -4 12
-9 0 -5 29 -28 65 -51 36 -23 65 -46 65 -50 0 -4 14 -13 30 -20 17 -7 30 -16
30 -20 0 -3 21 -20 48 -37 26 -17 58 -41 71 -52 13 -12 27 -21 30 -21 3 0 19
-11 35 -25 16 -14 32 -25 35 -25 3 0 18 -10 33 -23 14 -12 36 -30 47 -39 12
-10 25 -18 30 -18 4 0 20 -11 35 -25 15 -14 40 -32 57 -40 16 -9 29 -19 29
-24 0 -5 14 -14 30 -21 17 -7 30 -16 30 -20 0 -5 15 -17 33 -28 17 -12 55 -38
84 -59 89 -65 394 -287 417 -303 11 -8 30 -23 40 -32 11 -10 38 -30 60 -44 78
-51 130 -88 147 -104 9 -8 39 -31 67 -50 28 -19 51 -38 52 -42 0 -5 6 -8 13
-8 6 0 26 -12 42 -26 17 -14 40 -30 53 -35 26 -10 873 -12 910 -3 29 8 31 50
2 59 -11 3 -20 10 -20 15 0 5 -8 11 -17 14 -10 3 -30 16 -45 28 -15 13 -49 39
-75 58 -27 19 -50 37 -53 41 -3 3 -20 14 -37 24 -18 11 -33 22 -33 26 0 4 -13
12 -30 19 -16 7 -30 16 -30 21 0 5 -24 24 -52 42 -29 19 -64 44 -77 55 -13 12
-32 24 -42 27 -11 4 -19 10 -19 15 0 4 -15 17 -32 28 -18 12 -51 35 -73 51
-22 17 -47 34 -55 38 -8 3 -29 18 -46 32 -17 14 -44 35 -59 46 -16 11 -43 31
-61 45 -18 14 -49 36 -69 50 -19 14 -45 33 -57 43 -11 9 -24 17 -27 17 -3 0
-19 11 -35 25 -16 14 -32 25 -35 25 -3 0 -18 10 -33 23 -62 52 -95 75 -120 83
-10 4 -18 10 -18 14 0 3 -26 24 -57 46 -32 21 -67 47 -77 56 -11 10 -28 20
-38 24 -10 3 -18 9 -18 13 0 4 -21 21 -47 38 -27 17 -59 41 -72 52 -13 12 -27
21 -30 21 -3 0 -19 11 -36 25 -44 36 -47 38 -85 65 -19 13 -41 30 -48 37 -7 7
-17 13 -21 13 -5 0 -26 14 -47 30 -22 17 -49 38 -62 48 -13 9 -38 29 -56 45
-19 15 -37 27 -41 27 -7 0 -56 37 -86 65 -9 8 -19 15 -23 15 -3 0 -36 23 -71
50 -35 28 -68 50 -72 50 -5 0 -23 12 -40 28 -55 47 -88 72 -98 72 -6 0 -16 9
-23 20 -7 11 -18 20 -25 20 -8 0 -24 11 -37 25 -13 14 -30 25 -37 25 -8 0 -16
7 -19 15 -3 8 -14 17 -23 20 -10 3 -26 13 -37 23 -10 9 -32 26 -49 36 -16 11
-34 23 -40 28 -11 10 -144 106 -193 140 -18 13 -45 33 -60 46 -15 12 -35 25
-44 28 -10 3 -18 9 -18 13 0 4 -23 22 -50 40 -28 18 -56 38 -63 44 -6 7 -25
21 -42 31 -16 11 -34 23 -40 28 -5 4 -28 22 -50 39 -22 16 -48 36 -57 44 -9 8
-31 21 -48 30 -16 8 -30 19 -30 24 0 5 -13 14 -30 21 -16 7 -30 16 -30 20 0 6
-87 69 -169 122 -14 9 -30 21 -36 25 -47 41 -146 113 -155 113 -5 0 -10 5 -10
10 0 6 -4 10 -10 10 -9 0 -18 6 -72 53 -37 30 -98 23 -154 -20z"/>
<path d="M5995 5951 c-6 -4 -55 -13 -109 -20 -55 -6 -105 -16 -111 -21 -6 -5
-52 -16 -103 -26 -51 -9 -92 -20 -92 -24 0 -5 -31 -16 -70 -26 -38 -10 -70
-22 -70 -26 0 -4 -5 -8 -10 -8 -6 0 -43 -16 -83 -35 -39 -19 -78 -35 -84 -35
-7 0 -13 -4 -13 -8 0 -5 -18 -17 -40 -27 -22 -10 -40 -22 -40 -27 0 -4 -7 -8
-14 -8 -8 0 -27 -11 -42 -25 -15 -14 -32 -25 -38 -25 -6 0 -24 -11 -40 -25
-16 -14 -32 -25 -36 -25 -3 0 -15 -8 -26 -18 -10 -10 -27 -23 -36 -28 -48 -27
-318 -292 -318 -312 0 -4 -10 -19 -22 -32 -46 -52 -114 -146 -131 -182 -10
-21 -22 -38 -27 -38 -6 0 -10 -6 -10 -13 0 -7 -11 -29 -25 -47 -14 -19 -31
-52 -37 -72 -6 -21 -15 -38 -20 -38 -4 0 -8 -5 -8 -10 0 -6 -7 -27 -17 -48 -9
-20 -15 -40 -15 -44 1 -5 -2 -8 -6 -8 -4 0 -14 -21 -21 -47 -7 -27 -19 -61
-26 -78 -7 -16 -18 -55 -25 -85 -7 -30 -16 -57 -20 -60 -8 -6 -30 -128 -30
-168 0 -17 -5 -32 -10 -34 -28 -9 -28 -637 0 -646 5 -2 10 -17 10 -34 0 -39
22 -161 30 -168 3 -3 12 -32 19 -65 7 -33 19 -73 26 -90 7 -16 21 -56 30 -87
10 -32 21 -58 26 -58 4 0 14 -19 21 -42 6 -24 15 -45 18 -48 3 -3 23 -40 45
-82 21 -43 42 -78 46 -78 5 0 17 -19 28 -42 23 -49 38 -71 66 -103 11 -12 31
-39 45 -59 55 -82 297 -326 354 -358 9 -5 27 -19 39 -31 13 -12 34 -29 46 -37
13 -8 33 -22 45 -31 11 -9 37 -24 56 -34 19 -10 37 -21 40 -24 3 -3 23 -15 45
-26 22 -11 42 -23 45 -26 3 -3 20 -11 38 -18 17 -8 32 -17 32 -21 0 -4 27 -15
60 -25 33 -10 60 -21 60 -25 0 -4 29 -15 65 -25 36 -11 65 -22 65 -25 0 -4 32
-13 70 -20 39 -7 70 -16 70 -20 0 -8 97 -26 190 -36 36 -4 71 -11 77 -16 17
-13 489 -13 506 0 6 5 39 12 72 16 99 10 205 29 205 37 0 3 28 12 63 19 34 6
67 15 72 20 6 4 35 15 65 25 30 10 57 21 60 24 3 4 31 15 63 26 31 11 57 23
57 27 0 4 18 13 40 19 22 7 40 15 40 19 0 4 18 15 40 25 22 10 40 21 40 25 0
3 19 14 43 25 23 10 44 21 47 24 3 4 30 24 60 46 81 58 117 88 194 160 28 26
57 52 65 58 9 7 31 30 49 52 19 22 52 60 73 85 69 78 136 168 149 199 7 17 16
31 21 31 5 0 9 6 9 14 0 7 7 19 15 26 9 7 25 34 37 59 11 25 24 48 27 51 4 3
14 23 23 45 9 22 31 74 50 115 19 41 41 101 48 133 7 31 17 57 21 57 4 0 13
33 20 73 7 39 16 77 21 83 12 16 38 234 38 324 1 41 5 95 10 120 5 27 5 46 -1
48 -5 2 -9 43 -9 90 0 98 -25 319 -38 336 -5 6 -15 44 -22 84 -7 39 -16 72
-20 72 -4 0 -15 34 -25 75 -11 41 -22 75 -25 75 -4 0 -12 18 -19 40 -6 22 -16
40 -20 40 -5 0 -8 6 -7 13 2 17 -85 187 -95 187 -5 0 -9 6 -9 14 0 7 -9 25
-21 40 -11 14 -17 26 -12 26 4 0 4 4 -2 8 -18 13 -75 90 -75 101 0 6 -3 11 -8
11 -4 0 -14 11 -22 24 -24 39 -98 121 -198 220 -94 93 -117 114 -187 166 -22
16 -49 36 -60 45 -11 8 -45 31 -75 50 -30 19 -63 40 -73 47 -20 15 -71 42
-107 58 -14 6 -51 25 -82 41 -31 16 -64 29 -72 29 -9 0 -16 4 -16 8 0 4 -31
16 -70 26 -38 10 -70 21 -70 26 0 4 -42 16 -92 25 -51 10 -95 22 -98 26 -3 5
-50 13 -105 20 -55 6 -107 15 -116 20 -22 11 -462 12 -474 0z m325 -555 l0
-114 28 -6 c15 -3 52 -8 82 -12 30 -3 60 -10 65 -14 6 -4 30 -10 54 -14 23 -4
72 -20 107 -36 35 -17 68 -30 74 -30 5 0 10 -4 10 -10 0 -5 6 -10 13 -10 7 0
24 -11 38 -24 14 -13 35 -29 47 -35 12 -6 22 -16 22 -22 0 -5 16 -23 35 -40
19 -17 41 -42 48 -57 51 -96 63 -118 68 -122 11 -9 39 -139 39 -179 0 -22 5
-43 10 -46 6 -3 10 -13 10 -21 0 -11 -26 -14 -149 -14 l-149 0 -11 31 c-6 18
-11 47 -11 65 0 19 -5 34 -12 34 -6 0 -8 3 -5 7 4 3 3 11 -2 17 -5 6 -13 27
-20 46 -11 36 -73 107 -124 145 -15 11 -33 25 -40 31 -17 15 -145 44 -191 44
l-36 0 0 -444 0 -444 31 -11 c18 -6 40 -11 50 -11 11 0 19 -4 19 -9 0 -5 34
-17 75 -26 41 -9 75 -20 75 -24 0 -4 24 -13 53 -21 28 -7 68 -21 87 -31 19
-11 40 -19 47 -19 6 0 18 -6 25 -13 7 -7 33 -21 58 -32 50 -22 166 -133 196
-186 10 -19 21 -36 24 -39 9 -8 40 -110 40 -130 0 -10 5 -20 12 -22 14 -5 15
-313 0 -331 -5 -7 -15 -39 -21 -72 -22 -109 -23 -115 -31 -115 -4 0 -13 -18
-20 -40 -8 -23 -18 -44 -24 -48 -6 -4 -20 -24 -30 -45 -11 -21 -28 -43 -38
-48 -10 -5 -18 -16 -18 -24 0 -7 -9 -17 -20 -20 -11 -3 -24 -14 -30 -24 -5
-10 -23 -24 -40 -31 -16 -7 -30 -16 -30 -20 0 -4 -15 -13 -32 -21 -18 -7 -36
-17 -39 -21 -3 -5 -32 -16 -65 -24 -32 -9 -64 -20 -70 -25 -14 -11 -165 -39
-211 -39 -18 0 -33 -4 -33 -10 0 -5 -9 -10 -20 -10 -19 0 -20 -7 -20 -170 0
-194 6 -184 -101 -178 l-54 3 -5 170 -5 170 -25 3 c-14 2 -29 8 -35 13 -5 5
-23 9 -41 9 -44 0 -207 29 -214 38 -3 5 -25 14 -50 21 -62 18 -133 59 -186
108 -14 13 -33 27 -44 33 -11 6 -20 14 -20 19 0 5 -16 25 -34 46 -38 41 -106
165 -106 193 0 9 -7 30 -15 46 -17 31 -30 121 -38 248 -5 77 3 102 26 79 14
-14 47 -15 47 -1 0 17 189 13 206 -5 8 -8 17 -43 21 -80 3 -36 10 -68 14 -71
5 -3 9 -19 9 -36 0 -40 29 -139 46 -156 8 -7 14 -19 14 -26 0 -18 92 -112 118
-120 12 -4 22 -11 22 -16 0 -5 24 -16 53 -26 28 -9 54 -20 57 -24 6 -8 151
-29 165 -23 10 3 11 990 1 1000 -2 3 -48 13 -102 24 -54 10 -100 23 -103 28
-3 5 -32 14 -65 22 -32 7 -63 17 -70 23 -6 6 -42 26 -79 44 -38 18 -71 40 -74
47 -2 8 -15 17 -26 21 -25 7 -124 110 -133 137 -3 9 -10 17 -15 17 -5 0 -8 3
-7 8 1 7 -15 48 -48 120 -39 85 -33 362 10 456 14 30 28 67 32 81 3 14 10 25
14 25 5 0 12 10 16 22 4 12 20 35 35 51 16 16 29 33 29 39 0 14 117 126 140
133 11 4 20 10 20 15 0 5 21 16 48 26 26 10 49 21 52 25 3 5 28 13 55 20 28 6
59 16 69 21 11 6 56 12 100 15 117 8 113 4 111 125 -1 57 0 106 2 111 2 4 40
7 84 7 l79 0 0 -114z"/>
<path d="M5981 4994 c-29 -8 -60 -21 -68 -29 -8 -8 -19 -15 -25 -15 -15 0
-116 -107 -123 -131 -4 -10 -10 -19 -14 -19 -5 0 -14 -27 -21 -60 -7 -33 -17
-60 -21 -60 -5 0 -9 -45 -9 -100 0 -55 4 -100 9 -100 5 0 12 -18 16 -41 4 -22
13 -43 21 -46 8 -3 14 -11 14 -18 0 -8 11 -22 25 -33 14 -11 25 -25 25 -31 0
-6 3 -11 8 -11 4 0 20 -11 36 -25 16 -14 35 -25 43 -25 7 0 16 -6 19 -14 3 -7
33 -21 67 -32 34 -10 64 -21 67 -25 3 -4 27 -9 53 -11 l48 -3 2 423 2 422 -60
-1 c-33 0 -84 -7 -114 -15z"/>
<path d="M6320 3315 l0 -475 24 0 c42 0 181 21 186 29 3 3 25 15 50 26 47 21
165 127 153 138 -3 4 -1 7 5 7 6 0 23 25 37 56 22 47 28 75 32 169 6 105 -9
245 -26 245 -3 0 -12 14 -20 31 -18 40 -111 133 -151 149 -16 7 -30 15 -30 19
0 4 -31 15 -70 26 -38 11 -70 22 -70 26 0 7 -86 29 -110 29 -6 0 -10 -181 -10
-475z"/>
<path d="M3254 1591 c-2 -2 -4 -141 -4 -308 l0 -303 2985 0 2985 0 0 305 c0
168 -3 305 -7 305 -656 3 -5956 4 -5959 1z"/>
<path d="M2400 340 l0 -310 3835 0 3835 0 0 310 0 310 -3835 0 -3835 0 0 -310z"/>
</g>
</svg>
