<svg version="1.0" xmlns="http://www.w3.org/2000/svg"
 width="200" height="150" viewBox="0 0 1250 800"
 preserveAspectRatio="xMidYMid meet">

<g transform="translate(0.000000,797.000000) scale(0.100000,-0.100000)"
fill="#3c6186" stroke="none">
<path d="M4915 7913 c-185 -21 -482 -79 -650 -125 -154 -43 -420 -133 -505
-170 -19 -8 -64 -28 -100 -43 -103 -44 -373 -180 -402 -202 -7 -6 -38 -23 -68
-39 -30 -16 -59 -32 -65 -36 -5 -5 -59 -41 -120 -81 -211 -140 -223 -151 -167
-162 26 -6 63 -22 187 -83 116 -57 288 -150 345 -187 125 -80 215 -139 224
-147 6 -5 43 -32 82 -61 40 -29 116 -91 170 -138 144 -126 484 -478 484 -500
0 -5 9 -13 20 -19 11 -6 20 -17 20 -25 0 -8 4 -15 9 -15 5 0 33 -33 62 -72 30
-40 60 -80 68 -88 8 -8 30 -39 49 -70 20 -30 40 -58 46 -62 6 -4 11 -11 11
-15 0 -4 20 -37 44 -73 24 -36 55 -87 69 -115 14 -27 29 -52 32 -55 9 -7 150
-296 150 -308 0 -18 32 -72 48 -81 9 -5 40 -12 67 -16 54 -8 271 -62 375 -93
92 -29 142 -48 223 -87 l72 -34 113 112 c61 61 112 115 112 118 0 4 -19 16
-42 28 -24 12 -68 35 -98 52 -30 16 -71 36 -90 44 -171 65 -287 100 -466 136
l-111 23 -16 41 c-9 22 -17 44 -17 48 0 10 -76 175 -91 197 -5 8 -16 30 -25
49 -8 19 -22 40 -30 48 -8 8 -14 20 -14 27 0 7 -8 21 -18 32 -10 10 -32 44
-50 75 -18 31 -39 62 -47 69 -8 7 -15 16 -15 21 0 5 -6 17 -14 26 -8 10 -31
38 -50 63 -20 25 -43 52 -51 61 -8 9 -15 18 -15 20 0 9 -105 124 -240 262
-128 132 -331 306 -413 356 -21 13 -43 28 -50 34 -6 7 -52 36 -102 65 -49 29
-97 57 -105 62 -27 17 -221 110 -228 110 -5 0 -26 9 -49 20 -104 50 -408 142
-511 155 -29 4 -51 9 -49 11 8 8 169 46 227 54 308 43 414 48 570 30 352 -42
548 -100 835 -246 276 -140 539 -355 708 -578 34 -45 65 -82 69 -84 4 -2 8
-10 8 -18 0 -8 4 -14 8 -14 5 0 19 -19 33 -41 13 -23 32 -53 41 -68 25 -37 48
-80 112 -208 l57 -113 42 0 c81 0 363 -57 477 -96 25 -9 59 -19 75 -23 17 -5
44 -15 62 -24 18 -10 37 -17 44 -17 20 0 295 -134 320 -156 8 -8 18 -14 22
-14 11 0 158 -98 256 -172 175 -132 412 -388 527 -569 14 -23 31 -47 36 -53
14 -16 71 -120 114 -206 34 -70 49 -103 87 -190 20 -44 57 -149 62 -175 3 -11
13 -49 24 -85 30 -102 61 -252 61 -291 0 -48 10 -99 21 -99 20 0 234 -131 324
-200 121 -91 415 -379 415 -407 0 -4 9 -14 20 -21 12 -7 18 -17 15 -21 -3 -5
-2 -11 3 -13 11 -5 82 -107 82 -118 0 -6 4 -10 9 -10 5 0 17 -17 26 -37 10
-21 21 -40 25 -43 4 -3 13 -18 21 -35 9 -16 20 -39 27 -50 11 -20 66 -142 81
-180 5 -11 18 -45 30 -75 12 -30 25 -66 27 -80 3 -14 13 -50 24 -80 64 -189
102 -533 81 -735 -24 -232 -30 -275 -47 -335 -12 -44 -14 -64 -6 -72 11 -11
42 11 42 30 0 5 7 15 15 22 9 7 23 28 31 46 9 19 20 34 25 34 5 0 9 4 9 9 0
10 60 112 71 121 6 5 10 12 91 170 30 58 63 121 73 140 11 19 20 37 20 40 1 3
10 23 22 45 11 22 21 43 22 47 1 5 10 28 21 53 11 25 29 65 40 90 11 25 20 51
20 58 0 7 9 32 20 55 11 22 20 45 20 51 0 5 9 30 20 56 11 26 22 60 25 77 3
17 13 47 21 67 8 20 17 47 19 61 2 14 12 54 23 90 40 131 93 416 119 640 25
219 26 742 0 955 -20 168 -49 336 -80 470 -11 50 -21 97 -22 105 -1 8 -10 42
-20 75 -10 33 -19 67 -20 75 -1 8 -10 38 -19 65 -10 28 -20 59 -22 70 -2 11
-12 43 -22 70 -11 28 -25 66 -31 85 -7 19 -22 58 -33 85 -11 28 -27 68 -35 90
-8 22 -30 73 -48 113 -19 39 -35 74 -35 77 0 12 -74 150 -82 153 -4 2 -8 10
-8 19 0 8 -8 27 -19 41 -10 15 -31 52 -46 82 -15 29 -35 65 -45 80 -31 46 -54
85 -51 89 1 2 -2 7 -7 10 -5 3 -22 26 -37 51 -15 25 -31 47 -34 50 -6 5 -73
103 -96 139 -5 9 -13 18 -16 21 -4 3 -27 32 -52 65 -24 33 -95 118 -156 190
-61 71 -111 132 -111 135 0 3 117 122 260 264 l260 259 0 52 c0 52 -16 115
-29 115 -4 0 -18 10 -31 22 -17 16 -40 23 -83 26 l-59 5 -269 -269 -269 -269
-42 41 c-24 22 -70 63 -103 90 -32 27 -67 56 -76 65 -21 21 -231 177 -288 215
-24 16 -69 46 -100 66 -31 21 -76 49 -101 63 -25 14 -72 41 -105 60 -33 19
-130 69 -215 111 -195 96 -171 85 -270 126 -363 151 -770 255 -1190 303 -177
20 -788 19 -965 -2z"/>
<path d="M4702 3108 c-1024 -1025 -1870 -1877 -1880 -1893 -38 -63 -84 -151
-87 -166 -2 -9 -13 -46 -24 -84 -29 -93 -29 -262 -1 -360 11 -39 22 -78 25
-89 6 -26 65 -137 81 -154 8 -7 14 -18 14 -23 0 -15 118 -135 163 -166 23 -15
44 -30 47 -34 16 -17 110 -61 187 -85 79 -26 102 -29 223 -29 121 0 144 3 222
28 112 37 178 73 264 145 100 84 117 113 111 189 -4 54 -8 65 -38 91 -68 61
-151 54 -236 -20 -32 -28 -60 -54 -63 -58 -10 -15 -117 -58 -168 -69 -172 -36
-355 33 -453 171 -19 26 -37 47 -41 48 -5 0 -8 6 -8 13 0 7 -10 33 -22 58 -19
37 -22 61 -22 159 l-1 115 42 85 43 85 1841 1840 1842 1840 5 46 c10 102 -46
170 -147 177 l-56 3 -1863 -1863z"/>
<path d="M6410 3271 l0 -129 -47 -6 c-27 -4 -82 -16 -123 -28 -183 -50 -308
-116 -404 -212 -57 -57 -99 -106 -90 -106 3 0 -4 -12 -16 -27 -29 -37 -53 -95
-85 -203 -25 -84 -27 -108 -28 -254 0 -158 1 -162 31 -233 17 -40 35 -78 41
-85 6 -7 30 -38 54 -68 99 -126 273 -228 532 -310 82 -27 145 -43 380 -102 44
-10 103 -28 130 -39 28 -10 56 -19 62 -19 7 0 27 -9 45 -20 18 -11 41 -20 51
-20 9 0 17 -4 17 -8 0 -5 18 -17 41 -27 53 -24 115 -87 141 -144 18 -39 20
-58 15 -136 -7 -126 -35 -200 -100 -269 -63 -66 -132 -101 -234 -121 -266 -52
-513 -6 -662 121 -35 30 -115 142 -112 158 0 3 -8 22 -19 42 -12 19 -22 48
-24 62 -3 15 -11 59 -20 97 -9 39 -16 73 -16 78 0 11 -71 -7 -275 -67 -44 -13
-102 -29 -129 -36 l-48 -13 7 -41 c4 -23 8 -51 9 -63 3 -23 39 -126 61 -178 8
-17 18 -41 24 -55 28 -67 120 -196 183 -256 129 -125 293 -208 505 -256 l103
-23 0 -127 0 -128 155 0 155 0 0 130 0 130 56 0 c72 0 250 41 344 80 120 49
191 94 267 168 110 107 178 228 219 392 29 113 27 312 -4 405 -29 88 -59 154
-85 183 -11 12 -18 22 -15 22 13 0 -110 124 -156 158 -28 20 -60 45 -70 54
-11 10 -25 18 -32 18 -6 0 -22 8 -35 18 -13 10 -53 31 -89 46 -36 15 -78 34
-95 41 -67 29 -329 105 -360 105 -11 0 -54 9 -95 21 -307 86 -448 168 -486
282 -15 45 -16 61 -5 125 16 94 66 182 124 220 23 15 44 30 45 35 2 4 9 7 17
7 7 0 32 9 56 19 72 31 251 47 356 31 194 -28 300 -122 393 -345 4 -11 13 -46
20 -78 l12 -58 31 6 c18 4 68 17 112 30 99 29 205 59 267 75 l48 13 -6 41 c-8
51 -49 187 -69 226 -9 17 -15 31 -13 32 1 2 -11 22 -25 45 -15 24 -27 45 -27
48 0 12 -67 91 -129 153 -62 61 -147 118 -245 162 -57 26 -258 80 -298 80
l-28 0 0 130 0 130 -155 0 -155 0 0 -129z"/>
</g>
</svg>
