<svg version="1.0" xmlns="http://www.w3.org/2000/svg"
 width="200" height="150" viewBox="0 0 1250 800"
 preserveAspectRatio="xMidYMid meet">

<g transform="translate(0.000000,797.000000) scale(0.100000,-0.100000)"
fill="#3c6186" stroke="none">
<path d="M1838 7933 c-43 -2 -78 -8 -78 -13 0 -6 -27 -10 -59 -10 -33 0 -63
-4 -66 -10 -3 -5 -24 -10 -45 -10 -21 0 -42 -4 -45 -10 -3 -5 -21 -10 -40 -10
-19 0 -37 -4 -40 -10 -3 -5 -19 -10 -35 -10 -16 0 -31 -4 -34 -9 -4 -5 -29
-12 -56 -16 -28 -4 -50 -11 -50 -16 0 -5 -9 -9 -20 -9 -11 0 -20 -4 -20 -10 0
-5 -9 -10 -20 -10 -11 0 -20 -4 -20 -10 0 -5 -9 -10 -20 -10 -11 0 -20 -4 -20
-10 0 -5 -9 -10 -20 -10 -11 0 -20 -4 -20 -10 0 -5 -7 -10 -15 -10 -8 0 -15
-4 -15 -10 0 -5 -7 -10 -15 -10 -8 0 -15 -4 -15 -9 0 -5 -10 -13 -22 -17 -13
-4 -30 -15 -39 -25 -9 -11 -21 -19 -28 -19 -6 0 -11 -5 -11 -10 0 -6 -29 -39
-65 -73 -36 -35 -65 -68 -65 -75 0 -7 -4 -12 -10 -12 -5 0 -10 -9 -10 -21 0
-11 -4 -17 -10 -14 -6 3 -7 -1 -4 -9 3 -9 1 -16 -5 -16 -6 0 -11 -9 -11 -19 0
-11 -4 -23 -10 -26 -5 -3 -10 -15 -10 -26 0 -10 -4 -19 -10 -19 -5 0 -10 -18
-10 -40 0 -22 -4 -40 -9 -40 -14 0 -22 -197 -11 -290 15 -137 22 -170 31 -170
5 0 9 -15 9 -34 0 -19 4 -37 9 -40 9 -6 25 -64 22 -83 -1 -7 3 -13 9 -13 5 0
10 -13 10 -30 0 -16 5 -30 10 -30 6 0 10 -9 10 -19 0 -11 4 -21 8 -23 4 -1 28
-43 51 -93 24 -49 48 -91 52 -93 4 -2 5 -10 2 -18 -3 -8 0 -14 6 -14 6 0 11
-8 11 -18 0 -10 9 -24 20 -32 11 -8 20 -22 20 -32 0 -10 5 -18 10 -18 6 0 10
-6 10 -13 0 -7 9 -19 20 -27 11 -8 20 -21 20 -30 0 -9 9 -22 19 -30 11 -7 18
-17 16 -21 -3 -3 4 -17 15 -29 11 -13 20 -27 20 -33 0 -5 14 -22 30 -37 17
-15 30 -34 30 -40 0 -7 8 -20 18 -29 9 -9 29 -32 44 -51 14 -19 35 -45 47 -57
12 -12 21 -28 21 -35 0 -12 9 -21 45 -46 6 -4 22 -23 35 -42 43 -61 86 -110
98 -110 4 0 15 -12 24 -27 9 -16 32 -44 51 -65 20 -20 33 -39 30 -42 -4 -3 -1
-6 5 -6 15 0 152 -136 145 -144 -4 -3 -1 -6 5 -6 15 0 152 -136 145 -144 -4
-3 -1 -6 5 -6 6 0 50 -38 97 -85 48 -47 91 -85 96 -85 5 0 37 -28 72 -62 34
-35 80 -76 102 -92 22 -17 42 -33 45 -37 3 -4 14 -8 24 -10 10 -2 24 -13 30
-23 15 -26 119 -126 131 -126 4 0 24 -18 45 -40 21 -22 43 -40 49 -40 6 0 11
-4 11 -10 0 -5 6 -10 13 -10 6 0 29 -16 49 -35 20 -19 40 -35 43 -35 4 0 20
-13 35 -30 15 -16 33 -30 39 -30 6 0 11 -4 11 -10 0 -5 6 -10 13 -10 8 0 24
-11 37 -25 13 -14 28 -25 35 -25 6 0 17 -9 25 -20 8 -11 20 -20 28 -20 7 0 10
-4 7 -10 -3 -6 1 -10 9 -10 9 0 16 -4 16 -10 0 -5 7 -10 17 -10 9 0 13 -3 10
-6 -4 -4 11 -16 33 -26 22 -11 40 -24 40 -29 0 -5 4 -9 10 -9 9 0 35 -19 65
-48 8 -6 17 -12 22 -12 5 0 15 -9 23 -20 8 -11 19 -20 26 -20 12 0 99 -64 125
-92 9 -10 22 -18 29 -18 7 0 20 -8 29 -17 9 -10 33 -26 53 -37 20 -10 46 -27
57 -37 11 -11 25 -19 31 -19 5 0 10 -4 10 -10 0 -5 7 -10 15 -10 8 0 15 -4 15
-10 0 -5 5 -10 11 -10 7 0 19 -8 28 -19 9 -10 25 -21 37 -25 11 -3 29 -14 40
-24 10 -9 33 -24 49 -32 17 -8 37 -23 46 -32 9 -10 21 -18 28 -18 6 0 11 -4
11 -10 0 -5 6 -10 14 -10 8 0 16 -3 18 -7 2 -5 20 -16 40 -27 20 -10 46 -27
57 -37 11 -11 26 -19 33 -19 8 0 20 -9 28 -20 8 -11 20 -20 27 -20 7 0 13 -4
13 -10 0 -5 9 -10 21 -10 11 0 18 -4 15 -9 -4 -5 7 -12 23 -16 15 -3 37 -14
47 -23 11 -9 33 -24 49 -32 17 -8 37 -23 46 -32 9 -10 24 -18 33 -18 9 0 16
-4 16 -10 0 -5 7 -10 15 -10 8 0 15 -3 15 -8 0 -4 20 -16 45 -27 25 -11 45
-23 45 -27 0 -5 7 -8 15 -8 8 0 15 -3 15 -8 0 -4 15 -14 33 -21 17 -8 39 -23
48 -33 9 -10 24 -18 33 -18 9 0 16 -3 16 -7 0 -5 29 -21 65 -38 36 -16 65 -33
65 -37 0 -5 7 -8 15 -8 8 0 15 -4 15 -10 0 -5 7 -10 15 -10 8 0 15 -4 15 -10
0 -5 9 -10 20 -10 11 0 20 -4 20 -10 0 -5 7 -10 15 -10 8 0 15 -4 15 -10 0 -5
9 -10 20 -10 11 0 20 -3 20 -7 0 -5 30 -21 65 -38 36 -16 65 -33 65 -37 0 -5
9 -8 20 -8 11 0 20 -4 20 -10 0 -5 7 -10 15 -10 8 0 15 -4 15 -10 0 -5 7 -10
15 -10 8 0 15 -4 15 -10 0 -5 9 -10 20 -10 11 0 20 -4 20 -10 0 -5 4 -10 10
-10 17 0 90 -34 90 -42 0 -5 9 -8 20 -8 11 0 20 -4 20 -10 0 -5 7 -10 15 -10
8 0 15 -4 15 -10 0 -5 9 -10 20 -10 11 0 20 -4 20 -10 0 -5 7 -10 15 -10 8 0
15 -4 15 -10 0 -5 9 -10 20 -10 11 0 20 -4 20 -9 0 -5 16 -12 35 -15 19 -4 35
-10 35 -14 0 -4 25 -18 55 -32 30 -14 55 -28 55 -32 0 -5 9 -8 20 -8 11 0 20
-4 20 -10 0 -5 9 -10 20 -10 11 0 20 -4 20 -10 0 -5 9 -10 20 -10 11 0 20 -4
20 -10 0 -5 16 -12 35 -16 19 -3 35 -9 35 -13 0 -3 25 -17 55 -31 30 -14 55
-28 55 -32 0 -5 9 -8 20 -8 11 0 20 -4 20 -10 0 -5 9 -10 20 -10 11 0 20 -4
20 -10 0 -5 9 -10 20 -10 11 0 20 -4 20 -10 0 -5 8 -10 18 -10 9 0 39 -11 66
-25 27 -14 55 -25 63 -25 7 0 13 -4 13 -10 0 -5 9 -10 20 -10 11 0 20 -4 20
-10 0 -5 9 -10 20 -10 11 0 20 -4 20 -10 0 -5 9 -10 20 -10 11 0 20 -4 20 -10
0 -5 9 -10 20 -10 11 0 20 -4 20 -10 0 -5 7 -10 16 -10 24 0 176 -69 182 -82
2 -5 12 -8 23 -8 10 0 19 -4 19 -10 0 -5 11 -10 25 -10 14 0 25 -4 25 -10 0
-5 12 -10 26 -10 14 0 23 -4 19 -10 -3 -5 4 -10 15 -10 20 0 68 -18 112 -41
10 -5 25 -9 33 -9 8 0 15 -4 15 -10 0 -5 9 -10 20 -10 11 0 20 -4 20 -10 0 -5
11 -10 25 -10 14 0 25 -4 25 -10 0 -5 9 -10 20 -10 11 0 20 -4 20 -10 0 -5 11
-10 25 -10 14 0 25 -4 25 -9 0 -5 16 -12 36 -16 20 -3 44 -10 53 -15 9 -4 30
-13 46 -20 17 -7 38 -16 47 -21 10 -5 25 -9 33 -9 8 0 15 -4 15 -10 0 -5 11
-10 25 -10 14 0 25 -4 25 -10 0 -5 9 -10 20 -10 11 0 20 -4 20 -10 0 -5 11
-10 25 -10 14 0 25 -4 25 -9 0 -5 20 -12 45 -15 24 -4 47 -11 50 -17 4 -5 17
-9 31 -9 13 0 24 -4 24 -10 0 -5 11 -10 25 -10 14 0 25 -4 25 -10 0 -5 11 -10
25 -10 14 0 25 -4 25 -10 0 -5 11 -10 25 -10 14 0 25 -4 25 -10 0 -5 14 -10
31 -10 17 0 28 -4 24 -10 -4 -6 7 -10 24 -10 17 0 31 -4 31 -10 0 -5 9 -10 20
-10 22 0 106 -26 132 -40 10 -6 27 -10 38 -10 11 0 20 -4 20 -10 0 -5 14 -10
30 -10 17 0 30 -4 30 -10 0 -5 11 -10 25 -10 14 0 25 -4 25 -10 0 -5 14 -10
30 -10 17 0 30 -4 30 -10 0 -5 14 -10 30 -10 17 0 30 -4 30 -10 0 -5 13 -10
29 -10 17 0 32 -4 35 -9 4 -5 29 -12 56 -16 27 -4 52 -11 56 -16 3 -5 16 -9
29 -9 13 0 27 -4 30 -10 3 -5 17 -10 30 -10 13 0 27 -4 30 -10 3 -5 19 -10 36
-10 16 0 29 -4 29 -10 0 -5 16 -10 35 -10 19 0 35 -4 35 -10 0 -5 14 -10 30
-10 17 0 30 -4 30 -10 0 -5 15 -10 34 -10 19 0 37 -4 40 -9 3 -5 33 -12 66
-16 33 -4 63 -11 66 -16 3 -5 18 -9 34 -9 16 0 32 -4 35 -10 3 -5 22 -10 41
-10 19 0 34 -4 34 -10 0 -5 18 -10 40 -10 22 0 40 -4 40 -10 0 -5 16 -10 35
-10 19 0 35 -4 35 -10 0 -5 18 -10 40 -10 22 0 40 -4 40 -10 0 -5 20 -10 45
-10 25 0 45 -4 45 -8 0 -5 39 -14 88 -20 153 -21 167 -24 177 -33 5 -5 31 -9
57 -9 26 0 48 -4 48 -10 0 -5 25 -10 55 -10 30 0 55 -4 55 -10 0 -6 27 -10 60
-10 33 0 60 -4 60 -10 0 -5 25 -10 56 -10 34 0 53 -4 49 -10 -4 -6 23 -10 74
-10 45 0 81 -4 81 -8 0 -5 15 -9 33 -10 17 0 147 -7 287 -14 140 -7 287 -13
325 -13 127 0 530 27 533 36 2 5 26 9 53 9 27 0 49 5 49 10 0 6 18 10 40 10
22 0 40 5 40 10 0 6 16 10 35 10 28 0 35 4 35 20 0 19 -7 20 -171 20 -111 0
-168 3 -164 10 4 6 -40 10 -125 10 -85 0 -129 4 -125 10 4 6 -23 10 -72 11
-75 0 -156 9 -293 30 -36 5 -87 12 -115 15 -27 3 -54 10 -59 15 -6 5 -29 9
-53 9 -24 0 -43 5 -43 10 0 6 -25 10 -55 10 -30 0 -55 5 -55 10 0 6 -18 10
-40 10 -22 0 -40 5 -40 10 0 6 -23 10 -51 10 -27 0 -48 4 -45 9 3 5 -30 12
-74 15 -44 4 -82 12 -85 17 -4 5 -21 9 -40 9 -19 0 -37 5 -40 10 -3 6 -22 10
-41 10 -19 0 -34 5 -34 10 0 6 -15 10 -34 10 -19 0 -38 5 -41 10 -3 6 -22 10
-41 10 -19 0 -34 5 -34 10 0 6 -16 10 -36 10 -21 0 -33 4 -29 10 4 6 -8 10
-29 10 -20 0 -36 4 -36 9 0 4 -20 11 -45 14 -26 2 -48 7 -52 10 -5 6 -3 9 52
71 19 22 35 44 35 49 0 5 12 20 27 33 16 13 24 24 20 24 -4 0 4 12 19 26 14
15 31 40 36 55 5 16 14 29 19 29 5 0 9 6 9 13 0 7 9 19 20 27 11 8 20 21 20
30 0 9 9 22 20 30 11 8 20 22 20 32 0 10 5 18 10 18 6 0 10 7 10 15 0 8 5 15
11 15 5 0 8 4 5 9 -3 5 1 12 10 15 9 3 14 13 11 20 -3 8 -3 16 1 18 10 4 72
107 72 119 0 5 5 9 10 9 6 0 10 9 10 20 0 11 5 20 10 20 6 0 10 9 10 20 0 11
3 20 8 20 10 0 32 51 26 61 -3 5 0 9 5 9 6 0 11 9 11 20 0 11 5 20 10 20 6 0
10 8 10 18 0 22 22 72 33 72 4 0 7 9 7 20 0 11 5 20 10 20 6 0 10 14 10 31 0
17 4 28 10 24 6 -3 10 3 10 14 0 11 5 23 10 26 6 3 10 17 10 31 0 13 4 24 9
24 5 0 12 17 16 38 7 44 28 108 38 118 4 4 7 18 7 30 0 13 4 26 10 29 5 3 10
19 10 36 0 16 5 29 10 29 6 0 10 14 10 30 0 17 5 30 10 30 6 0 10 15 10 34 0
19 5 38 10 41 6 3 10 27 10 52 0 26 3 43 8 39 4 -4 12 34 19 86 7 51 17 120
23 153 29 158 52 441 52 625 0 129 -15 358 -32 490 -5 41 -13 100 -16 130 -3
30 -10 60 -14 65 -4 6 -11 52 -15 103 -4 50 -11 92 -16 92 -5 0 -9 15 -9 34 0
19 -4 38 -10 41 -5 3 -10 22 -10 41 0 19 -4 34 -10 34 -5 0 -10 14 -10 30 0
17 -4 30 -10 30 -5 0 -10 16 -10 35 0 19 -4 35 -10 35 -5 0 -10 14 -10 30 0
17 -4 30 -10 30 -5 0 -10 14 -10 30 0 17 -4 30 -9 30 -5 0 -12 23 -16 50 -4
28 -11 50 -16 50 -5 0 -9 11 -9 25 0 14 -4 25 -10 25 -5 0 -10 11 -10 25 0 14
-4 25 -10 25 -5 0 -10 9 -10 20 0 11 -4 20 -10 20 -5 0 -10 14 -10 30 0 17 -4
30 -10 30 -5 0 -10 7 -10 15 0 8 -4 15 -10 15 -5 0 -10 9 -10 20 0 11 -4 20
-10 20 -5 0 -10 9 -10 20 0 11 -4 20 -9 20 -5 0 -7 9 -4 20 3 11 0 20 -6 20
-6 0 -11 9 -11 21 0 11 -4 17 -10 14 -5 -3 -10 3 -10 14 0 12 -4 21 -10 21 -5
0 -10 9 -10 20 0 11 -4 20 -10 20 -5 0 -10 9 -10 20 0 11 -4 20 -10 20 -5 0
-10 7 -10 15 0 8 -4 15 -10 15 -5 0 -10 9 -10 20 0 11 -4 20 -9 20 -5 0 -14
14 -20 30 -5 17 -15 30 -20 30 -6 0 -8 6 -5 13 2 7 -5 22 -16 34 -11 12 -20
27 -20 33 0 5 -4 10 -10 10 -5 0 -10 8 -10 18 0 10 -9 24 -20 32 -11 8 -20 21
-20 30 0 8 -9 21 -20 28 -12 7 -18 16 -16 21 3 5 -3 16 -14 26 -11 10 -20 25
-20 33 0 7 -14 27 -30 42 -17 15 -30 31 -30 34 0 3 -14 20 -30 38 -16 17 -30
36 -30 42 0 6 -9 18 -19 26 -11 7 -18 17 -15 21 2 4 -5 10 -16 14 -11 3 -20
10 -20 16 0 12 -24 41 -103 120 -37 37 -67 71 -67 75 0 4 -16 22 -35 39 -19
18 -32 35 -28 39 3 3 0 6 -7 6 -7 0 -26 16 -43 35 -16 19 -34 35 -39 35 -4 0
-28 19 -52 43 -60 59 -114 107 -122 107 -3 0 -23 18 -44 40 -21 22 -42 40 -47
40 -4 0 -20 11 -35 25 -15 14 -32 25 -38 25 -5 0 -10 5 -10 10 0 6 -6 10 -13
10 -7 0 -19 9 -27 20 -8 11 -19 20 -25 20 -6 0 -17 9 -25 20 -8 11 -18 20 -23
20 -4 0 -33 16 -63 35 -30 19 -57 35 -60 35 -2 0 -14 9 -26 20 -12 11 -28 20
-35 20 -7 0 -13 5 -13 10 0 6 -7 10 -15 10 -8 0 -15 5 -15 10 0 6 -7 10 -15
10 -8 0 -15 4 -15 9 0 5 -12 12 -27 16 -15 3 -38 14 -52 24 -14 10 -41 24 -58
32 -18 8 -33 17 -33 21 0 5 -9 8 -21 8 -11 0 -17 5 -14 10 3 6 -3 10 -14 10
-12 0 -21 5 -21 10 0 6 -9 10 -20 10 -11 0 -20 5 -20 10 0 6 -8 10 -17 10 -10
0 -31 7 -47 15 -15 8 -35 15 -42 15 -8 0 -14 5 -14 10 0 6 -11 10 -25 10 -14
0 -25 5 -25 10 0 6 -9 10 -20 10 -11 0 -20 5 -20 10 0 6 -11 10 -25 10 -14 0
-25 5 -25 10 0 6 -9 10 -20 10 -11 0 -20 5 -20 10 0 6 -13 10 -30 10 -16 0
-30 4 -30 9 0 5 -22 12 -50 16 -27 4 -52 11 -56 16 -3 5 -16 9 -29 9 -13 0
-27 5 -30 10 -3 6 -17 10 -30 10 -13 0 -27 5 -30 10 -3 6 -17 10 -31 10 -13 0
-24 5 -24 10 0 6 -18 10 -40 10 -22 0 -40 5 -40 10 0 6 -18 10 -41 10 -24 0
-38 4 -34 10 4 6 -12 10 -41 10 -26 0 -44 3 -40 8 7 6 -51 15 -239 37 -27 4
-59 10 -70 15 -31 14 -162 21 -532 26 -234 3 -343 1 -343 -6 0 -5 -22 -10 -50
-10 -42 0 -50 -3 -50 -18 0 -17 16 -20 178 -30 244 -16 305 -22 317 -33 5 -5
33 -9 62 -9 29 0 53 -4 53 -10 0 -5 20 -10 45 -10 25 0 45 -4 45 -10 0 -5 20
-10 45 -10 25 0 45 -4 45 -10 0 -5 18 -10 41 -10 24 0 38 -4 34 -10 -4 -6 10
-10 35 -10 25 0 39 -4 35 -10 -4 -6 7 -10 27 -10 18 -1 51 -7 73 -15 22 -8 48
-15 58 -15 9 0 17 -4 17 -10 0 -5 11 -10 24 -10 14 0 28 -5 31 -10 3 -6 17
-10 31 -10 13 0 24 -4 24 -10 0 -5 11 -10 25 -10 14 0 25 -4 25 -10 0 -5 9
-10 20 -10 11 0 20 -4 20 -10 0 -5 11 -10 25 -10 14 0 25 -4 25 -9 0 -5 18
-12 40 -16 22 -4 40 -11 40 -16 0 -5 6 -9 13 -9 18 0 67 -24 67 -32 0 -5 9 -8
20 -8 11 0 20 -4 20 -10 0 -5 9 -10 20 -10 11 0 20 -4 20 -10 0 -5 9 -10 21
-10 11 0 17 -4 14 -10 -3 -5 3 -10 14 -10 12 0 21 -4 21 -9 0 -5 16 -12 35
-15 19 -4 35 -11 35 -16 0 -6 7 -10 15 -10 8 0 15 -4 15 -10 0 -5 7 -10 15
-10 8 0 15 -3 15 -8 0 -4 15 -14 33 -21 17 -8 39 -23 48 -33 9 -10 24 -18 33
-18 10 0 15 -4 12 -9 -3 -5 6 -12 20 -15 14 -4 35 -16 47 -26 11 -11 26 -20
32 -20 6 0 17 -9 25 -20 8 -11 20 -20 27 -20 7 0 13 -4 13 -10 0 -5 7 -10 16
-10 8 0 12 -4 9 -10 -3 -5 1 -10 10 -10 9 0 14 -4 11 -9 -3 -5 6 -12 21 -16
14 -3 38 -19 54 -36 15 -16 30 -29 33 -29 4 0 26 -19 51 -42 24 -24 56 -52 71
-63 35 -26 253 -244 281 -281 12 -16 39 -47 60 -70 21 -22 39 -47 41 -54 2 -8
13 -21 25 -30 30 -22 31 -22 45 -51 8 -15 25 -38 38 -52 13 -14 24 -31 24 -36
0 -6 9 -16 20 -23 11 -7 20 -20 20 -28 0 -9 9 -22 20 -30 11 -8 20 -22 20 -32
0 -10 4 -18 9 -18 5 0 13 -10 17 -22 4 -13 15 -30 25 -39 11 -9 19 -24 19 -33
0 -9 5 -16 10 -16 6 0 10 -8 10 -18 0 -10 9 -24 20 -32 11 -8 20 -20 20 -27 0
-7 5 -13 10 -13 6 0 10 -9 10 -20 0 -11 5 -20 11 -20 6 0 8 -9 4 -20 -3 -11
-2 -20 2 -20 5 0 15 -16 23 -35 8 -19 17 -35 22 -35 4 0 8 -9 8 -20 0 -11 5
-20 10 -20 6 0 10 -9 10 -20 0 -11 5 -20 10 -20 6 0 10 -9 10 -20 0 -11 5 -20
10 -20 6 0 10 -7 10 -15 0 -8 5 -15 10 -15 6 0 10 -9 10 -20 0 -11 4 -20 9
-20 4 0 6 -12 3 -26 -3 -19 -1 -25 7 -20 7 5 11 -1 11 -14 0 -11 4 -29 10 -40
6 -11 15 -29 20 -40 5 -11 10 -27 10 -35 0 -8 5 -15 10 -15 6 0 10 -13 10 -30
0 -16 5 -30 10 -30 6 0 10 -11 10 -25 0 -14 5 -25 10 -25 6 0 10 -13 10 -30 0
-16 5 -30 10 -30 6 0 10 -11 10 -24 0 -14 4 -27 8 -30 5 -3 7 -19 4 -36 -2
-18 0 -30 7 -30 6 0 11 -13 11 -29 0 -17 5 -33 10 -36 6 -3 10 -22 10 -41 0
-19 5 -34 10 -34 6 0 10 -20 10 -45 0 -25 5 -45 10 -45 6 0 10 -20 10 -44 0
-25 5 -48 10 -51 6 -3 10 -28 10 -54 0 -26 4 -51 9 -56 5 -6 12 -41 15 -80 3
-38 10 -122 15 -185 18 -217 10 -536 -20 -735 -5 -38 -12 -96 -15 -127 -3 -32
-10 -58 -15 -58 -5 0 -9 -20 -9 -44 0 -25 -4 -48 -10 -51 -5 -3 -10 -22 -10
-41 0 -19 -4 -34 -10 -34 -5 0 -10 -18 -10 -40 0 -22 -4 -40 -10 -40 -5 0 -10
-15 -10 -34 0 -19 -5 -38 -11 -42 -6 -3 -9 -17 -6 -30 2 -13 0 -24 -4 -24 -5
0 -9 -13 -9 -29 0 -17 -4 -33 -10 -36 -5 -3 -10 -15 -10 -26 0 -10 -4 -19 -10
-19 -5 0 -10 -11 -10 -25 0 -14 -5 -35 -12 -48 -24 -48 -28 -57 -28 -77 0 -11
-4 -20 -10 -20 -5 0 -10 -9 -10 -20 0 -11 -4 -20 -10 -20 -5 0 -10 -11 -10
-24 0 -14 -5 -28 -11 -31 -6 -4 -8 -13 -5 -21 3 -8 1 -14 -4 -14 -6 0 -10 -9
-10 -20 0 -11 -4 -20 -10 -20 -5 0 -10 -9 -10 -19 0 -11 -4 -23 -10 -26 -5 -3
-10 -15 -10 -26 0 -10 -4 -19 -10 -19 -5 0 -10 -9 -10 -20 0 -11 -4 -20 -10
-20 -5 0 -10 -9 -10 -20 0 -11 -4 -20 -10 -20 -5 0 -10 -9 -10 -21 0 -11 -4
-17 -10 -14 -5 3 -10 -3 -10 -14 0 -12 -5 -21 -11 -21 -5 0 -7 -4 -4 -10 3 -5
1 -10 -4 -10 -6 0 -11 -9 -11 -20 0 -11 -4 -20 -10 -20 -5 0 -10 -9 -10 -20 0
-11 -4 -20 -10 -20 -5 0 -10 -6 -10 -13 0 -7 -9 -19 -20 -27 -11 -8 -20 -22
-20 -32 0 -10 -4 -18 -10 -18 -5 0 -10 -7 -10 -16 0 -14 -12 -32 -60 -91 -6
-7 -10 -17 -10 -24 0 -6 -13 -24 -30 -39 -16 -15 -30 -33 -30 -39 0 -6 -8 -19
-17 -29 -10 -10 -25 -29 -33 -42 -8 -12 -25 -33 -37 -46 -13 -13 -23 -27 -23
-32 0 -5 -17 -25 -38 -43 -21 -19 -51 -55 -67 -81 -16 -26 -38 -51 -50 -56
-20 -8 -85 5 -101 20 -4 5 -16 8 -26 8 -10 0 -27 5 -38 10 -11 6 -29 15 -40
20 -11 6 -27 10 -35 10 -8 0 -15 5 -15 10 0 6 -10 10 -22 10 -19 0 -17 4 18
35 56 49 93 87 139 141 22 26 56 64 75 84 52 56 69 78 64 83 -2 2 2 10 11 17
8 7 15 19 15 26 0 27 -37 13 -71 -27 -53 -63 -243 -249 -254 -249 -3 0 -22
-16 -42 -35 -36 -34 -75 -45 -88 -25 -3 6 -14 10 -23 10 -9 0 -30 7 -46 15
-15 8 -37 15 -47 15 -11 0 -19 5 -19 10 0 6 -9 10 -19 10 -11 0 -23 5 -26 10
-3 6 -15 10 -26 10 -10 0 -19 5 -19 10 0 6 -11 10 -25 10 -14 0 -25 5 -25 10
0 6 -9 10 -20 10 -11 0 -20 5 -20 10 0 6 -11 10 -25 10 -14 0 -25 4 -25 9 0 5
-18 12 -40 16 -22 4 -42 11 -46 16 -3 5 -14 9 -25 9 -10 0 -19 5 -19 10 0 6
-9 10 -20 10 -11 0 -20 5 -20 10 0 6 -9 10 -20 10 -11 0 -20 5 -20 10 0 6 -11
10 -25 10 -14 0 -25 5 -25 10 0 6 -9 10 -20 10 -11 0 -20 5 -20 10 0 6 -9 10
-20 10 -11 0 -20 5 -20 10 0 6 -10 10 -22 10 -13 0 -54 16 -92 35 -39 19 -76
35 -83 35 -7 0 -13 5 -13 10 0 6 -9 10 -20 10 -11 0 -20 5 -20 10 0 6 -9 10
-20 10 -11 0 -20 5 -20 10 0 6 -9 10 -20 10 -11 0 -20 5 -20 10 0 6 -7 10 -17
10 -9 0 -39 11 -67 24 -28 13 -59 27 -70 30 -18 6 -18 7 3 25 11 10 21 26 21
35 0 9 4 16 8 16 5 0 14 16 22 35 8 19 17 35 22 35 4 0 8 9 8 20 0 11 5 20 10
20 6 0 10 9 10 19 0 11 7 27 16 35 8 9 16 25 17 36 1 11 5 20 9 20 4 0 8 9 8
20 0 11 5 20 10 20 6 0 10 9 10 19 0 11 3 21 8 23 12 5 52 88 52 108 0 25 22
41 40 30 22 -14 258 -11 305 4 26 9 35 15 25 19 -14 6 -164 24 -282 34 -32 3
-58 9 -58 14 0 5 4 9 8 9 4 0 14 21 21 48 8 26 17 52 20 57 13 21 31 81 31
103 0 12 5 22 10 22 6 0 10 11 10 24 0 14 5 28 10 31 6 3 10 17 10 30 0 13 5
27 10 30 6 3 10 21 10 40 0 19 5 37 11 41 6 3 9 20 7 36 -3 16 -1 31 4 34 4 3
8 20 8 38 0 17 4 36 9 41 5 6 11 28 14 50 3 22 11 63 17 90 7 28 14 78 17 113
3 34 9 62 14 62 5 0 9 32 9 70 0 40 4 70 10 70 6 0 10 27 10 61 0 39 4 58 10
54 6 -4 90 -4 185 0 138 6 175 11 175 21 0 10 -16 14 -57 14 -87 0 -313 23
-313 32 0 4 5 8 10 8 6 0 10 70 10 191 0 124 3 188 10 184 6 -4 10 43 10 135
0 92 -4 139 -10 135 -6 -4 -10 29 -10 91 l0 97 48 -7 c26 -3 129 -9 230 -12
l182 -7 0 25 c0 24 -4 26 -62 31 -35 4 -101 11 -148 16 -47 6 -112 13 -145 16
-110 11 -105 7 -105 81 0 41 -4 63 -10 59 -6 -4 -10 32 -10 99 0 64 -4 106
-10 106 -6 0 -10 31 -10 73 0 40 -4 77 -9 83 -5 5 -12 36 -15 69 -2 33 -10 87
-16 120 -6 33 -14 84 -17 113 -2 28 -8 52 -13 52 -4 0 -10 26 -13 58 -3 31 -8
64 -12 73 -5 13 4 19 39 28 25 6 56 11 70 11 16 0 26 6 26 14 0 15 -31 20
-180 32 -41 3 -79 10 -85 15 -5 5 -37 9 -72 9 -35 0 -63 4 -63 10 0 6 -22 10
-50 10 -27 0 -50 5 -50 10 0 6 -22 10 -50 10 -27 0 -50 5 -50 10 0 6 -18 10
-41 10 -24 0 -38 4 -34 10 3 6 -2 10 -12 10 -16 0 -18 6 -15 35 2 19 8 35 13
35 5 0 9 18 9 40 0 22 5 40 10 40 6 0 10 16 10 35 0 19 5 35 10 35 6 0 10 14
10 30 0 17 5 30 10 30 6 0 10 15 10 34 0 19 4 37 9 40 7 5 17 51 23 113 1 8 6
9 12 4 6 -5 35 -12 63 -16 29 -4 55 -11 59 -16 3 -5 18 -9 35 -9 16 0 29 -4
29 -10 0 -5 11 -10 25 -10 14 0 25 -4 25 -10 0 -5 11 -10 25 -10 14 0 25 -4
25 -10 0 -5 11 -10 25 -10 14 0 25 -4 25 -10 0 -5 9 -10 20 -10 11 0 20 -4 20
-10 0 -5 11 -10 25 -10 14 0 25 -4 25 -10 0 -5 7 -10 17 -10 19 0 126 -51 131
-62 2 -4 10 -8 18 -8 8 0 14 -4 14 -10 0 -5 9 -10 20 -10 11 0 20 -4 20 -10 0
-5 7 -10 15 -10 8 0 15 -4 15 -10 0 -5 7 -10 15 -10 8 0 15 -4 15 -10 0 -5 9
-10 19 -10 11 0 26 -7 35 -15 8 -8 19 -15 25 -15 6 0 11 -4 11 -10 0 -5 7 -10
15 -10 8 0 15 -4 15 -10 0 -5 6 -10 13 -10 7 0 19 -9 27 -20 8 -11 21 -20 30
-20 9 0 22 -9 30 -20 8 -11 20 -20 26 -20 7 0 25 -12 42 -27 44 -41 72 -63 77
-63 3 0 21 -16 41 -35 19 -19 39 -35 43 -35 13 0 111 -98 111 -110 0 -5 7 -10
16 -10 8 0 12 -4 9 -10 -3 -5 -2 -10 4 -10 12 0 107 -94 131 -129 8 -11 22
-24 32 -27 9 -3 19 -13 23 -22 3 -10 21 -35 40 -55 19 -20 32 -37 28 -37 -3 0
4 -8 15 -19 12 -10 22 -22 22 -26 0 -4 14 -20 30 -35 16 -15 30 -33 30 -39 0
-7 11 -23 25 -37 14 -14 25 -30 25 -37 0 -7 9 -19 20 -27 11 -8 20 -21 20 -30
0 -9 9 -22 20 -30 11 -8 20 -22 20 -32 0 -9 9 -20 20 -23 11 -3 20 -14 20 -24
0 -10 7 -24 15 -31 8 -7 15 -21 15 -31 0 -11 5 -19 10 -19 6 0 10 -7 10 -15 0
-14 16 -37 48 -70 6 -8 12 -21 12 -29 0 -9 5 -16 10 -16 6 0 10 -9 10 -20 0
-11 4 -20 9 -20 10 0 24 -38 22 -57 -1 -7 3 -13 9 -13 5 0 10 -9 10 -20 0 -11
5 -20 10 -20 6 0 10 -8 10 -18 0 -22 22 -72 33 -72 4 0 7 -9 7 -20 0 -11 5
-20 10 -20 6 0 10 -13 10 -30 0 -16 3 -30 8 -30 10 0 32 -50 32 -72 0 -10 4
-18 9 -18 4 0 6 -11 4 -24 -3 -13 0 -27 6 -30 6 -4 11 -18 11 -32 0 -13 5 -24
10 -24 6 0 10 -15 10 -34 0 -19 5 -38 10 -41 6 -3 10 -17 10 -30 0 -13 5 -27
10 -30 6 -3 10 -24 10 -45 0 -21 5 -42 10 -45 6 -3 10 -26 10 -50 0 -24 5 -47
10 -50 6 -3 10 -26 10 -51 0 -41 2 -44 26 -44 25 0 26 2 21 48 -3 26 -11 110
-17 187 -6 77 -15 148 -20 157 -6 10 -10 38 -10 62 0 25 -5 48 -10 51 -5 3
-10 22 -10 41 0 19 -4 34 -10 34 -5 0 -10 18 -10 40 0 22 -4 40 -10 40 -5 0
-10 13 -10 29 0 17 -4 33 -10 36 -5 3 -10 19 -10 36 0 16 -4 29 -10 29 -5 0
-10 14 -10 30 0 17 -4 30 -10 30 -5 0 -10 11 -10 25 0 14 -5 25 -11 25 -6 0
-8 8 -4 19 3 11 -3 35 -15 55 -11 20 -20 43 -20 51 0 8 -4 15 -10 15 -5 0 -10
11 -10 25 0 14 -4 25 -10 25 -5 0 -10 9 -10 20 0 11 -4 20 -10 20 -5 0 -10 9
-10 19 0 11 -3 21 -7 23 -5 2 -19 27 -32 56 -14 28 -28 52 -33 52 -5 0 -7 4
-4 9 6 10 -16 61 -26 61 -5 0 -8 8 -8 18 0 10 -9 24 -20 32 -11 8 -20 22 -20
32 0 10 -4 18 -10 18 -5 0 -10 6 -10 13 0 8 -9 22 -20 32 -11 10 -22 33 -26
51 -3 19 -10 34 -15 34 -5 0 -9 6 -9 13 0 7 -9 23 -20 35 -11 12 -20 26 -20
32 0 5 -4 10 -10 10 -5 0 -10 8 -10 18 0 10 -9 24 -20 32 -11 8 -20 22 -20 32
0 10 -3 18 -8 18 -4 0 -16 16 -26 35 -11 19 -23 35 -28 35 -4 0 -8 8 -8 18 0
10 -9 24 -20 32 -11 8 -20 19 -20 25 0 5 -14 23 -30 38 -17 16 -30 33 -30 38
0 6 -10 20 -22 33 -13 13 -32 36 -43 51 -11 16 -40 50 -65 75 -25 26 -52 57
-60 69 -8 11 -22 24 -32 27 -10 3 -18 10 -18 15 0 14 -55 69 -69 69 -5 0 -12
8 -15 18 -3 10 -16 24 -27 32 -12 8 -41 34 -65 58 -24 23 -46 42 -50 42 -3 0
-19 14 -34 30 -15 17 -31 30 -35 30 -9 0 -76 51 -96 72 -9 10 -21 18 -28 18
-6 0 -11 5 -11 10 0 6 -7 10 -16 10 -8 0 -12 5 -9 10 3 6 -1 10 -10 10 -9 0
-25 8 -36 19 -11 10 -37 27 -59 37 -22 10 -40 22 -40 27 0 4 -7 7 -15 7 -8 0
-15 5 -15 10 0 6 -7 10 -15 10 -8 0 -15 5 -15 10 0 6 -7 10 -15 10 -8 0 -15 5
-15 10 0 6 -7 10 -15 10 -8 0 -15 5 -15 10 0 6 -9 10 -19 10 -11 0 -22 4 -26
9 -3 5 -19 12 -35 16 -17 4 -30 11 -30 16 0 5 -9 9 -20 9 -11 0 -20 4 -20 8 0
5 -16 14 -35 22 -19 8 -35 17 -35 22 0 4 -9 8 -20 8 -11 0 -20 5 -20 10 0 6
-9 10 -20 10 -11 0 -20 5 -20 10 0 6 -11 10 -24 10 -14 0 -27 4 -30 9 -4 5
-24 12 -46 16 -22 4 -42 11 -46 16 -3 5 -14 9 -25 9 -10 0 -19 5 -19 10 0 6
-13 10 -30 10 -16 0 -30 5 -30 10 0 6 -11 10 -25 10 -14 0 -25 5 -25 10 0 6
-13 10 -30 10 -16 0 -30 5 -30 10 0 6 -16 10 -36 10 -21 0 -33 4 -29 10 4 6
-10 10 -34 10 -23 0 -41 4 -41 9 0 5 -34 12 -75 16 -41 4 -77 11 -81 16 -3 5
-27 9 -55 9 -27 0 -49 5 -49 10 0 6 -28 10 -65 10 -37 0 -65 4 -65 10 0 6 -35
10 -85 10 -49 0 -85 4 -85 10 0 6 -10 6 -27 -1 -19 -7 -29 -7 -31 0 -5 14
-352 15 -352 2 0 -5 -50 -10 -112 -10 -61 -1 -117 -6 -122 -10 -6 -5 -33 -11
-61 -14 -27 -3 -75 -10 -105 -16 -30 -6 -90 -16 -132 -23 -42 -7 -80 -16 -84
-20 -4 -5 -22 -8 -41 -8 -18 0 -33 -4 -33 -10 0 -5 -16 -10 -35 -10 -19 0 -35
-4 -35 -10 0 -5 -13 -10 -30 -10 -16 0 -30 -4 -30 -10 0 -5 -11 -10 -25 -10
-14 0 -25 -4 -25 -10 0 -5 -9 -10 -20 -10 -11 0 -29 -4 -40 -10 -11 -5 -28
-14 -39 -19 -10 -5 -35 -13 -55 -16 -20 -4 -39 -11 -42 -16 -3 -5 -14 -9 -25
-9 -10 0 -19 -4 -19 -10 0 -5 -11 -10 -25 -10 -14 0 -25 -4 -25 -10 0 -5 -9
-10 -19 -10 -11 0 -21 -3 -23 -8 -1 -4 -48 -30 -103 -57 -55 -27 -101 -53
-103 -57 -2 -4 -13 -8 -23 -8 -11 0 -17 -4 -14 -10 3 -5 -3 -10 -14 -10 -12 0
-21 -4 -21 -10 0 -5 -7 -10 -15 -10 -8 0 -15 -4 -15 -10 0 -5 -7 -10 -15 -10
-8 0 -15 -4 -15 -10 0 -5 -6 -10 -13 -10 -8 0 -22 -9 -31 -19 -10 -11 -28 -22
-42 -25 -13 -4 -24 -11 -24 -16 0 -6 -9 -10 -21 -10 -11 0 -17 -4 -14 -10 3
-5 0 -10 -7 -10 -8 0 -20 -9 -28 -20 -8 -11 -18 -20 -23 -20 -4 0 -22 -14 -40
-30 -18 -17 -40 -33 -51 -36 -10 -3 -38 -25 -61 -48 -23 -22 -59 -54 -80 -71
-20 -16 -51 -45 -68 -63 -39 -40 -109 -110 -139 -139 -50 -48 -88 -92 -88
-100 0 -5 -18 -25 -40 -44 -22 -19 -40 -40 -40 -47 0 -7 -13 -27 -30 -45 -16
-18 -30 -35 -30 -39 0 -4 -11 -18 -25 -32 -14 -14 -25 -31 -25 -38 0 -8 -9
-20 -20 -28 -11 -8 -20 -21 -20 -30 0 -8 -9 -21 -20 -28 -11 -7 -20 -19 -20
-27 0 -8 -9 -23 -19 -32 -11 -9 -17 -22 -14 -29 3 -8 0 -14 -6 -14 -6 0 -11
-6 -11 -13 0 -8 -9 -22 -20 -32 -11 -10 -20 -24 -20 -32 0 -7 -4 -13 -10 -13
-5 0 -10 -9 -10 -20 0 -11 -4 -20 -10 -20 -5 0 -10 -9 -10 -20 0 -11 -4 -20
-10 -20 -5 0 -10 -7 -10 -15 0 -8 -4 -15 -9 -15 -5 0 -11 -10 -14 -22 -7 -31
-31 -92 -38 -98 -3 -3 -12 -20 -20 -37 -8 -18 -17 -33 -21 -33 -5 0 -8 -13 -8
-30 0 -16 -4 -30 -10 -30 -5 0 -10 -9 -10 -20 0 -11 -4 -20 -10 -20 -5 0 -10
-11 -10 -25 0 -14 -4 -25 -10 -25 -5 0 -10 -12 -11 -27 0 -16 -4 -36 -8 -46
-6 -16 -11 -13 -36 25 -30 42 -84 98 -97 98 -4 0 -9 8 -12 18 -3 10 -22 35
-41 55 -19 20 -33 37 -30 37 5 0 -14 24 -62 78 -18 20 -33 41 -33 47 0 6 -9
17 -19 25 -11 7 -18 17 -15 22 3 4 0 8 -5 8 -6 0 -11 6 -11 13 0 7 -9 19 -20
27 -11 8 -20 21 -20 29 0 7 -8 21 -18 30 -19 18 -56 72 -57 83 0 4 -8 17 -17
28 -10 11 -18 26 -18 33 0 7 -9 19 -20 27 -11 8 -20 20 -20 27 0 7 -4 13 -10
13 -5 0 -10 9 -10 20 0 11 -4 20 -10 20 -5 0 -10 9 -10 20 0 11 -4 20 -10 20
-5 0 -10 9 -10 20 0 11 -5 20 -11 20 -5 0 -8 4 -4 9 3 5 1 12 -5 16 -5 3 -10
15 -10 26 0 10 -4 19 -10 19 -5 0 -10 9 -10 20 0 11 -4 20 -10 20 -5 0 -10 9
-10 20 0 11 -4 20 -10 20 -5 0 -10 11 -10 25 0 14 -4 25 -10 25 -5 0 -10 14
-10 30 0 17 -4 30 -10 30 -5 0 -10 14 -10 30 0 17 -4 30 -10 30 -5 0 -10 13
-10 28 0 16 -3 32 -7 36 -4 4 -6 24 -4 45 1 22 -2 42 -8 46 -15 9 -15 251 0
261 6 3 9 19 7 35 -3 16 -1 29 4 29 4 0 8 14 8 30 0 17 5 30 10 30 6 0 10 9
10 20 0 24 18 58 43 81 9 9 17 22 17 28 0 7 6 19 13 26 6 8 25 30 41 49 15 20
35 36 43 36 8 0 11 5 8 10 -3 6 -1 10 5 10 7 0 25 14 40 30 15 17 31 30 34 30
4 0 16 9 28 20 12 11 28 20 35 20 7 0 13 4 13 10 0 5 16 12 35 16 19 3 35 10
35 15 0 5 9 9 20 9 11 0 20 5 20 10 0 6 11 10 25 10 14 0 25 5 25 10 0 6 14
10 30 10 17 0 30 5 30 10 0 6 11 10 24 10 14 0 28 5 31 10 3 6 19 10 35 10 16
0 32 5 35 10 3 6 22 10 41 10 20 0 44 4 54 10 10 5 70 13 134 16 64 4 116 11
116 16 0 4 146 8 325 8 179 0 325 -4 325 -8 0 -5 73 -12 161 -16 89 -4 170
-11 180 -16 10 -6 42 -10 73 -10 30 0 58 -4 61 -10 3 -5 30 -10 60 -10 30 0
57 -4 60 -10 3 -5 28 -10 55 -10 27 0 52 -4 55 -10 3 -5 28 -10 56 -10 27 0
49 -4 49 -10 0 -5 20 -10 45 -10 25 0 45 -4 45 -10 0 -15 72 -12 92 4 22 16
23 26 3 26 -8 0 -15 5 -15 10 0 6 -13 10 -30 10 -16 0 -30 5 -30 10 0 6 -13
10 -30 10 -16 0 -30 5 -30 10 0 6 -16 10 -36 10 -19 0 -33 4 -30 9 3 5 -21 11
-54 15 -33 4 -62 11 -65 16 -4 6 -19 10 -35 10 -16 0 -32 5 -35 10 -3 6 -17
10 -30 10 -13 0 -27 5 -30 10 -3 6 -19 10 -36 10 -16 0 -29 5 -29 10 0 6 -16
10 -35 10 -19 0 -35 5 -35 10 0 6 -16 10 -35 10 -19 0 -35 5 -35 10 0 6 -16
10 -35 10 -19 0 -35 4 -35 9 0 4 -31 12 -70 15 -38 4 -72 11 -75 17 -4 5 -21
9 -40 9 -19 0 -37 5 -40 10 -3 6 -21 10 -40 10 -19 0 -37 5 -40 10 -3 6 -24
10 -46 10 -21 0 -39 5 -39 10 0 6 -18 10 -40 10 -22 0 -40 5 -40 10 0 6 -21
10 -46 10 -27 0 -43 4 -39 10 4 6 -13 10 -44 10 -28 0 -51 4 -51 8 0 8 -45 14
-255 38 -27 3 -54 10 -60 15 -5 5 -37 9 -72 9 -35 0 -63 4 -63 10 0 6 -28 10
-65 10 -37 0 -65 4 -65 10 0 6 -38 10 -94 10 -61 0 -96 4 -98 11 -4 11 -693
21 -860 12z m4298 -1084 c4 -8 9 -8 17 0 13 13 343 16 350 3 3 -4 49 -9 104
-10 54 -2 100 -8 101 -13 2 -5 33 -9 68 -9 41 0 63 -4 59 -10 -4 -6 10 -10 33
-10 35 0 39 -2 35 -20 -3 -11 -9 -20 -13 -20 -4 0 -10 -26 -14 -57 -7 -58 -21
-113 -37 -145 -5 -10 -9 -31 -9 -48 0 -16 -4 -30 -10 -30 -5 0 -10 -16 -10
-35 0 -19 -4 -35 -10 -35 -5 0 -10 -18 -10 -40 0 -36 -3 -40 -24 -40 -14 0
-28 5 -31 10 -3 6 -17 10 -30 10 -13 0 -27 5 -30 10 -3 6 -15 10 -26 10 -10 0
-19 5 -19 10 0 6 -11 10 -25 10 -14 0 -25 5 -25 10 0 6 -9 10 -20 10 -11 0
-20 5 -20 10 0 6 -9 10 -20 10 -11 0 -20 5 -20 10 0 6 -7 10 -15 10 -9 0 -33
11 -55 25 -22 14 -43 25 -48 25 -4 0 -14 9 -22 20 -8 11 -18 20 -22 20 -15 0
-120 107 -135 138 -8 17 -19 32 -24 32 -5 0 -9 9 -9 20 0 11 -4 20 -10 20 -5
0 -10 7 -10 15 0 8 -4 15 -10 15 -5 0 -10 14 -10 30 0 17 -4 30 -10 30 -5 0
-10 5 -10 10 0 13 17 13 26 -1z m-306 -69 c0 -11 5 -20 10 -20 6 0 10 -7 10
-15 0 -8 5 -15 10 -15 6 0 10 -9 10 -20 0 -11 5 -20 10 -20 6 0 10 -4 10 -10
0 -5 -7 -10 -15 -10 -8 0 -15 -4 -15 -10 0 -5 -6 -10 -13 -10 -7 0 -23 -9 -34
-20 -12 -10 -33 -22 -47 -26 -14 -3 -26 -10 -26 -15 0 -5 -6 -9 -13 -9 -7 0
-19 -9 -27 -20 -8 -11 -19 -20 -25 -20 -6 0 -20 -8 -31 -17 -36 -34 -93 -73
-103 -73 -6 0 -11 -4 -11 -10 0 -5 -5 -10 -11 -10 -6 0 -24 -13 -39 -30 -15
-16 -31 -30 -35 -30 -3 0 -23 -16 -43 -35 -20 -19 -43 -35 -49 -35 -7 0 -13
-4 -13 -10 0 -5 -4 -10 -9 -10 -5 0 -39 -29 -76 -65 -36 -36 -72 -65 -81 -65
-8 0 -12 -4 -9 -10 3 -5 -1 -10 -9 -10 -8 0 -18 -9 -21 -20 -6 -17 -8 -18 -21
-6 -8 8 -14 21 -14 30 0 8 -9 18 -20 21 -11 3 -20 13 -20 21 0 9 -7 22 -15 30
-8 9 -15 27 -15 40 0 14 -4 22 -10 19 -6 -4 -10 5 -10 19 0 14 -4 26 -10 26
-5 0 -10 14 -10 30 0 17 -4 30 -10 30 -5 0 -10 15 -10 33 0 18 -5 38 -11 44
-14 14 -2 53 17 53 8 0 14 5 14 10 0 6 7 10 15 10 8 0 15 5 15 10 0 6 9 10 19
10 11 0 21 4 23 8 5 11 112 62 131 62 10 0 17 5 17 10 0 6 9 10 21 10 11 0 17
5 14 10 -4 6 7 10 25 10 18 0 29 4 25 10 -4 6 5 10 19 10 14 0 26 5 26 10 0 6
11 10 25 10 14 0 25 5 25 10 0 6 14 10 30 10 17 0 30 5 30 10 0 6 9 10 20 10
11 0 28 4 38 10 18 9 106 28 180 37 23 3 42 9 42 14 0 5 23 9 50 9 43 0 50 -3
50 -20z m160 -228 c0 -13 75 -88 108 -107 17 -11 32 -23 32 -27 0 -4 6 -8 13
-8 7 0 19 -9 27 -20 8 -11 18 -20 23 -20 5 0 15 -7 23 -15 9 -8 11 -15 5 -15
-6 0 -11 -7 -11 -15 0 -8 -4 -15 -8 -15 -5 0 -19 -9 -32 -20 -13 -11 -20 -20
-16 -20 3 0 -13 -20 -36 -44 -71 -72 -118 -130 -118 -144 0 -7 -5 -10 -12 -6
-7 4 -8 3 -4 -5 5 -7 -5 -23 -23 -40 -17 -16 -31 -33 -31 -38 0 -5 -9 -15 -20
-23 -11 -8 -20 -21 -20 -30 0 -9 -9 -22 -20 -30 -11 -8 -20 -20 -20 -27 0 -7
-5 -13 -11 -13 -5 0 -8 -4 -5 -8 3 -5 -4 -15 -15 -22 -10 -8 -19 -22 -19 -32
0 -10 -4 -18 -9 -18 -5 0 -14 -13 -21 -30 -7 -16 -16 -30 -21 -30 -5 0 -9 -6
-9 -13 0 -7 -9 -19 -19 -27 -11 -7 -18 -17 -15 -22 3 -4 -4 -8 -16 -8 -12 0
-18 5 -15 10 3 6 -3 10 -14 10 -12 0 -21 5 -21 10 0 6 -7 10 -16 10 -18 0 -77
31 -82 43 -2 4 -10 7 -18 7 -8 0 -14 5 -14 10 0 6 -7 10 -15 10 -8 0 -15 5
-15 10 0 6 -7 10 -15 10 -8 0 -15 5 -15 10 0 6 -5 10 -11 10 -7 0 -19 8 -28
19 -9 10 -26 21 -38 25 -24 8 -143 120 -143 135 0 5 9 13 20 16 11 3 20 11 20
16 0 5 5 9 10 9 6 0 40 29 75 65 36 36 70 65 76 65 6 0 28 18 49 40 21 22 41
40 45 40 3 0 20 14 38 30 18 17 41 33 52 36 11 4 27 15 36 25 9 11 21 19 28
19 6 0 11 5 11 10 0 6 6 10 13 10 7 0 19 9 27 20 8 11 18 20 23 20 4 0 18 9
30 20 12 12 32 23 44 26 13 4 23 10 23 15 0 5 7 9 15 9 8 0 15 5 15 10 0 6 7
10 15 10 8 0 15 5 15 10 0 6 7 10 15 10 8 0 15 5 15 10 0 6 7 10 15 10 8 0 15
5 15 10 0 6 5 10 10 10 6 0 10 -3 10 -8z m360 -262 c0 -5 9 -10 20 -10 11 0
20 -4 20 -10 0 -5 11 -10 25 -10 14 0 25 -4 25 -10 0 -5 11 -10 25 -10 14 0
25 -4 25 -10 0 -5 14 -10 30 -10 17 0 30 -4 30 -10 0 -5 14 -10 30 -10 17 0
30 -4 30 -10 0 -5 18 -10 40 -10 22 0 40 -4 40 -10 0 -5 11 -10 25 -10 23 0
24 -2 15 -20 -6 -11 -13 -33 -15 -48 -3 -15 -9 -45 -16 -67 -6 -22 -13 -55
-16 -72 -3 -18 -9 -33 -14 -33 -5 0 -9 -18 -9 -39 0 -22 -4 -43 -10 -46 -5 -3
-10 -19 -10 -36 0 -16 -4 -29 -10 -29 -5 0 -10 -15 -10 -34 0 -19 -4 -38 -10
-41 -5 -3 -10 -22 -10 -41 0 -19 -4 -34 -10 -34 -5 0 -10 -13 -10 -29 0 -17
-5 -33 -11 -37 -6 -3 -9 -19 -7 -35 3 -16 1 -29 -4 -29 -4 0 -8 -18 -8 -40 0
-22 -4 -40 -10 -40 -5 0 -10 -11 -10 -25 0 -22 -4 -25 -36 -25 -19 0 -33 4
-30 9 3 5 -11 11 -32 14 -57 8 -135 27 -154 37 -10 6 -27 10 -38 10 -11 0 -20
5 -20 10 0 6 -13 10 -30 10 -16 0 -30 5 -30 10 0 6 -11 10 -25 10 -14 0 -25 5
-25 10 0 6 -11 10 -25 10 -14 0 -25 5 -25 10 0 6 -11 10 -25 10 -14 0 -25 5
-25 10 0 6 -11 10 -24 10 -14 0 -28 5 -31 10 -3 6 -14 10 -23 10 -9 0 -30 7
-46 15 -15 8 -35 15 -42 15 -8 0 -14 5 -14 10 0 6 -7 10 -15 10 -12 0 -11 5 3
30 9 16 20 30 25 30 4 0 7 6 7 13 0 8 9 22 20 32 11 10 20 22 20 27 0 5 9 18
20 30 11 12 20 28 20 35 0 8 5 11 12 7 7 -4 8 -3 4 4 -7 11 8 32 52 78 12 13
22 28 22 34 0 6 10 21 23 34 32 34 58 66 52 66 -3 0 13 19 35 41 22 23 40 46
40 51 0 5 30 39 66 75 36 36 72 76 81 89 16 25 33 32 33 14z m-1662 -38 c2
-18 7 -32 13 -32 5 0 9 -9 9 -20 0 -11 5 -20 10 -20 6 0 10 -7 10 -15 0 -8 5
-15 10 -15 6 0 10 -6 8 -12 -3 -17 32 -88 43 -88 5 0 9 -6 9 -13 0 -6 14 -25
30 -40 17 -16 30 -33 30 -39 0 -5 14 -23 31 -39 l31 -29 -26 -27 c-107 -115
-157 -173 -151 -173 3 0 -13 -19 -35 -41 -22 -23 -40 -45 -40 -50 0 -5 -13
-23 -30 -40 -16 -17 -32 -40 -35 -50 -4 -11 -11 -19 -16 -19 -5 0 -9 -6 -9
-13 0 -7 -9 -23 -20 -35 -11 -12 -20 -26 -20 -31 0 -6 -9 -16 -20 -23 -11 -7
-20 -20 -20 -28 0 -9 -9 -22 -20 -30 -11 -8 -20 -19 -20 -26 0 -18 -31 -74
-41 -74 -5 0 -9 -9 -9 -20 0 -17 -2 -19 -14 -8 -8 7 -12 16 -9 21 2 4 -1 7 -7
7 -6 0 -43 32 -81 70 -38 39 -66 70 -62 70 3 0 -4 8 -15 19 -12 10 -22 22 -22
26 0 4 -13 20 -30 35 -16 15 -30 34 -30 42 0 7 -9 20 -19 28 -11 7 -18 18 -15
22 3 5 -4 17 -15 27 -12 10 -21 25 -21 34 0 8 -6 18 -12 21 -10 5 -10 7 0 12
6 3 12 14 12 25 0 10 4 19 8 19 4 0 16 15 27 32 10 18 29 43 42 56 13 13 23
27 23 32 0 4 20 29 45 53 25 25 45 50 45 56 0 11 70 82 111 114 13 9 20 17 15
17 -4 0 20 26 53 58 77 73 88 82 101 82 6 0 8 5 5 10 -3 6 -1 10 5 10 6 0 28
17 48 38 59 61 85 65 90 14z m2227 -112 c4 -6 88 -10 221 -10 l214 0 0 -44 c0
-25 5 -48 10 -51 6 -3 10 -26 10 -51 0 -24 5 -44 10 -44 6 0 10 -20 10 -44 0
-25 5 -48 10 -51 6 -3 10 -30 10 -59 0 -28 4 -56 9 -61 5 -6 12 -39 15 -75 3
-36 10 -99 16 -140 23 -181 36 -385 23 -352 -3 8 -26 12 -64 12 -33 0 -59 4
-59 10 0 6 -25 10 -55 10 -30 0 -55 5 -55 10 0 6 -25 10 -56 10 -34 0 -53 4
-49 10 4 6 -13 10 -42 11 -26 0 -70 5 -98 10 -27 5 -72 14 -100 20 -27 5 -67
13 -88 16 -20 3 -40 9 -43 14 -3 5 -20 9 -39 9 -19 0 -37 5 -40 10 -3 6 -16
10 -29 10 -19 0 -22 4 -18 30 2 17 8 30 13 30 5 0 9 16 9 35 0 19 5 35 10 35
6 0 10 18 10 41 0 22 4 38 9 35 5 -3 12 26 15 64 4 39 11 70 17 70 5 0 9 16 9
35 0 19 5 35 10 35 6 0 10 18 10 40 0 22 5 40 10 40 6 0 10 11 10 24 0 14 5
28 10 31 6 3 10 21 10 40 0 19 5 37 10 40 6 3 10 19 10 35 0 16 5 32 10 35 6
3 10 22 10 41 0 19 5 34 11 34 6 0 10 10 9 23 -1 12 -2 25 -1 30 2 11 59 9 66
-3z m-1871 -370 c6 0 18 -9 26 -20 8 -11 21 -20 29 -20 8 0 11 -3 8 -6 -4 -4
11 -16 33 -26 22 -11 40 -24 40 -29 0 -5 7 -9 15 -9 8 0 15 -4 15 -10 0 -5 7
-10 15 -10 8 0 15 -4 15 -10 0 -5 7 -10 15 -10 8 0 15 -4 15 -10 0 -5 7 -10
16 -10 8 0 12 -4 9 -10 -3 -5 3 -10 14 -10 12 0 21 -4 21 -10 0 -5 7 -10 15
-10 8 0 44 -16 81 -35 36 -19 72 -35 80 -35 8 0 14 -4 14 -10 0 -5 9 -10 20
-10 11 0 20 -4 20 -10 0 -5 8 -10 18 -11 10 0 12 -3 5 -6 -7 -2 -13 -11 -13
-19 0 -8 -4 -14 -8 -14 -5 0 -14 -16 -22 -35 -8 -19 -18 -35 -23 -35 -5 0 -7
-9 -4 -20 3 -11 1 -20 -4 -20 -5 0 -9 -9 -9 -20 0 -11 -4 -20 -10 -20 -5 0
-10 -7 -10 -15 0 -8 -4 -15 -10 -15 -5 0 -10 -9 -10 -20 0 -11 -4 -20 -10 -20
-5 0 -10 -9 -10 -20 0 -11 -4 -20 -10 -20 -5 0 -10 -11 -10 -25 0 -14 -4 -25
-10 -25 -5 0 -10 -9 -10 -20 0 -11 -4 -20 -10 -20 -5 0 -10 -9 -10 -20 0 -11
-4 -20 -9 -20 -5 0 -12 -20 -15 -45 -4 -25 -11 -45 -15 -45 -4 0 -14 -22 -21
-50 -7 -27 -17 -50 -22 -50 -4 0 -8 -11 -8 -25 0 -14 -4 -25 -10 -25 -5 0 -10
-9 -10 -20 0 -11 -4 -20 -10 -20 -5 0 -10 -13 -10 -30 0 -29 -13 -40 -25 -20
-3 6 -15 10 -26 10 -10 0 -19 5 -19 10 0 6 -9 10 -20 10 -11 0 -20 5 -20 10 0
6 -9 10 -20 10 -11 0 -20 5 -20 10 0 6 -9 10 -20 10 -11 0 -20 5 -20 10 0 6
-8 10 -18 10 -9 0 -33 9 -52 20 -19 11 -52 28 -72 37 -21 10 -38 21 -38 25 0
5 -7 8 -15 8 -8 0 -15 5 -15 10 0 6 -7 10 -15 10 -8 0 -15 5 -15 10 0 6 -9 10
-21 10 -11 0 -18 4 -15 9 4 5 -7 12 -23 16 -15 3 -38 15 -49 25 -12 11 -26 20
-32 20 -5 0 -10 5 -10 10 0 6 -7 10 -15 10 -8 0 -15 5 -15 10 0 6 -5 10 -11
10 -6 0 -24 14 -39 30 -15 17 -35 30 -43 30 -9 0 -19 5 -22 10 -3 6 -1 10 4
10 6 0 11 5 11 10 0 6 9 20 19 32 11 11 17 26 14 34 -3 8 0 14 6 14 6 0 11 6
11 13 0 7 9 23 20 35 11 12 20 26 20 32 0 5 4 10 9 10 5 0 13 9 16 20 4 11 18
32 31 45 14 14 23 29 19 34 -3 5 3 16 13 23 10 7 25 24 32 38 7 14 21 32 32
41 10 9 18 21 18 26 0 5 18 28 40 52 22 23 40 47 40 51 0 5 29 39 64 75 36 36
68 75 72 88 4 12 9 17 11 10 3 -7 10 -13 17 -13z m721 -390 c20 -11 44 -20 55
-20 10 0 22 -4 25 -10 3 -5 17 -10 31 -10 13 0 24 -4 24 -10 0 -5 16 -10 35
-10 19 0 35 -4 35 -10 0 -5 14 -10 30 -10 17 0 30 -4 30 -10 0 -5 17 -10 37
-10 20 0 33 -3 29 -7 -6 -7 50 -19 187 -39 20 -4 40 -10 43 -15 3 -5 23 -9 44
-9 21 0 42 -4 45 -10 3 -5 23 -10 43 -11 20 0 31 -3 25 -6 -7 -2 -13 -16 -13
-29 0 -13 -4 -24 -10 -24 -5 0 -10 -15 -10 -34 0 -19 -4 -38 -10 -41 -5 -3
-10 -21 -10 -40 0 -19 -5 -37 -11 -41 -6 -3 -9 -15 -6 -25 3 -10 1 -22 -4 -25
-5 -3 -9 -21 -9 -40 0 -19 -4 -34 -10 -34 -5 0 -10 -15 -10 -34 0 -19 -4 -38
-10 -41 -5 -3 -10 -22 -10 -41 0 -19 -4 -34 -10 -34 -5 0 -10 -16 -10 -35 0
-19 -4 -35 -10 -35 -5 0 -10 -13 -10 -29 0 -17 -4 -33 -10 -36 -5 -3 -10 -22
-10 -41 0 -19 -4 -34 -10 -34 -5 0 -10 -15 -10 -34 0 -19 -4 -37 -10 -41 -5
-3 -7 -12 -3 -20 4 -12 -4 -15 -36 -15 -23 0 -41 5 -41 10 0 6 -20 10 -45 10
-25 0 -45 5 -45 10 0 6 -16 10 -35 10 -19 0 -35 5 -35 10 0 6 -18 10 -40 10
-22 0 -40 5 -40 10 0 6 -16 10 -35 10 -19 0 -35 4 -35 8 0 4 -30 13 -67 20
-106 19 -123 24 -123 33 0 5 -13 9 -29 9 -17 0 -33 5 -36 10 -3 6 -17 10 -31
10 -13 0 -24 5 -24 10 0 6 -13 10 -30 10 -16 0 -30 5 -30 10 0 6 -11 10 -25
10 -14 0 -25 5 -25 10 0 6 -11 10 -25 10 -14 0 -25 5 -25 10 0 6 -11 10 -24
10 -33 0 -38 11 -20 44 7 16 14 37 14 47 0 11 5 19 10 19 6 0 10 8 10 18 0 22
22 72 33 72 4 0 7 14 7 30 0 17 5 30 10 30 6 0 10 9 10 20 0 11 4 20 9 20 5 0
12 20 15 45 4 25 11 45 17 45 5 0 9 9 9 20 0 11 5 20 10 20 6 0 10 9 10 20 0
11 5 20 10 20 6 0 10 11 10 25 0 14 5 25 10 25 6 0 10 9 10 20 0 11 5 20 10
20 6 0 10 9 10 20 0 11 3 20 8 20 4 0 13 15 21 33 52 118 63 137 87 137 13 0
39 -9 59 -20z m-1885 -58 c0 -10 9 -24 20 -32 11 -8 20 -18 20 -23 0 -4 16
-23 35 -43 19 -19 35 -39 35 -44 0 -5 11 -20 24 -33 14 -14 22 -28 19 -31 -4
-3 -1 -6 5 -6 6 0 49 -38 97 -84 47 -47 95 -88 105 -91 20 -6 29 -45 10 -45
-5 0 -10 -13 -10 -30 0 -16 -4 -30 -10 -30 -5 0 -10 -9 -10 -20 0 -11 -4 -20
-10 -20 -5 0 -10 -11 -10 -25 0 -14 -4 -25 -10 -25 -5 0 -10 -13 -10 -30 0
-16 -4 -30 -10 -30 -5 0 -10 -11 -10 -24 0 -14 -5 -28 -11 -32 -6 -3 -9 -17
-6 -30 2 -13 0 -24 -4 -24 -5 0 -9 -14 -9 -30 0 -17 -4 -38 -9 -48 -17 -33
-31 -89 -31 -120 0 -18 -4 -32 -9 -32 -6 0 -11 -23 -13 -52 -3 -48 -4 -51 -20
-35 -9 9 -19 17 -23 17 -3 0 -21 16 -41 35 -19 19 -39 35 -45 35 -6 0 -28 18
-49 40 -21 22 -43 40 -49 40 -6 0 -11 5 -11 10 0 6 -7 10 -16 10 -8 0 -12 5
-9 10 3 6 -1 10 -9 10 -9 0 -16 3 -16 8 0 4 -17 18 -37 32 -20 14 -56 44 -80
68 -23 23 -47 42 -53 42 -5 0 -10 5 -10 10 0 6 5 10 10 10 6 0 10 16 10 35 0
19 5 35 10 35 6 0 10 18 10 40 0 22 5 40 10 40 6 0 10 11 10 24 0 14 5 28 11
32 6 3 8 17 5 30 -4 14 -2 24 4 24 5 0 10 14 10 30 0 17 5 30 10 30 6 0 10 11
10 25 0 14 5 25 10 25 6 0 10 11 10 24 0 14 5 28 10 31 6 3 10 15 10 26 0 10
5 19 10 19 6 0 10 11 10 25 0 14 5 25 10 25 6 0 10 9 10 20 0 11 5 20 10 20 6
0 10 9 10 19 0 11 5 23 10 26 6 4 8 11 5 16 -4 5 -1 9 4 9 6 0 11 9 11 20 0
11 5 20 10 20 6 0 10 9 10 20 0 11 5 20 10 20 6 0 10 -8 10 -18z m2740 -162
c0 -5 25 -10 56 -10 34 0 53 -4 49 -10 -4 -6 20 -10 66 -10 40 0 69 -3 65 -7
-4 -5 66 -14 156 -21 203 -15 346 -28 418 -37 l56 -7 -4 -71 c-3 -50 -1 -68 7
-63 8 5 11 -45 11 -184 0 -125 -3 -189 -10 -185 -6 4 -10 -44 -10 -138 0 -80
-3 -159 -6 -177 -6 -30 -9 -31 -38 -25 -31 7 -197 22 -353 31 -46 3 -83 10
-83 15 0 5 -34 9 -75 9 -43 0 -75 4 -75 10 0 6 -34 10 -81 10 -51 0 -78 4 -74
10 4 6 -17 10 -54 10 -34 0 -61 4 -61 9 0 5 -45 12 -100 16 -86 6 -100 9 -100
24 0 10 3 21 7 25 7 7 21 68 39 174 4 17 10 32 15 32 5 0 9 16 9 35 0 19 5 35
10 35 6 0 10 18 10 40 0 22 5 40 10 40 6 0 10 16 10 35 0 19 5 35 10 35 6 0
10 14 10 30 0 17 5 30 10 30 6 0 10 21 10 46 0 25 4 43 9 40 5 -3 12 26 16 64
4 39 11 73 16 76 5 3 9 21 9 40 0 27 4 34 20 34 11 0 20 -4 20 -10z m-2200
-359 c0 -5 12 -12 26 -15 14 -4 35 -16 47 -26 11 -11 27 -20 34 -20 7 0 13 -4
13 -10 0 -5 9 -10 20 -10 11 0 20 -4 20 -10 0 -5 7 -10 15 -10 8 0 15 -4 15
-10 0 -5 9 -10 20 -10 11 0 20 -4 20 -10 0 -5 9 -10 20 -10 11 0 20 -4 20 -10
0 -5 8 -10 18 -10 9 0 39 -11 66 -25 27 -14 55 -25 63 -25 7 0 13 -4 13 -10 0
-5 9 -10 19 -10 11 0 23 -4 26 -10 3 -5 15 -10 26 -10 10 0 19 -4 19 -10 0 -5
11 -10 25 -10 14 0 25 -4 25 -10 0 -5 11 -10 25 -10 14 0 25 -4 25 -9 0 -4 19
-11 43 -14 51 -7 103 -32 88 -42 -6 -3 -11 -19 -11 -36 0 -16 -4 -29 -10 -29
-5 0 -10 -13 -10 -30 0 -16 -4 -30 -10 -30 -5 0 -10 -15 -10 -34 0 -19 -4 -38
-10 -41 -5 -3 -10 -19 -10 -35 0 -16 -4 -32 -10 -35 -5 -3 -10 -21 -10 -39 0
-18 -3 -36 -7 -40 -8 -7 -27 -124 -39 -228 -3 -27 -10 -48 -14 -48 -8 0 -14
-41 -26 -176 -5 -55 -8 -61 -25 -57 -10 3 -19 8 -19 12 0 3 -18 17 -40 31 -22
14 -40 28 -40 32 0 5 -7 8 -15 8 -8 0 -15 5 -15 10 0 6 -7 10 -16 10 -8 0 -12
5 -9 10 3 6 -3 10 -14 10 -12 0 -21 3 -21 8 0 4 -17 16 -37 27 -21 11 -45 28
-54 37 -9 10 -20 18 -25 18 -5 0 -16 9 -24 20 -8 11 -23 20 -33 20 -10 0 -15
5 -12 10 3 6 -1 10 -9 10 -9 0 -16 5 -16 10 0 6 -6 10 -13 10 -8 0 -27 11 -43
25 -16 14 -34 25 -39 25 -6 0 -17 9 -25 20 -8 11 -20 20 -27 20 -7 0 -13 5
-13 10 0 6 -7 10 -16 10 -8 0 -12 5 -9 10 3 6 -1 10 -9 10 -9 0 -16 5 -16 10
0 6 -7 10 -15 10 -8 0 -25 11 -39 25 -14 14 -30 25 -36 25 -5 0 -10 5 -10 10
0 6 -5 10 -11 10 -19 0 -49 41 -49 67 0 12 5 23 10 23 6 0 10 23 10 50 0 28 5
50 10 50 6 0 10 15 10 34 0 19 5 38 10 41 6 3 10 24 10 46 0 21 4 39 9 39 5 0
12 27 16 60 4 33 11 60 16 60 5 0 9 14 9 30 0 17 5 30 10 30 6 0 10 11 10 25
0 14 5 25 10 25 6 0 10 14 10 30 0 17 5 30 10 30 6 0 10 9 10 20 0 11 5 20 10
20 6 0 10 7 10 15 0 8 7 15 15 15 8 0 15 -4 15 -9z m910 -391 c0 -5 16 -10 35
-10 19 0 35 -4 35 -10 0 -5 16 -10 35 -10 19 0 35 -4 35 -10 0 -5 18 -10 40
-10 22 0 40 -4 40 -8 0 -5 37 -14 83 -20 45 -7 100 -15 122 -18 22 -3 44 -10
49 -15 6 -5 29 -9 52 -9 24 0 46 -4 49 -10 3 -5 31 -10 61 -10 30 0 54 -4 54
-10 0 -5 25 -10 55 -10 30 0 55 -4 55 -10 0 -5 23 -10 50 -10 47 0 63 -11 40
-25 -5 -3 -10 -19 -10 -36 0 -16 -4 -29 -10 -29 -5 0 -10 -18 -10 -40 0 -22
-4 -40 -10 -40 -5 0 -10 -16 -10 -35 0 -19 -4 -35 -10 -35 -5 0 -10 -13 -10
-29 0 -17 -4 -32 -9 -35 -9 -6 -21 -61 -24 -113 -1 -18 -5 -33 -9 -33 -5 0 -8
-16 -8 -35 0 -19 -4 -35 -9 -35 -8 0 -11 -11 -27 -102 -3 -21 -10 -38 -15 -38
-5 0 -9 -16 -9 -35 0 -19 -4 -35 -10 -35 -5 0 -10 -18 -10 -40 0 -22 -4 -40
-10 -40 -5 0 -10 -16 -10 -35 0 -19 -4 -35 -9 -35 -6 0 -11 -19 -13 -42 l-3
-43 -60 3 c-33 2 -64 8 -69 13 -6 5 -25 9 -42 9 -18 0 -36 5 -39 10 -3 6 -22
10 -41 10 -19 0 -34 5 -34 10 0 6 -16 10 -35 10 -19 0 -35 5 -35 10 0 6 -13
10 -30 10 -16 0 -30 5 -30 10 0 6 -16 10 -35 10 -19 0 -35 5 -35 10 0 6 -16
10 -36 10 -19 0 -33 4 -30 9 3 5 -21 11 -54 15 -33 4 -62 11 -65 16 -4 6 -17
10 -30 10 -13 0 -27 5 -30 10 -3 6 -17 10 -30 10 -13 0 -27 5 -30 10 -3 6 -17
10 -31 10 -13 0 -24 5 -24 10 0 6 -5 10 -11 10 -6 0 -17 7 -25 15 -11 11 -12
19 -4 34 5 11 10 42 10 70 0 27 5 53 10 56 6 3 10 28 10 56 0 27 5 49 10 49 6
0 10 23 10 50 0 28 5 50 10 50 6 0 10 20 10 45 0 25 4 45 9 45 4 0 12 36 15
80 4 44 12 82 17 85 5 4 9 22 9 41 0 19 5 34 10 34 6 0 10 13 10 29 0 17 5 33
10 36 6 3 10 17 10 31 0 13 4 32 9 42 6 9 12 29 16 45 4 21 11 27 30 27 14 0
25 -4 25 -10z m1116 -207 c-11 -11 703 -49 973 -52 l54 -1 -7 -37 c-4 -21 -12
-67 -16 -103 -5 -36 -14 -92 -20 -125 -6 -33 -14 -86 -17 -117 -2 -32 -9 -58
-14 -58 -5 0 -9 -18 -9 -40 0 -22 -4 -40 -10 -40 -5 0 -10 -20 -10 -45 0 -25
-4 -45 -10 -45 -5 0 -10 -18 -10 -41 0 -22 -4 -38 -9 -35 -5 3 -12 -26 -16
-64 -4 -39 -11 -70 -16 -70 -5 0 -9 -13 -9 -30 0 -16 -4 -30 -10 -30 -5 0 -10
-11 -10 -24 0 -14 -4 -28 -10 -31 -5 -3 -10 -15 -10 -26 0 -10 -4 -28 -10 -39
-5 -11 -14 -29 -20 -40 -5 -11 -10 -29 -10 -40 0 -11 -5 -20 -11 -20 -6 0 -9
-9 -6 -20 5 -21 -16 -29 -28 -10 -3 6 -33 10 -66 10 -33 0 -59 4 -59 10 0 6
-25 10 -55 10 -30 0 -55 5 -55 10 0 6 -25 10 -55 10 -30 0 -55 5 -55 10 0 6
-25 10 -56 10 -30 0 -53 4 -50 9 3 4 -36 11 -86 15 -50 4 -99 11 -109 16 -10
6 -36 10 -58 10 -22 0 -43 5 -46 10 -3 6 -24 10 -46 10 -21 0 -39 5 -39 10 0
6 -20 10 -45 10 -25 0 -45 5 -45 10 0 6 -20 10 -45 10 -25 0 -45 5 -45 10 0 6
-18 10 -40 10 -29 0 -40 4 -40 15 0 8 5 15 11 15 7 0 10 12 7 30 -3 17 -1 30
4 30 4 0 8 18 8 40 0 22 5 40 10 40 6 0 10 16 10 35 0 19 5 35 10 35 6 0 10
15 10 34 0 19 5 38 10 41 6 3 10 17 10 30 0 13 5 27 10 30 6 3 10 22 10 41 0
19 5 34 10 34 6 0 10 15 10 34 0 19 5 38 10 41 6 3 10 22 10 41 0 19 4 33 9
30 5 -3 12 26 15 64 4 38 11 72 17 75 5 4 9 22 9 41 0 19 5 34 10 34 6 0 10
16 10 35 0 19 5 35 10 35 6 0 10 13 10 28 0 15 6 40 13 55 11 24 17 27 66 27
30 0 51 -3 47 -7z m-386 -1143 c0 -6 28 -10 65 -10 37 0 65 -4 65 -10 0 -6 32
-10 75 -10 43 0 75 -4 75 -10 0 -6 32 -10 75 -10 43 0 75 -4 75 -10 0 -6 37
-10 90 -10 50 0 90 -4 90 -8 0 -5 89 -14 198 -20 247 -16 302 -22 302 -33 0
-5 -4 -9 -10 -9 -5 0 -10 -11 -10 -24 0 -14 -4 -28 -10 -31 -5 -3 -10 -15 -10
-26 0 -10 -4 -19 -10 -19 -5 0 -10 -7 -10 -15 0 -8 -4 -15 -10 -15 -5 0 -10
-9 -10 -20 0 -11 -4 -20 -10 -20 -5 0 -10 -9 -10 -20 0 -11 -4 -20 -10 -20 -5
0 -10 -9 -10 -20 0 -11 -4 -20 -9 -20 -5 0 -12 -11 -15 -25 -4 -14 -11 -25
-16 -25 -6 0 -10 -9 -10 -20 0 -11 -4 -20 -10 -20 -5 0 -10 -9 -10 -20 0 -11
-4 -20 -10 -20 -5 0 -10 -5 -10 -11 0 -17 -27 -39 -49 -39 -12 0 -21 5 -21 10
0 6 -7 10 -15 10 -18 0 -129 51 -133 62 -2 4 -12 8 -23 8 -10 0 -19 5 -19 10
0 6 -9 10 -20 10 -11 0 -20 5 -20 10 0 6 -7 10 -15 10 -8 0 -15 5 -15 10 0 6
-9 10 -20 10 -11 0 -20 5 -20 10 0 6 -5 10 -12 10 -15 0 -122 52 -126 62 -2 4
-12 8 -23 8 -10 0 -19 5 -19 10 0 6 -7 10 -15 10 -8 0 -15 5 -15 10 0 6 -9 10
-20 10 -11 0 -20 5 -20 10 0 6 -7 10 -15 10 -8 0 -15 4 -15 9 0 5 -16 12 -35
15 -19 4 -35 10 -35 15 0 4 -16 13 -35 21 -19 8 -35 17 -35 22 0 4 -9 8 -20 8
-11 0 -20 5 -20 10 0 6 -7 10 -15 10 -8 0 -15 5 -15 10 0 6 -7 10 -15 10 -8 0
-15 5 -15 10 0 6 -9 10 -20 10 -11 0 -20 5 -20 10 0 6 -8 10 -17 10 -13 0 -14
3 -5 12 7 7 12 22 12 35 0 13 5 23 11 23 6 0 9 9 6 20 -3 13 0 20 9 20 8 0 14
-4 14 -10z"/>
<path d="M2764 3973 c4 -105 11 -189 16 -191 6 -2 10 -33 10 -68 0 -36 4 -64
10 -64 6 0 10 -23 10 -51 0 -31 4 -48 10 -44 6 4 10 -11 10 -39 0 -25 5 -48
10 -51 6 -3 10 -19 10 -35 0 -16 5 -32 10 -35 6 -3 10 -19 10 -36 0 -16 5 -29
10 -29 6 0 10 -13 10 -29 0 -17 5 -33 10 -36 6 -3 10 -17 10 -30 0 -13 5 -27
10 -30 6 -3 7 -18 4 -32 -5 -18 -3 -24 5 -19 7 5 11 -2 11 -18 0 -14 5 -26 10
-26 6 0 10 -13 10 -30 0 -16 5 -30 10 -30 6 0 10 -9 10 -20 0 -11 5 -20 10
-20 6 0 10 -11 10 -25 0 -14 5 -25 10 -25 6 0 10 -9 10 -20 0 -11 5 -20 10
-20 6 0 10 -8 10 -17 0 -10 11 -38 25 -62 14 -23 25 -49 25 -57 0 -8 5 -14 10
-14 6 0 10 -9 10 -20 0 -11 5 -20 10 -20 6 0 10 -9 10 -20 0 -11 5 -20 10 -20
6 0 10 -7 10 -15 0 -8 5 -15 10 -15 6 0 10 -9 10 -20 0 -11 5 -20 10 -20 6 0
10 -8 10 -18 0 -10 9 -24 19 -32 11 -7 18 -17 15 -21 -2 -4 2 -14 10 -22 8 -8
12 -17 9 -21 -4 -3 -1 -6 5 -6 7 0 12 -7 12 -15 0 -8 5 -15 10 -15 6 0 10 -6
10 -14 0 -7 14 -27 30 -45 17 -17 27 -31 24 -31 -4 0 5 -12 20 -26 14 -15 26
-31 26 -36 0 -5 11 -20 25 -34 14 -14 25 -29 25 -34 0 -6 19 -30 43 -54 23
-24 49 -54 57 -66 8 -13 54 -63 102 -111 47 -48 84 -90 81 -93 -4 -3 -1 -6 5
-6 6 0 41 -29 77 -65 35 -36 69 -65 75 -65 6 0 8 -4 5 -10 -3 -5 1 -10 9 -10
8 0 31 -16 50 -35 20 -19 39 -35 43 -35 5 0 15 -9 23 -20 8 -11 20 -20 27 -20
7 0 13 -4 13 -10 0 -5 8 -10 17 -10 9 0 13 -3 10 -6 -4 -4 11 -15 32 -26 21
-10 47 -27 59 -38 12 -11 26 -20 32 -20 5 0 10 -4 10 -10 0 -5 7 -10 15 -10 8
0 15 -4 15 -10 0 -5 7 -10 15 -10 8 0 15 -4 15 -10 0 -5 7 -10 16 -10 8 0 12
-4 9 -10 -3 -5 1 -10 10 -10 8 0 32 -10 53 -23 20 -13 52 -30 70 -38 17 -8 32
-17 32 -21 0 -5 9 -8 20 -8 11 0 20 -4 20 -10 0 -5 9 -10 21 -10 11 0 17 -4
14 -10 -3 -5 3 -10 14 -10 12 0 21 -4 21 -10 0 -5 7 -10 15 -10 8 0 23 -4 33
-10 9 -5 35 -16 57 -25 22 -9 48 -21 57 -26 10 -5 25 -9 33 -9 8 0 15 -4 15
-10 0 -5 9 -10 19 -10 11 0 23 -5 26 -10 3 -6 17 -10 31 -10 13 0 24 -4 24
-10 0 -5 11 -10 25 -10 14 0 25 -4 25 -10 0 -5 14 -10 30 -10 17 0 30 -4 30
-9 0 -5 25 -12 55 -16 30 -3 57 -11 60 -16 4 -5 19 -9 35 -9 16 0 32 -4 35
-10 3 -5 22 -10 41 -10 19 0 34 -4 34 -10 0 -5 20 -10 45 -10 25 0 45 -4 45
-10 0 -5 23 -10 51 -10 31 0 48 -4 44 -10 -4 -6 18 -10 59 -10 37 0 66 -4 66
-10 0 -6 40 -10 100 -10 60 0 100 -4 100 -10 0 -6 82 -10 225 -10 143 0 225 4
225 10 0 6 40 10 100 10 60 0 100 4 100 10 0 6 37 10 90 10 53 0 90 4 90 10 0
6 33 10 80 10 47 0 80 4 80 10 0 6 22 10 49 10 28 0 53 4 56 10 3 5 26 10 50
10 24 0 47 5 50 10 3 6 21 10 40 10 19 0 36 4 39 9 3 5 33 12 66 16 33 4 60
11 60 16 0 5 14 9 30 9 17 0 30 5 30 10 0 6 14 10 30 10 17 0 30 5 30 10 0 6
11 10 25 10 14 0 25 5 25 10 0 6 11 10 25 10 14 0 25 5 25 10 0 6 11 10 25 10
14 0 25 5 25 10 0 6 9 10 19 10 11 0 23 5 26 10 3 5 14 10 23 10 9 0 30 7 46
15 15 8 35 15 42 15 8 0 14 5 14 10 0 6 9 10 20 10 11 0 20 5 20 10 0 6 7 10
15 10 8 0 15 5 15 10 0 6 9 10 20 10 11 0 20 5 20 10 0 6 9 10 19 10 11 0 21
3 23 8 2 4 21 17 43 29 45 24 59 53 26 53 -12 0 -21 5 -21 10 0 6 -11 10 -25
10 -14 0 -25 5 -25 10 0 6 -16 10 -35 10 -19 0 -35 -4 -35 -10 0 -5 -6 -10
-14 -10 -8 0 -31 -9 -53 -19 -55 -28 -120 -51 -143 -51 -11 0 -20 -4 -20 -10
0 -5 -11 -10 -25 -10 -14 0 -25 -4 -25 -10 0 -5 -13 -10 -30 -10 -16 0 -30 -4
-30 -10 0 -5 -13 -10 -30 -10 -16 0 -30 -4 -30 -10 0 -5 -13 -10 -29 -10 -17
0 -33 -4 -36 -10 -3 -5 -17 -10 -31 -10 -13 0 -32 -4 -42 -9 -29 -15 -113 -32
-184 -38 -38 -3 -68 -10 -68 -14 0 -5 -29 -9 -65 -9 -37 0 -65 -4 -65 -10 0
-6 -33 -10 -80 -10 -47 0 -80 -4 -80 -10 0 -6 -93 -10 -260 -10 -167 0 -260 4
-260 10 0 6 -30 10 -70 10 -40 0 -70 4 -70 10 0 6 -24 10 -52 10 l-53 1 55 26
c30 15 57 30 58 35 2 4 10 8 18 8 8 0 14 5 14 10 0 6 7 10 15 10 8 0 15 5 15
10 0 6 7 10 15 10 8 0 15 5 15 10 0 6 7 10 15 10 8 0 15 5 15 10 0 6 7 10 15
10 8 0 15 4 15 8 0 5 18 17 40 28 22 10 40 22 40 27 0 4 5 7 11 7 6 0 24 14
39 30 15 17 32 30 37 30 5 0 26 16 47 35 21 19 45 35 53 35 8 0 11 5 8 10 -3
5 -1 10 5 10 9 0 35 24 151 136 5 5 31 33 58 62 36 37 57 52 76 52 22 0 26 4
23 23 -2 14 -11 23 -25 25 -13 2 -23 8 -23 13 0 5 -9 9 -20 9 -11 0 -20 5 -20
10 0 6 -18 10 -40 10 -22 0 -40 5 -40 10 0 6 -28 10 -65 10 -45 0 -65 4 -65
13 0 8 -4 7 -10 -3 -6 -10 -10 -11 -10 -2 0 8 -21 12 -69 12 -39 0 -73 4 -76
10 -3 5 -33 10 -66 10 -32 0 -59 4 -59 9 0 5 -43 12 -95 16 -52 4 -97 11 -101
16 -3 5 -20 9 -39 9 -19 0 -37 4 -40 10 -3 6 -17 10 -31 10 -13 0 -24 5 -24
10 0 6 5 10 10 10 6 0 10 18 10 39 0 22 5 43 11 47 6 3 9 15 6 25 -3 11 -1 19
4 19 5 0 9 18 9 40 0 33 -3 40 -19 40 -11 0 -21 5 -23 11 -7 22 -48 -1 -48
-27 0 -13 -4 -24 -10 -24 -5 0 -10 -18 -10 -40 0 -22 -4 -40 -10 -40 -5 0 -10
-16 -10 -36 0 -20 -4 -33 -10 -29 -6 3 -7 -1 -4 -9 3 -9 1 -16 -5 -16 -6 0
-11 5 -11 10 0 6 -16 10 -35 10 -19 0 -35 5 -35 10 0 6 -16 10 -35 10 -19 0
-35 5 -35 10 0 6 -16 10 -35 10 -19 0 -35 4 -35 9 0 5 -29 12 -65 16 -36 3
-67 11 -70 16 -4 5 -17 9 -30 9 -13 0 -27 4 -30 10 -3 6 -17 10 -31 10 -13 0
-24 5 -24 10 0 6 -11 10 -25 10 -14 0 -25 5 -25 10 0 6 -11 10 -25 10 -33 0
-39 30 -51 277 l-7 132 -28 13 c-16 7 -29 16 -29 20 0 5 -11 8 -25 8 -14 0
-25 5 -25 11 0 5 -4 7 -10 4 -5 -3 -10 -31 -10 -61 0 -34 4 -53 10 -49 6 4 10
-43 10 -132 0 -98 4 -143 13 -152 10 -11 6 -12 -23 -6 -19 4 -41 11 -50 15 -8
4 -28 13 -45 20 -16 7 -38 16 -47 21 -10 5 -27 9 -38 9 -11 0 -20 5 -20 10 0
6 -9 10 -20 10 -11 0 -20 5 -20 10 0 6 -13 10 -30 10 -16 0 -30 5 -30 10 0 6
-12 10 -26 10 -14 0 -23 4 -19 10 3 6 -4 10 -17 10 -13 0 -36 7 -52 15 -15 8
-35 15 -42 15 -8 0 -14 5 -14 10 0 6 -7 10 -15 10 -8 0 -15 5 -15 10 0 6 -9
10 -20 10 -11 0 -20 5 -20 10 0 6 -7 10 -15 10 -8 0 -15 5 -15 10 0 6 -6 10
-14 10 -15 0 -46 73 -46 107 0 12 -4 23 -10 25 -5 2 -12 40 -16 86 -4 45 -11
82 -15 82 -5 0 -9 25 -9 55 0 30 -4 55 -10 55 -5 0 -10 25 -10 55 0 30 -4 55
-10 55 -5 0 -10 14 -10 30 0 23 -4 30 -20 30 -11 0 -20 5 -20 10 0 6 -9 10
-21 10 -11 0 -17 5 -14 10 3 6 -1 10 -9 10 -9 0 -16 5 -16 10 0 6 -11 10 -25
10 -24 0 -25 -3 -25 -60 0 -33 4 -60 9 -60 5 0 11 -26 14 -57 3 -32 10 -80 17
-108 6 -27 17 -86 24 -130 7 -44 17 -91 23 -105 6 -14 8 -27 5 -30 -2 -3 -7 1
-9 8 -3 6 -11 12 -19 12 -8 0 -14 5 -14 10 0 6 -7 10 -15 10 -8 0 -15 5 -15
10 0 6 -7 10 -15 10 -8 0 -15 5 -15 10 0 6 -7 10 -15 10 -8 0 -15 4 -15 9 0 5
-13 12 -30 16 -16 4 -30 10 -30 13 0 4 -15 14 -32 22 -18 7 -42 22 -52 32 -11
10 -25 18 -31 18 -6 0 -17 9 -25 20 -8 11 -20 20 -27 20 -7 0 -13 3 -13 8 0 7
-28 25 -60 37 -22 9 -56 93 -51 127 1 9 -3 19 -9 23 -5 3 -10 19 -10 36 0 16
-4 29 -10 29 -5 0 -10 16 -10 35 0 19 -4 35 -10 35 -5 0 -10 18 -10 40 0 22
-4 40 -10 40 -5 0 -10 18 -10 39 0 22 -4 43 -10 46 -5 3 -10 28 -10 55 0 27
-4 52 -10 55 -5 3 -10 19 -10 36 0 17 -5 29 -13 29 -7 0 -23 9 -35 20 -12 11
-26 20 -32 20 -5 0 -10 5 -10 10 0 6 -7 10 -15 10 -8 0 -15 5 -15 10 0 6 -5
10 -10 10 -6 0 -19 8 -30 18 -10 9 -36 26 -57 37 -21 11 -45 28 -54 37 -9 10
-21 18 -28 18 -6 0 -11 5 -11 10 0 6 -5 10 -11 10 -7 0 -19 8 -28 18 -9 9 -33
26 -54 37 -21 11 -48 29 -61 40 -14 11 -34 28 -45 38 -12 9 -26 17 -31 17 -6
0 -10 5 -10 10 0 6 -7 10 -16 10 -8 0 -12 5 -9 10 3 6 -1 10 -9 10 -9 0 -16 4
-16 9 0 5 -10 11 -23 15 -13 3 -38 19 -55 36 -18 16 -35 30 -38 30 -3 0 -19
14 -34 30 -52 55 -54 48 -46 -157z m1202 -1442 c-3 -5 8 -11 24 -15 16 -3 49
-15 72 -26 23 -11 48 -20 55 -20 7 0 13 -4 13 -10 0 -5 9 -10 20 -10 11 0 20
-4 20 -10 0 -5 9 -10 20 -10 11 0 20 -4 20 -10 0 -5 11 -10 25 -10 14 0 25 -4
25 -10 0 -5 10 -10 21 -10 24 0 48 -26 49 -52 0 -10 5 -18 10 -18 6 0 10 -13
10 -30 0 -16 5 -30 10 -30 6 0 10 -9 10 -20 0 -11 5 -20 10 -20 6 0 10 -7 10
-15 0 -8 5 -15 10 -15 6 0 10 -9 10 -20 0 -11 5 -20 10 -20 6 0 10 -9 10 -20
0 -11 5 -20 11 -20 5 0 8 -4 5 -9 -6 -10 16 -61 27 -61 4 0 7 -9 7 -20 0 -11
5 -20 10 -20 6 0 10 -8 10 -18 0 -10 9 -24 20 -32 11 -8 20 -20 20 -27 0 -7 5
-13 10 -13 6 0 10 -9 10 -20 0 -11 5 -20 10 -20 6 0 10 -7 10 -15 0 -9 9 -25
20 -37 11 -12 18 -24 15 -26 -3 -3 -13 5 -24 16 -10 12 -22 22 -27 22 -5 0
-16 9 -24 20 -8 11 -20 20 -26 20 -7 0 -14 4 -16 8 -1 5 -28 26 -58 48 -30 21
-67 51 -82 66 -14 16 -29 28 -34 28 -8 0 -150 147 -201 208 -18 22 -33 46 -33
54 0 7 -9 20 -20 28 -11 8 -20 20 -20 27 0 7 -9 18 -20 25 -11 7 -20 21 -20
30 0 10 -4 18 -9 18 -5 0 -14 14 -21 30 -7 17 -16 30 -21 30 -5 0 -6 6 -3 14
3 9 -3 20 -15 28 -28 17 -26 28 5 28 14 0 23 -4 20 -9z m584 -241 c0 -5 14
-10 31 -10 17 0 28 -4 24 -10 -4 -6 7 -10 24 -10 17 0 31 -4 31 -10 0 -5 14
-10 30 -10 17 0 30 -4 30 -10 0 -5 11 -10 24 -10 25 0 120 -26 148 -41 10 -5
29 -9 43 -9 14 0 25 -4 25 -10 0 -5 11 -10 25 -10 22 0 25 -4 25 -39 0 -22 5
-43 10 -46 6 -3 10 -21 10 -40 0 -19 4 -36 9 -40 5 -3 13 -34 16 -70 4 -36 11
-65 16 -65 5 0 9 -11 9 -24 0 -14 5 -28 10 -31 6 -3 10 -17 10 -31 0 -13 5
-24 10 -24 6 0 10 -9 10 -20 0 -11 5 -20 10 -20 6 0 10 -13 10 -30 0 -16 5
-30 10 -30 6 0 10 -7 10 -15 0 -8 5 -15 10 -15 6 0 10 -7 10 -15 0 -8 4 -23
10 -33 5 -9 17 -35 27 -57 9 -22 24 -46 33 -53 23 -20 -45 -5 -87 19 -19 11
-40 19 -48 19 -8 0 -15 5 -15 10 0 6 -9 10 -20 10 -11 0 -20 5 -20 10 0 6 -7
10 -15 10 -8 0 -15 5 -15 10 0 6 -9 10 -20 10 -11 0 -20 5 -20 10 0 6 -7 10
-15 10 -8 0 -15 4 -15 9 0 5 -11 12 -24 15 -14 3 -27 15 -31 25 -3 10 -14 29
-25 41 -11 13 -20 30 -20 39 0 9 -9 23 -20 31 -11 8 -20 20 -20 27 0 7 -4 13
-10 13 -5 0 -10 8 -10 18 0 10 -9 24 -20 32 -11 8 -20 22 -20 32 0 10 -4 18
-10 18 -5 0 -10 6 -10 14 0 7 -7 19 -15 26 -8 7 -15 21 -15 31 0 11 -4 19 -10
19 -5 0 -10 9 -10 20 0 11 -4 20 -10 20 -5 0 -10 6 -10 13 0 7 -8 22 -18 33
-10 10 -25 34 -32 52 -8 17 -18 32 -22 32 -5 0 -8 9 -8 20 0 11 -5 20 -11 20
-5 0 -8 4 -5 9 6 10 -16 61 -26 61 -5 0 -8 9 -8 20 0 11 -4 20 -10 20 -5 0
-10 5 -10 10 0 6 7 10 15 10 8 0 15 -4 15 -10z m620 -190 c0 -5 16 -10 35 -10
19 0 35 -4 35 -9 0 -5 34 -12 75 -16 41 -4 77 -11 81 -16 3 -5 25 -9 49 -9 24
0 47 -4 50 -10 3 -5 24 -10 45 -10 21 0 42 -4 45 -10 3 -5 16 -10 29 -10 19 0
22 -4 18 -30 -2 -17 -8 -33 -13 -36 -5 -3 -9 -18 -9 -34 0 -16 -4 -32 -10 -35
-5 -3 -10 -22 -10 -41 0 -19 -4 -34 -10 -34 -5 0 -10 -16 -10 -35 0 -19 -4
-35 -10 -35 -5 0 -10 -18 -10 -40 0 -22 -4 -40 -10 -40 -5 0 -10 -13 -10 -30
0 -16 -4 -30 -9 -30 -5 0 -12 -31 -16 -70 -4 -38 -11 -70 -16 -70 -5 0 -9 -18
-9 -40 0 -30 -4 -40 -16 -40 -19 0 -44 24 -44 42 0 8 -9 20 -20 28 -11 8 -20
20 -20 27 0 7 -4 13 -9 13 -5 0 -14 14 -21 30 -7 17 -16 30 -20 30 -5 0 -6 9
-3 20 3 11 0 20 -6 20 -6 0 -11 7 -11 15 0 8 -4 15 -10 15 -5 0 -10 9 -10 20
0 11 -4 20 -10 20 -5 0 -10 9 -10 20 0 11 -4 20 -10 20 -5 0 -10 14 -10 30 0
17 -4 30 -8 30 -11 0 -62 153 -62 186 0 13 -4 24 -10 24 -5 0 -10 16 -10 35 0
19 -4 35 -10 35 -5 0 -10 16 -10 35 0 19 -4 35 -10 35 -5 0 -10 5 -10 10 0 6
11 10 25 10 14 0 25 -4 25 -10z m640 -130 c0 -6 27 -10 61 -10 37 0 58 -4 54
-10 -4 -6 23 -10 74 -10 43 0 81 -4 83 -9 2 -5 94 -13 206 -16 111 -4 202 -12
202 -16 0 -5 -7 -9 -16 -9 -8 0 -12 -4 -9 -10 3 -5 2 -10 -4 -10 -6 0 -40 -29
-77 -65 -37 -36 -73 -65 -81 -65 -8 0 -11 -4 -8 -10 3 -5 1 -10 -5 -10 -7 0
-24 -12 -38 -27 -37 -38 -123 -103 -136 -103 -7 0 -18 -9 -26 -20 -8 -11 -20
-20 -27 -20 -7 0 -13 -4 -13 -8 0 -5 -12 -15 -27 -23 -16 -8 -30 -17 -33 -20
-15 -18 -87 -59 -103 -59 -10 0 -15 -4 -12 -10 3 -5 -3 -10 -14 -10 -12 0 -21
-4 -21 -10 0 -5 -7 -10 -15 -10 -8 0 -15 -4 -15 -10 0 -5 -7 -10 -15 -10 -8 0
-15 -4 -15 -10 0 -5 -9 -10 -19 -10 -11 0 -21 -3 -23 -7 -1 -5 -23 -18 -47
-31 -31 -16 -47 -20 -55 -12 -5 5 -23 10 -38 10 -15 0 -28 5 -28 10 0 6 5 10
10 10 6 0 10 14 10 30 0 17 5 30 10 30 6 0 10 15 10 34 0 19 5 38 10 41 6 3
10 22 10 41 0 19 5 34 11 34 7 0 9 10 7 25 -3 14 -1 28 3 31 5 3 9 21 9 40 0
19 5 34 10 34 6 0 10 18 10 40 0 22 5 40 10 40 6 0 10 16 10 35 0 19 5 35 10
35 6 0 10 14 10 30 0 17 5 30 10 30 6 0 10 20 10 45 0 45 0 45 35 45 19 0 35
-4 35 -10z"/>
<path d="M3079 1998 c-7 -21 -3 -51 8 -55 7 -3 10 -9 7 -14 -3 -5 0 -9 5 -9 6
0 11 -7 11 -15 0 -8 5 -15 10 -15 6 0 10 -8 10 -18 0 -10 9 -24 20 -32 11 -8
20 -21 20 -30 0 -9 9 -22 20 -30 11 -8 20 -20 20 -27 0 -7 4 -13 9 -13 5 0 14
-13 19 -29 5 -15 22 -40 36 -54 14 -14 26 -30 26 -34 0 -5 9 -15 20 -23 11 -8
20 -19 20 -25 0 -6 16 -29 35 -51 50 -56 55 -62 55 -69 0 -4 18 -24 40 -45 21
-21 41 -43 42 -50 4 -16 345 -360 358 -360 5 0 34 -25 65 -55 30 -30 59 -55
65 -55 5 0 10 -4 10 -10 0 -5 5 -10 10 -10 6 0 23 -11 38 -25 15 -14 31 -25
37 -25 6 0 17 -9 25 -20 8 -11 19 -20 25 -20 6 0 17 -9 25 -20 8 -11 20 -20
27 -20 7 0 13 -4 13 -10 0 -5 7 -10 15 -10 8 0 15 -4 15 -10 0 -5 11 -12 25
-16 14 -3 25 -10 25 -15 0 -5 7 -9 15 -9 8 0 15 -4 15 -10 0 -5 7 -10 15 -10
8 0 15 -4 15 -10 0 -5 7 -10 15 -10 8 0 15 -4 15 -10 0 -5 7 -10 15 -10 8 0
15 -4 15 -10 0 -5 7 -10 15 -10 8 0 15 -4 15 -10 0 -5 7 -10 15 -10 8 0 15 -4
15 -10 0 -5 8 -10 18 -10 9 0 34 -11 54 -25 20 -14 42 -25 47 -25 6 0 11 -4
11 -10 0 -5 9 -10 20 -10 11 0 20 -4 20 -10 0 -5 9 -10 20 -10 11 0 20 -4 20
-10 0 -5 7 -10 15 -10 8 0 15 -4 15 -10 0 -5 9 -10 20 -10 11 0 20 -4 20 -10
0 -5 8 -10 18 -10 9 0 39 -11 66 -25 27 -14 55 -25 63 -25 7 0 13 -4 13 -10 0
-5 11 -10 25 -10 14 0 25 -4 25 -10 0 -5 9 -10 20 -10 11 0 20 -4 20 -10 0 -5
11 -10 25 -10 14 0 25 -4 25 -10 0 -5 11 -10 25 -10 14 0 25 -4 25 -9 0 -5 22
-12 50 -16 27 -4 52 -11 56 -16 3 -5 16 -9 30 -9 13 0 24 -4 24 -10 0 -5 11
-10 24 -10 14 0 28 -5 31 -10 3 -6 19 -10 36 -10 16 0 29 -4 29 -10 0 -5 14
-10 30 -10 17 0 30 -4 30 -10 0 -5 16 -10 35 -10 19 0 35 -4 35 -10 0 -5 21
-10 47 -10 25 0 43 -3 39 -7 -7 -7 86 -23 224 -39 25 -3 54 -9 65 -14 11 -5
45 -11 75 -14 30 -3 102 -9 160 -15 134 -13 560 -13 710 0 212 18 225 20 245
29 11 5 40 11 65 14 138 16 231 32 224 39 -4 4 11 7 34 7 23 0 42 5 42 10 0 6
16 10 35 10 19 0 35 5 35 10 0 6 16 10 35 10 19 0 35 5 35 10 0 6 13 10 29 10
17 0 33 5 36 10 3 6 15 10 26 10 10 0 28 5 39 10 11 6 29 14 39 20 11 5 42 12
70 16 28 4 48 10 45 15 -3 5 6 9 20 9 14 0 26 5 26 10 0 6 11 10 25 10 14 0
25 5 25 10 0 6 9 10 20 10 11 0 20 5 20 10 0 6 11 10 25 10 14 0 25 5 25 10 0
6 6 10 13 10 8 0 36 11 63 25 27 14 57 25 67 25 9 0 17 5 17 10 0 6 9 10 20
10 11 0 20 5 20 10 0 6 9 10 20 10 11 0 20 5 20 10 0 6 7 10 15 10 8 0 15 5
15 10 0 6 9 10 20 10 11 0 20 3 20 8 0 4 28 21 63 37 34 17 64 33 65 38 2 4
10 7 18 7 8 0 14 5 14 10 0 6 7 10 15 10 8 0 15 5 15 10 0 6 7 10 15 10 8 0
15 5 15 10 0 6 7 10 15 10 8 0 15 5 15 10 0 6 7 10 15 10 8 0 15 3 15 8 0 4
18 16 40 26 22 11 40 23 40 28 0 4 9 8 21 8 11 0 17 4 14 10 -3 5 1 10 9 10 9
0 16 5 16 10 0 6 5 10 11 10 6 0 23 12 38 28 27 27 53 46 81 59 8 4 22 15 31
25 9 10 19 18 23 18 4 0 26 19 51 42 53 52 72 68 80 68 3 0 22 16 41 36 28 28
35 40 30 60 -6 21 -12 24 -51 24 -25 0 -45 4 -45 9 0 4 -31 12 -70 15 -38 4
-72 11 -75 17 -4 5 -21 9 -40 9 -19 0 -37 5 -40 10 -3 6 -19 10 -35 10 -16 0
-32 4 -35 10 -3 5 -19 10 -35 10 -16 0 -32 5 -35 10 -3 5 -22 10 -41 10 -19 0
-34 5 -34 10 0 6 -13 10 -30 10 -16 0 -30 5 -30 10 0 6 -16 10 -35 10 -19 0
-35 4 -35 9 0 4 -27 11 -60 15 -33 4 -62 11 -65 16 -4 6 -17 10 -30 10 -13 0
-27 5 -30 10 -3 6 -19 10 -36 10 -16 0 -29 5 -29 10 0 12 -47 14 -52 3 -5 -13
-76 -63 -87 -63 -6 0 -11 -4 -11 -10 0 -5 -6 -10 -13 -10 -7 0 -19 -9 -27 -20
-8 -11 -20 -20 -27 -20 -7 0 -13 -4 -13 -10 0 -5 -7 -10 -15 -10 -8 0 -15 -4
-15 -10 0 -5 -5 -10 -10 -10 -6 0 -20 -9 -32 -20 -11 -10 -34 -22 -49 -25 -16
-4 -27 -11 -23 -16 3 -5 -4 -9 -16 -9 -12 0 -18 -4 -15 -10 3 -5 -3 -10 -14
-10 -12 0 -21 -4 -21 -10 0 -5 -7 -10 -15 -10 -8 0 -15 -4 -15 -10 0 -5 -6
-10 -14 -10 -8 0 -16 -4 -18 -8 -5 -12 -112 -62 -132 -62 -9 0 -14 -4 -11 -10
3 -5 -3 -10 -14 -10 -12 0 -21 -4 -21 -10 0 -5 -9 -10 -20 -10 -11 0 -20 -4
-20 -10 0 -5 -9 -10 -20 -10 -11 0 -20 -4 -20 -10 0 -5 -9 -10 -19 -10 -11 0
-23 -5 -26 -10 -3 -6 -15 -10 -26 -10 -10 0 -19 -4 -19 -10 0 -5 -9 -10 -19
-10 -11 0 -22 -4 -26 -9 -3 -6 -26 -13 -50 -17 -25 -3 -45 -10 -45 -15 0 -5
-11 -9 -25 -9 -14 0 -25 -4 -25 -10 0 -5 -11 -10 -25 -10 -14 0 -25 -4 -25
-10 0 -5 -13 -10 -30 -10 -16 0 -30 -4 -30 -10 0 -5 -11 -10 -24 -10 -14 0
-28 -4 -31 -10 -3 -5 -19 -10 -36 -10 -16 0 -29 -4 -29 -10 0 -5 -15 -10 -34
-10 -19 0 -37 -4 -41 -9 -3 -6 -37 -13 -75 -17 -39 -3 -70 -11 -70 -15 0 -5
-20 -9 -45 -9 -25 0 -45 -4 -45 -10 0 -5 -25 -10 -55 -10 -30 0 -55 -4 -55
-10 0 -6 -26 -10 -58 -10 -32 0 -62 -4 -67 -9 -17 -15 -181 -24 -460 -24 -279
0 -443 9 -459 24 -6 5 -38 9 -73 9 -35 0 -63 4 -63 10 0 6 -25 10 -56 10 -34
0 -53 4 -49 10 4 6 -12 10 -39 10 -25 0 -46 4 -46 9 0 5 -34 12 -75 16 -41 4
-77 11 -81 16 -3 5 -18 9 -35 9 -16 0 -29 5 -29 10 0 6 -13 10 -29 10 -17 0
-33 5 -36 10 -3 6 -17 10 -31 10 -13 0 -24 5 -24 10 0 6 -13 10 -30 10 -16 0
-30 5 -30 10 0 6 -11 10 -25 10 -14 0 -25 5 -25 10 0 6 -11 10 -25 10 -14 0
-25 5 -25 10 0 6 -8 10 -17 10 -23 0 -117 33 -121 43 -2 4 -12 7 -23 7 -10 0
-19 5 -19 10 0 6 -9 10 -20 10 -11 0 -20 5 -20 10 0 6 -9 10 -20 10 -11 0 -20
5 -20 10 0 6 -9 10 -20 10 -11 0 -20 5 -20 10 0 6 -9 10 -20 10 -11 0 -20 5
-20 10 0 6 -7 10 -16 10 -15 0 -113 48 -124 61 -3 3 -20 12 -37 20 -18 8 -33
17 -33 21 0 5 -7 8 -15 8 -8 0 -15 5 -15 10 0 6 -6 10 -14 10 -8 0 -16 3 -18
8 -1 4 -21 16 -43 27 -22 11 -47 28 -56 37 -9 10 -23 18 -30 18 -8 0 -21 9
-29 20 -8 11 -19 20 -25 20 -6 0 -17 9 -25 20 -8 11 -21 20 -30 20 -14 0 -41
20 -113 85 -15 14 -32 25 -38 25 -5 0 -7 5 -4 10 3 6 1 10 -5 10 -12 0 -25 10
-81 60 -21 19 -59 53 -84 75 -70 61 -167 155 -160 155 6 0 -46 59 -113 127
-23 23 -40 43 -37 43 5 0 -22 32 -77 91 -22 24 -45 37 -49 27z"/>
</g>
</svg>
