<svg version="1.0" xmlns="http://www.w3.org/2000/svg"
 width="200" height="150" viewBox="0 0 1250 800"
 preserveAspectRatio="xMidYMid meet">

<g transform="translate(0.000000,797.000000) scale(0.100000,-0.100000)"
fill="#3c6186" stroke="none">
<path d="M6216 7955 c-24 -13 -102 -15 -506 -15 -263 0 -485 -3 -494 -6 -9 -3
-16 -15 -16 -26 0 -10 -5 -16 -10 -13 -6 4 -13 -7 -16 -24 -4 -17 -10 -31 -15
-31 -5 0 -9 -7 -9 -15 0 -8 -4 -15 -9 -15 -5 0 -12 -12 -15 -26 -4 -14 -16
-35 -27 -47 -11 -12 -23 -34 -26 -49 -3 -16 -9 -28 -14 -28 -5 0 -9 -6 -9 -14
0 -8 -3 -16 -7 -18 -5 -1 -24 -34 -43 -73 -19 -38 -37 -72 -40 -75 -3 -3 -14
-22 -24 -42 -11 -21 -23 -38 -28 -38 -4 0 -8 -7 -8 -16 0 -18 -31 -77 -42 -82
-15 -7 -8 -70 7 -76 8 -3 20 -17 25 -31 5 -14 14 -25 20 -25 5 0 10 -9 10 -19
0 -10 7 -21 15 -25 8 -3 15 -12 15 -21 0 -8 9 -25 20 -37 42 -48 68 -85 76
-110 4 -10 10 -18 14 -18 5 0 11 -8 14 -18 4 -10 14 -27 24 -38 23 -27 41 -56
48 -76 4 -10 10 -18 14 -18 5 0 12 -10 16 -22 4 -13 15 -30 24 -38 9 -8 20
-25 24 -37 4 -13 12 -23 17 -23 5 0 9 -7 9 -15 0 -8 4 -15 9 -15 5 0 13 -10
17 -22 4 -13 15 -30 24 -38 9 -8 20 -25 24 -37 4 -13 12 -23 17 -23 5 0 9 -7
9 -15 0 -8 4 -15 10 -15 5 0 12 -11 16 -25 3 -14 9 -25 13 -25 3 0 15 -16 25
-35 11 -19 23 -35 28 -35 4 0 8 -7 8 -15 0 -8 4 -15 10 -15 5 0 12 -11 16 -25
3 -14 9 -25 13 -25 3 0 15 -16 25 -35 11 -19 23 -35 28 -35 4 0 8 -7 8 -15 0
-9 7 -18 15 -21 8 -4 15 -14 15 -24 0 -10 7 -20 15 -24 8 -3 15 -14 15 -25 0
-10 7 -21 15 -25 8 -3 20 -17 25 -31 5 -14 14 -25 20 -25 5 0 10 -9 10 -19 0
-10 7 -21 15 -25 8 -3 15 -14 15 -25 0 -10 7 -21 15 -25 8 -3 20 -17 25 -31 5
-14 14 -25 20 -25 5 0 10 -9 10 -19 0 -10 7 -21 15 -25 8 -3 15 -12 15 -21 0
-8 4 -15 9 -15 5 0 12 -8 15 -18 4 -10 14 -27 24 -38 23 -27 41 -56 48 -76 4
-10 10 -18 14 -18 5 0 12 -10 16 -22 4 -13 15 -30 24 -38 9 -8 20 -25 24 -37
4 -13 12 -23 17 -23 5 0 9 -7 9 -15 0 -8 4 -15 9 -15 5 0 13 -10 17 -22 4 -13
15 -30 24 -38 9 -8 20 -25 24 -37 4 -13 12 -23 17 -23 5 0 9 -7 9 -15 0 -8 4
-15 9 -15 5 0 13 -10 17 -22 3 -12 13 -28 20 -36 8 -7 14 -23 14 -34 0 -12 3
-19 6 -15 7 6 34 -16 34 -28 0 -11 28 -35 40 -35 14 0 40 25 40 39 0 6 4 11
10 11 5 0 12 11 16 25 3 14 9 25 14 25 4 0 15 16 26 35 10 19 22 35 25 35 4 0
10 11 13 25 4 14 11 25 16 25 6 0 10 4 10 10 0 5 7 18 15 27 8 10 15 22 14 26
0 5 8 16 19 25 10 9 22 27 26 40 4 12 12 22 17 22 5 0 9 7 9 15 0 8 4 15 9 15
5 0 13 10 17 23 4 12 15 29 24 37 9 8 20 25 24 38 4 12 12 22 17 22 5 0 9 7 9
15 0 8 4 15 9 15 5 0 13 10 17 23 4 12 9 24 13 27 15 12 61 80 61 90 0 6 7 13
15 16 8 4 15 12 15 20 0 8 9 24 20 37 44 49 50 58 50 72 0 9 7 18 15 21 8 4
15 15 15 25 0 10 5 19 10 19 6 0 15 11 20 25 5 14 17 28 25 31 8 4 15 14 15
25 0 10 6 22 13 26 12 8 32 36 44 63 4 8 14 22 23 30 10 8 20 25 24 38 4 12
12 22 17 22 5 0 9 7 9 15 0 8 4 15 10 15 5 0 12 11 16 25 3 14 9 25 14 25 4 0
15 16 26 35 10 19 22 35 26 35 5 0 8 7 8 15 0 8 5 15 11 15 5 0 7 5 4 10 -3 6
-1 10 4 10 6 0 11 7 11 15 0 8 4 15 8 15 5 0 17 16 28 35 10 19 22 35 25 35 4
0 10 11 13 25 4 14 11 25 16 25 6 0 10 4 10 10 0 5 7 18 15 27 8 10 15 22 14
26 0 5 8 16 19 25 10 9 22 27 26 40 4 12 12 22 17 22 5 0 9 7 9 15 0 8 4 15 9
15 5 0 13 10 17 23 4 12 14 29 23 37 19 18 37 46 51 78 5 12 14 22 20 22 5 0
10 7 10 15 0 8 9 25 20 38 44 49 50 58 50 72 0 9 7 18 15 21 8 4 15 12 15 20
0 8 9 23 20 34 21 21 28 70 10 70 -5 0 -10 7 -10 15 0 8 -4 15 -9 15 -5 0 -12
12 -15 26 -4 15 -18 43 -32 63 -13 19 -24 41 -24 48 0 7 -4 13 -10 13 -5 0
-10 7 -10 15 0 8 -4 15 -9 15 -5 0 -11 12 -14 28 -3 15 -15 37 -26 49 -11 12
-23 33 -27 47 -3 14 -10 26 -15 26 -5 0 -9 9 -9 20 0 11 -4 20 -9 20 -5 0 -12
11 -15 25 -4 14 -11 25 -16 25 -6 0 -10 7 -10 15 0 8 -4 15 -9 15 -5 0 -12 12
-16 27 -3 15 -10 30 -14 33 -13 10 -41 60 -41 74 0 7 -7 17 -16 20 -9 3 -236
6 -505 6 -426 0 -490 2 -495 15 -8 19 -31 19 -68 0z m-382 -167 c-11 -13 -29
-41 -40 -63 -10 -22 -21 -42 -24 -45 -3 -3 -21 -36 -40 -75 -19 -38 -38 -71
-42 -73 -5 -2 -8 -10 -8 -18 0 -8 -4 -14 -10 -14 -5 0 -10 7 -10 15 0 8 -5 15
-12 15 -6 0 -9 3 -5 6 3 3 -10 31 -29 62 -19 32 -34 63 -34 70 0 6 -4 12 -9
12 -5 0 -12 14 -16 30 -4 17 -11 30 -16 30 -5 0 -9 5 -9 12 0 6 -10 22 -22 35
l-21 23 183 0 183 0 -19 -22z m306 12 c0 -6 40 -10 100 -10 60 0 100 4 100 10
0 6 18 10 40 10 42 0 50 -9 25 -30 -8 -7 -15 -19 -15 -26 0 -8 -4 -14 -9 -14
-5 0 -12 -12 -16 -27 -3 -15 -10 -30 -13 -33 -4 -3 -20 -31 -37 -62 -16 -32
-32 -58 -36 -58 -3 0 -12 -19 -20 -42 -12 -40 -13 -41 -17 -15 -2 15 -7 27
-12 27 -4 0 -11 11 -14 25 -3 13 -17 41 -31 61 -14 20 -25 43 -25 50 0 8 -4
14 -10 14 -5 0 -10 7 -10 15 0 8 -4 15 -9 15 -5 0 -12 12 -16 28 -3 15 -16 37
-27 50 l-21 22 36 0 c20 0 37 -4 37 -10z m852 1 c-8 -4 -14 -11 -14 -14 0 -18
-11 -47 -18 -47 -8 0 -23 -38 -21 -52 1 -5 -3 -8 -9 -8 -6 0 -10 -7 -10 -15 0
-8 -4 -15 -10 -15 -5 0 -10 -7 -10 -15 0 -15 -27 -65 -41 -75 -4 -3 -11 -18
-14 -33 -8 -29 -25 -37 -25 -12 0 8 -4 15 -9 15 -5 0 -12 14 -16 31 -4 17 -10
28 -13 25 -6 -7 -41 61 -42 82 0 6 -4 12 -10 12 -5 0 -10 7 -10 15 0 8 -4 15
-9 15 -5 0 -12 13 -16 29 -3 15 -15 38 -26 50 l-20 21 178 0 c101 0 172 -4
165 -9z m-1612 -58 c0 -7 4 -13 9 -13 5 0 11 -9 14 -20 8 -31 8 -32 44 -87 18
-29 33 -57 33 -63 0 -5 5 -10 10 -10 6 0 10 -9 10 -19 0 -11 7 -26 15 -35 8
-8 15 -19 15 -25 0 -6 4 -11 9 -11 5 0 12 -12 15 -26 4 -14 16 -35 27 -47 l20
-22 -232 -3 c-128 -1 -234 0 -237 3 -3 3 5 13 16 24 12 10 22 24 22 30 0 7 11
32 25 57 13 24 22 44 19 44 -3 0 3 12 14 28 18 25 26 44 32 67 1 6 10 22 20
36 10 14 22 37 25 51 4 14 15 35 26 47 10 11 19 26 19 33 1 17 30 -21 30 -39z
m610 0 c0 -7 5 -13 10 -13 6 0 10 -7 10 -15 0 -8 5 -15 10 -15 6 0 10 -9 10
-19 0 -11 6 -26 13 -33 6 -7 21 -31 32 -53 11 -22 23 -41 28 -43 4 -2 7 -12 7
-23 0 -10 4 -19 9 -19 5 0 13 -10 17 -22 4 -13 10 -25 15 -28 15 -10 28 -91
15 -96 -6 -2 -105 -3 -219 -2 l-208 3 20 22 c12 12 21 25 21 28 0 13 36 85 42
85 5 0 8 5 8 11 0 13 31 82 40 89 4 3 10 17 14 33 3 15 11 27 16 27 6 0 10 9
10 20 0 11 5 20 10 20 6 0 10 9 10 19 0 11 7 26 15 35 8 8 15 21 15 28 1 17
30 -21 30 -39z m550 32 c0 -8 5 -15 10 -15 6 0 10 -3 9 -7 -2 -16 14 -53 22
-53 5 0 9 -9 9 -20 0 -11 5 -20 10 -20 6 0 10 -3 9 -7 -2 -16 14 -53 22 -53 5
0 9 -7 9 -16 0 -15 29 -74 41 -84 4 -3 10 -16 14 -30 4 -14 18 -41 31 -60 13
-19 24 -38 24 -42 0 -5 -99 -8 -221 -8 l-221 0 7 33 c4 17 11 34 16 35 5 2 9
10 9 18 0 8 5 14 10 14 6 0 10 9 10 20 0 11 7 23 15 26 8 4 15 12 15 19 0 16
32 79 43 83 4 2 7 10 7 18 0 8 5 14 11 14 5 0 7 5 4 10 -3 6 -1 10 4 10 6 0
11 9 11 20 0 11 3 20 8 20 4 0 16 20 27 45 19 45 35 58 35 30z m610 4 c0 -6 7
-17 15 -25 8 -9 15 -24 15 -35 0 -10 5 -19 10 -19 6 0 10 -9 10 -20 0 -11 4
-20 9 -20 5 0 12 -13 16 -30 4 -16 11 -30 16 -30 5 0 9 -9 9 -20 0 -11 4 -20
9 -20 5 0 12 -13 16 -30 4 -16 10 -30 13 -30 7 0 42 -73 42 -86 0 -3 7 -12 15
-20 8 -9 15 -20 15 -25 0 -5 -95 -9 -230 -9 l-229 0 17 33 c9 17 20 34 25 35
4 2 7 10 7 18 0 8 4 14 9 14 5 0 12 11 15 25 4 14 11 25 16 25 6 0 10 9 10 20
0 11 4 20 9 20 5 0 12 14 16 30 4 17 11 30 16 30 5 0 9 5 9 11 0 6 7 17 15 25
8 9 15 24 15 35 0 10 5 19 10 19 6 0 10 7 10 15 0 8 4 15 9 15 5 0 12 14 16
30 6 28 25 43 25 19z m-1684 -544 c-3 -8 -1 -15 4 -15 6 0 10 -20 10 -45 0
-25 4 -45 9 -45 5 0 12 -37 16 -82 4 -46 11 -87 15 -93 8 -10 11 -28 31 -177
7 -49 16 -88 21 -88 4 0 8 -20 8 -44 0 -25 4 -47 9 -50 5 -3 11 -24 13 -47 3
-35 2 -38 -9 -23 -7 10 -13 24 -13 31 0 7 -3 13 -8 13 -4 0 -16 16 -26 35 -11
19 -23 35 -28 35 -4 0 -8 6 -8 14 0 8 -6 21 -13 28 -8 7 -27 33 -42 58 -15 25
-34 51 -42 58 -7 7 -13 18 -13 23 0 5 -9 19 -20 32 -42 47 -68 84 -76 110 -4
9 -9 17 -13 17 -4 0 -15 16 -25 35 -11 19 -23 35 -28 35 -4 0 -8 4 -8 10 0 11
-62 103 -72 108 -5 2 -8 8 -8 14 0 5 -6 16 -12 23 -43 48 -52 45 148 45 161 0
185 -2 180 -15z m647 -7 c-3 -13 -9 -27 -13 -33 -4 -5 -11 -36 -14 -67 -4 -32
-12 -58 -17 -58 -5 0 -9 -16 -9 -35 0 -19 -4 -35 -9 -35 -4 0 -11 -27 -15 -60
-4 -33 -11 -62 -16 -65 -6 -4 -10 -22 -10 -41 0 -19 -4 -34 -9 -34 -5 0 -12
-25 -16 -55 -3 -30 -11 -57 -16 -60 -5 -4 -9 -19 -9 -35 0 -16 -4 -31 -9 -34
-5 -3 -12 -33 -16 -66 -4 -33 -11 -60 -16 -60 -5 0 -9 -16 -9 -35 0 -19 -4
-35 -8 -35 -5 0 -13 -26 -19 -57 -6 -32 -15 -74 -20 -93 -9 -33 -9 -34 -16
-10 -3 14 -9 57 -13 95 -4 39 -10 75 -14 80 -8 11 -13 38 -32 183 -6 50 -15
92 -20 92 -4 0 -8 20 -8 44 0 25 -4 47 -9 50 -5 3 -12 43 -16 88 -4 46 -11 85
-14 88 -4 3 -13 43 -19 90 -23 156 -24 165 -36 172 -6 4 93 8 221 8 l231 0 -5
-22z m709 -15 c-2 -21 -8 -42 -12 -48 -4 -5 -11 -49 -15 -97 -4 -49 -11 -88
-16 -88 -5 0 -9 -19 -9 -43 0 -24 -3 -47 -7 -51 -7 -7 -16 -57 -40 -221 -3
-22 -9 -44 -13 -50 -4 -5 -11 -47 -15 -92 -4 -46 -11 -83 -16 -83 -5 0 -9 -22
-9 -50 0 -27 -4 -50 -10 -50 -5 0 -11 -24 -11 -52 -1 -34 -4 -42 -6 -23 -3 17
-9 34 -14 40 -5 5 -9 19 -9 31 0 13 -4 25 -10 29 -5 3 -12 32 -16 65 -4 33
-11 60 -15 60 -5 0 -9 13 -9 29 0 17 -4 32 -9 35 -5 3 -12 33 -16 66 -4 33
-11 63 -16 66 -5 3 -9 16 -9 29 0 13 -4 26 -10 30 -5 3 -12 32 -16 65 -4 33
-10 60 -14 60 -5 0 -11 27 -15 60 -4 33 -11 63 -16 66 -5 3 -9 21 -9 40 0 19
-4 34 -10 34 -5 0 -12 27 -16 60 -4 33 -11 60 -15 60 -5 0 -9 11 -9 24 0 13
-6 27 -12 29 -7 3 91 6 217 6 l231 1 -4 -37z m558 17 c-13 -11 -19 -20 -14
-20 5 0 4 -4 -2 -8 -6 -4 -24 -27 -39 -52 -16 -24 -34 -51 -42 -58 -7 -7 -13
-18 -13 -24 0 -6 -8 -18 -19 -27 -10 -9 -21 -26 -25 -38 -4 -13 -12 -23 -17
-23 -5 0 -9 -7 -9 -15 0 -8 -4 -15 -9 -15 -9 0 -48 -58 -63 -92 -4 -10 -12
-18 -18 -18 -5 0 -10 -7 -10 -15 0 -8 -3 -15 -8 -15 -4 0 -18 -20 -32 -45 -14
-25 -28 -45 -32 -45 -5 0 -8 -7 -8 -15 0 -8 -4 -15 -8 -15 -5 0 -17 -16 -28
-35 -10 -19 -22 -35 -25 -35 -4 0 -10 -11 -13 -25 -4 -14 -11 -25 -16 -25 -6
0 -10 -7 -10 -15 0 -8 -4 -15 -10 -15 -12 0 -13 47 -1 54 5 3 12 44 16 91 4
47 11 85 16 85 5 0 9 23 9 50 0 28 4 50 8 50 5 0 14 39 21 88 21 154 23 167
32 177 5 5 9 23 9 40 0 16 3 40 6 53 6 22 8 22 192 22 l185 0 -23 -20z m-1110
-232 c0 -16 5 -28 10 -28 6 0 10 -15 10 -34 0 -19 4 -37 10 -41 5 -3 12 -32
16 -65 4 -33 11 -60 15 -60 5 0 9 -16 9 -35 0 -19 4 -35 9 -35 5 0 12 -27 16
-60 4 -33 11 -63 16 -66 5 -3 9 -16 9 -29 0 -13 4 -26 10 -30 5 -3 12 -32 16
-65 4 -33 11 -60 15 -60 5 0 9 -15 9 -34 0 -19 4 -37 10 -41 5 -3 12 -32 16
-65 4 -33 11 -60 15 -60 5 0 9 -7 9 -16 0 -8 7 -37 16 -65 9 -28 13 -56 9 -66
-5 -10 -7 -21 -7 -25 1 -5 -3 -8 -8 -8 -6 0 -10 -7 -10 -15 0 -8 -4 -15 -10
-15 -5 0 -10 -9 -10 -19 0 -11 -5 -23 -10 -26 -6 -4 -8 -11 -5 -16 4 -5 1 -9
-4 -9 -6 0 -11 -7 -11 -15 0 -8 -4 -15 -10 -15 -5 0 -10 -6 -10 -14 0 -14 -29
-75 -40 -86 -3 -3 -14 -25 -25 -50 -11 -25 -22 -47 -25 -50 -11 -11 -40 -72
-40 -86 0 -8 -4 -14 -10 -14 -5 0 -10 -6 -10 -12 0 -7 -11 -14 -25 -14 -20 -2
-26 4 -31 32 -3 19 -9 34 -13 34 -4 0 -15 20 -26 45 -11 25 -23 45 -27 45 -5
0 -8 6 -8 14 0 14 -29 76 -41 86 -3 3 -14 26 -25 52 -10 27 -22 48 -26 48 -5
0 -8 5 -8 11 0 16 -32 83 -44 91 -14 9 -11 107 3 121 6 6 11 21 11 33 0 13 4
25 9 28 5 3 12 33 16 66 4 33 11 60 16 60 5 0 9 15 9 34 0 19 4 37 9 40 4 3
11 29 15 58 4 28 10 57 14 62 6 10 18 57 38 146 3 14 8 32 12 40 7 17 31 120
39 168 3 17 9 32 13 32 4 0 11 29 15 64 6 60 8 64 31 62 19 -1 24 -6 24 -28z"/>
<path d="M4690 6646 c-19 -5 -37 -13 -40 -16 -3 -3 -45 -26 -95 -51 -49 -24
-96 -50 -103 -56 -7 -7 -22 -13 -33 -13 -11 0 -18 -4 -15 -8 3 -4 -15 -17 -40
-28 -24 -10 -44 -22 -44 -26 0 -5 -7 -8 -15 -8 -8 0 -15 -4 -15 -9 0 -5 -10
-13 -22 -17 -12 -3 -31 -15 -42 -26 -11 -10 -31 -21 -43 -24 -13 -4 -20 -10
-17 -15 3 -5 -2 -9 -10 -9 -9 0 -16 -4 -16 -9 0 -5 -10 -13 -22 -17 -12 -3
-27 -12 -33 -18 -6 -6 -26 -22 -44 -36 -18 -14 -39 -31 -46 -37 -8 -7 -16 -13
-20 -13 -4 0 -12 -6 -19 -12 -7 -7 -27 -24 -45 -38 -19 -14 -46 -37 -61 -52
-15 -16 -33 -28 -39 -28 -7 0 -9 -4 -6 -10 3 -5 3 -10 -2 -10 -4 0 -28 -18
-52 -40 -24 -22 -48 -40 -54 -40 -6 0 -7 -3 -4 -6 8 -8 -31 -44 -46 -44 -6 0
-8 -3 -5 -6 3 -3 -28 -41 -71 -84 -74 -76 -140 -150 -197 -220 -16 -19 -37
-44 -46 -54 -10 -11 -18 -23 -18 -26 0 -6 -12 -22 -64 -82 -8 -9 -17 -25 -21
-37 -3 -12 -10 -21 -14 -21 -4 0 -20 -22 -36 -50 -16 -27 -32 -50 -36 -50 -4
0 -10 -11 -13 -25 -4 -14 -11 -25 -16 -25 -6 0 -10 -7 -10 -15 0 -8 -4 -15
-10 -15 -5 0 -12 -11 -16 -25 -3 -14 -10 -25 -15 -25 -5 0 -9 -7 -9 -15 0 -14
-26 -63 -40 -75 -11 -9 -120 -235 -120 -248 0 -6 -3 -12 -8 -12 -8 0 -28 -43
-38 -83 -3 -15 -10 -30 -15 -33 -5 -3 -9 -14 -9 -24 0 -10 -3 -20 -7 -22 -10
-4 -43 -100 -43 -122 0 -10 -4 -14 -10 -11 -6 4 -10 -5 -10 -20 0 -14 -7 -42
-15 -62 -8 -19 -15 -44 -15 -55 0 -10 -4 -17 -9 -14 -5 3 -12 -19 -16 -49 -3
-30 -11 -57 -16 -60 -5 -4 -9 -22 -9 -41 0 -19 -4 -34 -9 -34 -5 0 -12 -29
-16 -65 -3 -36 -11 -67 -16 -70 -5 -4 -9 -26 -9 -50 0 -24 -4 -46 -9 -49 -5
-3 -12 -48 -16 -98 -4 -51 -12 -99 -19 -107 -16 -20 -16 -882 0 -902 7 -8 15
-56 19 -107 4 -50 11 -95 16 -98 5 -3 9 -25 9 -49 0 -24 4 -46 9 -49 5 -3 12
-37 16 -76 4 -38 11 -67 16 -64 5 3 9 -11 9 -30 0 -19 4 -37 9 -41 5 -3 13
-30 16 -60 4 -30 11 -52 16 -49 5 3 9 -6 9 -19 0 -14 7 -38 15 -53 8 -16 15
-42 15 -57 0 -16 4 -26 10 -22 6 3 10 -5 10 -19 0 -14 4 -27 9 -30 5 -4 12
-24 16 -46 4 -22 11 -40 16 -40 5 0 9 -9 9 -19 0 -11 4 -22 9 -25 5 -3 12 -18
15 -33 10 -39 30 -83 38 -83 3 0 10 -15 13 -33 4 -17 10 -34 14 -37 11 -9 41
-71 41 -85 0 -7 3 -15 8 -17 4 -1 16 -21 27 -43 10 -22 27 -52 37 -66 9 -14
15 -29 11 -33 -3 -3 -1 -6 5 -6 7 0 12 -7 12 -15 0 -8 4 -15 9 -15 5 0 12 -11
15 -25 4 -14 11 -25 16 -25 6 0 10 -7 10 -15 0 -8 4 -15 10 -15 5 0 12 -11 16
-25 3 -14 9 -25 13 -25 4 0 20 -22 36 -50 16 -27 34 -50 39 -50 5 0 7 -3 3 -6
-3 -3 1 -13 8 -22 8 -10 35 -46 62 -82 26 -36 50 -67 53 -70 3 -3 25 -30 50
-60 25 -30 52 -62 60 -71 8 -10 35 -40 60 -69 86 -98 277 -280 293 -280 5 0 5
-5 2 -10 -3 -6 -1 -10 6 -10 6 0 24 -12 38 -27 15 -16 42 -39 60 -53 18 -14
39 -31 46 -37 8 -7 19 -13 25 -13 6 0 8 -4 5 -10 -3 -5 0 -10 8 -10 8 0 29
-12 46 -27 47 -43 60 -53 64 -53 6 0 131 -83 137 -91 3 -3 15 -9 28 -13 12 -4
22 -12 22 -17 0 -5 6 -9 14 -9 8 0 16 -3 18 -7 7 -16 71 -44 80 -35 10 10 -10
62 -23 62 -8 0 -19 10 -69 70 -19 23 -56 64 -82 92 -27 28 -48 54 -48 58 0 4
-16 24 -35 43 -19 19 -35 42 -35 50 0 9 -9 18 -19 22 -11 3 -23 15 -26 26 -4
10 -11 19 -16 19 -5 0 -9 5 -9 11 0 7 -11 22 -25 35 -14 13 -25 27 -25 31 0 5
-11 20 -25 35 -14 15 -25 31 -25 35 0 9 -34 55 -62 85 -10 10 -18 25 -18 33 0
8 -5 15 -10 15 -6 0 -15 11 -20 25 -5 14 -17 28 -25 31 -8 4 -15 15 -15 25 0
11 -7 22 -15 25 -8 4 -15 14 -15 24 0 10 -7 20 -15 24 -8 3 -15 12 -15 21 0 8
-3 15 -7 15 -11 0 -43 58 -43 76 0 8 -4 14 -10 14 -5 0 -17 17 -27 38 -9 20
-23 43 -30 50 -7 7 -13 20 -13 28 0 8 -4 14 -10 14 -5 0 -10 7 -10 15 0 8 -4
15 -9 15 -5 0 -12 16 -15 35 -4 19 -11 35 -16 35 -6 0 -10 7 -10 15 0 8 -4 15
-10 15 -5 0 -13 12 -16 28 -4 15 -15 39 -26 54 -10 14 -21 40 -24 57 -4 17
-10 31 -15 31 -5 0 -9 7 -9 15 0 8 -4 15 -10 15 -5 0 -12 16 -16 35 -3 19 -10
35 -15 35 -5 0 -9 11 -9 25 0 14 -4 25 -10 25 -5 0 -13 18 -16 40 -4 22 -10
40 -14 40 -7 0 -21 38 -24 62 -1 3 -4 10 -8 14 -5 4 -8 18 -8 31 0 12 -4 23
-9 23 -5 0 -12 23 -16 50 -4 28 -10 50 -15 50 -8 0 -11 10 -32 118 -6 34 -15
62 -20 62 -4 0 -8 15 -8 34 0 19 -4 37 -9 41 -5 3 -13 41 -17 85 -3 44 -10 80
-14 80 -5 0 -11 26 -14 58 -3 31 -10 98 -15 147 -21 199 -3 648 29 720 5 11
12 50 15 87 4 37 11 70 16 73 5 4 9 19 9 36 0 16 4 29 9 29 4 0 11 27 15 60 4
33 11 60 16 60 6 0 10 11 10 25 0 14 4 25 9 25 5 0 12 20 15 45 4 24 11 47 17
50 5 4 9 15 9 26 0 10 4 19 9 19 5 0 12 18 16 40 4 22 10 40 15 40 4 0 11 16
14 35 4 19 11 35 16 35 6 0 10 9 10 20 0 11 5 20 10 20 6 0 10 7 10 15 0 18
32 89 43 93 4 2 7 10 7 17 0 8 6 20 13 27 16 16 52 90 49 101 -1 4 2 7 6 7 5
0 17 17 28 38 10 20 22 39 25 42 4 3 25 36 48 73 23 38 51 78 61 90 11 11 22
29 26 39 3 10 9 18 14 18 4 0 11 11 14 24 3 14 15 27 26 31 10 3 22 15 26 27
3 11 19 34 35 51 16 16 29 33 29 37 0 4 15 23 33 42 17 20 48 55 67 78 49 59
90 100 100 100 5 0 11 9 15 19 3 11 15 23 26 26 11 4 18 9 15 12 -7 7 33 43
47 43 6 0 8 3 4 6 -7 7 80 94 95 94 5 0 7 4 4 8 -3 5 4 15 16 23 12 8 32 26
46 42 14 15 29 27 32 27 4 0 26 17 48 38 21 20 54 48 72 62 19 14 39 31 46 38
7 6 15 12 19 12 6 0 9 2 64 49 17 14 37 32 45 39 9 6 20 12 26 12 5 0 10 4 10
9 0 5 10 13 22 17 12 3 32 17 45 30 13 13 30 24 38 24 8 0 15 5 15 11 0 14 34
-29 43 -53 3 -10 11 -18 16 -18 5 0 12 -8 15 -18 4 -10 14 -27 24 -38 10 -11
27 -33 38 -49 22 -35 42 -61 67 -87 9 -10 17 -21 17 -26 0 -4 11 -19 25 -34
14 -15 25 -32 25 -38 0 -5 3 -10 8 -10 4 0 16 -16 26 -35 11 -19 23 -35 27
-35 4 0 18 -18 30 -40 13 -22 26 -40 31 -40 4 0 8 -5 8 -11 0 -6 6 -17 13 -24
26 -30 37 -44 37 -50 0 -2 9 -15 19 -27 11 -13 29 -34 40 -47 12 -13 21 -27
21 -30 0 -3 11 -19 25 -35 14 -16 25 -34 25 -40 0 -6 11 -20 25 -30 14 -10 25
-25 25 -33 0 -8 11 -24 25 -37 14 -13 25 -28 25 -35 0 -6 4 -11 8 -11 5 0 14
-10 19 -22 13 -26 36 -57 76 -101 15 -16 27 -34 27 -39 0 -5 11 -20 25 -34 14
-14 25 -30 25 -37 0 -7 9 -19 20 -27 11 -8 20 -20 20 -26 0 -10 11 -24 64 -86
8 -9 19 -25 25 -36 6 -11 17 -26 23 -34 21 -22 68 -86 68 -93 0 -3 11 -16 25
-29 14 -13 25 -27 25 -32 0 -5 11 -21 25 -36 14 -15 25 -31 25 -35 0 -9 34
-55 63 -85 9 -10 17 -23 17 -28 0 -6 11 -21 25 -34 14 -13 25 -26 25 -30 0 -4
6 -14 13 -21 29 -33 37 -45 37 -55 0 -5 4 -10 10 -10 5 0 16 -13 25 -30 11
-21 23 -30 40 -30 14 0 25 4 25 9 0 7 32 52 68 96 5 6 17 24 28 40 10 16 27
39 37 50 9 11 24 28 32 37 8 10 15 22 15 28 0 5 11 20 25 34 14 14 25 30 25
35 0 6 11 21 25 35 14 14 25 29 25 34 0 5 12 23 28 40 40 45 52 60 52 67 0 4
6 13 13 20 27 31 37 44 37 51 0 4 11 17 25 30 14 13 25 30 25 38 0 8 6 19 13
23 8 4 22 22 33 38 10 17 21 32 24 35 13 12 60 79 60 86 0 4 11 17 25 30 14
13 25 28 25 34 0 5 4 10 9 10 5 0 12 8 15 18 4 10 14 27 24 38 10 11 27 33 38
49 10 17 24 34 31 38 7 4 13 14 13 21 0 7 11 22 25 34 14 12 25 29 25 37 0 8
4 15 8 15 4 0 16 14 26 32 20 33 36 53 74 96 12 14 22 28 22 31 0 3 14 22 30
41 17 19 33 43 36 53 3 9 10 17 15 17 5 0 14 11 19 25 5 14 17 28 25 31 8 4
15 12 15 19 0 8 6 20 13 27 7 7 22 26 33 43 10 16 24 37 31 45 56 71 85 107
93 117 6 7 10 17 10 23 0 5 5 10 11 10 5 0 8 4 5 8 -3 5 4 15 15 22 10 8 19
20 19 26 0 7 11 21 25 32 14 11 25 26 25 34 0 7 9 21 20 31 11 9 20 13 20 9 0
-4 16 -16 35 -26 19 -11 35 -22 35 -25 0 -4 16 -15 35 -25 19 -11 35 -23 35
-27 0 -4 8 -10 18 -13 9 -3 31 -17 47 -31 17 -13 43 -35 58 -47 16 -13 39 -33
52 -45 13 -13 28 -23 32 -23 5 0 16 -8 25 -17 9 -10 31 -29 48 -43 41 -32 429
-420 455 -455 11 -15 33 -40 48 -56 16 -16 25 -29 20 -29 -4 0 5 -11 21 -25
16 -14 26 -25 23 -25 -7 0 15 -29 44 -59 9 -9 24 -31 35 -48 10 -18 22 -33 26
-33 4 0 8 -7 8 -15 0 -8 3 -15 8 -15 4 0 16 -16 26 -35 11 -19 22 -35 26 -35
5 0 11 -11 14 -25 4 -14 11 -25 16 -25 6 0 10 -7 10 -15 0 -8 4 -15 10 -15 5
0 12 -11 16 -25 3 -14 10 -25 15 -25 5 0 9 -7 9 -15 0 -8 4 -15 10 -15 5 0 12
-11 16 -25 3 -14 10 -25 15 -25 5 0 9 -8 9 -17 0 -10 14 -38 30 -63 16 -25 30
-53 30 -63 0 -10 5 -15 10 -12 6 3 10 -2 10 -12 0 -10 7 -27 15 -37 8 -11 15
-30 15 -43 0 -13 5 -23 10 -23 6 0 10 -7 10 -15 0 -8 4 -15 10 -15 5 0 13 -18
16 -40 4 -22 10 -40 15 -40 5 0 9 -9 9 -19 0 -11 4 -22 9 -25 5 -4 12 -24 16
-46 4 -22 11 -40 16 -40 5 0 9 -11 9 -24 0 -14 4 -28 10 -31 5 -3 12 -28 16
-55 4 -28 10 -50 14 -50 4 0 10 -15 14 -32 15 -89 32 -164 38 -173 3 -6 9 -48
13 -95 4 -47 11 -90 15 -95 29 -36 28 -647 0 -710 -5 -11 -12 -59 -15 -107 -4
-49 -11 -88 -16 -88 -5 0 -9 -15 -9 -32 0 -18 -5 -51 -11 -73 -6 -22 -13 -51
-15 -65 -3 -14 -9 -34 -13 -45 -10 -24 -30 -99 -38 -137 -3 -16 -9 -28 -14
-28 -5 0 -9 -8 -9 -17 0 -20 -32 -115 -41 -123 -3 -3 -9 -18 -13 -34 -4 -16
-16 -48 -27 -70 -10 -22 -19 -43 -19 -48 0 -15 -35 -88 -42 -88 -4 0 -10 -16
-14 -35 -3 -19 -10 -35 -15 -35 -5 0 -9 -9 -9 -20 0 -11 -5 -20 -10 -20 -6 0
-10 -3 -9 -7 2 -15 -13 -53 -21 -53 -8 0 -23 -38 -21 -52 1 -5 -3 -8 -9 -8 -5
0 -10 -7 -10 -15 0 -8 -4 -15 -10 -15 -5 0 -10 -6 -10 -14 0 -16 -29 -73 -47
-94 -7 -7 -13 -20 -13 -28 0 -8 -4 -14 -10 -14 -5 0 -10 -9 -10 -19 0 -10 -7
-21 -15 -25 -8 -3 -15 -15 -15 -26 0 -11 -4 -20 -10 -20 -5 0 -10 -7 -10 -15
0 -8 -4 -15 -9 -15 -5 0 -13 -10 -17 -22 -4 -13 -13 -28 -21 -33 -14 -10 -34
-41 -52 -82 -6 -13 -15 -23 -21 -23 -5 0 -10 -7 -10 -15 0 -8 -9 -25 -20 -37
-43 -49 -50 -58 -50 -68 0 -5 -11 -20 -25 -34 -14 -14 -25 -30 -25 -35 0 -6
-11 -21 -25 -35 -14 -14 -25 -29 -25 -34 0 -5 -11 -18 -25 -28 -14 -10 -25
-24 -25 -30 0 -7 -15 -29 -32 -49 -43 -48 -69 -78 -93 -110 -11 -15 -39 -47
-62 -72 -24 -25 -43 -47 -43 -50 0 -6 -16 -24 -81 -93 -44 -46 -55 -65 -52
-83 l5 -24 23 23 c13 13 31 24 40 24 8 0 15 3 15 8 0 4 18 16 40 26 22 11 40
22 40 26 0 4 8 10 18 14 24 8 52 26 96 64 8 6 18 12 21 12 4 0 13 6 20 13 30
26 44 37 50 37 3 0 11 5 18 10 16 14 49 41 97 80 21 17 48 40 60 50 12 10 39
33 62 51 60 50 276 266 328 329 25 30 56 67 70 81 33 35 51 58 73 92 10 16 26
36 35 46 29 31 46 54 81 111 18 30 37 57 41 60 14 10 160 253 166 276 3 13 10
24 15 24 5 0 9 7 9 15 0 8 5 15 10 15 6 0 10 4 10 10 0 16 34 90 42 90 4 0 10
16 14 35 3 19 9 35 13 35 7 0 27 45 37 82 3 16 10 28 15 28 5 0 9 8 9 18 0 9
7 30 15 46 8 15 15 35 15 42 0 8 5 14 10 14 6 0 10 8 10 18 0 22 33 116 42
120 5 2 8 15 8 28 0 14 7 41 15 61 8 19 15 44 15 54 0 11 4 19 8 19 5 0 14 28
20 63 22 113 25 122 32 127 3 3 12 39 18 80 6 41 16 100 22 130 33 169 41 315
36 680 -5 347 -11 434 -36 560 -6 30 -16 89 -22 130 -6 41 -15 77 -18 80 -4 3
-10 19 -13 35 -23 115 -32 151 -37 155 -4 3 -10 16 -13 30 -16 69 -32 119 -49
159 -11 25 -22 60 -25 78 -3 18 -9 33 -13 33 -4 0 -15 26 -26 58 -10 31 -22
59 -25 62 -4 3 -10 16 -14 30 -11 41 -29 80 -36 80 -4 0 -10 15 -13 34 -4 19
-10 36 -14 38 -11 5 -42 65 -42 82 0 9 -4 16 -10 16 -5 0 -10 7 -10 15 0 8 -4
15 -9 15 -5 0 -12 12 -15 26 -4 14 -15 38 -25 53 -10 14 -45 69 -76 121 -32
52 -61 97 -64 100 -4 3 -28 37 -54 75 -25 39 -60 86 -77 105 -16 19 -30 38
-30 41 0 3 -10 18 -22 32 -13 14 -43 49 -68 78 -25 29 -63 73 -85 97 -52 59
-246 250 -285 282 -17 14 -44 37 -59 51 -16 14 -43 36 -61 50 -34 26 -63 50
-98 80 -12 10 -26 19 -30 19 -4 0 -19 11 -34 25 -15 14 -31 25 -35 25 -5 0
-19 10 -33 23 -14 13 -32 26 -40 30 -41 20 -59 34 -53 40 3 4 -3 7 -14 7 -11
0 -26 7 -33 15 -7 8 -19 15 -27 15 -8 0 -11 5 -8 10 3 6 -3 10 -14 10 -11 0
-26 7 -35 15 -8 8 -19 15 -24 15 -6 0 -12 3 -14 8 -1 4 -34 23 -73 42 -38 19
-71 38 -73 43 -2 4 -10 7 -17 7 -14 0 -77 30 -85 42 -3 3 -21 9 -41 13 -38 7
-69 -11 -69 -41 0 -8 -4 -14 -8 -14 -5 0 -17 -16 -28 -35 -10 -19 -22 -35 -26
-35 -5 0 -8 -7 -8 -15 0 -8 -4 -15 -9 -15 -5 0 -13 -10 -17 -22 -4 -13 -15
-30 -24 -38 -9 -8 -20 -25 -24 -37 -4 -13 -12 -23 -17 -23 -5 0 -9 -7 -9 -15
0 -8 -3 -15 -8 -15 -4 0 -23 -26 -41 -57 -19 -32 -40 -62 -48 -66 -7 -4 -13
-14 -13 -22 0 -8 -8 -20 -19 -27 -10 -7 -21 -23 -25 -35 -4 -13 -12 -23 -17
-23 -5 0 -9 -7 -9 -15 0 -8 -4 -15 -9 -15 -5 0 -13 -10 -17 -22 -4 -13 -15
-30 -24 -38 -9 -8 -20 -25 -24 -37 -4 -13 -12 -23 -17 -23 -5 0 -9 -7 -9 -15
0 -8 -3 -15 -8 -15 -4 0 -16 -16 -26 -35 -11 -19 -22 -35 -26 -35 -5 0 -11
-11 -14 -25 -4 -14 -11 -25 -16 -25 -6 0 -10 -7 -10 -15 0 -8 -4 -15 -8 -15
-5 0 -18 -18 -31 -40 -12 -22 -26 -40 -32 -40 -5 0 -9 -7 -9 -15 0 -8 -9 -25
-20 -37 -44 -50 -50 -59 -50 -73 0 -9 -7 -18 -15 -21 -8 -4 -15 -12 -15 -20 0
-8 -9 -24 -20 -36 -41 -47 -48 -57 -55 -77 -3 -12 -11 -21 -16 -21 -5 0 -9 -7
-9 -15 0 -8 -3 -15 -8 -15 -4 0 -16 -16 -26 -35 -11 -19 -23 -35 -28 -35 -4 0
-8 -6 -8 -13 0 -8 -11 -27 -25 -43 -14 -16 -28 -37 -31 -46 -3 -10 -9 -18 -14
-18 -4 0 -10 -8 -14 -17 -7 -22 -25 -50 -48 -77 -10 -11 -18 -23 -18 -27 0 -4
-6 -14 -12 -21 -7 -8 -17 -21 -23 -30 -39 -63 -80 -118 -87 -118 -4 0 -8 -6
-8 -13 0 -8 -11 -27 -25 -43 -14 -16 -28 -37 -31 -46 -3 -10 -10 -18 -15 -18
-5 0 -9 -7 -9 -15 0 -8 -4 -15 -9 -15 -5 0 -13 -10 -17 -22 -4 -13 -15 -30
-24 -38 -9 -8 -20 -25 -24 -37 -4 -13 -12 -23 -17 -23 -5 0 -9 -7 -9 -15 0 -8
-4 -15 -10 -15 -5 0 -12 -11 -16 -25 -3 -14 -9 -25 -14 -25 -4 0 -15 -16 -26
-35 -10 -19 -25 -37 -33 -40 -14 -6 -51 26 -51 45 0 5 -4 10 -10 10 -5 0 -12
11 -16 25 -3 14 -9 25 -14 25 -4 0 -15 16 -26 35 -10 19 -22 35 -26 35 -5 0
-8 7 -8 15 0 8 -4 15 -9 15 -5 0 -13 10 -17 23 -4 12 -16 30 -26 39 -11 9 -19
20 -19 25 1 4 -6 16 -14 26 -8 9 -15 22 -15 27 0 6 -3 10 -8 10 -4 0 -16 16
-26 35 -11 19 -23 35 -28 35 -5 0 -6 5 -3 10 3 6 1 10 -4 10 -6 0 -11 6 -11
14 0 8 -7 16 -15 20 -8 3 -15 10 -15 16 0 12 -50 83 -62 88 -5 2 -8 10 -8 18
0 8 -4 14 -9 14 -5 0 -13 10 -17 23 -4 12 -15 29 -24 37 -9 8 -20 25 -24 38
-4 12 -12 22 -17 22 -5 0 -9 7 -9 15 0 8 -3 15 -8 15 -4 0 -16 16 -26 35 -11
19 -23 35 -28 35 -5 0 -6 5 -3 10 3 6 1 10 -4 10 -6 0 -11 7 -11 15 0 8 -4 15
-8 15 -5 0 -17 16 -28 35 -10 19 -22 35 -26 35 -5 0 -8 6 -8 14 0 8 -7 16 -15
20 -8 3 -15 14 -15 25 0 10 -7 21 -15 25 -8 3 -15 14 -15 25 0 10 -7 21 -15
25 -8 3 -20 17 -25 31 -5 14 -14 25 -20 25 -5 0 -10 9 -10 19 0 10 -7 21 -15
25 -8 3 -15 11 -15 19 0 7 -11 23 -25 35 -14 12 -25 29 -25 37 0 8 -3 15 -8
15 -4 0 -16 16 -26 35 -11 19 -23 35 -28 35 -4 0 -8 7 -8 15 0 8 -4 15 -10 15
-5 0 -12 11 -16 25 -3 14 -9 25 -13 25 -3 0 -15 16 -25 35 -11 19 -23 35 -28
35 -4 0 -8 7 -8 15 0 8 -5 15 -11 15 -5 0 -7 5 -4 10 3 6 1 10 -4 10 -6 0 -11
7 -11 15 0 8 -3 15 -8 15 -4 0 -16 16 -26 35 -11 19 -23 35 -28 35 -4 0 -8 7
-8 15 0 9 -7 18 -15 21 -8 4 -15 10 -15 15 0 10 -42 72 -64 94 -9 9 -16 23
-16 31 0 8 -3 14 -8 14 -4 0 -16 16 -26 35 -11 19 -23 35 -28 35 -4 0 -8 7 -8
15 0 8 -4 15 -10 15 -5 0 -12 11 -16 25 -3 14 -9 25 -13 25 -3 0 -15 16 -25
35 -11 19 -23 35 -28 35 -4 0 -8 7 -8 15 0 8 -4 15 -9 15 -5 0 -12 8 -15 18
-3 9 -16 29 -28 43 -21 23 -27 24 -58 15z"/>
</g>
</svg>
