<svg version="1.0" xmlns="http://www.w3.org/2000/svg"
 width="200" height="150" viewBox="0 0 1250 800"
 preserveAspectRatio="xMidYMid meet">

<g transform="translate(0.000000,797.000000) scale(0.100000,-0.100000)"
fill="#3c6186" stroke="none">
<path d="M5030 7931 c-307 -67 -564 -274 -700 -564 -81 -172 -83 -190 -87
-659 l-4 -418 335 0 335 0 3 373 3 372 26 56 c33 71 87 125 158 158 l56 26
1045 3 c1170 3 1119 6 1216 -66 35 -27 59 -57 84 -106 l35 -69 3 -373 3 -374
339 0 340 0 0 318 c-1 438 -14 559 -77 715 -64 159 -210 344 -348 442 -81 58
-231 130 -330 157 l-80 23 -1135 2 c-1067 2 -1140 1 -1220 -16z"/>
<path d="M2755 5958 c-419 -78 -747 -408 -815 -818 -7 -45 -10 -709 -8 -2190
l3 -2125 24 -75 c55 -177 139 -320 260 -441 121 -121 266 -207 441 -261 l75
-23 3445 -3 c2537 -2 3464 0 3518 8 327 51 626 293 755 610 67 165 62 -42 65
2331 l2 2146 -25 99 c-50 196 -175 397 -324 519 -117 97 -221 152 -381 203
l-85 27 -3450 1 c-2123 1 -3469 -2 -3500 -8z m3825 -992 c221 -41 400 -103
580 -198 378 -199 681 -512 865 -892 82 -169 128 -305 168 -491 30 -145 31
-158 31 -395 0 -228 -2 -254 -28 -375 -147 -700 -601 -1243 -1252 -1495 -250
-96 -491 -135 -779 -126 -253 8 -405 35 -620 113 -263 94 -505 245 -709 442
-922 893 -787 2402 279 3113 265 177 579 290 904 328 138 16 411 4 561 -24z"/>
<path d="M5890 3660 l0 -330 -330 0 -330 0 0 -335 0 -335 330 0 330 0 0 -335
0 -335 335 0 335 0 0 335 0 335 330 0 330 0 0 335 0 335 -330 0 -330 0 0 330
0 330 -335 0 -335 0 0 -330z"/>
</g>
</svg>
