<svg version="1.0" xmlns="http://www.w3.org/2000/svg"
 width="200" height="150" viewBox="0 0 1250 800"
 preserveAspectRatio="xMidYMid meet">

<g transform="translate(0.000000,797.000000) scale(0.100000,-0.100000)"
fill="#3c6186" stroke="none">
<path d="M8295 7958 c-99 -4 -274 -12 -390 -17 -493 -22 -702 -29 -890 -30
-130 -1 -195 -5 -185 -11 10 -6 -61 -11 -205 -14 -121 -3 -314 -10 -430 -15
-458 -21 -699 -29 -890 -31 -122 -1 -192 -5 -180 -10 12 -5 -71 -9 -208 -9
-143 -1 -226 -5 -222 -11 3 -6 -75 -11 -207 -14 -117 -3 -305 -10 -418 -15
-500 -22 -718 -30 -900 -30 -130 -1 -190 -5 -180 -11 10 -6 -58 -10 -202 -10
-134 0 -219 -4 -223 -10 -4 -6 -63 -10 -146 -10 l-139 0 0 -425 0 -425 83 0
c45 0 99 4 120 9 21 5 244 12 495 17 251 4 448 10 437 15 -11 4 87 8 218 8
142 1 237 5 237 10 0 6 96 12 233 15 127 3 333 10 457 15 601 24 771 29 965
30 134 1 205 5 195 11 -9 6 71 11 225 14 132 3 341 10 465 15 532 22 768 29
970 31 130 1 207 5 195 10 -12 5 76 9 218 9 142 1 237 5 237 10 0 6 96 12 233
15 127 3 336 10 462 15 127 6 301 13 388 17 l157 6 0 24 c0 13 -3 24 -8 24 -8
0 -42 73 -42 90 0 6 -4 10 -10 10 -5 0 -10 9 -10 20 0 11 -4 20 -10 20 -5 0
-10 9 -10 20 0 11 -4 20 -8 20 -4 0 -16 23 -27 50 -11 28 -23 50 -27 50 -4 0
-8 9 -8 20 0 11 -3 20 -8 20 -8 0 -42 73 -42 90 0 6 -4 10 -10 10 -5 0 -10 9
-10 20 0 11 -4 20 -10 20 -5 0 -10 9 -10 20 0 11 -4 20 -8 20 -4 0 -16 23 -27
50 -11 28 -23 50 -27 50 -4 0 -8 9 -8 20 0 11 -3 20 -8 20 -8 0 -42 73 -42 90
0 6 -4 10 -10 10 -5 0 -10 9 -10 19 0 10 -7 22 -16 25 -20 8 -331 4 -569 -6z"/>
<path d="M8190 6800 c-30 -5 -92 -8 -137 -9 l-83 -1 0 -176 c0 -108 4 -173 10
-169 5 3 11 -60 14 -162 3 -92 10 -242 15 -333 23 -402 30 -565 30 -708 1 -99
5 -151 11 -147 7 4 10 -51 10 -159 0 -99 4 -167 10 -171 6 -4 10 -69 10 -162
0 -86 4 -170 10 -187 8 -28 24 -382 37 -800 l4 -149 76 7 c42 3 87 6 100 6 14
0 21 4 18 10 -4 6 12 10 39 10 25 0 46 5 46 10 0 6 20 10 44 10 25 0 47 4 50
9 4 5 44 12 91 16 47 4 85 11 85 16 0 5 20 9 45 9 25 0 45 5 45 10 0 6 18 10
40 10 45 0 61 20 43 50 -6 9 -14 92 -18 183 -4 92 -12 167 -16 167 -5 0 -9 41
-9 90 0 53 -4 90 -10 90 -6 0 -10 37 -10 90 0 53 -4 90 -10 90 -6 0 -10 33
-10 79 0 44 -4 91 -9 104 -5 13 -13 97 -17 185 -4 89 -11 162 -15 162 -5 0 -9
41 -9 90 0 53 -4 90 -10 90 -6 0 -10 33 -10 79 0 44 -4 91 -9 104 -5 13 -13
97 -17 185 -4 89 -11 162 -15 162 -5 0 -9 41 -9 90 0 53 -4 90 -10 90 -6 0
-10 37 -10 90 0 53 -4 90 -10 90 -6 0 -10 33 -10 79 0 44 -4 91 -9 104 -5 13
-13 97 -17 185 -4 89 -11 162 -15 162 -5 0 -9 41 -9 90 0 53 -4 90 -10 90 -6
0 -10 30 -10 69 0 54 -4 70 -16 75 -21 8 -266 5 -334 -4z"/>
<path d="M5825 6710 c16 -7 13 -9 -17 -9 l-38 -1 0 -50 c0 -27 -4 -50 -10 -50
-5 0 -10 -22 -10 -49 0 -28 -4 -53 -10 -56 -5 -3 -10 -24 -10 -45 0 -34 -4
-41 -25 -46 -14 -3 -22 -10 -19 -15 3 -5 -2 -9 -10 -9 -9 0 -16 -4 -16 -10 0
-5 -7 -10 -15 -10 -8 0 -15 -4 -15 -10 0 -5 -11 -12 -25 -16 -14 -3 -22 -10
-19 -15 3 -5 -2 -9 -10 -9 -9 0 -16 -4 -16 -10 0 -5 -5 -10 -10 -10 -6 0 -23
-11 -38 -25 -15 -14 -32 -25 -39 -25 -7 0 -13 -4 -13 -10 0 -5 -7 -10 -15 -10
-8 0 -15 -4 -15 -8 0 -5 -16 -17 -35 -28 -19 -10 -35 -22 -35 -26 0 -5 -5 -8
-11 -8 -7 0 -19 -8 -28 -18 -9 -9 -28 -23 -42 -31 -22 -11 -28 -22 -33 -65 -3
-28 -6 -66 -6 -83 0 -18 -4 -33 -10 -33 -5 0 -10 -25 -10 -55 0 -30 -4 -55
-10 -55 -5 0 -10 -16 -10 -35 0 -28 4 -35 20 -35 11 0 20 -4 20 -10 0 -5 15
-10 33 -10 28 0 35 -5 45 -32 6 -18 14 -79 18 -135 4 -56 11 -100 15 -97 5 3
9 -24 9 -60 0 -37 4 -66 10 -66 6 0 10 -24 10 -54 0 -30 5 -58 10 -61 6 -3 10
-15 10 -26 0 -16 7 -19 45 -19 25 0 45 -4 45 -9 0 -4 41 -11 92 -15 50 -4 99
-11 109 -16 10 -6 38 -10 63 -10 25 0 46 -4 46 -10 0 -5 23 -10 50 -10 28 0
50 -4 50 -10 0 -15 70 -12 86 4 8 8 14 22 14 30 0 9 3 16 8 16 4 0 21 29 37
65 17 35 33 65 38 65 4 0 7 7 7 15 0 8 4 15 10 15 5 0 12 16 16 35 3 19 10 35
15 35 5 0 9 7 9 15 0 8 5 15 10 15 6 0 10 9 10 20 0 11 5 20 10 20 6 0 10 7
10 15 0 8 5 15 10 15 6 0 10 7 10 16 0 27 33 74 52 74 10 0 18 -5 18 -11 0 -6
17 -9 43 -7 l42 3 13 95 c7 52 15 115 18 140 3 25 10 49 15 55 16 16 10 64
-10 84 -11 11 -28 35 -37 53 -9 18 -25 39 -35 46 -11 7 -19 20 -19 28 0 8 -4
14 -8 14 -5 0 -14 10 -19 23 -11 21 -19 33 -70 97 -13 15 -23 35 -23 44 0 9
-4 16 -10 16 -5 0 -22 19 -37 43 -16 23 -31 44 -35 45 -5 2 -8 10 -8 17 0 7
-6 16 -12 19 -10 5 -10 7 0 12 7 3 12 26 12 60 0 30 4 54 9 54 8 0 15 50 26
178 l5 52 -163 -1 c-100 0 -154 -4 -142 -9z m65 -467 c0 -5 10 -20 23 -35 12
-14 30 -35 39 -47 9 -11 24 -34 33 -51 8 -16 20 -30 25 -30 6 0 10 -8 10 -18
0 -10 9 -24 19 -32 11 -7 18 -17 15 -22 -3 -4 0 -8 5 -8 6 0 11 -5 11 -11 0
-7 10 -20 22 -30 25 -23 18 -35 -10 -20 -12 6 -41 11 -66 11 -25 0 -46 5 -46
10 0 6 -25 10 -56 10 -34 0 -53 4 -49 10 4 6 -15 10 -49 10 -31 0 -56 4 -56 9
0 5 -45 12 -100 16 -55 3 -100 11 -100 16 0 5 3 9 8 9 4 0 20 11 36 25 16 14
34 25 40 25 7 0 18 9 26 20 8 11 20 20 27 20 7 0 13 4 13 8 0 5 17 17 38 28
20 10 44 27 53 37 9 9 20 17 23 17 4 0 14 7 22 15 16 16 44 20 44 8z m-284
-573 c24 0 46 -4 49 -10 3 -5 28 -10 56 -10 27 0 49 -4 49 -9 0 -5 24 -11 53
-14 28 -3 63 -7 77 -11 14 -3 46 -8 71 -11 40 -5 46 -9 42 -25 -3 -11 -9 -20
-13 -20 -4 0 -11 -11 -14 -25 -4 -14 -11 -25 -16 -25 -6 0 -10 -9 -10 -20 0
-11 -4 -20 -10 -20 -5 0 -10 -7 -10 -15 0 -8 -4 -15 -10 -15 -5 0 -10 -9 -10
-20 0 -17 -7 -20 -50 -20 -27 0 -50 5 -50 10 0 6 -25 10 -56 10 -30 0 -53 4
-50 9 3 5 -23 11 -59 13 -35 2 -67 7 -71 10 -3 4 -8 43 -11 87 -3 44 -10 78
-14 75 -5 -3 -9 14 -9 37 0 34 3 40 12 31 7 -7 31 -12 54 -12z"/>
<path d="M4393 6653 c-59 -3 -73 -7 -78 -22 -3 -10 -13 -28 -23 -39 -42 -50
-50 -60 -68 -90 -10 -18 -21 -32 -25 -32 -4 0 -14 -16 -23 -35 -9 -19 -21 -35
-25 -35 -5 0 -14 -13 -21 -30 -7 -16 -16 -30 -21 -30 -5 0 -16 -14 -24 -30 -9
-17 -24 -40 -33 -51 -9 -12 -27 -33 -39 -47 -13 -15 -23 -30 -23 -33 0 -3 -11
-19 -25 -35 -14 -16 -25 -35 -25 -41 0 -7 -4 -13 -10 -13 -5 0 -17 -15 -26
-32 -9 -18 -20 -35 -24 -38 -5 -3 -24 -29 -45 -58 -36 -53 -59 -82 -83 -108
-7 -8 -11 -14 -7 -14 3 0 -3 -10 -15 -22 -11 -12 -20 -28 -20 -35 0 -7 -4 -13
-10 -13 -5 0 -17 -15 -26 -32 -9 -18 -25 -39 -35 -46 -17 -11 -19 -27 -19
-123 0 -66 -4 -108 -9 -104 -6 3 -11 -67 -14 -177 -2 -101 -6 -192 -8 -203 -3
-14 2 -21 17 -23 16 -2 25 5 34 27 7 17 16 31 21 31 5 0 9 6 9 13 0 7 9 19 20
27 11 8 20 18 20 23 0 5 6 15 13 22 30 34 37 45 37 57 0 8 9 20 20 28 11 8 20
18 20 23 0 7 9 20 38 52 6 7 12 18 12 24 0 6 4 11 8 11 4 0 16 15 27 33 10 17
27 39 37 48 10 9 18 20 18 23 0 4 6 14 13 21 30 34 37 45 37 57 0 8 9 20 20
28 11 8 20 18 20 23 0 7 9 20 38 52 6 7 12 16 12 19 0 6 24 37 48 62 7 8 10
14 6 14 -4 0 3 8 14 19 12 10 22 22 22 25 0 4 6 14 13 21 28 33 37 45 37 53 0
5 9 17 20 27 11 10 20 22 20 27 0 8 9 20 38 53 6 7 12 17 12 22 0 5 9 15 20
23 11 8 20 18 20 23 0 7 9 20 38 52 6 7 12 18 12 24 0 6 9 16 20 23 11 7 20
18 20 25 0 6 11 25 25 41 14 17 25 33 25 36 0 4 11 19 25 34 14 15 25 31 25
37 0 6 9 17 20 25 11 8 20 18 20 23 0 7 9 20 38 52 6 7 12 18 12 24 0 6 9 16
20 23 11 7 20 19 20 27 0 7 11 24 25 37 14 13 25 29 25 36 0 8 9 20 20 28 11
8 20 20 20 27 0 13 -165 15 -367 6z"/>
<path d="M3056 6603 c-4 -5 -65 -10 -134 -13 l-127 -5 -8 -85 c-4 -47 -10
-121 -13 -165 -3 -44 -10 -84 -15 -89 -5 -6 -9 -45 -9 -87 0 -43 -4 -81 -10
-84 -5 -3 -10 -42 -10 -86 0 -43 -4 -79 -9 -79 -5 0 -12 -74 -16 -165 -4 -91
-11 -168 -16 -171 -5 -3 -9 -41 -9 -84 0 -43 -4 -82 -10 -85 -5 -3 -10 -42
-10 -86 0 -46 -4 -79 -10 -79 -6 0 -10 -31 -10 -72 -1 -69 -9 -165 -31 -358
-5 -47 -12 -119 -15 -160 -3 -41 -10 -79 -15 -84 -5 -6 -9 -48 -9 -94 0 -46
-4 -81 -9 -78 -4 3 -11 -67 -15 -156 -4 -89 -11 -170 -17 -179 -5 -10 -9 -52
-9 -93 0 -44 -4 -76 -10 -76 -6 0 -10 -37 -10 -91 0 -49 -4 -88 -9 -85 -4 3
-12 -67 -16 -157 -3 -89 -11 -169 -16 -179 -5 -9 -9 -48 -9 -87 0 -38 -4 -73
-10 -76 -5 -3 -10 -44 -10 -91 0 -49 -4 -84 -10 -84 -6 0 -10 -35 -10 -85 0
-47 -4 -85 -9 -85 -5 0 -12 -74 -16 -165 -4 -91 -11 -168 -16 -171 -5 -3 -9
-41 -9 -84 0 -43 -4 -82 -10 -85 -5 -3 -10 -42 -10 -86 0 -43 -4 -79 -8 -79
-5 0 -14 -78 -21 -172 -6 -95 -14 -206 -17 -245 l-6 -73 56 0 c30 0 58 -4 61
-10 3 -5 33 -10 66 -10 33 0 59 -4 59 -10 0 -6 27 -10 60 -10 33 0 60 -4 60
-8 0 -4 55 -14 123 -21 207 -21 222 -23 231 -32 6 -5 33 -9 62 -9 l52 0 7 63
c3 34 8 142 11 240 3 106 9 175 15 172 5 -4 9 68 10 182 0 103 4 179 8 168 5
-11 11 132 15 318 4 186 12 353 17 370 5 18 9 103 9 189 0 94 4 159 10 163 6
4 10 75 10 181 0 109 4 174 10 174 6 0 10 58 11 153 0 83 5 238 10 342 6 105
15 269 20 365 5 96 12 255 15 353 3 99 9 177 15 177 5 0 9 73 9 176 0 96 4
173 9 170 4 -3 11 143 15 325 4 181 12 344 17 362 5 18 9 107 9 199 l0 168
-153 0 c-85 0 -157 -3 -161 -7z"/>
<path d="M7016 3154 c-141 -140 -254 -260 -251 -265 9 -13 3022 -12 3030 1 3
6 0 17 -7 25 -30 33 -38 45 -38 54 0 10 -19 36 -47 66 -7 7 -9 15 -6 19 4 3 1
6 -5 6 -7 0 -12 7 -12 15 0 8 -4 15 -9 15 -5 0 -14 14 -21 30 -7 17 -16 30
-21 30 -4 0 -11 10 -15 23 -4 12 -15 29 -25 38 -11 9 -19 21 -19 28 0 6 -4 11
-8 11 -5 0 -17 18 -27 40 -10 22 -22 40 -27 40 -4 0 -8 7 -8 15 0 8 -4 15 -8
15 -5 0 -15 11 -22 25 -11 21 -21 25 -57 25 -25 0 -52 -4 -62 -10 -10 -5 -55
-12 -99 -16 -45 -4 -79 -11 -76 -15 3 -5 -15 -9 -40 -9 -25 0 -46 -4 -46 -10
0 -5 -20 -10 -44 -10 -25 0 -47 -4 -50 -9 -4 -5 -44 -12 -91 -16 -47 -4 -85
-11 -85 -16 0 -5 -20 -9 -45 -9 -25 0 -45 -4 -45 -10 0 -5 -18 -10 -39 -10
-22 0 -43 -4 -46 -10 -3 -5 -22 -10 -41 -10 -20 0 -43 -4 -53 -10 -10 -5 -55
-12 -99 -16 -45 -4 -79 -11 -76 -15 3 -5 -15 -9 -40 -9 -25 0 -46 -4 -46 -10
0 -5 -19 -10 -43 -10 -24 0 -48 -5 -54 -11 -15 -15 -160 -16 -175 -1 -7 7 -22
12 -35 12 -13 0 -23 5 -23 10 0 6 -11 10 -25 10 -14 0 -25 4 -25 9 0 5 -22 11
-50 15 -27 4 -52 11 -55 16 -3 6 -17 10 -31 10 -13 0 -24 5 -24 10 0 6 -14 10
-31 10 -17 0 -28 4 -24 10 4 6 -7 10 -24 10 -17 0 -31 4 -31 9 0 5 -22 12 -50
16 -27 4 -52 11 -56 16 -3 5 -16 9 -30 9 -13 0 -24 5 -24 10 0 6 -11 10 -25
10 -14 0 -25 4 -25 9 0 5 -22 11 -50 15 -27 4 -52 11 -55 16 -21 34 -58 5
-309 -246z"/>
<path d="M4804 3366 c-7 -7 -15 -27 -19 -44 -3 -18 -11 -32 -16 -32 -5 0 -9
-9 -9 -20 0 -11 -4 -20 -10 -20 -5 0 -10 -11 -10 -25 0 -14 -4 -25 -10 -25 -5
0 -10 -9 -10 -21 0 -11 -4 -18 -9 -15 -5 4 -12 -12 -16 -34 -4 -22 -11 -40
-16 -40 -5 0 -9 -7 -9 -15 0 -8 -4 -15 -10 -15 -5 0 -10 -11 -10 -25 l0 -25
-150 0 -150 0 0 -170 0 -170 70 0 c40 0 70 -4 70 -10 0 -5 -4 -10 -10 -10 -5
0 -10 -8 -10 -18 0 -10 -7 -27 -15 -38 -8 -10 -15 -26 -15 -36 0 -9 -3 -18 -7
-20 -11 -4 -53 -87 -53 -104 0 -8 -5 -14 -11 -14 -5 0 -7 -4 -4 -10 4 -7 -65
-10 -199 -10 l-206 0 0 -170 0 -170 125 0 c114 0 145 -7 115 -25 -5 -3 -10
-15 -10 -26 0 -10 -3 -19 -8 -19 -9 0 -42 -74 -42 -95 0 -8 -4 -15 -10 -15 -5
0 -10 -6 -11 -12 0 -18 -48 -116 -49 -100 0 9 -53 12 -231 12 -151 0 -228 -3
-224 -10 3 -5 1 -10 -4 -10 -7 0 -11 -57 -11 -170 l0 -170 160 0 c106 0 160
-4 160 -11 0 -5 -4 -8 -9 -5 -5 4 -12 -12 -16 -34 -4 -22 -11 -40 -16 -40 -5
0 -9 -7 -9 -15 0 -8 -4 -15 -10 -15 -5 0 -10 -11 -10 -25 0 -14 -4 -25 -9 -25
-5 0 -12 -18 -16 -40 -4 -22 -11 -40 -16 -40 -5 0 -9 -7 -9 -15 0 -8 -4 -15
-10 -15 -5 0 -10 -9 -10 -20 0 -11 -4 -20 -10 -20 -5 0 -10 -11 -10 -25 0 -14
-5 -25 -10 -25 -6 0 -9 -3 -8 -7 3 -15 -14 -63 -23 -63 -5 0 -9 -9 -9 -20 0
-11 -4 -20 -10 -20 -5 0 -10 -7 -10 -15 0 -13 -31 -15 -220 -15 l-220 0 0
-170 0 -170 148 0 c117 -1 144 -3 131 -13 -9 -7 -24 -38 -34 -69 -10 -32 -22
-58 -26 -58 -5 0 -9 -9 -9 -20 0 -11 -4 -20 -9 -20 -10 0 -24 -38 -22 -58 1
-6 -3 -12 -9 -12 -5 0 -10 -9 -10 -19 0 -11 -4 -23 -10 -26 -5 -3 -10 -19 -10
-36 0 -23 4 -29 22 -29 23 0 131 -49 136 -62 2 -4 14 -8 26 -8 12 0 31 -7 42
-15 10 -8 27 -15 37 -15 9 0 17 -4 17 -10 0 -5 9 -10 20 -10 13 0 20 7 20 20
0 11 4 20 9 20 5 0 13 14 16 32 4 17 16 45 26 62 10 17 19 39 19 49 0 9 3 17
8 17 7 0 29 45 53 112 7 21 17 38 21 38 4 0 8 9 8 20 0 11 4 20 8 20 4 0 13
20 20 45 l12 45 1276 0 1276 0 -5 28 c-11 54 -31 127 -36 132 -14 12 -31 51
-31 70 0 11 -4 20 -9 20 -5 0 -12 20 -15 45 l-7 45 -1146 2 c-1073 3 -1146 4
-1130 20 9 9 17 24 17 32 0 9 5 16 10 16 6 0 10 11 10 25 0 14 5 25 10 25 6 0
9 3 8 8 -3 14 14 62 23 62 5 0 9 9 9 20 0 11 3 20 8 20 9 0 28 45 37 88 4 17
11 32 16 32 5 0 9 9 9 20 0 11 3 20 8 20 8 0 32 49 32 67 0 7 5 13 10 13 6 0
9 3 9 8 -5 32 -11 32 921 32 l920 0 0 29 c0 17 -5 33 -11 36 -6 4 -8 13 -5 21
3 7 1 16 -4 19 -6 4 -10 17 -10 31 0 13 -4 24 -10 24 -5 0 -10 9 -10 20 0 11
-4 20 -10 20 -5 0 -10 11 -10 25 0 14 -4 25 -9 25 -5 0 -12 20 -15 45 -6 36
-11 45 -27 45 -11 0 -17 5 -14 10 4 7 -253 10 -764 10 -475 0 -771 4 -771 9 0
6 5 13 10 16 6 3 10 15 10 26 0 10 4 19 9 19 5 0 12 8 15 18 4 9 12 33 19 52
7 19 24 59 37 88 l24 52 658 0 c651 0 658 0 658 20 0 11 -4 20 -9 20 -5 0 -12
20 -15 45 -4 25 -11 45 -17 45 -5 0 -9 11 -9 25 0 14 -4 25 -10 25 -5 0 -10
11 -10 25 0 14 -4 25 -9 25 -8 0 -25 56 -22 73 1 4 -5 15 -13 23 -12 12 -96
14 -528 16 l-513 3 510 5 510 5 -508 3 -508 2 7 23 c3 12 11 24 15 25 5 2 9
12 9 23 0 10 3 19 8 19 8 0 32 49 32 67 0 7 4 13 9 13 5 0 12 18 16 40 l7 40
409 0 409 0 0 25 c0 14 -4 25 -9 25 -10 0 -25 47 -22 67 1 6 -3 14 -9 18 -5 3
-10 17 -10 31 0 13 -4 24 -10 24 -5 0 -10 5 -10 10 0 6 127 10 360 10 l360 0
55 55 c30 31 55 61 55 68 0 9 -162 12 -712 10 -392 -1 -707 1 -700 3 6 3 12
14 12 25 0 10 5 19 10 19 6 0 10 7 10 15 0 8 5 15 10 15 6 0 10 9 10 20 0 11
11 43 25 72 29 59 30 68 12 68 -18 0 -67 24 -67 33 0 4 -12 7 -26 7 -14 0 -23
4 -20 9 4 5 -12 12 -34 16 -22 4 -40 11 -40 16 0 5 -9 9 -20 9 -11 0 -20 5
-20 10 0 6 -9 10 -20 10 -11 0 -20 5 -20 10 0 14 -33 12 -46 -4z"/>
<path d="M6045 2540 c4 -25 11 -46 16 -48 5 -2 9 -15 9 -28 0 -13 5 -24 10
-24 6 0 10 -7 10 -15 0 -9 9 -34 19 -56 11 -21 22 -57 26 -79 4 -22 11 -38 16
-34 5 3 9 -9 9 -25 0 -17 5 -31 10 -31 6 0 10 -11 10 -24 0 -13 5 -26 11 -28
5 -2 13 -22 16 -46 3 -23 10 -42 14 -42 5 0 9 -11 9 -25 0 -14 5 -25 10 -25 6
0 10 -7 10 -15 0 -8 5 -24 10 -35 6 -11 14 -28 19 -39 5 -10 13 -35 16 -55 4
-20 11 -36 16 -36 5 0 9 -11 9 -25 0 -14 5 -25 10 -25 6 0 10 -8 10 -19 0 -10
7 -32 15 -47 8 -16 15 -39 15 -51 0 -13 5 -23 10 -23 6 0 10 -13 10 -30 0 -16
4 -30 9 -30 5 0 15 -20 22 -45 7 -25 17 -45 21 -45 4 0 7 -3 6 -7 -3 -17 15
-83 23 -83 5 0 9 -11 9 -25 0 -14 5 -25 10 -25 6 0 10 -11 10 -25 0 -14 4 -25
9 -25 6 0 13 -20 17 -45 3 -25 10 -45 15 -45 5 0 9 -11 9 -24 0 -13 3 -26 8
-28 8 -4 39 -84 56 -146 6 -24 15 -40 19 -36 4 4 7 -5 7 -19 0 -15 5 -27 10
-27 6 0 10 -13 10 -29 0 -16 5 -31 11 -33 5 -2 13 -22 16 -46 3 -23 10 -42 14
-42 5 0 9 -11 9 -25 0 -14 5 -25 10 -25 6 0 10 -9 10 -19 0 -11 5 -23 10 -26
6 -3 10 -15 10 -26 0 -26 13 -24 41 7 56 62 114 114 126 114 7 0 13 5 13 10 0
6 7 10 15 10 8 0 15 3 15 8 0 11 77 42 106 42 14 0 23 4 19 10 -4 6 12 10 39
10 25 0 46 5 46 10 0 6 28 10 64 10 36 0 68 -4 71 -10 3 -5 26 -10 51 -10 28
0 43 -4 39 -10 -4 -6 5 -10 21 -10 30 0 134 -47 134 -61 0 -5 7 -9 15 -9 15 0
135 -115 135 -130 0 -5 7 -16 16 -24 14 -14 75 -16 525 -16 335 0 509 3 509
10 0 22 135 160 157 160 7 0 13 5 13 10 0 6 7 10 15 10 8 0 15 3 15 8 0 10 75
42 100 42 11 0 20 5 20 10 0 6 20 10 44 10 25 0 48 5 51 10 8 13 135 13 135 0
0 -5 21 -10 46 -10 27 0 43 -4 39 -10 -4 -6 5 -10 19 -10 29 0 106 -31 106
-42 0 -5 7 -8 15 -8 8 0 15 -4 15 -10 0 -5 7 -10 15 -10 14 0 99 -78 106 -98
2 -5 14 -13 27 -16 20 -7 22 -4 22 33 0 22 5 43 10 46 6 3 10 22 10 41 0 19 5
34 10 34 6 0 10 16 10 35 0 19 4 35 8 35 7 0 23 70 38 173 4 20 10 37 15 37 5
0 9 16 9 35 0 19 5 35 10 35 6 0 10 15 10 34 0 19 4 37 9 40 5 3 12 35 16 71
3 36 11 67 16 70 5 4 9 22 9 41 0 19 5 34 10 34 6 0 10 16 10 35 0 19 4 35 8
35 7 0 23 70 38 173 4 20 10 37 15 37 5 0 9 16 9 35 0 19 5 35 10 35 6 0 10
15 10 34 0 19 4 37 9 40 5 3 12 35 16 71 3 36 11 67 16 70 5 4 9 22 9 41 0 19
5 34 10 34 6 0 10 16 10 35 0 19 4 35 8 35 7 0 23 70 38 173 4 20 10 37 15 37
5 0 9 15 9 34 0 19 4 36 10 38 5 2 12 32 16 68 l6 65 -2067 0 -2067 0 7 -45z"/>
<path d="M7140 580 c0 -5 -5 -10 -12 -10 -6 0 -26 -11 -44 -25 -18 -14 -37
-25 -42 -25 -5 0 -17 -18 -28 -40 -10 -22 -22 -40 -26 -40 -5 0 -8 -11 -8 -25
0 -14 -4 -25 -10 -25 -6 0 -10 -33 -10 -80 0 -44 4 -80 8 -80 4 0 14 -16 21
-35 15 -42 92 -125 116 -125 9 0 13 -4 10 -10 -4 -6 40 -10 125 -10 85 0 129
4 125 10 -3 5 1 10 10 10 37 0 135 128 135 176 0 13 5 24 10 24 6 0 10 18 10
39 0 22 -4 43 -10 46 -5 3 -10 22 -10 41 0 19 -4 34 -10 34 -5 0 -10 5 -10 10
0 21 -87 110 -107 110 -7 0 -13 5 -13 10 0 6 -7 10 -15 10 -8 0 -15 5 -15 10
0 6 -40 10 -100 10 -60 0 -100 -4 -100 -10z"/>
<path d="M9130 580 c0 -5 -4 -10 -9 -10 -27 0 -101 -59 -118 -92 -10 -21 -21
-38 -25 -38 -5 0 -8 -11 -8 -25 0 -14 -4 -25 -10 -25 -6 0 -10 -33 -10 -80 0
-44 4 -80 8 -80 4 0 14 -16 21 -35 15 -42 92 -125 116 -125 9 0 13 -4 10 -10
-4 -6 40 -10 125 -10 85 0 129 4 125 10 -3 5 1 10 10 10 37 0 135 128 135 176
0 13 5 24 10 24 6 0 10 18 10 39 0 22 -4 43 -10 46 -5 3 -10 22 -10 41 0 19
-4 34 -10 34 -5 0 -10 5 -10 10 0 21 -87 110 -107 110 -7 0 -13 5 -13 10 0 6
-7 10 -15 10 -8 0 -15 5 -15 10 0 6 -40 10 -100 10 -60 0 -100 -4 -100 -10z"/>
</g>
</svg>
