<svg version="1.0" xmlns="http://www.w3.org/2000/svg"
 width="200" height="150" viewBox="0 0 1250 800"
 preserveAspectRatio="xMidYMid meet">

<g transform="translate(0.000000,797.000000) scale(0.100000,-0.100000)"
fill="#3c6186" stroke="none">
<path d="M6180 7947 c-14 -6 -27 -14 -30 -18 -3 -4 -24 -12 -47 -19 -24 -7
-43 -17 -43 -22 0 -4 -6 -8 -12 -8 -7 0 -35 -12 -63 -25 -27 -14 -56 -25 -62
-25 -7 0 -13 -4 -13 -8 0 -5 -18 -15 -40 -22 -22 -7 -40 -17 -40 -22 0 -4 -4
-8 -9 -8 -5 0 -22 -5 -38 -12 -15 -6 -30 -12 -33 -13 -48 -19 -70 -31 -70 -37
0 -4 -5 -8 -12 -8 -6 0 -34 -11 -62 -24 -29 -14 -64 -28 -79 -31 -15 -4 -27
-11 -27 -16 0 -5 -6 -9 -12 -9 -7 0 -40 -14 -73 -30 -33 -16 -66 -30 -72 -30
-7 0 -13 -4 -13 -9 0 -5 -12 -12 -27 -16 -15 -3 -40 -15 -55 -27 -16 -11 -44
-24 -63 -29 -19 -6 -35 -14 -35 -19 0 -4 -13 -11 -30 -15 -16 -4 -30 -10 -30
-14 0 -5 -20 -14 -45 -21 -25 -7 -45 -17 -45 -21 0 -5 -6 -9 -12 -9 -16 0
-122 -52 -126 -62 -2 -4 -10 -4 -18 -1 -8 3 -14 0 -14 -6 0 -6 -6 -11 -12 -11
-7 0 -35 -12 -63 -25 -27 -14 -56 -25 -62 -25 -7 0 -13 -4 -13 -10 0 -5 -5
-10 -12 -10 -6 0 -34 -11 -62 -24 -112 -52 -167 -76 -176 -76 -6 0 -10 -4 -10
-10 0 -5 -6 -10 -13 -10 -8 0 -44 -16 -80 -35 -36 -19 -73 -35 -82 -35 -9 0
-14 -4 -11 -9 3 -4 -14 -14 -37 -21 -23 -7 -44 -15 -47 -19 -5 -6 -59 -33
-161 -80 -25 -12 -51 -21 -57 -21 -7 0 -12 -4 -12 -10 0 -5 -5 -10 -12 -10
-10 0 -44 -15 -164 -71 -22 -10 -46 -19 -52 -19 -7 0 -12 -4 -12 -10 0 -5 -4
-10 -10 -10 -9 0 -45 -16 -186 -81 -22 -11 -46 -19 -52 -19 -7 0 -12 -3 -12
-7 0 -5 -20 -17 -45 -28 -25 -11 -45 -22 -45 -26 0 -3 -20 -12 -45 -19 -25 -7
-45 -16 -45 -21 0 -4 -14 -10 -30 -14 -17 -4 -30 -11 -30 -17 0 -6 -7 -7 -16
-4 -8 3 -13 2 -9 -3 3 -5 -8 -12 -25 -16 -16 -4 -30 -11 -30 -17 0 -6 -9 -8
-20 -5 -11 3 -18 1 -15 -3 3 -5 -8 -11 -25 -15 -16 -4 -30 -11 -30 -16 0 -5
-5 -9 -12 -9 -6 0 -48 -18 -92 -39 -45 -22 -103 -49 -131 -61 -27 -12 -73 -33
-101 -46 -28 -13 -56 -24 -62 -24 -6 0 -12 -4 -14 -8 -1 -4 -21 -15 -43 -23
l-40 -15 -3 -162 -2 -162 3725 0 3725 0 -2 162 -3 162 -40 15 c-22 8 -41 19
-43 23 -2 4 -8 8 -14 8 -6 0 -34 11 -62 24 -28 13 -73 34 -101 46 -91 40 -140
65 -143 73 -2 4 -9 7 -15 7 -6 0 -30 9 -54 20 -24 11 -64 29 -90 41 -84 37
-158 74 -163 80 -3 4 -24 12 -47 19 -24 7 -43 16 -43 19 0 4 -20 15 -45 26
-25 11 -45 23 -45 28 0 4 -5 7 -12 7 -6 0 -31 9 -55 20 -24 11 -64 30 -90 41
-27 12 -84 38 -128 59 -145 69 -194 90 -204 90 -6 0 -11 5 -11 10 0 6 -5 10
-12 10 -12 0 -27 7 -163 71 -38 18 -73 32 -77 31 -5 -1 -8 2 -8 7 0 5 -13 12
-30 16 -16 4 -30 10 -30 15 0 4 -12 11 -27 15 -15 3 -38 14 -52 24 -25 17 -73
41 -186 91 -27 12 -74 33 -103 46 -29 13 -57 24 -62 24 -6 0 -10 5 -10 10 0 6
-6 10 -12 10 -7 0 -35 11 -63 25 -27 13 -56 25 -62 25 -7 0 -13 5 -13 10 0 6
-5 10 -12 10 -6 0 -40 14 -75 30 -34 17 -68 30 -73 30 -6 0 -10 4 -10 9 0 4
-20 14 -45 21 -25 7 -45 16 -45 21 0 4 -13 10 -30 14 -16 4 -30 10 -30 14 0 4
-17 13 -37 20 -21 8 -40 17 -43 20 -9 12 -243 121 -258 121 -7 0 -12 4 -12 9
0 4 -20 14 -45 21 -25 7 -45 17 -45 21 0 5 -5 9 -12 9 -6 0 -39 13 -72 29
-103 49 -190 88 -213 95 -13 4 -23 12 -23 17 0 5 -6 9 -12 9 -7 0 -35 11 -63
25 -27 13 -56 25 -62 25 -7 0 -13 4 -13 8 0 5 -18 14 -40 21 -22 6 -40 15 -40
20 0 10 -70 31 -101 30 -13 0 -35 -6 -49 -12z"/>
<path d="M3227 5803 c-4 -3 -7 -116 -7 -250 l0 -243 3015 0 3015 0 0 244 c0
213 -2 245 -16 250 -22 8 -5999 8 -6007 -1z"/>
<path d="M3497 4968 c-4 -128 -7 -317 -7 -420 0 -114 -4 -189 -10 -193 -6 -4
-10 -97 -11 -243 -1 -247 -23 -1205 -39 -1687 -15 -447 -26 -880 -22 -885 2
-3 204 -6 449 -8 l446 -3 -6 283 c-4 156 -10 454 -13 663 -4 209 -10 385 -14
390 -4 6 -13 323 -19 705 -7 382 -16 713 -21 735 -5 22 -12 232 -16 468 l-6
427 -353 0 -352 0 -6 -232z"/>
<path d="M5076 4943 c-3 -228 -29 -1188 -42 -1613 -3 -85 -12 -454 -21 -820
-8 -366 -17 -732 -20 -814 -3 -116 -1 -151 9 -157 16 -11 869 -12 883 -1 8 5
8 88 3 262 -19 644 -38 1292 -52 1820 -30 1119 -44 1549 -50 1567 -4 10 -78
13 -355 13 l-350 0 -5 -257z"/>
<path d="M6669 5123 c-1 -43 -5 -217 -10 -388 -5 -170 -15 -674 -24 -1120 -9
-445 -20 -826 -25 -845 -5 -19 -14 -282 -19 -585 -6 -302 -12 -572 -13 -600
l-3 -50 449 -3 449 -2 -6 257 c-4 142 -9 429 -13 638 -3 209 -9 391 -14 405
-5 14 -14 343 -21 733 -7 389 -16 707 -19 707 -4 0 -11 206 -15 458 -4 251 -9
460 -12 465 -2 4 -161 7 -354 7 l-349 0 -1 -77z"/>
<path d="M8250 4993 c0 -114 -5 -243 -10 -287 -6 -45 -15 -315 -20 -601 -5
-286 -19 -898 -31 -1360 -11 -462 -22 -923 -22 -1025 l-2 -185 440 -2 c242 -2
445 1 450 5 10 7 10 58 -19 1002 -9 283 -18 587 -21 675 -2 88 -12 414 -20
725 -9 311 -20 716 -25 900 -6 184 -12 341 -15 347 -3 10 -83 13 -355 13
l-350 0 0 -207z"/>
<path d="M2860 1195 l0 -235 -200 0 -200 0 0 -235 0 -235 -190 0 -190 0 0
-240 0 -240 4150 0 4150 0 0 240 0 240 -185 0 -185 0 0 235 0 235 -200 0 -200
0 0 235 0 235 -3375 0 -3375 0 0 -235z"/>
</g>
</svg>
