<?xml version="1.0" standalone="no"?>
<!DOCTYPE svg PUBLIC "-//W3C//DTD SVG 20010904//EN"
 "http://www.w3.org/TR/2001/REC-SVG-20010904/DTD/svg10.dtd">
<svg version="1.0" xmlns="http://www.w3.org/2000/svg"
 width="250.000000pt" height="250.000000pt" viewBox="0 0 250.000000 250.000000"
 preserveAspectRatio="xMidYMid meet">
<metadata>
Created by potrace 1.11, written by Peter Selinger 2001-2013
</metadata>
<g transform="translate(0.000000,250.000000) scale(0.100000,-0.100000)"
fill="#000000" stroke="none">
<path d="M1098 2491 c-1 -6 -23 -12 -48 -15 -110 -13 -302 -85 -422 -158 -256
-155 -446 -391 -538 -666 -48 -144 -62 -233 -62 -387 0 -77 2 -156 5 -175 15
-96 21 -122 49 -210 130 -407 466 -726 873 -828 114 -29 135 -32 281 -38 129
-5 147 -3 354 41 44 9 190 69 257 105 116 63 198 125 293 220 169 170 267 349
331 597 27 108 29 129 29 299 0 116 -4 184 -10 184 -5 0 -10 11 -10 24 0 48
-52 204 -104 311 -165 338 -463 577 -829 666 -43 10 -87 19 -98 19 -10 0 -19
5 -19 10 0 13 -327 14 -332 1z"/>
</g>
</svg>
