<?xml version="1.0" standalone="no"?>
<!DOCTYPE svg PUBLIC "-//W3C//DTD SVG 20010904//EN"
 "http://www.w3.org/TR/2001/REC-SVG-20010904/DTD/svg10.dtd">
<svg version="1.0" xmlns="http://www.w3.org/2000/svg"
 width="1280.000000pt" height="1156.000000pt" viewBox="0 0 1280.000000 1156.000000"
 preserveAspectRatio="xMidYMid meet">
<metadata>
Created by potrace 1.15, written by Peter Selinger 2001-2017
</metadata>
<g transform="translate(0.000000,1156.000000) scale(0.100000,-0.100000)"
fill="#fd7e14" stroke="none">
<path d="M8250 11554 c-19 -2 -84 -9 -145 -15 -195 -19 -370 -69 -612 -175
-58 -25 -125 -58 -148 -72 -23 -15 -162 -155 -309 -312 -294 -314 -311 -338
-391 -557 -27 -72 -52 -120 -84 -160 -55 -68 -211 -188 -517 -398 -298 -204
-334 -239 -334 -324 0 -53 41 -100 106 -124 30 -10 75 -41 114 -76 l64 -59
-41 11 c-59 15 -109 -13 -145 -82 l-27 -51 -6 37 c-11 69 -47 133 -105 187
-70 64 -323 257 -370 281 -47 25 -115 24 -167 -3 l-42 -22 -11 34 c-13 42 -43
70 -100 95 -25 11 -223 56 -440 101 -456 94 -430 88 -430 104 0 7 -9 21 -19
30 -18 16 -23 16 -72 2 -49 -15 -60 -15 -129 0 -88 19 -85 16 -180 176 -67
113 -90 138 -124 138 -9 0 -45 -36 -81 -79 -36 -43 -72 -82 -81 -85 -29 -11
-54 16 -133 139 -119 187 -147 192 -272 54 -104 -116 -112 -113 -160 53 -25
88 -46 115 -77 99 -24 -13 -73 -87 -106 -164 -14 -31 -31 -57 -38 -57 -20 0
-503 117 -622 150 -123 35 -155 31 -175 -18 -6 -15 -44 -148 -85 -297 -41
-148 -115 -417 -165 -597 -50 -180 -91 -338 -91 -352 0 -64 77 -106 323 -176
64 -19 117 -38 117 -44 0 -33 -279 -606 -363 -746 -35 -57 -143 -189 -332
-405 -154 -176 -307 -356 -340 -400 -223 -295 -545 -990 -841 -1819 l-64 -179
27 -36 c53 -70 269 -284 368 -364 287 -232 652 -415 1040 -522 384 -105 1081
-211 1939 -295 115 -11 212 -23 216 -25 24 -15 161 -388 225 -613 131 -456
174 -882 145 -1454 -23 -452 -82 -1037 -186 -1853 -18 -142 -14 -172 28 -199
25 -16 353 -18 3940 -32 l1577 -6 30 48 c54 84 66 136 65 269 -1 134 -19 215
-78 363 l-35 86 49 52 c27 28 79 97 115 153 37 55 69 101 71 101 3 0 20 -11
37 -24 18 -13 68 -42 112 -64 309 -154 784 -182 1404 -82 68 11 126 19 127 17
9 -9 45 -204 55 -298 14 -125 6 -330 -16 -449 l-17 -85 32 -28 33 -29 126 6
c69 3 401 13 736 22 336 9 611 17 612 18 12 11 24 286 20 436 -14 437 -115
942 -302 1520 l-57 174 15 356 c9 229 12 375 6 412 -11 68 -50 179 -91 262
l-30 59 16 151 c32 303 14 579 -50 759 -84 233 -292 550 -591 899 l-101 119
-6 72 c-3 40 -11 155 -16 257 -22 403 -86 676 -221 940 -131 259 -256 422
-661 867 -87 95 -175 199 -195 230 l-38 57 2 112 c1 71 9 140 22 190 27 110
25 92 87 769 51 556 55 626 50 790 -7 263 -41 432 -125 627 -356 831 -906
1287 -1696 1404 -95 14 -490 27 -565 18z m-4705 -2954 c99 -17 297 -48 440
-69 198 -29 317 -53 500 -101 291 -76 282 -76 320 33 19 55 24 53 50 -17 24
-66 88 -129 148 -145 67 -19 245 -9 319 17 86 31 160 83 213 151 l48 61 17
-27 c9 -16 36 -45 59 -66 l43 -39 -32 -96 c-62 -186 -38 -324 74 -431 112
-105 189 -125 749 -196 415 -52 484 -65 502 -96 11 -17 35 -283 35 -388 l0
-94 -42 6 c-37 5 -128 -22 -678 -202 l-635 -209 -373 -6 c-1006 -17 -1368 -79
-2193 -377 -118 -42 -244 -89 -279 -103 l-63 -26 -301 1 c-166 1 -349 4 -407
8 l-105 6 161 370 c154 352 165 376 251 495 387 539 522 791 549 1025 6 60 6
60 127 190 66 72 163 181 216 243 53 61 98 112 101 112 3 0 87 -14 186 -30z
m6301 -1127 c-3 -16 -11 -59 -17 -98 -6 -40 -34 -124 -64 -195 -38 -91 -151
-405 -160 -447 -1 -1 -23 9 -50 22 -34 18 -65 25 -103 25 l-55 0 6 118 c4 64
10 147 13 184 l7 67 46 7 c143 21 250 111 334 282 33 65 54 82 43 35z"/>
</g>
</svg>
