<?xml version="1.0" standalone="no"?>
<!DOCTYPE svg PUBLIC "-//W3C//DTD SVG 20010904//EN"
 "http://www.w3.org/TR/2001/REC-SVG-20010904/DTD/svg10.dtd">
<svg version="1.0" xmlns="http://www.w3.org/2000/svg"
 width="350.000000pt" height="430.000000pt" viewBox="0 0 350.000000 430.000000"
 preserveAspectRatio="xMidYMid meet">
<metadata>
Created by potrace 1.16, written by Peter Selinger 2001-2019
</metadata>
<g transform="translate(0.000000,430.000000) scale(0.100000,-0.100000)"
fill="#fd7e14" stroke="none">
<path d="M1107 4288 c-21 -17 -959 -1629 -1009 -1736 -22 -46 -51 -127 -66
-180 -24 -89 -26 -113 -26 -287 0 -164 3 -201 22 -268 95 -344 305 -600 616
-752 110 -55 246 -96 358 -110 55 -7 57 -6 71 22 33 63 218 210 352 280 138
71 208 88 375 88 80 0 164 -3 187 -8 42 -7 43 -7 84 45 l41 53 -50 23 c-28 12
-88 32 -133 43 -151 39 -255 9 -409 -117 -47 -38 -105 -79 -129 -91 -112 -58
-262 -6 -323 111 -32 60 -31 155 2 221 31 60 192 195 322 268 249 141 518 151
830 29 66 -25 78 -27 83 -14 3 8 8 63 12 121 10 182 -25 366 -101 526 -48 103
-968 1688 -999 1723 -23 25 -82 30 -110 10z"/>
<path d="M1708 1890 c-132 -23 -251 -76 -378 -171 -123 -92 -160 -130 -170
-172 -22 -99 66 -188 163 -163 13 3 65 39 116 80 107 86 184 129 266 151 149
39 265 11 565 -135 130 -63 262 -120 313 -134 303 -87 530 -37 794 175 105 84
123 109 123 173 0 43 -4 53 -39 87 -35 35 -44 39 -89 39 -47 0 -55 -4 -144
-75 -176 -142 -313 -190 -467 -165 -106 17 -190 49 -381 146 -288 145 -489
195 -672 164z"/>
<path d="M1645 1224 c-125 -30 -338 -158 -447 -269 -74 -74 -43 -196 56 -223
54 -15 85 -2 193 84 264 209 431 211 825 9 182 -92 297 -136 418 -159 256 -49
456 13 713 222 77 62 97 94 97 150 0 79 -76 142 -153 128 -20 -4 -70 -35 -126
-81 -164 -130 -269 -172 -415 -163 -109 7 -237 51 -411 143 -159 83 -295 136
-407 159 -95 20 -262 19 -343 0z"/>
<path d="M1698 580 c-151 -26 -305 -108 -474 -255 -84 -72 -93 -161 -23 -219
69 -58 117 -48 238 49 165 131 270 172 415 162 114 -7 212 -42 426 -149 260
-131 384 -168 564 -168 172 0 301 44 466 161 41 29 101 78 132 109 55 53 58
59 58 104 0 85 -50 136 -133 136 -46 0 -46 1 -187 -110 -137 -107 -265 -148
-408 -130 -104 13 -189 45 -387 145 -99 50 -217 103 -261 118 -153 50 -307 67
-426 47z"/>
</g>
</svg>
