<?xml version="1.0" standalone="no"?>
<!DOCTYPE svg PUBLIC "-//W3C//DTD SVG 20010904//EN"
 "http://www.w3.org/TR/2001/REC-SVG-20010904/DTD/svg10.dtd">
<svg version="1.0" xmlns="http://www.w3.org/2000/svg"
 width="2235.000000pt" height="2235.000000pt" viewBox="0 0 2235.000000 2235.000000"
 preserveAspectRatio="xMidYMid meet">
<metadata>
Created by potrace 1.14, written by Peter Selinger 2001-2017
</metadata>
<g transform="translate(0.000000,2235.000000) scale(0.100000,-0.100000)"
fill="#000000" stroke="none">
<path d="M10960 22227 c-307 -152 -465 -227 -770 -364 -163 -74 -648 -283
-655 -283 -2 0 -28 -11 -57 -24 -56 -26 -421 -173 -523 -211 -33 -13 -109 -42
-170 -65 -304 -117 -1037 -382 -1095 -395 -8 -2 -123 -40 -255 -84 -264 -88
-418 -137 -630 -201 -77 -23 -157 -48 -178 -56 -20 -8 -38 -13 -40 -12 -2 1
-23 -5 -132 -38 -111 -33 -506 -145 -529 -150 -10 -2 -33 -8 -50 -13 -52 -17
-450 -122 -472 -125 -11 -2 -25 -6 -31 -9 -5 -3 -20 -8 -34 -11 -13 -2 -123
-29 -244 -59 -241 -60 -429 -105 -460 -111 -11 -2 -56 -13 -100 -24 -119 -30
-239 -56 -247 -54 -4 1 -18 -2 -32 -7 -13 -6 -43 -13 -67 -16 -24 -4 -47 -9
-51 -11 -8 -5 -25 -9 -78 -19 -14 -2 -70 -14 -125 -26 -55 -12 -120 -25 -145
-30 -25 -4 -76 -15 -115 -24 -38 -8 -86 -18 -105 -21 -19 -3 -51 -9 -70 -14
-19 -5 -51 -11 -70 -14 -19 -3 -44 -8 -55 -10 -42 -9 -231 -45 -265 -51 -19
-3 -60 -10 -90 -16 -30 -6 -66 -12 -80 -15 -14 -2 -36 -7 -50 -10 -13 -3 -40
-8 -60 -10 -32 -4 -225 -37 -275 -47 -11 -3 -47 -8 -80 -13 -33 -4 -62 -8 -65
-9 -7 -2 -90 -16 -120 -20 -40 -5 -163 -24 -185 -29 -11 -2 -45 -7 -76 -10
-31 -4 -67 -9 -80 -11 -13 -3 -45 -7 -70 -10 -25 -3 -54 -7 -65 -9 -10 -2 -48
-7 -84 -11 -36 -4 -72 -8 -80 -10 -8 -1 -48 -6 -87 -10 l-73 -7 -1 -82 c-1
-44 -3 -108 -4 -141 -27 -590 -22 -1790 10 -2445 3 -69 8 -168 10 -220 3 -52
7 -131 10 -175 14 -219 17 -265 21 -325 2 -36 7 -96 9 -135 3 -38 7 -95 10
-125 2 -30 7 -89 10 -130 3 -41 8 -93 10 -115 3 -22 7 -69 10 -105 3 -36 7
-83 10 -105 2 -22 7 -71 10 -110 3 -38 8 -81 10 -95 2 -14 7 -54 10 -90 3 -36
8 -81 10 -100 2 -19 7 -60 10 -90 3 -30 8 -66 10 -80 2 -14 7 -54 11 -90 3
-36 7 -72 9 -80 2 -8 6 -44 10 -80 4 -36 9 -72 10 -81 2 -9 6 -40 10 -70 3
-30 8 -65 11 -79 2 -14 7 -45 9 -70 3 -25 7 -56 9 -70 13 -94 17 -118 21 -140
2 -14 7 -45 10 -70 3 -25 15 -97 25 -160 10 -63 22 -133 25 -155 3 -23 8 -52
10 -65 3 -14 7 -41 10 -60 3 -19 7 -46 10 -60 3 -14 12 -65 20 -115 23 -130
72 -390 101 -535 14 -69 28 -136 30 -150 3 -14 12 -54 20 -90 8 -36 17 -81 20
-100 3 -19 8 -38 10 -41 2 -3 6 -21 9 -40 3 -19 10 -50 15 -69 5 -19 11 -46
14 -60 3 -14 12 -56 21 -95 9 -38 18 -81 21 -93 2 -13 21 -87 40 -165 19 -78
37 -149 39 -157 15 -68 74 -292 107 -410 22 -80 41 -149 42 -155 38 -160 354
-1166 412 -1311 5 -12 -11 -20 -176 -90 -109 -46 -345 -170 -458 -241 -384
-239 -659 -513 -784 -780 -22 -47 -38 -93 -35 -104 3 -12 1 -17 -6 -12 -6 4
-8 -2 -5 -15 4 -12 3 -24 -1 -26 -4 -3 -8 -40 -9 -83 -3 -78 10 -145 72 -388
15 -55 28 -109 31 -120 2 -11 23 -94 45 -185 23 -91 43 -172 45 -180 2 -8 74
-294 160 -635 86 -341 158 -627 160 -635 12 -52 58 -234 71 -280 8 -30 17 -62
19 -70 5 -22 59 -237 94 -373 16 -65 40 -134 52 -155 135 -223 380 -373 754
-462 66 -15 139 -31 162 -34 22 -3 52 -8 65 -11 24 -5 67 -10 213 -22 176 -15
556 -9 700 12 17 2 55 7 85 10 30 4 58 9 61 11 4 2 22 6 40 8 19 3 67 12 106
20 40 9 85 18 100 21 16 2 44 10 63 15 19 6 46 13 60 16 54 10 445 134 510
162 19 9 40 17 45 18 6 2 33 12 62 23 l52 20 38 -52 c21 -29 41 -56 45 -62 5
-5 74 -98 154 -205 81 -107 218 -284 306 -393 168 -209 172 -214 239 -292 24
-27 50 -59 58 -69 21 -25 97 -114 130 -151 145 -164 187 -212 196 -221 5 -6
53 -57 105 -114 315 -343 734 -756 1065 -1051 27 -24 59 -52 70 -62 74 -68
374 -322 495 -420 80 -65 152 -123 160 -130 8 -7 58 -45 110 -85 52 -40 102
-79 110 -85 19 -16 195 -146 285 -212 431 -315 1020 -689 1450 -920 39 -21 88
-48 111 -61 139 -79 560 -280 749 -359 50 -21 109 -46 132 -56 24 -11 52 -19
63 -19 47 0 442 175 759 335 441 224 807 439 1261 741 151 100 298 199 325
219 28 19 61 43 75 52 14 10 41 29 60 43 94 70 130 96 150 110 12 8 28 20 34
25 6 6 47 37 91 69 89 67 386 298 407 318 7 7 45 38 83 69 87 69 345 290 456
390 331 297 464 425 779 746 172 175 248 255 430 453 8 9 46 52 84 96 39 43
75 84 80 89 6 6 36 39 66 75 30 36 57 67 60 70 6 6 107 125 131 155 10 11 41
49 71 85 240 288 634 808 812 1073 l60 87 50 0 c122 2 479 24 556 35 14 2 54
6 90 10 80 7 115 12 265 35 107 17 129 20 145 25 8 2 35 7 60 10 25 3 61 10
80 15 19 5 46 11 60 13 14 3 45 10 70 17 25 7 52 13 60 15 110 22 362 106 519
171 405 170 729 427 865 688 16 30 33 53 37 50 9 -5 14 14 54 186 31 136 193
782 265 1060 28 107 66 254 85 325 18 72 52 202 75 290 23 88 62 239 87 335
25 96 53 207 63 245 10 39 23 83 29 99 9 23 29 107 56 235 2 9 20 72 40 141
51 173 55 206 36 307 -31 159 -166 356 -341 496 -122 98 -385 243 -495 273 -5
1 -43 14 -83 29 -40 14 -103 33 -140 41 -88 21 -83 20 -114 28 l-26 8 18 56
c38 118 129 435 145 502 2 8 13 51 25 95 32 118 101 386 106 415 3 14 11 48
18 75 12 43 49 195 61 251 2 11 13 62 25 114 12 52 24 106 26 120 3 14 7 32 9
40 2 8 7 31 10 50 3 19 8 43 11 52 5 17 11 45 20 88 55 274 98 494 108 550 4
25 16 89 22 125 2 11 9 47 14 80 5 33 12 69 14 80 3 18 9 49 22 133 2 12 8 48
13 80 6 31 13 75 16 97 3 22 10 65 15 95 5 30 12 75 15 100 3 25 8 52 10 60 2
8 7 44 10 80 4 36 8 67 10 70 1 3 6 30 9 61 4 31 8 65 10 75 2 11 7 44 10 75
4 31 8 65 10 75 2 11 7 48 10 84 4 36 9 76 11 90 5 26 10 69 20 155 3 28 7 64
9 80 2 17 7 59 10 95 4 36 9 81 11 100 4 37 12 107 20 190 3 28 7 71 10 98 5
48 9 99 20 232 3 41 7 95 10 120 2 25 7 81 10 125 3 44 7 101 9 125 16 168 37
544 51 880 3 96 8 209 10 250 8 152 18 764 17 1060 0 516 -18 1289 -30 1302
-4 3 -36 9 -72 13 -36 3 -76 8 -90 10 -24 5 -78 12 -150 20 -19 2 -52 6 -72 9
-21 3 -55 8 -75 11 -21 3 -51 8 -68 10 -65 11 -85 14 -141 21 -33 4 -61 9 -64
9 -3 1 -27 5 -55 9 -27 4 -72 11 -100 16 -27 5 -68 12 -90 15 -22 3 -66 10
-98 16 -32 5 -72 12 -90 14 -18 3 -41 7 -52 9 -30 6 -186 34 -220 40 -78 12
-278 49 -345 63 -41 8 -85 17 -97 19 -53 9 -73 13 -168 33 -55 11 -111 22
-125 25 -14 2 -133 27 -265 55 -132 28 -249 53 -260 55 -57 12 -406 92 -610
141 -60 15 -118 28 -127 30 -27 6 -412 103 -558 142 -74 19 -142 37 -150 39
-19 4 -70 18 -140 37 -30 9 -104 29 -165 46 -60 16 -180 50 -265 75 -85 24
-211 61 -280 81 -159 45 -375 112 -810 250 -343 109 -1323 454 -1475 519 -32
14 -326 129 -335 131 -3 1 -16 6 -30 12 -14 6 -83 34 -155 63 -117 47 -465
192 -540 225 -16 7 -106 47 -200 88 -351 155 -652 296 -983 461 -95 47 -176
86 -180 85 -4 0 -108 -51 -232 -112z"/>
</g>
</svg>
